G04 #@! TF.GenerationSoftware,KiCad,Pcbnew,5.0.1*
G04 #@! TF.CreationDate,2018-10-22T16:16:30+01:00*
G04 #@! TF.ProjectId,quiz-sch,7175697A2D7363682E6B696361645F70,rev?*
G04 #@! TF.SameCoordinates,Original*
G04 #@! TF.FileFunction,Legend,Top*
G04 #@! TF.FilePolarity,Positive*
%FSLAX46Y46*%
G04 Gerber Fmt 4.6, Leading zero omitted, Abs format (unit mm)*
G04 Created by KiCad (PCBNEW 5.0.1) date Mon 22 Oct 2018 16:16:30 BST*
%MOMM*%
%LPD*%
G01*
G04 APERTURE LIST*
%ADD10C,0.100000*%
%ADD11C,0.300000*%
%ADD12C,0.175000*%
%ADD13C,0.150000*%
%ADD14C,0.120000*%
%ADD15C,0.010000*%
G04 APERTURE END LIST*
D10*
X78666666Y-108533333D02*
X78766666Y-108566666D01*
X78933333Y-108566666D01*
X79000000Y-108533333D01*
X79033333Y-108500000D01*
X79066666Y-108433333D01*
X79066666Y-108366666D01*
X79033333Y-108300000D01*
X79000000Y-108266666D01*
X78933333Y-108233333D01*
X78800000Y-108200000D01*
X78733333Y-108166666D01*
X78700000Y-108133333D01*
X78666666Y-108066666D01*
X78666666Y-108000000D01*
X78700000Y-107933333D01*
X78733333Y-107900000D01*
X78800000Y-107866666D01*
X78966666Y-107866666D01*
X79066666Y-107900000D01*
X79766666Y-108500000D02*
X79733333Y-108533333D01*
X79633333Y-108566666D01*
X79566666Y-108566666D01*
X79466666Y-108533333D01*
X79400000Y-108466666D01*
X79366666Y-108400000D01*
X79333333Y-108266666D01*
X79333333Y-108166666D01*
X79366666Y-108033333D01*
X79400000Y-107966666D01*
X79466666Y-107900000D01*
X79566666Y-107866666D01*
X79633333Y-107866666D01*
X79733333Y-107900000D01*
X79766666Y-107933333D01*
X80400000Y-108566666D02*
X80066666Y-108566666D01*
X80066666Y-107866666D01*
X78650000Y-106033333D02*
X78750000Y-106066666D01*
X78916666Y-106066666D01*
X78983333Y-106033333D01*
X79016666Y-106000000D01*
X79050000Y-105933333D01*
X79050000Y-105866666D01*
X79016666Y-105800000D01*
X78983333Y-105766666D01*
X78916666Y-105733333D01*
X78783333Y-105700000D01*
X78716666Y-105666666D01*
X78683333Y-105633333D01*
X78650000Y-105566666D01*
X78650000Y-105500000D01*
X78683333Y-105433333D01*
X78716666Y-105400000D01*
X78783333Y-105366666D01*
X78950000Y-105366666D01*
X79050000Y-105400000D01*
X79350000Y-106066666D02*
X79350000Y-105366666D01*
X79516666Y-105366666D01*
X79616666Y-105400000D01*
X79683333Y-105466666D01*
X79716666Y-105533333D01*
X79750000Y-105666666D01*
X79750000Y-105766666D01*
X79716666Y-105900000D01*
X79683333Y-105966666D01*
X79616666Y-106033333D01*
X79516666Y-106066666D01*
X79350000Y-106066666D01*
X80016666Y-105866666D02*
X80350000Y-105866666D01*
X79950000Y-106066666D02*
X80183333Y-105366666D01*
X80416666Y-106066666D01*
X69516666Y-69316666D02*
X69516666Y-68616666D01*
X69916666Y-69316666D01*
X69916666Y-68616666D01*
X70383333Y-68616666D02*
X70516666Y-68616666D01*
X70583333Y-68650000D01*
X70650000Y-68716666D01*
X70683333Y-68850000D01*
X70683333Y-69083333D01*
X70650000Y-69216666D01*
X70583333Y-69283333D01*
X70516666Y-69316666D01*
X70383333Y-69316666D01*
X70316666Y-69283333D01*
X70250000Y-69216666D01*
X70216666Y-69083333D01*
X70216666Y-68850000D01*
X70250000Y-68716666D01*
X70316666Y-68650000D01*
X70383333Y-68616666D01*
X70983333Y-69316666D02*
X70983333Y-68616666D01*
X71383333Y-69316666D02*
X71083333Y-68916666D01*
X71383333Y-68616666D02*
X70983333Y-69016666D01*
X71683333Y-69316666D02*
X71683333Y-68616666D01*
X71983333Y-69116666D02*
X72316666Y-69116666D01*
X71916666Y-69316666D02*
X72150000Y-68616666D01*
X72383333Y-69316666D01*
X73483333Y-68616666D02*
X73150000Y-68616666D01*
X73116666Y-68950000D01*
X73150000Y-68916666D01*
X73216666Y-68883333D01*
X73383333Y-68883333D01*
X73450000Y-68916666D01*
X73483333Y-68950000D01*
X73516666Y-69016666D01*
X73516666Y-69183333D01*
X73483333Y-69250000D01*
X73450000Y-69283333D01*
X73383333Y-69316666D01*
X73216666Y-69316666D01*
X73150000Y-69283333D01*
X73116666Y-69250000D01*
X74150000Y-68616666D02*
X73816666Y-68616666D01*
X73783333Y-68950000D01*
X73816666Y-68916666D01*
X73883333Y-68883333D01*
X74050000Y-68883333D01*
X74116666Y-68916666D01*
X74150000Y-68950000D01*
X74183333Y-69016666D01*
X74183333Y-69183333D01*
X74150000Y-69250000D01*
X74116666Y-69283333D01*
X74050000Y-69316666D01*
X73883333Y-69316666D01*
X73816666Y-69283333D01*
X73783333Y-69250000D01*
X74850000Y-69316666D02*
X74450000Y-69316666D01*
X74650000Y-69316666D02*
X74650000Y-68616666D01*
X74583333Y-68716666D01*
X74516666Y-68783333D01*
X74450000Y-68816666D01*
X75283333Y-68616666D02*
X75350000Y-68616666D01*
X75416666Y-68650000D01*
X75450000Y-68683333D01*
X75483333Y-68750000D01*
X75516666Y-68883333D01*
X75516666Y-69050000D01*
X75483333Y-69183333D01*
X75450000Y-69250000D01*
X75416666Y-69283333D01*
X75350000Y-69316666D01*
X75283333Y-69316666D01*
X75216666Y-69283333D01*
X75183333Y-69250000D01*
X75150000Y-69183333D01*
X75116666Y-69050000D01*
X75116666Y-68883333D01*
X75150000Y-68750000D01*
X75183333Y-68683333D01*
X75216666Y-68650000D01*
X75283333Y-68616666D01*
X76683333Y-69316666D02*
X76350000Y-69316666D01*
X76350000Y-68616666D01*
X77316666Y-69250000D02*
X77283333Y-69283333D01*
X77183333Y-69316666D01*
X77116666Y-69316666D01*
X77016666Y-69283333D01*
X76950000Y-69216666D01*
X76916666Y-69150000D01*
X76883333Y-69016666D01*
X76883333Y-68916666D01*
X76916666Y-68783333D01*
X76950000Y-68716666D01*
X77016666Y-68650000D01*
X77116666Y-68616666D01*
X77183333Y-68616666D01*
X77283333Y-68650000D01*
X77316666Y-68683333D01*
X77616666Y-69316666D02*
X77616666Y-68616666D01*
X77783333Y-68616666D01*
X77883333Y-68650000D01*
X77950000Y-68716666D01*
X77983333Y-68783333D01*
X78016666Y-68916666D01*
X78016666Y-69016666D01*
X77983333Y-69150000D01*
X77950000Y-69216666D01*
X77883333Y-69283333D01*
X77783333Y-69316666D01*
X77616666Y-69316666D01*
D11*
X51642857Y-144928571D02*
X51642857Y-146428571D01*
X52357142Y-145714285D02*
X52428571Y-145857142D01*
X52571428Y-145928571D01*
X51642857Y-145714285D02*
X51714285Y-145857142D01*
X51857142Y-145928571D01*
X52142857Y-145928571D01*
X52285714Y-145857142D01*
X52357142Y-145714285D01*
X52357142Y-144928571D01*
X54214285Y-146071428D02*
X54071428Y-146000000D01*
X53928571Y-145857142D01*
X53714285Y-145642857D01*
X53571428Y-145571428D01*
X53428571Y-145571428D01*
X53500000Y-145928571D02*
X53357142Y-145857142D01*
X53214285Y-145714285D01*
X53142857Y-145428571D01*
X53142857Y-144928571D01*
X53214285Y-144642857D01*
X53357142Y-144500000D01*
X53500000Y-144428571D01*
X53785714Y-144428571D01*
X53928571Y-144500000D01*
X54071428Y-144642857D01*
X54142857Y-144928571D01*
X54142857Y-145428571D01*
X54071428Y-145714285D01*
X53928571Y-145857142D01*
X53785714Y-145928571D01*
X53500000Y-145928571D01*
X55428571Y-144928571D02*
X55428571Y-145928571D01*
X54785714Y-144928571D02*
X54785714Y-145714285D01*
X54857142Y-145857142D01*
X55000000Y-145928571D01*
X55214285Y-145928571D01*
X55357142Y-145857142D01*
X55428571Y-145785714D01*
X56142857Y-145928571D02*
X56142857Y-144928571D01*
X56142857Y-144428571D02*
X56071428Y-144500000D01*
X56142857Y-144571428D01*
X56214285Y-144500000D01*
X56142857Y-144428571D01*
X56142857Y-144571428D01*
X56714285Y-144928571D02*
X57500000Y-144928571D01*
X56714285Y-145928571D01*
X57500000Y-145928571D01*
D12*
X82066666Y-51116666D02*
X82400000Y-51116666D01*
X82000000Y-51316666D02*
X82233333Y-50616666D01*
X82466666Y-51316666D01*
X82600000Y-50616666D02*
X82833333Y-51316666D01*
X83066666Y-50616666D01*
X83700000Y-51316666D02*
X83466666Y-50983333D01*
X83300000Y-51316666D02*
X83300000Y-50616666D01*
X83566666Y-50616666D01*
X83633333Y-50650000D01*
X83666666Y-50683333D01*
X83700000Y-50750000D01*
X83700000Y-50850000D01*
X83666666Y-50916666D01*
X83633333Y-50950000D01*
X83566666Y-50983333D01*
X83300000Y-50983333D01*
X84533333Y-51316666D02*
X84533333Y-50616666D01*
X84833333Y-51283333D02*
X84933333Y-51316666D01*
X85100000Y-51316666D01*
X85166666Y-51283333D01*
X85200000Y-51250000D01*
X85233333Y-51183333D01*
X85233333Y-51116666D01*
X85200000Y-51050000D01*
X85166666Y-51016666D01*
X85100000Y-50983333D01*
X84966666Y-50950000D01*
X84900000Y-50916666D01*
X84866666Y-50883333D01*
X84833333Y-50816666D01*
X84833333Y-50750000D01*
X84866666Y-50683333D01*
X84900000Y-50650000D01*
X84966666Y-50616666D01*
X85133333Y-50616666D01*
X85233333Y-50650000D01*
X85533333Y-51316666D02*
X85533333Y-50616666D01*
X85800000Y-50616666D01*
X85866666Y-50650000D01*
X85900000Y-50683333D01*
X85933333Y-50750000D01*
X85933333Y-50850000D01*
X85900000Y-50916666D01*
X85866666Y-50950000D01*
X85800000Y-50983333D01*
X85533333Y-50983333D01*
X74266666Y-63783333D02*
X74366666Y-63816666D01*
X74533333Y-63816666D01*
X74600000Y-63783333D01*
X74633333Y-63750000D01*
X74666666Y-63683333D01*
X74666666Y-63616666D01*
X74633333Y-63550000D01*
X74600000Y-63516666D01*
X74533333Y-63483333D01*
X74400000Y-63450000D01*
X74333333Y-63416666D01*
X74300000Y-63383333D01*
X74266666Y-63316666D01*
X74266666Y-63250000D01*
X74300000Y-63183333D01*
X74333333Y-63150000D01*
X74400000Y-63116666D01*
X74566666Y-63116666D01*
X74666666Y-63150000D01*
X74866666Y-63116666D02*
X75266666Y-63116666D01*
X75066666Y-63816666D02*
X75066666Y-63116666D01*
X75466666Y-63616666D02*
X75800000Y-63616666D01*
X75400000Y-63816666D02*
X75633333Y-63116666D01*
X75866666Y-63816666D01*
X76000000Y-63116666D02*
X76400000Y-63116666D01*
X76200000Y-63816666D02*
X76200000Y-63116666D01*
X76633333Y-63116666D02*
X76633333Y-63683333D01*
X76666666Y-63750000D01*
X76700000Y-63783333D01*
X76766666Y-63816666D01*
X76900000Y-63816666D01*
X76966666Y-63783333D01*
X77000000Y-63750000D01*
X77033333Y-63683333D01*
X77033333Y-63116666D01*
X77333333Y-63783333D02*
X77433333Y-63816666D01*
X77600000Y-63816666D01*
X77666666Y-63783333D01*
X77700000Y-63750000D01*
X77733333Y-63683333D01*
X77733333Y-63616666D01*
X77700000Y-63550000D01*
X77666666Y-63516666D01*
X77600000Y-63483333D01*
X77466666Y-63450000D01*
X77400000Y-63416666D01*
X77366666Y-63383333D01*
X77333333Y-63316666D01*
X77333333Y-63250000D01*
X77366666Y-63183333D01*
X77400000Y-63150000D01*
X77466666Y-63116666D01*
X77633333Y-63116666D01*
X77733333Y-63150000D01*
X79766666Y-148816666D02*
X79766666Y-148116666D01*
X80066666Y-148816666D02*
X80066666Y-148450000D01*
X80033333Y-148383333D01*
X79966666Y-148350000D01*
X79866666Y-148350000D01*
X79800000Y-148383333D01*
X79766666Y-148416666D01*
X80300000Y-148350000D02*
X80566666Y-148350000D01*
X80400000Y-148116666D02*
X80400000Y-148716666D01*
X80433333Y-148783333D01*
X80500000Y-148816666D01*
X80566666Y-148816666D01*
X80700000Y-148350000D02*
X80966666Y-148350000D01*
X80800000Y-148116666D02*
X80800000Y-148716666D01*
X80833333Y-148783333D01*
X80900000Y-148816666D01*
X80966666Y-148816666D01*
X81200000Y-148350000D02*
X81200000Y-149050000D01*
X81200000Y-148383333D02*
X81266666Y-148350000D01*
X81400000Y-148350000D01*
X81466666Y-148383333D01*
X81500000Y-148416666D01*
X81533333Y-148483333D01*
X81533333Y-148683333D01*
X81500000Y-148750000D01*
X81466666Y-148783333D01*
X81400000Y-148816666D01*
X81266666Y-148816666D01*
X81200000Y-148783333D01*
X81800000Y-148783333D02*
X81866666Y-148816666D01*
X82000000Y-148816666D01*
X82066666Y-148783333D01*
X82100000Y-148716666D01*
X82100000Y-148683333D01*
X82066666Y-148616666D01*
X82000000Y-148583333D01*
X81900000Y-148583333D01*
X81833333Y-148550000D01*
X81800000Y-148483333D01*
X81800000Y-148450000D01*
X81833333Y-148383333D01*
X81900000Y-148350000D01*
X82000000Y-148350000D01*
X82066666Y-148383333D01*
X82400000Y-148750000D02*
X82433333Y-148783333D01*
X82400000Y-148816666D01*
X82366666Y-148783333D01*
X82400000Y-148750000D01*
X82400000Y-148816666D01*
X82400000Y-148383333D02*
X82433333Y-148416666D01*
X82400000Y-148450000D01*
X82366666Y-148416666D01*
X82400000Y-148383333D01*
X82400000Y-148450000D01*
X83233333Y-148083333D02*
X82633333Y-148983333D01*
X83966666Y-148083333D02*
X83366666Y-148983333D01*
X84500000Y-148816666D02*
X84500000Y-148450000D01*
X84466666Y-148383333D01*
X84400000Y-148350000D01*
X84266666Y-148350000D01*
X84200000Y-148383333D01*
X84500000Y-148783333D02*
X84433333Y-148816666D01*
X84266666Y-148816666D01*
X84200000Y-148783333D01*
X84166666Y-148716666D01*
X84166666Y-148650000D01*
X84200000Y-148583333D01*
X84266666Y-148550000D01*
X84433333Y-148550000D01*
X84500000Y-148516666D01*
X84833333Y-148816666D02*
X84833333Y-148350000D01*
X84833333Y-148483333D02*
X84866666Y-148416666D01*
X84900000Y-148383333D01*
X84966666Y-148350000D01*
X85033333Y-148350000D01*
X85566666Y-148350000D02*
X85566666Y-148916666D01*
X85533333Y-148983333D01*
X85500000Y-149016666D01*
X85433333Y-149050000D01*
X85333333Y-149050000D01*
X85266666Y-149016666D01*
X85566666Y-148783333D02*
X85500000Y-148816666D01*
X85366666Y-148816666D01*
X85300000Y-148783333D01*
X85266666Y-148750000D01*
X85233333Y-148683333D01*
X85233333Y-148483333D01*
X85266666Y-148416666D01*
X85300000Y-148383333D01*
X85366666Y-148350000D01*
X85500000Y-148350000D01*
X85566666Y-148383333D01*
X86200000Y-148816666D02*
X86200000Y-148450000D01*
X86166666Y-148383333D01*
X86100000Y-148350000D01*
X85966666Y-148350000D01*
X85900000Y-148383333D01*
X86200000Y-148783333D02*
X86133333Y-148816666D01*
X85966666Y-148816666D01*
X85900000Y-148783333D01*
X85866666Y-148716666D01*
X85866666Y-148650000D01*
X85900000Y-148583333D01*
X85966666Y-148550000D01*
X86133333Y-148550000D01*
X86200000Y-148516666D01*
X86533333Y-148816666D02*
X86533333Y-148350000D01*
X86533333Y-148483333D02*
X86566666Y-148416666D01*
X86600000Y-148383333D01*
X86666666Y-148350000D01*
X86733333Y-148350000D01*
X87266666Y-148816666D02*
X87266666Y-148450000D01*
X87233333Y-148383333D01*
X87166666Y-148350000D01*
X87033333Y-148350000D01*
X86966666Y-148383333D01*
X87266666Y-148783333D02*
X87200000Y-148816666D01*
X87033333Y-148816666D01*
X86966666Y-148783333D01*
X86933333Y-148716666D01*
X86933333Y-148650000D01*
X86966666Y-148583333D01*
X87033333Y-148550000D01*
X87200000Y-148550000D01*
X87266666Y-148516666D01*
X87600000Y-148816666D02*
X87600000Y-148116666D01*
X87666666Y-148550000D02*
X87866666Y-148816666D01*
X87866666Y-148350000D02*
X87600000Y-148616666D01*
X88166666Y-148750000D02*
X88200000Y-148783333D01*
X88166666Y-148816666D01*
X88133333Y-148783333D01*
X88166666Y-148750000D01*
X88166666Y-148816666D01*
X88500000Y-148816666D02*
X88500000Y-148350000D01*
X88500000Y-148416666D02*
X88533333Y-148383333D01*
X88600000Y-148350000D01*
X88700000Y-148350000D01*
X88766666Y-148383333D01*
X88800000Y-148450000D01*
X88800000Y-148816666D01*
X88800000Y-148450000D02*
X88833333Y-148383333D01*
X88900000Y-148350000D01*
X89000000Y-148350000D01*
X89066666Y-148383333D01*
X89100000Y-148450000D01*
X89100000Y-148816666D01*
X89700000Y-148783333D02*
X89633333Y-148816666D01*
X89500000Y-148816666D01*
X89433333Y-148783333D01*
X89400000Y-148716666D01*
X89400000Y-148450000D01*
X89433333Y-148383333D01*
X89500000Y-148350000D01*
X89633333Y-148350000D01*
X89700000Y-148383333D01*
X89733333Y-148450000D01*
X89733333Y-148516666D01*
X89400000Y-148583333D01*
X90533333Y-148083333D02*
X89933333Y-148983333D01*
X91066666Y-148350000D02*
X91066666Y-148816666D01*
X90766666Y-148350000D02*
X90766666Y-148716666D01*
X90800000Y-148783333D01*
X90866666Y-148816666D01*
X90966666Y-148816666D01*
X91033333Y-148783333D01*
X91066666Y-148750000D01*
X91700000Y-148350000D02*
X91700000Y-149050000D01*
X91700000Y-148783333D02*
X91633333Y-148816666D01*
X91500000Y-148816666D01*
X91433333Y-148783333D01*
X91400000Y-148750000D01*
X91366666Y-148683333D01*
X91366666Y-148483333D01*
X91400000Y-148416666D01*
X91433333Y-148383333D01*
X91500000Y-148350000D01*
X91633333Y-148350000D01*
X91700000Y-148383333D01*
X92333333Y-148350000D02*
X92333333Y-148816666D01*
X92033333Y-148350000D02*
X92033333Y-148716666D01*
X92066666Y-148783333D01*
X92133333Y-148816666D01*
X92233333Y-148816666D01*
X92300000Y-148783333D01*
X92333333Y-148750000D01*
X92666666Y-148816666D02*
X92666666Y-148350000D01*
X92666666Y-148116666D02*
X92633333Y-148150000D01*
X92666666Y-148183333D01*
X92700000Y-148150000D01*
X92666666Y-148116666D01*
X92666666Y-148183333D01*
X92933333Y-148350000D02*
X93300000Y-148350000D01*
X92933333Y-148816666D01*
X93300000Y-148816666D01*
D10*
X51566666Y-148616666D02*
X51900000Y-148616666D01*
X51500000Y-148816666D02*
X51733333Y-148116666D01*
X51966666Y-148816666D01*
X52200000Y-148816666D02*
X52200000Y-148116666D01*
X52200000Y-148450000D02*
X52600000Y-148450000D01*
X52600000Y-148816666D02*
X52600000Y-148116666D01*
X53866666Y-148750000D02*
X53833333Y-148783333D01*
X53733333Y-148816666D01*
X53666666Y-148816666D01*
X53566666Y-148783333D01*
X53500000Y-148716666D01*
X53466666Y-148650000D01*
X53433333Y-148516666D01*
X53433333Y-148416666D01*
X53466666Y-148283333D01*
X53500000Y-148216666D01*
X53566666Y-148150000D01*
X53666666Y-148116666D01*
X53733333Y-148116666D01*
X53833333Y-148150000D01*
X53866666Y-148183333D01*
X54266666Y-148816666D02*
X54200000Y-148783333D01*
X54166666Y-148750000D01*
X54133333Y-148683333D01*
X54133333Y-148483333D01*
X54166666Y-148416666D01*
X54200000Y-148383333D01*
X54266666Y-148350000D01*
X54366666Y-148350000D01*
X54433333Y-148383333D01*
X54466666Y-148416666D01*
X54500000Y-148483333D01*
X54500000Y-148683333D01*
X54466666Y-148750000D01*
X54433333Y-148783333D01*
X54366666Y-148816666D01*
X54266666Y-148816666D01*
X54800000Y-148816666D02*
X54800000Y-148350000D01*
X54800000Y-148416666D02*
X54833333Y-148383333D01*
X54900000Y-148350000D01*
X55000000Y-148350000D01*
X55066666Y-148383333D01*
X55100000Y-148450000D01*
X55100000Y-148816666D01*
X55100000Y-148450000D02*
X55133333Y-148383333D01*
X55200000Y-148350000D01*
X55300000Y-148350000D01*
X55366666Y-148383333D01*
X55400000Y-148450000D01*
X55400000Y-148816666D01*
X55733333Y-148350000D02*
X55733333Y-149050000D01*
X55733333Y-148383333D02*
X55800000Y-148350000D01*
X55933333Y-148350000D01*
X56000000Y-148383333D01*
X56033333Y-148416666D01*
X56066666Y-148483333D01*
X56066666Y-148683333D01*
X56033333Y-148750000D01*
X56000000Y-148783333D01*
X55933333Y-148816666D01*
X55800000Y-148816666D01*
X55733333Y-148783333D01*
X56666666Y-148350000D02*
X56666666Y-148816666D01*
X56366666Y-148350000D02*
X56366666Y-148716666D01*
X56400000Y-148783333D01*
X56466666Y-148816666D01*
X56566666Y-148816666D01*
X56633333Y-148783333D01*
X56666666Y-148750000D01*
X56900000Y-148350000D02*
X57166666Y-148350000D01*
X57000000Y-148116666D02*
X57000000Y-148716666D01*
X57033333Y-148783333D01*
X57100000Y-148816666D01*
X57166666Y-148816666D01*
X57400000Y-148816666D02*
X57400000Y-148350000D01*
X57400000Y-148116666D02*
X57366666Y-148150000D01*
X57400000Y-148183333D01*
X57433333Y-148150000D01*
X57400000Y-148116666D01*
X57400000Y-148183333D01*
X57733333Y-148350000D02*
X57733333Y-148816666D01*
X57733333Y-148416666D02*
X57766666Y-148383333D01*
X57833333Y-148350000D01*
X57933333Y-148350000D01*
X58000000Y-148383333D01*
X58033333Y-148450000D01*
X58033333Y-148816666D01*
X58666666Y-148350000D02*
X58666666Y-148916666D01*
X58633333Y-148983333D01*
X58600000Y-149016666D01*
X58533333Y-149050000D01*
X58433333Y-149050000D01*
X58366666Y-149016666D01*
X58666666Y-148783333D02*
X58600000Y-148816666D01*
X58466666Y-148816666D01*
X58400000Y-148783333D01*
X58366666Y-148750000D01*
X58333333Y-148683333D01*
X58333333Y-148483333D01*
X58366666Y-148416666D01*
X58400000Y-148383333D01*
X58466666Y-148350000D01*
X58600000Y-148350000D01*
X58666666Y-148383333D01*
X59533333Y-148816666D02*
X59533333Y-148116666D01*
X59800000Y-148116666D01*
X59866666Y-148150000D01*
X59900000Y-148183333D01*
X59933333Y-148250000D01*
X59933333Y-148350000D01*
X59900000Y-148416666D01*
X59866666Y-148450000D01*
X59800000Y-148483333D01*
X59533333Y-148483333D01*
X60233333Y-148816666D02*
X60233333Y-148350000D01*
X60233333Y-148483333D02*
X60266666Y-148416666D01*
X60300000Y-148383333D01*
X60366666Y-148350000D01*
X60433333Y-148350000D01*
X60766666Y-148816666D02*
X60700000Y-148783333D01*
X60666666Y-148750000D01*
X60633333Y-148683333D01*
X60633333Y-148483333D01*
X60666666Y-148416666D01*
X60700000Y-148383333D01*
X60766666Y-148350000D01*
X60866666Y-148350000D01*
X60933333Y-148383333D01*
X60966666Y-148416666D01*
X61000000Y-148483333D01*
X61000000Y-148683333D01*
X60966666Y-148750000D01*
X60933333Y-148783333D01*
X60866666Y-148816666D01*
X60766666Y-148816666D01*
X61300000Y-148350000D02*
X61300000Y-148950000D01*
X61266666Y-149016666D01*
X61200000Y-149050000D01*
X61166666Y-149050000D01*
X61300000Y-148116666D02*
X61266666Y-148150000D01*
X61300000Y-148183333D01*
X61333333Y-148150000D01*
X61300000Y-148116666D01*
X61300000Y-148183333D01*
X61900000Y-148783333D02*
X61833333Y-148816666D01*
X61700000Y-148816666D01*
X61633333Y-148783333D01*
X61600000Y-148716666D01*
X61600000Y-148450000D01*
X61633333Y-148383333D01*
X61700000Y-148350000D01*
X61833333Y-148350000D01*
X61900000Y-148383333D01*
X61933333Y-148450000D01*
X61933333Y-148516666D01*
X61600000Y-148583333D01*
X62533333Y-148783333D02*
X62466666Y-148816666D01*
X62333333Y-148816666D01*
X62266666Y-148783333D01*
X62233333Y-148750000D01*
X62200000Y-148683333D01*
X62200000Y-148483333D01*
X62233333Y-148416666D01*
X62266666Y-148383333D01*
X62333333Y-148350000D01*
X62466666Y-148350000D01*
X62533333Y-148383333D01*
X62733333Y-148350000D02*
X63000000Y-148350000D01*
X62833333Y-148116666D02*
X62833333Y-148716666D01*
X62866666Y-148783333D01*
X62933333Y-148816666D01*
X63000000Y-148816666D01*
X51900000Y-146866666D02*
X51900000Y-147366666D01*
X51866666Y-147466666D01*
X51800000Y-147533333D01*
X51700000Y-147566666D01*
X51633333Y-147566666D01*
X52533333Y-147566666D02*
X52533333Y-147200000D01*
X52500000Y-147133333D01*
X52433333Y-147100000D01*
X52300000Y-147100000D01*
X52233333Y-147133333D01*
X52533333Y-147533333D02*
X52466666Y-147566666D01*
X52300000Y-147566666D01*
X52233333Y-147533333D01*
X52200000Y-147466666D01*
X52200000Y-147400000D01*
X52233333Y-147333333D01*
X52300000Y-147300000D01*
X52466666Y-147300000D01*
X52533333Y-147266666D01*
X52866666Y-147566666D02*
X52866666Y-146866666D01*
X52933333Y-147300000D02*
X53133333Y-147566666D01*
X53133333Y-147100000D02*
X52866666Y-147366666D01*
X53733333Y-147100000D02*
X53733333Y-147566666D01*
X53433333Y-147100000D02*
X53433333Y-147466666D01*
X53466666Y-147533333D01*
X53533333Y-147566666D01*
X53633333Y-147566666D01*
X53700000Y-147533333D01*
X53733333Y-147500000D01*
X54066666Y-147566666D02*
X54066666Y-146866666D01*
X54066666Y-147133333D02*
X54133333Y-147100000D01*
X54266666Y-147100000D01*
X54333333Y-147133333D01*
X54366666Y-147166666D01*
X54400000Y-147233333D01*
X54400000Y-147433333D01*
X54366666Y-147500000D01*
X54333333Y-147533333D01*
X54266666Y-147566666D01*
X54133333Y-147566666D01*
X54066666Y-147533333D01*
X55233333Y-147566666D02*
X55233333Y-146866666D01*
X55633333Y-147566666D02*
X55333333Y-147166666D01*
X55633333Y-146866666D02*
X55233333Y-147266666D01*
X56233333Y-147100000D02*
X56233333Y-147566666D01*
X55933333Y-147100000D02*
X55933333Y-147466666D01*
X55966666Y-147533333D01*
X56033333Y-147566666D01*
X56133333Y-147566666D01*
X56200000Y-147533333D01*
X56233333Y-147500000D01*
X56566666Y-147566666D02*
X56566666Y-146866666D01*
X56633333Y-147300000D02*
X56833333Y-147566666D01*
X56833333Y-147100000D02*
X56566666Y-147366666D01*
X57133333Y-147566666D02*
X57133333Y-147100000D01*
X57133333Y-146866666D02*
X57100000Y-146900000D01*
X57133333Y-146933333D01*
X57166666Y-146900000D01*
X57133333Y-146866666D01*
X57133333Y-146933333D01*
X57733333Y-147533333D02*
X57666666Y-147566666D01*
X57533333Y-147566666D01*
X57466666Y-147533333D01*
X57433333Y-147466666D01*
X57433333Y-147200000D01*
X57466666Y-147133333D01*
X57533333Y-147100000D01*
X57666666Y-147100000D01*
X57733333Y-147133333D01*
X57766666Y-147200000D01*
X57766666Y-147266666D01*
X57433333Y-147333333D01*
X58166666Y-147566666D02*
X58100000Y-147533333D01*
X58066666Y-147466666D01*
X58066666Y-146866666D01*
X58433333Y-147566666D02*
X58433333Y-146866666D01*
X58500000Y-147300000D02*
X58700000Y-147566666D01*
X58700000Y-147100000D02*
X58433333Y-147366666D01*
X59300000Y-147566666D02*
X59300000Y-147200000D01*
X59266666Y-147133333D01*
X59200000Y-147100000D01*
X59066666Y-147100000D01*
X59000000Y-147133333D01*
X59300000Y-147533333D02*
X59233333Y-147566666D01*
X59066666Y-147566666D01*
X59000000Y-147533333D01*
X58966666Y-147466666D01*
X58966666Y-147400000D01*
X59000000Y-147333333D01*
X59066666Y-147300000D01*
X59233333Y-147300000D01*
X59300000Y-147266666D01*
D13*
X50950000Y-57700000D02*
X51050000Y-57733333D01*
X51083333Y-57766666D01*
X51116666Y-57833333D01*
X51116666Y-57933333D01*
X51083333Y-58000000D01*
X51050000Y-58033333D01*
X50983333Y-58066666D01*
X50716666Y-58066666D01*
X50716666Y-57366666D01*
X50950000Y-57366666D01*
X51016666Y-57400000D01*
X51050000Y-57433333D01*
X51083333Y-57500000D01*
X51083333Y-57566666D01*
X51050000Y-57633333D01*
X51016666Y-57666666D01*
X50950000Y-57700000D01*
X50716666Y-57700000D01*
X51816666Y-58066666D02*
X51583333Y-57733333D01*
X51416666Y-58066666D02*
X51416666Y-57366666D01*
X51683333Y-57366666D01*
X51750000Y-57400000D01*
X51783333Y-57433333D01*
X51816666Y-57500000D01*
X51816666Y-57600000D01*
X51783333Y-57666666D01*
X51750000Y-57700000D01*
X51683333Y-57733333D01*
X51416666Y-57733333D01*
X52116666Y-58066666D02*
X52116666Y-57366666D01*
X52816666Y-57400000D02*
X52750000Y-57366666D01*
X52650000Y-57366666D01*
X52550000Y-57400000D01*
X52483333Y-57466666D01*
X52450000Y-57533333D01*
X52416666Y-57666666D01*
X52416666Y-57766666D01*
X52450000Y-57900000D01*
X52483333Y-57966666D01*
X52550000Y-58033333D01*
X52650000Y-58066666D01*
X52716666Y-58066666D01*
X52816666Y-58033333D01*
X52850000Y-58000000D01*
X52850000Y-57766666D01*
X52716666Y-57766666D01*
X53150000Y-58066666D02*
X53150000Y-57366666D01*
X53150000Y-57700000D02*
X53550000Y-57700000D01*
X53550000Y-58066666D02*
X53550000Y-57366666D01*
X53783333Y-57366666D02*
X54183333Y-57366666D01*
X53983333Y-58066666D02*
X53983333Y-57366666D01*
X54416666Y-58066666D02*
X54416666Y-57366666D01*
X54816666Y-58066666D01*
X54816666Y-57366666D01*
X55150000Y-57700000D02*
X55383333Y-57700000D01*
X55483333Y-58066666D02*
X55150000Y-58066666D01*
X55150000Y-57366666D01*
X55483333Y-57366666D01*
X55750000Y-58033333D02*
X55850000Y-58066666D01*
X56016666Y-58066666D01*
X56083333Y-58033333D01*
X56116666Y-58000000D01*
X56150000Y-57933333D01*
X56150000Y-57866666D01*
X56116666Y-57800000D01*
X56083333Y-57766666D01*
X56016666Y-57733333D01*
X55883333Y-57700000D01*
X55816666Y-57666666D01*
X55783333Y-57633333D01*
X55750000Y-57566666D01*
X55750000Y-57500000D01*
X55783333Y-57433333D01*
X55816666Y-57400000D01*
X55883333Y-57366666D01*
X56050000Y-57366666D01*
X56150000Y-57400000D01*
X56416666Y-58033333D02*
X56516666Y-58066666D01*
X56683333Y-58066666D01*
X56750000Y-58033333D01*
X56783333Y-58000000D01*
X56816666Y-57933333D01*
X56816666Y-57866666D01*
X56783333Y-57800000D01*
X56750000Y-57766666D01*
X56683333Y-57733333D01*
X56550000Y-57700000D01*
X56483333Y-57666666D01*
X56450000Y-57633333D01*
X56416666Y-57566666D01*
X56416666Y-57500000D01*
X56450000Y-57433333D01*
X56483333Y-57400000D01*
X56550000Y-57366666D01*
X56716666Y-57366666D01*
X56816666Y-57400000D01*
X85316666Y-114816666D02*
X85316666Y-114116666D01*
X85550000Y-114616666D01*
X85783333Y-114116666D01*
X85783333Y-114816666D01*
X86116666Y-114116666D02*
X86116666Y-114683333D01*
X86150000Y-114750000D01*
X86183333Y-114783333D01*
X86250000Y-114816666D01*
X86383333Y-114816666D01*
X86450000Y-114783333D01*
X86483333Y-114750000D01*
X86516666Y-114683333D01*
X86516666Y-114116666D01*
X86750000Y-114116666D02*
X87150000Y-114116666D01*
X86950000Y-114816666D02*
X86950000Y-114116666D01*
X87383333Y-114450000D02*
X87616666Y-114450000D01*
X87716666Y-114816666D02*
X87383333Y-114816666D01*
X87383333Y-114116666D01*
X87716666Y-114116666D01*
D12*
X73700000Y-114816666D02*
X73700000Y-114116666D01*
X73966666Y-114116666D01*
X74033333Y-114150000D01*
X74066666Y-114183333D01*
X74100000Y-114250000D01*
X74100000Y-114350000D01*
X74066666Y-114416666D01*
X74033333Y-114450000D01*
X73966666Y-114483333D01*
X73700000Y-114483333D01*
X74800000Y-114816666D02*
X74566666Y-114483333D01*
X74400000Y-114816666D02*
X74400000Y-114116666D01*
X74666666Y-114116666D01*
X74733333Y-114150000D01*
X74766666Y-114183333D01*
X74800000Y-114250000D01*
X74800000Y-114350000D01*
X74766666Y-114416666D01*
X74733333Y-114450000D01*
X74666666Y-114483333D01*
X74400000Y-114483333D01*
X75233333Y-114116666D02*
X75366666Y-114116666D01*
X75433333Y-114150000D01*
X75500000Y-114216666D01*
X75533333Y-114350000D01*
X75533333Y-114583333D01*
X75500000Y-114716666D01*
X75433333Y-114783333D01*
X75366666Y-114816666D01*
X75233333Y-114816666D01*
X75166666Y-114783333D01*
X75100000Y-114716666D01*
X75066666Y-114583333D01*
X75066666Y-114350000D01*
X75100000Y-114216666D01*
X75166666Y-114150000D01*
X75233333Y-114116666D01*
X76200000Y-114150000D02*
X76133333Y-114116666D01*
X76033333Y-114116666D01*
X75933333Y-114150000D01*
X75866666Y-114216666D01*
X75833333Y-114283333D01*
X75800000Y-114416666D01*
X75800000Y-114516666D01*
X75833333Y-114650000D01*
X75866666Y-114716666D01*
X75933333Y-114783333D01*
X76033333Y-114816666D01*
X76100000Y-114816666D01*
X76200000Y-114783333D01*
X76233333Y-114750000D01*
X76233333Y-114516666D01*
X76100000Y-114516666D01*
X76933333Y-114816666D02*
X76700000Y-114483333D01*
X76533333Y-114816666D02*
X76533333Y-114116666D01*
X76800000Y-114116666D01*
X76866666Y-114150000D01*
X76900000Y-114183333D01*
X76933333Y-114250000D01*
X76933333Y-114350000D01*
X76900000Y-114416666D01*
X76866666Y-114450000D01*
X76800000Y-114483333D01*
X76533333Y-114483333D01*
X77200000Y-114616666D02*
X77533333Y-114616666D01*
X77133333Y-114816666D02*
X77366666Y-114116666D01*
X77600000Y-114816666D01*
X77833333Y-114816666D02*
X77833333Y-114116666D01*
X78066666Y-114616666D01*
X78300000Y-114116666D01*
X78300000Y-114816666D01*
D11*
X85535714Y-135357142D02*
X85750000Y-135428571D01*
X86107142Y-135428571D01*
X86250000Y-135357142D01*
X86321428Y-135285714D01*
X86392857Y-135142857D01*
X86392857Y-135000000D01*
X86321428Y-134857142D01*
X86250000Y-134785714D01*
X86107142Y-134714285D01*
X85821428Y-134642857D01*
X85678571Y-134571428D01*
X85607142Y-134500000D01*
X85535714Y-134357142D01*
X85535714Y-134214285D01*
X85607142Y-134071428D01*
X85678571Y-134000000D01*
X85821428Y-133928571D01*
X86178571Y-133928571D01*
X86392857Y-134000000D01*
X87035714Y-134642857D02*
X87535714Y-134642857D01*
X87750000Y-135428571D02*
X87035714Y-135428571D01*
X87035714Y-133928571D01*
X87750000Y-133928571D01*
X89107142Y-135428571D02*
X88392857Y-135428571D01*
X88392857Y-133928571D01*
X89607142Y-134642857D02*
X90107142Y-134642857D01*
X90321428Y-135428571D02*
X89607142Y-135428571D01*
X89607142Y-133928571D01*
X90321428Y-133928571D01*
X91821428Y-135285714D02*
X91750000Y-135357142D01*
X91535714Y-135428571D01*
X91392857Y-135428571D01*
X91178571Y-135357142D01*
X91035714Y-135214285D01*
X90964285Y-135071428D01*
X90892857Y-134785714D01*
X90892857Y-134571428D01*
X90964285Y-134285714D01*
X91035714Y-134142857D01*
X91178571Y-134000000D01*
X91392857Y-133928571D01*
X91535714Y-133928571D01*
X91750000Y-134000000D01*
X91821428Y-134071428D01*
X92250000Y-133928571D02*
X93107142Y-133928571D01*
X92678571Y-135428571D02*
X92678571Y-133928571D01*
X79000000Y-145428571D02*
X79000000Y-143928571D01*
X79500000Y-145000000D01*
X80000000Y-143928571D01*
X80000000Y-145428571D01*
X80714285Y-144642857D02*
X81214285Y-144642857D01*
X81428571Y-145428571D02*
X80714285Y-145428571D01*
X80714285Y-143928571D01*
X81428571Y-143928571D01*
X82071428Y-145428571D02*
X82071428Y-143928571D01*
X82928571Y-145428571D01*
X82928571Y-143928571D01*
X83642857Y-143928571D02*
X83642857Y-145142857D01*
X83714285Y-145285714D01*
X83785714Y-145357142D01*
X83928571Y-145428571D01*
X84214285Y-145428571D01*
X84357142Y-145357142D01*
X84428571Y-145285714D01*
X84500000Y-145142857D01*
X84500000Y-143928571D01*
X61428571Y-145428571D02*
X61428571Y-143928571D01*
X61785714Y-143928571D01*
X62000000Y-144000000D01*
X62142857Y-144142857D01*
X62214285Y-144285714D01*
X62285714Y-144571428D01*
X62285714Y-144785714D01*
X62214285Y-145071428D01*
X62142857Y-145214285D01*
X62000000Y-145357142D01*
X61785714Y-145428571D01*
X61428571Y-145428571D01*
X63214285Y-143928571D02*
X63500000Y-143928571D01*
X63642857Y-144000000D01*
X63785714Y-144142857D01*
X63857142Y-144428571D01*
X63857142Y-144928571D01*
X63785714Y-145214285D01*
X63642857Y-145357142D01*
X63500000Y-145428571D01*
X63214285Y-145428571D01*
X63071428Y-145357142D01*
X62928571Y-145214285D01*
X62857142Y-144928571D01*
X62857142Y-144428571D01*
X62928571Y-144142857D01*
X63071428Y-144000000D01*
X63214285Y-143928571D01*
X64357142Y-143928571D02*
X64714285Y-145428571D01*
X65000000Y-144357142D01*
X65285714Y-145428571D01*
X65642857Y-143928571D01*
X66214285Y-145428571D02*
X66214285Y-143928571D01*
X67071428Y-145428571D01*
X67071428Y-143928571D01*
X71250000Y-135428571D02*
X70750000Y-134714285D01*
X70392857Y-135428571D02*
X70392857Y-133928571D01*
X70964285Y-133928571D01*
X71107142Y-134000000D01*
X71178571Y-134071428D01*
X71250000Y-134214285D01*
X71250000Y-134428571D01*
X71178571Y-134571428D01*
X71107142Y-134642857D01*
X70964285Y-134714285D01*
X70392857Y-134714285D01*
X71892857Y-135428571D02*
X71892857Y-133928571D01*
X73392857Y-134000000D02*
X73250000Y-133928571D01*
X73035714Y-133928571D01*
X72821428Y-134000000D01*
X72678571Y-134142857D01*
X72607142Y-134285714D01*
X72535714Y-134571428D01*
X72535714Y-134785714D01*
X72607142Y-135071428D01*
X72678571Y-135214285D01*
X72821428Y-135357142D01*
X73035714Y-135428571D01*
X73178571Y-135428571D01*
X73392857Y-135357142D01*
X73464285Y-135285714D01*
X73464285Y-134785714D01*
X73178571Y-134785714D01*
X74107142Y-135428571D02*
X74107142Y-133928571D01*
X74107142Y-134642857D02*
X74964285Y-134642857D01*
X74964285Y-135428571D02*
X74964285Y-133928571D01*
X75464285Y-133928571D02*
X76321428Y-133928571D01*
X75892857Y-135428571D02*
X75892857Y-133928571D01*
X53821428Y-135428571D02*
X53107142Y-135428571D01*
X53107142Y-133928571D01*
X54321428Y-134642857D02*
X54821428Y-134642857D01*
X55035714Y-135428571D02*
X54321428Y-135428571D01*
X54321428Y-133928571D01*
X55035714Y-133928571D01*
X56178571Y-134642857D02*
X55678571Y-134642857D01*
X55678571Y-135428571D02*
X55678571Y-133928571D01*
X56392857Y-133928571D01*
X56750000Y-133928571D02*
X57607142Y-133928571D01*
X57178571Y-135428571D02*
X57178571Y-133928571D01*
X63071428Y-123928571D02*
X63071428Y-125142857D01*
X63142857Y-125285714D01*
X63214285Y-125357142D01*
X63357142Y-125428571D01*
X63642857Y-125428571D01*
X63785714Y-125357142D01*
X63857142Y-125285714D01*
X63928571Y-125142857D01*
X63928571Y-123928571D01*
X64642857Y-125428571D02*
X64642857Y-123928571D01*
X65214285Y-123928571D01*
X65357142Y-124000000D01*
X65428571Y-124071428D01*
X65500000Y-124214285D01*
X65500000Y-124428571D01*
X65428571Y-124571428D01*
X65357142Y-124642857D01*
X65214285Y-124714285D01*
X64642857Y-124714285D01*
D14*
G04 #@! TO.C,BZ1*
X93900000Y-58000000D02*
G75*
G03X93900000Y-58000000I-6100000J0D01*
G01*
G04 #@! TO.C,D1*
X93000000Y-116750000D02*
X89800000Y-116750000D01*
X89800000Y-115250000D02*
X93000000Y-115250000D01*
X89800000Y-115250000D02*
X89800000Y-116750000D01*
G04 #@! TO.C,D2*
X89800000Y-117250000D02*
X89800000Y-118750000D01*
X89800000Y-117250000D02*
X93000000Y-117250000D01*
X93000000Y-118750000D02*
X89800000Y-118750000D01*
G04 #@! TO.C,D4*
X78500000Y-62700000D02*
X73500000Y-62700000D01*
X72400000Y-58400000D02*
X72400000Y-57300000D01*
X72400000Y-57300000D02*
X78500000Y-57300000D01*
G04 #@! TO.C,D5*
X67000000Y-52750000D02*
X63800000Y-52750000D01*
X63800000Y-51250000D02*
X67000000Y-51250000D01*
X63800000Y-51250000D02*
X63800000Y-52750000D01*
G04 #@! TO.C,D6*
X63800000Y-53250000D02*
X63800000Y-54750000D01*
X63800000Y-53250000D02*
X67000000Y-53250000D01*
X67000000Y-54750000D02*
X63800000Y-54750000D01*
D13*
G04 #@! TO.C,IC1*
X78050000Y-73925000D02*
X78050000Y-72550000D01*
X67925000Y-73925000D02*
X67925000Y-78075000D01*
X78075000Y-73925000D02*
X78075000Y-78075000D01*
X67925000Y-73925000D02*
X68030000Y-73925000D01*
X67925000Y-78075000D02*
X68030000Y-78075000D01*
X78075000Y-78075000D02*
X77970000Y-78075000D01*
X78075000Y-73925000D02*
X78050000Y-73925000D01*
D14*
G04 #@! TO.C,J1*
X60350000Y-49970000D02*
X60350000Y-56380000D01*
X51650000Y-51200000D02*
X60350000Y-51200000D01*
X51650000Y-56380000D02*
X51650000Y-49970000D01*
X60350000Y-56380000D02*
X51650000Y-56380000D01*
X60350000Y-49970000D02*
X51650000Y-49970000D01*
G04 #@! TO.C,J2*
X71670000Y-56330000D02*
X71670000Y-55000000D01*
X73000000Y-56330000D02*
X71670000Y-56330000D01*
X71670000Y-53730000D02*
X71670000Y-51130000D01*
X74270000Y-53730000D02*
X71670000Y-53730000D01*
X74270000Y-56330000D02*
X74270000Y-53730000D01*
X71670000Y-51130000D02*
X79410000Y-51130000D01*
X74270000Y-56330000D02*
X79410000Y-56330000D01*
X79410000Y-56330000D02*
X79410000Y-51130000D01*
G04 #@! TO.C,R3*
X67900000Y-111880000D02*
X66700000Y-111880000D01*
X66700000Y-110120000D02*
X67900000Y-110120000D01*
G04 #@! TO.C,R12*
X78250000Y-116880000D02*
X77050000Y-116880000D01*
X77050000Y-115120000D02*
X78250000Y-115120000D01*
G04 #@! TO.C,R20*
X65400000Y-56120000D02*
X66600000Y-56120000D01*
X66600000Y-57880000D02*
X65400000Y-57880000D01*
G04 #@! TO.C,R21*
X66600000Y-59880000D02*
X65400000Y-59880000D01*
X65400000Y-58120000D02*
X66600000Y-58120000D01*
G04 #@! TO.C,R23*
X67600000Y-82880000D02*
X66400000Y-82880000D01*
X66400000Y-81120000D02*
X67600000Y-81120000D01*
G04 #@! TO.C,RV1*
X51220000Y-61530000D02*
X51220000Y-59250000D01*
X51220000Y-59250000D02*
X51730000Y-59250000D01*
X54270000Y-59250000D02*
X54780000Y-59250000D01*
X54780000Y-59250000D02*
X54780000Y-61530000D01*
G04 #@! TO.C,SW1*
X82590000Y-110670000D02*
X82590000Y-113330000D01*
X87730000Y-110670000D02*
X82590000Y-110670000D01*
X87730000Y-113330000D02*
X82590000Y-113330000D01*
X87730000Y-110670000D02*
X87730000Y-113330000D01*
X89000000Y-110670000D02*
X90330000Y-110670000D01*
X90330000Y-110670000D02*
X90330000Y-112000000D01*
G04 #@! TO.C,SW2*
X72130000Y-113330000D02*
X72130000Y-112000000D01*
X73460000Y-113330000D02*
X72130000Y-113330000D01*
X74730000Y-113330000D02*
X74730000Y-110670000D01*
X74730000Y-110670000D02*
X79870000Y-110670000D01*
X74730000Y-113330000D02*
X79870000Y-113330000D01*
X79870000Y-113330000D02*
X79870000Y-110670000D01*
G04 #@! TO.C,SW3*
X67500000Y-121000000D02*
X67500000Y-116500000D01*
X63500000Y-122250000D02*
X65000000Y-122250000D01*
X61000000Y-116500000D02*
X61000000Y-121000000D01*
X65000000Y-115250000D02*
X63500000Y-115250000D01*
G04 #@! TO.C,SW4*
X65000000Y-135250000D02*
X63500000Y-135250000D01*
X61000000Y-136500000D02*
X61000000Y-141000000D01*
X63500000Y-142250000D02*
X65000000Y-142250000D01*
X67500000Y-141000000D02*
X67500000Y-136500000D01*
G04 #@! TO.C,SW5*
X56000000Y-125250000D02*
X54500000Y-125250000D01*
X52000000Y-126500000D02*
X52000000Y-131000000D01*
X54500000Y-132250000D02*
X56000000Y-132250000D01*
X58500000Y-131000000D02*
X58500000Y-126500000D01*
G04 #@! TO.C,SW6*
X76500000Y-131000000D02*
X76500000Y-126500000D01*
X72500000Y-132250000D02*
X74000000Y-132250000D01*
X70000000Y-126500000D02*
X70000000Y-131000000D01*
X74000000Y-125250000D02*
X72500000Y-125250000D01*
G04 #@! TO.C,SW7*
X92500000Y-131000000D02*
X92500000Y-126500000D01*
X88500000Y-132250000D02*
X90000000Y-132250000D01*
X86000000Y-126500000D02*
X86000000Y-131000000D01*
X90000000Y-125250000D02*
X88500000Y-125250000D01*
G04 #@! TO.C,SW8*
X78250000Y-139000000D02*
X78250000Y-140500000D01*
X79500000Y-143000000D02*
X84000000Y-143000000D01*
X85250000Y-140500000D02*
X85250000Y-139000000D01*
X84000000Y-136500000D02*
X79500000Y-136500000D01*
G04 #@! TO.C,U4*
X75900000Y-84590000D02*
X81910000Y-84590000D01*
X78150000Y-91410000D02*
X81910000Y-91410000D01*
X81910000Y-84590000D02*
X81910000Y-85850000D01*
X81910000Y-91410000D02*
X81910000Y-90150000D01*
G04 #@! TO.C,U7*
X62220000Y-68280000D02*
X62220000Y-66950000D01*
X63550000Y-68280000D02*
X62220000Y-68280000D01*
X64820000Y-68280000D02*
X64820000Y-65620000D01*
X64820000Y-65620000D02*
X82660000Y-65620000D01*
X64820000Y-68280000D02*
X82660000Y-68280000D01*
X82660000Y-68280000D02*
X82660000Y-65620000D01*
D15*
G04 #@! TO.C,G\002A\002A\002A*
G36*
X55066651Y-136129452D02*
X55128239Y-136162840D01*
X55160867Y-136182400D01*
X55197125Y-136203941D01*
X55258790Y-136240096D01*
X55343544Y-136289529D01*
X55449069Y-136350899D01*
X55573049Y-136422871D01*
X55713165Y-136504106D01*
X55867101Y-136593267D01*
X56032538Y-136689015D01*
X56207159Y-136790013D01*
X56388647Y-136894923D01*
X56574684Y-137002408D01*
X56762953Y-137111128D01*
X56951136Y-137219748D01*
X57136916Y-137326928D01*
X57317975Y-137431332D01*
X57491995Y-137531621D01*
X57656660Y-137626457D01*
X57809651Y-137714503D01*
X57948652Y-137794421D01*
X58071344Y-137864874D01*
X58175411Y-137924523D01*
X58258534Y-137972030D01*
X58318397Y-138006058D01*
X58352681Y-138025269D01*
X58360042Y-138029140D01*
X58364131Y-138033088D01*
X58367783Y-138042811D01*
X58371022Y-138060102D01*
X58373873Y-138086752D01*
X58376359Y-138124552D01*
X58378504Y-138175292D01*
X58380333Y-138240764D01*
X58381869Y-138322759D01*
X58383138Y-138423068D01*
X58384162Y-138543482D01*
X58384965Y-138685792D01*
X58385573Y-138851789D01*
X58386010Y-139043264D01*
X58386298Y-139262009D01*
X58386462Y-139509815D01*
X58386528Y-139788471D01*
X58386527Y-139997579D01*
X58386387Y-141955801D01*
X58323027Y-141991235D01*
X58299975Y-142004401D01*
X58249604Y-142033368D01*
X58173912Y-142076983D01*
X58074897Y-142134091D01*
X57954557Y-142203541D01*
X57814889Y-142284176D01*
X57657893Y-142374845D01*
X57485564Y-142474393D01*
X57299903Y-142581667D01*
X57102905Y-142695513D01*
X56896570Y-142814778D01*
X56687224Y-142935804D01*
X56431522Y-143083643D01*
X56203520Y-143215456D01*
X56001599Y-143332161D01*
X55824136Y-143434677D01*
X55669511Y-143523923D01*
X55536102Y-143600819D01*
X55422287Y-143666283D01*
X55326446Y-143721234D01*
X55246957Y-143766591D01*
X55182199Y-143803274D01*
X55130551Y-143832200D01*
X55090391Y-143854289D01*
X55060099Y-143870461D01*
X55038052Y-143881633D01*
X55022631Y-143888725D01*
X55012212Y-143892656D01*
X55005176Y-143894345D01*
X54999901Y-143894710D01*
X54995572Y-143894667D01*
X54978167Y-143886359D01*
X54933321Y-143862143D01*
X54862900Y-143823083D01*
X54768769Y-143770241D01*
X54652796Y-143704679D01*
X54516847Y-143627461D01*
X54362788Y-143539649D01*
X54192485Y-143442307D01*
X54007805Y-143336497D01*
X53810615Y-143223281D01*
X53602779Y-143103723D01*
X53386166Y-142978886D01*
X53293190Y-142925234D01*
X51613852Y-141955801D01*
X51613850Y-141670006D01*
X52325324Y-141670006D01*
X52339667Y-141680111D01*
X52380711Y-141705531D01*
X52445788Y-141744720D01*
X52532230Y-141796129D01*
X52637369Y-141858211D01*
X52758536Y-141929419D01*
X52893062Y-142008205D01*
X53038281Y-142093022D01*
X53191523Y-142182321D01*
X53350121Y-142274555D01*
X53511406Y-142368177D01*
X53672709Y-142461639D01*
X53831363Y-142553393D01*
X53984699Y-142641892D01*
X54130049Y-142725588D01*
X54264745Y-142802933D01*
X54386118Y-142872381D01*
X54491501Y-142932383D01*
X54578224Y-142981391D01*
X54643621Y-143017859D01*
X54685022Y-143040239D01*
X54699529Y-143047054D01*
X54701412Y-143030676D01*
X54703112Y-142982887D01*
X54704614Y-142906143D01*
X54705905Y-142802901D01*
X54706970Y-142675614D01*
X54707793Y-142526740D01*
X54708362Y-142358733D01*
X54708660Y-142174050D01*
X54708663Y-142124444D01*
X55290994Y-142124444D01*
X55291060Y-142334554D01*
X55291524Y-142514674D01*
X55292399Y-142666096D01*
X55293698Y-142790111D01*
X55295434Y-142888011D01*
X55297621Y-142961087D01*
X55300271Y-143010632D01*
X55303398Y-143037937D01*
X55306544Y-143044597D01*
X55323838Y-143035351D01*
X55368227Y-143010466D01*
X55437470Y-142971224D01*
X55529325Y-142918909D01*
X55641552Y-142854801D01*
X55771909Y-142780184D01*
X55918154Y-142696339D01*
X56078046Y-142604549D01*
X56249344Y-142506097D01*
X56429806Y-142402263D01*
X56500448Y-142361587D01*
X56727186Y-142230809D01*
X56925766Y-142115830D01*
X57097542Y-142015835D01*
X57243866Y-141930008D01*
X57366092Y-141857535D01*
X57465574Y-141797600D01*
X57543664Y-141749388D01*
X57601717Y-141712084D01*
X57641084Y-141684873D01*
X57663121Y-141666939D01*
X57669197Y-141657539D01*
X57659313Y-141636085D01*
X57634643Y-141589499D01*
X57597477Y-141521898D01*
X57550101Y-141437398D01*
X57494805Y-141340116D01*
X57433897Y-141234205D01*
X57373552Y-141129804D01*
X57299699Y-141001946D01*
X57215735Y-140856520D01*
X57125059Y-140699412D01*
X57031069Y-140536512D01*
X56937164Y-140373706D01*
X56846741Y-140216884D01*
X56829092Y-140186267D01*
X56750782Y-140050593D01*
X56677502Y-139923975D01*
X56611013Y-139809433D01*
X56553075Y-139709984D01*
X56505450Y-139628647D01*
X56469899Y-139568438D01*
X56448182Y-139532377D01*
X56442083Y-139523039D01*
X56425440Y-139528712D01*
X56382788Y-139549718D01*
X56317351Y-139584293D01*
X56232354Y-139630671D01*
X56131021Y-139687088D01*
X56016577Y-139751782D01*
X55892248Y-139822986D01*
X55863600Y-139839517D01*
X55296333Y-140167290D01*
X55292005Y-141609088D01*
X55291314Y-141883053D01*
X55290994Y-142124444D01*
X54708663Y-142124444D01*
X54708675Y-141975146D01*
X54708391Y-141764477D01*
X54707995Y-141607384D01*
X54703667Y-140166768D01*
X54136400Y-139838959D01*
X54010317Y-139766549D01*
X53893404Y-139700272D01*
X53788885Y-139641891D01*
X53699983Y-139593168D01*
X53629924Y-139555866D01*
X53581931Y-139531746D01*
X53559229Y-139522572D01*
X53557942Y-139522741D01*
X53546910Y-139539867D01*
X53521239Y-139582564D01*
X53483157Y-139647036D01*
X53434892Y-139729486D01*
X53378675Y-139826119D01*
X53316733Y-139933139D01*
X53302578Y-139957667D01*
X53148590Y-140224693D01*
X53010766Y-140463809D01*
X52888303Y-140676416D01*
X52780403Y-140863917D01*
X52686265Y-141027715D01*
X52605088Y-141169210D01*
X52536074Y-141289805D01*
X52478420Y-141390903D01*
X52431328Y-141473905D01*
X52393997Y-141540213D01*
X52365627Y-141591230D01*
X52345417Y-141628358D01*
X52332568Y-141652998D01*
X52326279Y-141666552D01*
X52325324Y-141670006D01*
X51613850Y-141670006D01*
X51613837Y-140000000D01*
X51613827Y-138728809D01*
X52206000Y-138728809D01*
X52206515Y-139707305D01*
X52206788Y-139923858D01*
X52207388Y-140108352D01*
X52208352Y-140262592D01*
X52209718Y-140388382D01*
X52211525Y-140487529D01*
X52213810Y-140561839D01*
X52216611Y-140613116D01*
X52219967Y-140643167D01*
X52223916Y-140653796D01*
X52226403Y-140651934D01*
X52238580Y-140630777D01*
X52265942Y-140583316D01*
X52306744Y-140512579D01*
X52359238Y-140421593D01*
X52421678Y-140313385D01*
X52492318Y-140190980D01*
X52569410Y-140057408D01*
X52650097Y-139917621D01*
X52730934Y-139777308D01*
X52806174Y-139646189D01*
X52874195Y-139527125D01*
X52933379Y-139422977D01*
X52982105Y-139336604D01*
X53018752Y-139270868D01*
X53041701Y-139228629D01*
X53049332Y-139212748D01*
X53049309Y-139212710D01*
X53033534Y-139203114D01*
X52993022Y-139179355D01*
X52932417Y-139144109D01*
X52856365Y-139100054D01*
X52769512Y-139049865D01*
X52677474Y-138996778D01*
X53866008Y-138996778D01*
X53880227Y-139007745D01*
X53920043Y-139033149D01*
X53981580Y-139070747D01*
X54060962Y-139118294D01*
X54154315Y-139173544D01*
X54257761Y-139234252D01*
X54367426Y-139298175D01*
X54479433Y-139363066D01*
X54589907Y-139426682D01*
X54694972Y-139486778D01*
X54790752Y-139541108D01*
X54873372Y-139587429D01*
X54938956Y-139623494D01*
X54983629Y-139647060D01*
X55003513Y-139655881D01*
X55003960Y-139655874D01*
X55020943Y-139647022D01*
X55063977Y-139623093D01*
X55129786Y-139585950D01*
X55215095Y-139537457D01*
X55316627Y-139479476D01*
X55431108Y-139413870D01*
X55555262Y-139342501D01*
X55575003Y-139331134D01*
X55699935Y-139258858D01*
X55779322Y-139212505D01*
X56950774Y-139212505D01*
X56957987Y-139227595D01*
X56980593Y-139269179D01*
X57017002Y-139334449D01*
X57065621Y-139420599D01*
X57124860Y-139524822D01*
X57193127Y-139644312D01*
X57268832Y-139776261D01*
X57350383Y-139917862D01*
X57365640Y-139944298D01*
X57785534Y-140671588D01*
X57790025Y-140193070D01*
X57791119Y-140035833D01*
X57791733Y-139856669D01*
X57791865Y-139667513D01*
X57791516Y-139480302D01*
X57790685Y-139306972D01*
X57790025Y-139222068D01*
X57785534Y-138729584D01*
X57370667Y-138968792D01*
X57263430Y-139030679D01*
X57166131Y-139086935D01*
X57082525Y-139135380D01*
X57016368Y-139173836D01*
X56971415Y-139200122D01*
X56951420Y-139212060D01*
X56950774Y-139212505D01*
X55779322Y-139212505D01*
X55815157Y-139191582D01*
X55917471Y-139131219D01*
X56003678Y-139079684D01*
X56070581Y-139038891D01*
X56114982Y-139010753D01*
X56133683Y-138997185D01*
X56134076Y-138996493D01*
X56125992Y-138979423D01*
X56102752Y-138936320D01*
X56066195Y-138870442D01*
X56018155Y-138785052D01*
X55960470Y-138683411D01*
X55894976Y-138568780D01*
X55823509Y-138444420D01*
X55809868Y-138420759D01*
X55724285Y-138272390D01*
X55632729Y-138113653D01*
X55539291Y-137951643D01*
X55448066Y-137793457D01*
X55363144Y-137646192D01*
X55288620Y-137516946D01*
X55250907Y-137451534D01*
X55189317Y-137345353D01*
X55132823Y-137249199D01*
X55131823Y-137247522D01*
X55816716Y-137247522D01*
X55824103Y-137262385D01*
X55846612Y-137303386D01*
X55882420Y-137367338D01*
X55929706Y-137451055D01*
X55986649Y-137551351D01*
X56051426Y-137665040D01*
X56122215Y-137788935D01*
X56197197Y-137919851D01*
X56274547Y-138054600D01*
X56352446Y-138189997D01*
X56429070Y-138322856D01*
X56502599Y-138449990D01*
X56571211Y-138568213D01*
X56603792Y-138624167D01*
X56630615Y-138665837D01*
X56652201Y-138691818D01*
X56659342Y-138696134D01*
X56677010Y-138687972D01*
X56720043Y-138664940D01*
X56784543Y-138629219D01*
X56866613Y-138582989D01*
X56962356Y-138528430D01*
X57067875Y-138467724D01*
X57076833Y-138462545D01*
X57182130Y-138400982D01*
X57276829Y-138344335D01*
X57357228Y-138294921D01*
X57419627Y-138255059D01*
X57460324Y-138227067D01*
X57475620Y-138213262D01*
X57475619Y-138212778D01*
X57460700Y-138202064D01*
X57419731Y-138176426D01*
X57355895Y-138137717D01*
X57272376Y-138087790D01*
X57172356Y-138028497D01*
X57059020Y-137961689D01*
X56935550Y-137889220D01*
X56805129Y-137812940D01*
X56670941Y-137734703D01*
X56536169Y-137656360D01*
X56403996Y-137579764D01*
X56277604Y-137506767D01*
X56160179Y-137439222D01*
X56054901Y-137378979D01*
X55964956Y-137327892D01*
X55893526Y-137287812D01*
X55843793Y-137260593D01*
X55818942Y-137248085D01*
X55816716Y-137247522D01*
X55131823Y-137247522D01*
X55083716Y-137166872D01*
X55044289Y-137102175D01*
X55016833Y-137058909D01*
X55003640Y-137040876D01*
X55003193Y-137040607D01*
X54993083Y-137054144D01*
X54967833Y-137094133D01*
X54929147Y-137157642D01*
X54878727Y-137241744D01*
X54818277Y-137343507D01*
X54749500Y-137460001D01*
X54674099Y-137588298D01*
X54593778Y-137725466D01*
X54510239Y-137868577D01*
X54425186Y-138014699D01*
X54340323Y-138160903D01*
X54257352Y-138304260D01*
X54177976Y-138441839D01*
X54103900Y-138570711D01*
X54036826Y-138687945D01*
X53978458Y-138790612D01*
X53930498Y-138875781D01*
X53894650Y-138940524D01*
X53872617Y-138981909D01*
X53866008Y-138996778D01*
X52677474Y-138996778D01*
X52676504Y-138996219D01*
X52581986Y-138941793D01*
X52490603Y-138889263D01*
X52407002Y-138841306D01*
X52335828Y-138800598D01*
X52281726Y-138769815D01*
X52249343Y-138751635D01*
X52244100Y-138748798D01*
X52206000Y-138728809D01*
X51613827Y-138728809D01*
X51613823Y-138215283D01*
X52523675Y-138215283D01*
X52537332Y-138227049D01*
X52575860Y-138252866D01*
X52634696Y-138290040D01*
X52709275Y-138335876D01*
X52795032Y-138387676D01*
X52887405Y-138442746D01*
X52981829Y-138498390D01*
X53073739Y-138551913D01*
X53158571Y-138600618D01*
X53231762Y-138641810D01*
X53288747Y-138672793D01*
X53324962Y-138690872D01*
X53334912Y-138694413D01*
X53348499Y-138680823D01*
X53376212Y-138641713D01*
X53415529Y-138581053D01*
X53463925Y-138502815D01*
X53518879Y-138410969D01*
X53562442Y-138336301D01*
X53682004Y-138129178D01*
X53785670Y-137949493D01*
X53874510Y-137795372D01*
X53949594Y-137664941D01*
X54011989Y-137556326D01*
X54062765Y-137467653D01*
X54102991Y-137397049D01*
X54133736Y-137342640D01*
X54156068Y-137302550D01*
X54171057Y-137274908D01*
X54179771Y-137257838D01*
X54183280Y-137249467D01*
X54183334Y-137247842D01*
X54167739Y-137254789D01*
X54126176Y-137277121D01*
X54061826Y-137312983D01*
X53977870Y-137360519D01*
X53877491Y-137417876D01*
X53763870Y-137483198D01*
X53640189Y-137554632D01*
X53509630Y-137630321D01*
X53375374Y-137708412D01*
X53240604Y-137787049D01*
X53108500Y-137864379D01*
X52982246Y-137938546D01*
X52865022Y-138007695D01*
X52760010Y-138069973D01*
X52670393Y-138123523D01*
X52599352Y-138166492D01*
X52550069Y-138197025D01*
X52525725Y-138213267D01*
X52523675Y-138215283D01*
X51613823Y-138215283D01*
X51613821Y-138044200D01*
X51702477Y-137995520D01*
X51726466Y-137981935D01*
X51777389Y-137952776D01*
X51852864Y-137909421D01*
X51950504Y-137853247D01*
X52067927Y-137785629D01*
X52202746Y-137707944D01*
X52352578Y-137621569D01*
X52515038Y-137527881D01*
X52687742Y-137428256D01*
X52868304Y-137324071D01*
X53054340Y-137216701D01*
X53243466Y-137107525D01*
X53433297Y-136997918D01*
X53621448Y-136889258D01*
X53805536Y-136782919D01*
X53983174Y-136680280D01*
X54151979Y-136582717D01*
X54309567Y-136491606D01*
X54453552Y-136408324D01*
X54581549Y-136334248D01*
X54691176Y-136270754D01*
X54780046Y-136219218D01*
X54845775Y-136181018D01*
X54859873Y-136172802D01*
X54925807Y-136136073D01*
X54975522Y-136116390D01*
X55019108Y-136114076D01*
X55066651Y-136129452D01*
X55066651Y-136129452D01*
G37*
X55066651Y-136129452D02*
X55128239Y-136162840D01*
X55160867Y-136182400D01*
X55197125Y-136203941D01*
X55258790Y-136240096D01*
X55343544Y-136289529D01*
X55449069Y-136350899D01*
X55573049Y-136422871D01*
X55713165Y-136504106D01*
X55867101Y-136593267D01*
X56032538Y-136689015D01*
X56207159Y-136790013D01*
X56388647Y-136894923D01*
X56574684Y-137002408D01*
X56762953Y-137111128D01*
X56951136Y-137219748D01*
X57136916Y-137326928D01*
X57317975Y-137431332D01*
X57491995Y-137531621D01*
X57656660Y-137626457D01*
X57809651Y-137714503D01*
X57948652Y-137794421D01*
X58071344Y-137864874D01*
X58175411Y-137924523D01*
X58258534Y-137972030D01*
X58318397Y-138006058D01*
X58352681Y-138025269D01*
X58360042Y-138029140D01*
X58364131Y-138033088D01*
X58367783Y-138042811D01*
X58371022Y-138060102D01*
X58373873Y-138086752D01*
X58376359Y-138124552D01*
X58378504Y-138175292D01*
X58380333Y-138240764D01*
X58381869Y-138322759D01*
X58383138Y-138423068D01*
X58384162Y-138543482D01*
X58384965Y-138685792D01*
X58385573Y-138851789D01*
X58386010Y-139043264D01*
X58386298Y-139262009D01*
X58386462Y-139509815D01*
X58386528Y-139788471D01*
X58386527Y-139997579D01*
X58386387Y-141955801D01*
X58323027Y-141991235D01*
X58299975Y-142004401D01*
X58249604Y-142033368D01*
X58173912Y-142076983D01*
X58074897Y-142134091D01*
X57954557Y-142203541D01*
X57814889Y-142284176D01*
X57657893Y-142374845D01*
X57485564Y-142474393D01*
X57299903Y-142581667D01*
X57102905Y-142695513D01*
X56896570Y-142814778D01*
X56687224Y-142935804D01*
X56431522Y-143083643D01*
X56203520Y-143215456D01*
X56001599Y-143332161D01*
X55824136Y-143434677D01*
X55669511Y-143523923D01*
X55536102Y-143600819D01*
X55422287Y-143666283D01*
X55326446Y-143721234D01*
X55246957Y-143766591D01*
X55182199Y-143803274D01*
X55130551Y-143832200D01*
X55090391Y-143854289D01*
X55060099Y-143870461D01*
X55038052Y-143881633D01*
X55022631Y-143888725D01*
X55012212Y-143892656D01*
X55005176Y-143894345D01*
X54999901Y-143894710D01*
X54995572Y-143894667D01*
X54978167Y-143886359D01*
X54933321Y-143862143D01*
X54862900Y-143823083D01*
X54768769Y-143770241D01*
X54652796Y-143704679D01*
X54516847Y-143627461D01*
X54362788Y-143539649D01*
X54192485Y-143442307D01*
X54007805Y-143336497D01*
X53810615Y-143223281D01*
X53602779Y-143103723D01*
X53386166Y-142978886D01*
X53293190Y-142925234D01*
X51613852Y-141955801D01*
X51613850Y-141670006D01*
X52325324Y-141670006D01*
X52339667Y-141680111D01*
X52380711Y-141705531D01*
X52445788Y-141744720D01*
X52532230Y-141796129D01*
X52637369Y-141858211D01*
X52758536Y-141929419D01*
X52893062Y-142008205D01*
X53038281Y-142093022D01*
X53191523Y-142182321D01*
X53350121Y-142274555D01*
X53511406Y-142368177D01*
X53672709Y-142461639D01*
X53831363Y-142553393D01*
X53984699Y-142641892D01*
X54130049Y-142725588D01*
X54264745Y-142802933D01*
X54386118Y-142872381D01*
X54491501Y-142932383D01*
X54578224Y-142981391D01*
X54643621Y-143017859D01*
X54685022Y-143040239D01*
X54699529Y-143047054D01*
X54701412Y-143030676D01*
X54703112Y-142982887D01*
X54704614Y-142906143D01*
X54705905Y-142802901D01*
X54706970Y-142675614D01*
X54707793Y-142526740D01*
X54708362Y-142358733D01*
X54708660Y-142174050D01*
X54708663Y-142124444D01*
X55290994Y-142124444D01*
X55291060Y-142334554D01*
X55291524Y-142514674D01*
X55292399Y-142666096D01*
X55293698Y-142790111D01*
X55295434Y-142888011D01*
X55297621Y-142961087D01*
X55300271Y-143010632D01*
X55303398Y-143037937D01*
X55306544Y-143044597D01*
X55323838Y-143035351D01*
X55368227Y-143010466D01*
X55437470Y-142971224D01*
X55529325Y-142918909D01*
X55641552Y-142854801D01*
X55771909Y-142780184D01*
X55918154Y-142696339D01*
X56078046Y-142604549D01*
X56249344Y-142506097D01*
X56429806Y-142402263D01*
X56500448Y-142361587D01*
X56727186Y-142230809D01*
X56925766Y-142115830D01*
X57097542Y-142015835D01*
X57243866Y-141930008D01*
X57366092Y-141857535D01*
X57465574Y-141797600D01*
X57543664Y-141749388D01*
X57601717Y-141712084D01*
X57641084Y-141684873D01*
X57663121Y-141666939D01*
X57669197Y-141657539D01*
X57659313Y-141636085D01*
X57634643Y-141589499D01*
X57597477Y-141521898D01*
X57550101Y-141437398D01*
X57494805Y-141340116D01*
X57433897Y-141234205D01*
X57373552Y-141129804D01*
X57299699Y-141001946D01*
X57215735Y-140856520D01*
X57125059Y-140699412D01*
X57031069Y-140536512D01*
X56937164Y-140373706D01*
X56846741Y-140216884D01*
X56829092Y-140186267D01*
X56750782Y-140050593D01*
X56677502Y-139923975D01*
X56611013Y-139809433D01*
X56553075Y-139709984D01*
X56505450Y-139628647D01*
X56469899Y-139568438D01*
X56448182Y-139532377D01*
X56442083Y-139523039D01*
X56425440Y-139528712D01*
X56382788Y-139549718D01*
X56317351Y-139584293D01*
X56232354Y-139630671D01*
X56131021Y-139687088D01*
X56016577Y-139751782D01*
X55892248Y-139822986D01*
X55863600Y-139839517D01*
X55296333Y-140167290D01*
X55292005Y-141609088D01*
X55291314Y-141883053D01*
X55290994Y-142124444D01*
X54708663Y-142124444D01*
X54708675Y-141975146D01*
X54708391Y-141764477D01*
X54707995Y-141607384D01*
X54703667Y-140166768D01*
X54136400Y-139838959D01*
X54010317Y-139766549D01*
X53893404Y-139700272D01*
X53788885Y-139641891D01*
X53699983Y-139593168D01*
X53629924Y-139555866D01*
X53581931Y-139531746D01*
X53559229Y-139522572D01*
X53557942Y-139522741D01*
X53546910Y-139539867D01*
X53521239Y-139582564D01*
X53483157Y-139647036D01*
X53434892Y-139729486D01*
X53378675Y-139826119D01*
X53316733Y-139933139D01*
X53302578Y-139957667D01*
X53148590Y-140224693D01*
X53010766Y-140463809D01*
X52888303Y-140676416D01*
X52780403Y-140863917D01*
X52686265Y-141027715D01*
X52605088Y-141169210D01*
X52536074Y-141289805D01*
X52478420Y-141390903D01*
X52431328Y-141473905D01*
X52393997Y-141540213D01*
X52365627Y-141591230D01*
X52345417Y-141628358D01*
X52332568Y-141652998D01*
X52326279Y-141666552D01*
X52325324Y-141670006D01*
X51613850Y-141670006D01*
X51613837Y-140000000D01*
X51613827Y-138728809D01*
X52206000Y-138728809D01*
X52206515Y-139707305D01*
X52206788Y-139923858D01*
X52207388Y-140108352D01*
X52208352Y-140262592D01*
X52209718Y-140388382D01*
X52211525Y-140487529D01*
X52213810Y-140561839D01*
X52216611Y-140613116D01*
X52219967Y-140643167D01*
X52223916Y-140653796D01*
X52226403Y-140651934D01*
X52238580Y-140630777D01*
X52265942Y-140583316D01*
X52306744Y-140512579D01*
X52359238Y-140421593D01*
X52421678Y-140313385D01*
X52492318Y-140190980D01*
X52569410Y-140057408D01*
X52650097Y-139917621D01*
X52730934Y-139777308D01*
X52806174Y-139646189D01*
X52874195Y-139527125D01*
X52933379Y-139422977D01*
X52982105Y-139336604D01*
X53018752Y-139270868D01*
X53041701Y-139228629D01*
X53049332Y-139212748D01*
X53049309Y-139212710D01*
X53033534Y-139203114D01*
X52993022Y-139179355D01*
X52932417Y-139144109D01*
X52856365Y-139100054D01*
X52769512Y-139049865D01*
X52677474Y-138996778D01*
X53866008Y-138996778D01*
X53880227Y-139007745D01*
X53920043Y-139033149D01*
X53981580Y-139070747D01*
X54060962Y-139118294D01*
X54154315Y-139173544D01*
X54257761Y-139234252D01*
X54367426Y-139298175D01*
X54479433Y-139363066D01*
X54589907Y-139426682D01*
X54694972Y-139486778D01*
X54790752Y-139541108D01*
X54873372Y-139587429D01*
X54938956Y-139623494D01*
X54983629Y-139647060D01*
X55003513Y-139655881D01*
X55003960Y-139655874D01*
X55020943Y-139647022D01*
X55063977Y-139623093D01*
X55129786Y-139585950D01*
X55215095Y-139537457D01*
X55316627Y-139479476D01*
X55431108Y-139413870D01*
X55555262Y-139342501D01*
X55575003Y-139331134D01*
X55699935Y-139258858D01*
X55779322Y-139212505D01*
X56950774Y-139212505D01*
X56957987Y-139227595D01*
X56980593Y-139269179D01*
X57017002Y-139334449D01*
X57065621Y-139420599D01*
X57124860Y-139524822D01*
X57193127Y-139644312D01*
X57268832Y-139776261D01*
X57350383Y-139917862D01*
X57365640Y-139944298D01*
X57785534Y-140671588D01*
X57790025Y-140193070D01*
X57791119Y-140035833D01*
X57791733Y-139856669D01*
X57791865Y-139667513D01*
X57791516Y-139480302D01*
X57790685Y-139306972D01*
X57790025Y-139222068D01*
X57785534Y-138729584D01*
X57370667Y-138968792D01*
X57263430Y-139030679D01*
X57166131Y-139086935D01*
X57082525Y-139135380D01*
X57016368Y-139173836D01*
X56971415Y-139200122D01*
X56951420Y-139212060D01*
X56950774Y-139212505D01*
X55779322Y-139212505D01*
X55815157Y-139191582D01*
X55917471Y-139131219D01*
X56003678Y-139079684D01*
X56070581Y-139038891D01*
X56114982Y-139010753D01*
X56133683Y-138997185D01*
X56134076Y-138996493D01*
X56125992Y-138979423D01*
X56102752Y-138936320D01*
X56066195Y-138870442D01*
X56018155Y-138785052D01*
X55960470Y-138683411D01*
X55894976Y-138568780D01*
X55823509Y-138444420D01*
X55809868Y-138420759D01*
X55724285Y-138272390D01*
X55632729Y-138113653D01*
X55539291Y-137951643D01*
X55448066Y-137793457D01*
X55363144Y-137646192D01*
X55288620Y-137516946D01*
X55250907Y-137451534D01*
X55189317Y-137345353D01*
X55132823Y-137249199D01*
X55131823Y-137247522D01*
X55816716Y-137247522D01*
X55824103Y-137262385D01*
X55846612Y-137303386D01*
X55882420Y-137367338D01*
X55929706Y-137451055D01*
X55986649Y-137551351D01*
X56051426Y-137665040D01*
X56122215Y-137788935D01*
X56197197Y-137919851D01*
X56274547Y-138054600D01*
X56352446Y-138189997D01*
X56429070Y-138322856D01*
X56502599Y-138449990D01*
X56571211Y-138568213D01*
X56603792Y-138624167D01*
X56630615Y-138665837D01*
X56652201Y-138691818D01*
X56659342Y-138696134D01*
X56677010Y-138687972D01*
X56720043Y-138664940D01*
X56784543Y-138629219D01*
X56866613Y-138582989D01*
X56962356Y-138528430D01*
X57067875Y-138467724D01*
X57076833Y-138462545D01*
X57182130Y-138400982D01*
X57276829Y-138344335D01*
X57357228Y-138294921D01*
X57419627Y-138255059D01*
X57460324Y-138227067D01*
X57475620Y-138213262D01*
X57475619Y-138212778D01*
X57460700Y-138202064D01*
X57419731Y-138176426D01*
X57355895Y-138137717D01*
X57272376Y-138087790D01*
X57172356Y-138028497D01*
X57059020Y-137961689D01*
X56935550Y-137889220D01*
X56805129Y-137812940D01*
X56670941Y-137734703D01*
X56536169Y-137656360D01*
X56403996Y-137579764D01*
X56277604Y-137506767D01*
X56160179Y-137439222D01*
X56054901Y-137378979D01*
X55964956Y-137327892D01*
X55893526Y-137287812D01*
X55843793Y-137260593D01*
X55818942Y-137248085D01*
X55816716Y-137247522D01*
X55131823Y-137247522D01*
X55083716Y-137166872D01*
X55044289Y-137102175D01*
X55016833Y-137058909D01*
X55003640Y-137040876D01*
X55003193Y-137040607D01*
X54993083Y-137054144D01*
X54967833Y-137094133D01*
X54929147Y-137157642D01*
X54878727Y-137241744D01*
X54818277Y-137343507D01*
X54749500Y-137460001D01*
X54674099Y-137588298D01*
X54593778Y-137725466D01*
X54510239Y-137868577D01*
X54425186Y-138014699D01*
X54340323Y-138160903D01*
X54257352Y-138304260D01*
X54177976Y-138441839D01*
X54103900Y-138570711D01*
X54036826Y-138687945D01*
X53978458Y-138790612D01*
X53930498Y-138875781D01*
X53894650Y-138940524D01*
X53872617Y-138981909D01*
X53866008Y-138996778D01*
X52677474Y-138996778D01*
X52676504Y-138996219D01*
X52581986Y-138941793D01*
X52490603Y-138889263D01*
X52407002Y-138841306D01*
X52335828Y-138800598D01*
X52281726Y-138769815D01*
X52249343Y-138751635D01*
X52244100Y-138748798D01*
X52206000Y-138728809D01*
X51613827Y-138728809D01*
X51613823Y-138215283D01*
X52523675Y-138215283D01*
X52537332Y-138227049D01*
X52575860Y-138252866D01*
X52634696Y-138290040D01*
X52709275Y-138335876D01*
X52795032Y-138387676D01*
X52887405Y-138442746D01*
X52981829Y-138498390D01*
X53073739Y-138551913D01*
X53158571Y-138600618D01*
X53231762Y-138641810D01*
X53288747Y-138672793D01*
X53324962Y-138690872D01*
X53334912Y-138694413D01*
X53348499Y-138680823D01*
X53376212Y-138641713D01*
X53415529Y-138581053D01*
X53463925Y-138502815D01*
X53518879Y-138410969D01*
X53562442Y-138336301D01*
X53682004Y-138129178D01*
X53785670Y-137949493D01*
X53874510Y-137795372D01*
X53949594Y-137664941D01*
X54011989Y-137556326D01*
X54062765Y-137467653D01*
X54102991Y-137397049D01*
X54133736Y-137342640D01*
X54156068Y-137302550D01*
X54171057Y-137274908D01*
X54179771Y-137257838D01*
X54183280Y-137249467D01*
X54183334Y-137247842D01*
X54167739Y-137254789D01*
X54126176Y-137277121D01*
X54061826Y-137312983D01*
X53977870Y-137360519D01*
X53877491Y-137417876D01*
X53763870Y-137483198D01*
X53640189Y-137554632D01*
X53509630Y-137630321D01*
X53375374Y-137708412D01*
X53240604Y-137787049D01*
X53108500Y-137864379D01*
X52982246Y-137938546D01*
X52865022Y-138007695D01*
X52760010Y-138069973D01*
X52670393Y-138123523D01*
X52599352Y-138166492D01*
X52550069Y-138197025D01*
X52525725Y-138213267D01*
X52523675Y-138215283D01*
X51613823Y-138215283D01*
X51613821Y-138044200D01*
X51702477Y-137995520D01*
X51726466Y-137981935D01*
X51777389Y-137952776D01*
X51852864Y-137909421D01*
X51950504Y-137853247D01*
X52067927Y-137785629D01*
X52202746Y-137707944D01*
X52352578Y-137621569D01*
X52515038Y-137527881D01*
X52687742Y-137428256D01*
X52868304Y-137324071D01*
X53054340Y-137216701D01*
X53243466Y-137107525D01*
X53433297Y-136997918D01*
X53621448Y-136889258D01*
X53805536Y-136782919D01*
X53983174Y-136680280D01*
X54151979Y-136582717D01*
X54309567Y-136491606D01*
X54453552Y-136408324D01*
X54581549Y-136334248D01*
X54691176Y-136270754D01*
X54780046Y-136219218D01*
X54845775Y-136181018D01*
X54859873Y-136172802D01*
X54925807Y-136136073D01*
X54975522Y-136116390D01*
X55019108Y-136114076D01*
X55066651Y-136129452D01*
D14*
G04 #@! TO.C,TP1*
X80920000Y-109580000D02*
X83580000Y-109580000D01*
X80920000Y-109520000D02*
X80920000Y-109580000D01*
X83580000Y-109520000D02*
X83580000Y-109580000D01*
X80920000Y-109520000D02*
X83580000Y-109520000D01*
X80920000Y-108250000D02*
X80920000Y-106920000D01*
X80920000Y-106920000D02*
X82250000Y-106920000D01*
G04 #@! TO.C,TP2*
X80920000Y-104420000D02*
X82250000Y-104420000D01*
X80920000Y-105750000D02*
X80920000Y-104420000D01*
X80920000Y-107020000D02*
X83580000Y-107020000D01*
X83580000Y-107020000D02*
X83580000Y-107080000D01*
X80920000Y-107020000D02*
X80920000Y-107080000D01*
X80920000Y-107080000D02*
X83580000Y-107080000D01*
G04 #@! TO.C,R24*
X79870000Y-54500000D02*
X79870000Y-53300000D01*
X81630000Y-53300000D02*
X81630000Y-54500000D01*
G04 #@! TO.C,BZ1*
D13*
X86919047Y-50728571D02*
X87061904Y-50776190D01*
X87109523Y-50823809D01*
X87157142Y-50919047D01*
X87157142Y-51061904D01*
X87109523Y-51157142D01*
X87061904Y-51204761D01*
X86966666Y-51252380D01*
X86585714Y-51252380D01*
X86585714Y-50252380D01*
X86919047Y-50252380D01*
X87014285Y-50300000D01*
X87061904Y-50347619D01*
X87109523Y-50442857D01*
X87109523Y-50538095D01*
X87061904Y-50633333D01*
X87014285Y-50680952D01*
X86919047Y-50728571D01*
X86585714Y-50728571D01*
X87490476Y-50252380D02*
X88157142Y-50252380D01*
X87490476Y-51252380D01*
X88157142Y-51252380D01*
X89061904Y-51252380D02*
X88490476Y-51252380D01*
X88776190Y-51252380D02*
X88776190Y-50252380D01*
X88680952Y-50395238D01*
X88585714Y-50490476D01*
X88490476Y-50538095D01*
X83609047Y-55531428D02*
X84370952Y-55531428D01*
X83990000Y-55912380D02*
X83990000Y-55150476D01*
G04 #@! TO.C,D1*
X91261904Y-114752380D02*
X91261904Y-113752380D01*
X91500000Y-113752380D01*
X91642857Y-113800000D01*
X91738095Y-113895238D01*
X91785714Y-113990476D01*
X91833333Y-114180952D01*
X91833333Y-114323809D01*
X91785714Y-114514285D01*
X91738095Y-114609523D01*
X91642857Y-114704761D01*
X91500000Y-114752380D01*
X91261904Y-114752380D01*
X92785714Y-114752380D02*
X92214285Y-114752380D01*
X92500000Y-114752380D02*
X92500000Y-113752380D01*
X92404761Y-113895238D01*
X92309523Y-113990476D01*
X92214285Y-114038095D01*
G04 #@! TO.C,D2*
X91261904Y-120452380D02*
X91261904Y-119452380D01*
X91500000Y-119452380D01*
X91642857Y-119500000D01*
X91738095Y-119595238D01*
X91785714Y-119690476D01*
X91833333Y-119880952D01*
X91833333Y-120023809D01*
X91785714Y-120214285D01*
X91738095Y-120309523D01*
X91642857Y-120404761D01*
X91500000Y-120452380D01*
X91261904Y-120452380D01*
X92214285Y-119547619D02*
X92261904Y-119500000D01*
X92357142Y-119452380D01*
X92595238Y-119452380D01*
X92690476Y-119500000D01*
X92738095Y-119547619D01*
X92785714Y-119642857D01*
X92785714Y-119738095D01*
X92738095Y-119880952D01*
X92166666Y-120452380D01*
X92785714Y-120452380D01*
G04 #@! TO.C,D4*
X80011904Y-60452380D02*
X80011904Y-59452380D01*
X80250000Y-59452380D01*
X80392857Y-59500000D01*
X80488095Y-59595238D01*
X80535714Y-59690476D01*
X80583333Y-59880952D01*
X80583333Y-60023809D01*
X80535714Y-60214285D01*
X80488095Y-60309523D01*
X80392857Y-60404761D01*
X80250000Y-60452380D01*
X80011904Y-60452380D01*
X81440476Y-59785714D02*
X81440476Y-60452380D01*
X81202380Y-59404761D02*
X80964285Y-60119047D01*
X81583333Y-60119047D01*
G04 #@! TO.C,D5*
X61511904Y-52452380D02*
X61511904Y-51452380D01*
X61750000Y-51452380D01*
X61892857Y-51500000D01*
X61988095Y-51595238D01*
X62035714Y-51690476D01*
X62083333Y-51880952D01*
X62083333Y-52023809D01*
X62035714Y-52214285D01*
X61988095Y-52309523D01*
X61892857Y-52404761D01*
X61750000Y-52452380D01*
X61511904Y-52452380D01*
X62988095Y-51452380D02*
X62511904Y-51452380D01*
X62464285Y-51928571D01*
X62511904Y-51880952D01*
X62607142Y-51833333D01*
X62845238Y-51833333D01*
X62940476Y-51880952D01*
X62988095Y-51928571D01*
X63035714Y-52023809D01*
X63035714Y-52261904D01*
X62988095Y-52357142D01*
X62940476Y-52404761D01*
X62845238Y-52452380D01*
X62607142Y-52452380D01*
X62511904Y-52404761D01*
X62464285Y-52357142D01*
G04 #@! TO.C,D6*
X61511904Y-54452380D02*
X61511904Y-53452380D01*
X61750000Y-53452380D01*
X61892857Y-53500000D01*
X61988095Y-53595238D01*
X62035714Y-53690476D01*
X62083333Y-53880952D01*
X62083333Y-54023809D01*
X62035714Y-54214285D01*
X61988095Y-54309523D01*
X61892857Y-54404761D01*
X61750000Y-54452380D01*
X61511904Y-54452380D01*
X62940476Y-53452380D02*
X62750000Y-53452380D01*
X62654761Y-53500000D01*
X62607142Y-53547619D01*
X62511904Y-53690476D01*
X62464285Y-53880952D01*
X62464285Y-54261904D01*
X62511904Y-54357142D01*
X62559523Y-54404761D01*
X62654761Y-54452380D01*
X62845238Y-54452380D01*
X62940476Y-54404761D01*
X62988095Y-54357142D01*
X63035714Y-54261904D01*
X63035714Y-54023809D01*
X62988095Y-53928571D01*
X62940476Y-53880952D01*
X62845238Y-53833333D01*
X62654761Y-53833333D01*
X62559523Y-53880952D01*
X62511904Y-53928571D01*
X62464285Y-54023809D01*
G04 #@! TO.C,IC1*
X79452380Y-76976190D02*
X78452380Y-76976190D01*
X79357142Y-75928571D02*
X79404761Y-75976190D01*
X79452380Y-76119047D01*
X79452380Y-76214285D01*
X79404761Y-76357142D01*
X79309523Y-76452380D01*
X79214285Y-76500000D01*
X79023809Y-76547619D01*
X78880952Y-76547619D01*
X78690476Y-76500000D01*
X78595238Y-76452380D01*
X78500000Y-76357142D01*
X78452380Y-76214285D01*
X78452380Y-76119047D01*
X78500000Y-75976190D01*
X78547619Y-75928571D01*
X79452380Y-74976190D02*
X79452380Y-75547619D01*
X79452380Y-75261904D02*
X78452380Y-75261904D01*
X78595238Y-75357142D01*
X78690476Y-75452380D01*
X78738095Y-75547619D01*
G04 #@! TO.C,J1*
X55666666Y-52202380D02*
X55666666Y-52916666D01*
X55619047Y-53059523D01*
X55523809Y-53154761D01*
X55380952Y-53202380D01*
X55285714Y-53202380D01*
X56666666Y-53202380D02*
X56095238Y-53202380D01*
X56380952Y-53202380D02*
X56380952Y-52202380D01*
X56285714Y-52345238D01*
X56190476Y-52440476D01*
X56095238Y-52488095D01*
G04 #@! TO.C,J2*
X69916666Y-51202380D02*
X69916666Y-51916666D01*
X69869047Y-52059523D01*
X69773809Y-52154761D01*
X69630952Y-52202380D01*
X69535714Y-52202380D01*
X70345238Y-51297619D02*
X70392857Y-51250000D01*
X70488095Y-51202380D01*
X70726190Y-51202380D01*
X70821428Y-51250000D01*
X70869047Y-51297619D01*
X70916666Y-51392857D01*
X70916666Y-51488095D01*
X70869047Y-51630952D01*
X70297619Y-52202380D01*
X70916666Y-52202380D01*
G04 #@! TO.C,R3*
X67133333Y-109752380D02*
X66800000Y-109276190D01*
X66561904Y-109752380D02*
X66561904Y-108752380D01*
X66942857Y-108752380D01*
X67038095Y-108800000D01*
X67085714Y-108847619D01*
X67133333Y-108942857D01*
X67133333Y-109085714D01*
X67085714Y-109180952D01*
X67038095Y-109228571D01*
X66942857Y-109276190D01*
X66561904Y-109276190D01*
X67466666Y-108752380D02*
X68085714Y-108752380D01*
X67752380Y-109133333D01*
X67895238Y-109133333D01*
X67990476Y-109180952D01*
X68038095Y-109228571D01*
X68085714Y-109323809D01*
X68085714Y-109561904D01*
X68038095Y-109657142D01*
X67990476Y-109704761D01*
X67895238Y-109752380D01*
X67609523Y-109752380D01*
X67514285Y-109704761D01*
X67466666Y-109657142D01*
G04 #@! TO.C,R12*
X77007142Y-118152380D02*
X76673809Y-117676190D01*
X76435714Y-118152380D02*
X76435714Y-117152380D01*
X76816666Y-117152380D01*
X76911904Y-117200000D01*
X76959523Y-117247619D01*
X77007142Y-117342857D01*
X77007142Y-117485714D01*
X76959523Y-117580952D01*
X76911904Y-117628571D01*
X76816666Y-117676190D01*
X76435714Y-117676190D01*
X77959523Y-118152380D02*
X77388095Y-118152380D01*
X77673809Y-118152380D02*
X77673809Y-117152380D01*
X77578571Y-117295238D01*
X77483333Y-117390476D01*
X77388095Y-117438095D01*
X78340476Y-117247619D02*
X78388095Y-117200000D01*
X78483333Y-117152380D01*
X78721428Y-117152380D01*
X78816666Y-117200000D01*
X78864285Y-117247619D01*
X78911904Y-117342857D01*
X78911904Y-117438095D01*
X78864285Y-117580952D01*
X78292857Y-118152380D01*
X78911904Y-118152380D01*
G04 #@! TO.C,R20*
X61607142Y-57202380D02*
X61273809Y-56726190D01*
X61035714Y-57202380D02*
X61035714Y-56202380D01*
X61416666Y-56202380D01*
X61511904Y-56250000D01*
X61559523Y-56297619D01*
X61607142Y-56392857D01*
X61607142Y-56535714D01*
X61559523Y-56630952D01*
X61511904Y-56678571D01*
X61416666Y-56726190D01*
X61035714Y-56726190D01*
X61988095Y-56297619D02*
X62035714Y-56250000D01*
X62130952Y-56202380D01*
X62369047Y-56202380D01*
X62464285Y-56250000D01*
X62511904Y-56297619D01*
X62559523Y-56392857D01*
X62559523Y-56488095D01*
X62511904Y-56630952D01*
X61940476Y-57202380D01*
X62559523Y-57202380D01*
X63178571Y-56202380D02*
X63273809Y-56202380D01*
X63369047Y-56250000D01*
X63416666Y-56297619D01*
X63464285Y-56392857D01*
X63511904Y-56583333D01*
X63511904Y-56821428D01*
X63464285Y-57011904D01*
X63416666Y-57107142D01*
X63369047Y-57154761D01*
X63273809Y-57202380D01*
X63178571Y-57202380D01*
X63083333Y-57154761D01*
X63035714Y-57107142D01*
X62988095Y-57011904D01*
X62940476Y-56821428D01*
X62940476Y-56583333D01*
X62988095Y-56392857D01*
X63035714Y-56297619D01*
X63083333Y-56250000D01*
X63178571Y-56202380D01*
G04 #@! TO.C,R21*
X61607142Y-59202380D02*
X61273809Y-58726190D01*
X61035714Y-59202380D02*
X61035714Y-58202380D01*
X61416666Y-58202380D01*
X61511904Y-58250000D01*
X61559523Y-58297619D01*
X61607142Y-58392857D01*
X61607142Y-58535714D01*
X61559523Y-58630952D01*
X61511904Y-58678571D01*
X61416666Y-58726190D01*
X61035714Y-58726190D01*
X61988095Y-58297619D02*
X62035714Y-58250000D01*
X62130952Y-58202380D01*
X62369047Y-58202380D01*
X62464285Y-58250000D01*
X62511904Y-58297619D01*
X62559523Y-58392857D01*
X62559523Y-58488095D01*
X62511904Y-58630952D01*
X61940476Y-59202380D01*
X62559523Y-59202380D01*
X63511904Y-59202380D02*
X62940476Y-59202380D01*
X63226190Y-59202380D02*
X63226190Y-58202380D01*
X63130952Y-58345238D01*
X63035714Y-58440476D01*
X62940476Y-58488095D01*
G04 #@! TO.C,R23*
X62357142Y-82452380D02*
X62023809Y-81976190D01*
X61785714Y-82452380D02*
X61785714Y-81452380D01*
X62166666Y-81452380D01*
X62261904Y-81500000D01*
X62309523Y-81547619D01*
X62357142Y-81642857D01*
X62357142Y-81785714D01*
X62309523Y-81880952D01*
X62261904Y-81928571D01*
X62166666Y-81976190D01*
X61785714Y-81976190D01*
X62738095Y-81547619D02*
X62785714Y-81500000D01*
X62880952Y-81452380D01*
X63119047Y-81452380D01*
X63214285Y-81500000D01*
X63261904Y-81547619D01*
X63309523Y-81642857D01*
X63309523Y-81738095D01*
X63261904Y-81880952D01*
X62690476Y-82452380D01*
X63309523Y-82452380D01*
X63642857Y-81452380D02*
X64261904Y-81452380D01*
X63928571Y-81833333D01*
X64071428Y-81833333D01*
X64166666Y-81880952D01*
X64214285Y-81928571D01*
X64261904Y-82023809D01*
X64261904Y-82261904D01*
X64214285Y-82357142D01*
X64166666Y-82404761D01*
X64071428Y-82452380D01*
X63785714Y-82452380D01*
X63690476Y-82404761D01*
X63642857Y-82357142D01*
G04 #@! TO.C,RV1*
X56154761Y-61452380D02*
X55821428Y-60976190D01*
X55583333Y-61452380D02*
X55583333Y-60452380D01*
X55964285Y-60452380D01*
X56059523Y-60500000D01*
X56107142Y-60547619D01*
X56154761Y-60642857D01*
X56154761Y-60785714D01*
X56107142Y-60880952D01*
X56059523Y-60928571D01*
X55964285Y-60976190D01*
X55583333Y-60976190D01*
X56440476Y-60452380D02*
X56773809Y-61452380D01*
X57107142Y-60452380D01*
X57964285Y-61452380D02*
X57392857Y-61452380D01*
X57678571Y-61452380D02*
X57678571Y-60452380D01*
X57583333Y-60595238D01*
X57488095Y-60690476D01*
X57392857Y-60738095D01*
G04 #@! TO.C,SW1*
X91734761Y-113333333D02*
X91782380Y-113190476D01*
X91782380Y-112952380D01*
X91734761Y-112857142D01*
X91687142Y-112809523D01*
X91591904Y-112761904D01*
X91496666Y-112761904D01*
X91401428Y-112809523D01*
X91353809Y-112857142D01*
X91306190Y-112952380D01*
X91258571Y-113142857D01*
X91210952Y-113238095D01*
X91163333Y-113285714D01*
X91068095Y-113333333D01*
X90972857Y-113333333D01*
X90877619Y-113285714D01*
X90830000Y-113238095D01*
X90782380Y-113142857D01*
X90782380Y-112904761D01*
X90830000Y-112761904D01*
X90782380Y-112428571D02*
X91782380Y-112190476D01*
X91068095Y-112000000D01*
X91782380Y-111809523D01*
X90782380Y-111571428D01*
X91782380Y-110666666D02*
X91782380Y-111238095D01*
X91782380Y-110952380D02*
X90782380Y-110952380D01*
X90925238Y-111047619D01*
X91020476Y-111142857D01*
X91068095Y-111238095D01*
G04 #@! TO.C,SW2*
X71534761Y-113333333D02*
X71582380Y-113190476D01*
X71582380Y-112952380D01*
X71534761Y-112857142D01*
X71487142Y-112809523D01*
X71391904Y-112761904D01*
X71296666Y-112761904D01*
X71201428Y-112809523D01*
X71153809Y-112857142D01*
X71106190Y-112952380D01*
X71058571Y-113142857D01*
X71010952Y-113238095D01*
X70963333Y-113285714D01*
X70868095Y-113333333D01*
X70772857Y-113333333D01*
X70677619Y-113285714D01*
X70630000Y-113238095D01*
X70582380Y-113142857D01*
X70582380Y-112904761D01*
X70630000Y-112761904D01*
X70582380Y-112428571D02*
X71582380Y-112190476D01*
X70868095Y-112000000D01*
X71582380Y-111809523D01*
X70582380Y-111571428D01*
X70677619Y-111238095D02*
X70630000Y-111190476D01*
X70582380Y-111095238D01*
X70582380Y-110857142D01*
X70630000Y-110761904D01*
X70677619Y-110714285D01*
X70772857Y-110666666D01*
X70868095Y-110666666D01*
X71010952Y-110714285D01*
X71582380Y-111285714D01*
X71582380Y-110666666D01*
G04 #@! TO.C,SW3*
X62916666Y-113654761D02*
X63059523Y-113702380D01*
X63297619Y-113702380D01*
X63392857Y-113654761D01*
X63440476Y-113607142D01*
X63488095Y-113511904D01*
X63488095Y-113416666D01*
X63440476Y-113321428D01*
X63392857Y-113273809D01*
X63297619Y-113226190D01*
X63107142Y-113178571D01*
X63011904Y-113130952D01*
X62964285Y-113083333D01*
X62916666Y-112988095D01*
X62916666Y-112892857D01*
X62964285Y-112797619D01*
X63011904Y-112750000D01*
X63107142Y-112702380D01*
X63345238Y-112702380D01*
X63488095Y-112750000D01*
X63821428Y-112702380D02*
X64059523Y-113702380D01*
X64250000Y-112988095D01*
X64440476Y-113702380D01*
X64678571Y-112702380D01*
X64964285Y-112702380D02*
X65583333Y-112702380D01*
X65250000Y-113083333D01*
X65392857Y-113083333D01*
X65488095Y-113130952D01*
X65535714Y-113178571D01*
X65583333Y-113273809D01*
X65583333Y-113511904D01*
X65535714Y-113607142D01*
X65488095Y-113654761D01*
X65392857Y-113702380D01*
X65107142Y-113702380D01*
X65011904Y-113654761D01*
X64964285Y-113607142D01*
G04 #@! TO.C,SW4*
X62916666Y-133654761D02*
X63059523Y-133702380D01*
X63297619Y-133702380D01*
X63392857Y-133654761D01*
X63440476Y-133607142D01*
X63488095Y-133511904D01*
X63488095Y-133416666D01*
X63440476Y-133321428D01*
X63392857Y-133273809D01*
X63297619Y-133226190D01*
X63107142Y-133178571D01*
X63011904Y-133130952D01*
X62964285Y-133083333D01*
X62916666Y-132988095D01*
X62916666Y-132892857D01*
X62964285Y-132797619D01*
X63011904Y-132750000D01*
X63107142Y-132702380D01*
X63345238Y-132702380D01*
X63488095Y-132750000D01*
X63821428Y-132702380D02*
X64059523Y-133702380D01*
X64250000Y-132988095D01*
X64440476Y-133702380D01*
X64678571Y-132702380D01*
X65488095Y-133035714D02*
X65488095Y-133702380D01*
X65250000Y-132654761D02*
X65011904Y-133369047D01*
X65630952Y-133369047D01*
G04 #@! TO.C,SW5*
X54166666Y-123654761D02*
X54309523Y-123702380D01*
X54547619Y-123702380D01*
X54642857Y-123654761D01*
X54690476Y-123607142D01*
X54738095Y-123511904D01*
X54738095Y-123416666D01*
X54690476Y-123321428D01*
X54642857Y-123273809D01*
X54547619Y-123226190D01*
X54357142Y-123178571D01*
X54261904Y-123130952D01*
X54214285Y-123083333D01*
X54166666Y-122988095D01*
X54166666Y-122892857D01*
X54214285Y-122797619D01*
X54261904Y-122750000D01*
X54357142Y-122702380D01*
X54595238Y-122702380D01*
X54738095Y-122750000D01*
X55071428Y-122702380D02*
X55309523Y-123702380D01*
X55500000Y-122988095D01*
X55690476Y-123702380D01*
X55928571Y-122702380D01*
X56785714Y-122702380D02*
X56309523Y-122702380D01*
X56261904Y-123178571D01*
X56309523Y-123130952D01*
X56404761Y-123083333D01*
X56642857Y-123083333D01*
X56738095Y-123130952D01*
X56785714Y-123178571D01*
X56833333Y-123273809D01*
X56833333Y-123511904D01*
X56785714Y-123607142D01*
X56738095Y-123654761D01*
X56642857Y-123702380D01*
X56404761Y-123702380D01*
X56309523Y-123654761D01*
X56261904Y-123607142D01*
G04 #@! TO.C,SW6*
X71916666Y-123654761D02*
X72059523Y-123702380D01*
X72297619Y-123702380D01*
X72392857Y-123654761D01*
X72440476Y-123607142D01*
X72488095Y-123511904D01*
X72488095Y-123416666D01*
X72440476Y-123321428D01*
X72392857Y-123273809D01*
X72297619Y-123226190D01*
X72107142Y-123178571D01*
X72011904Y-123130952D01*
X71964285Y-123083333D01*
X71916666Y-122988095D01*
X71916666Y-122892857D01*
X71964285Y-122797619D01*
X72011904Y-122750000D01*
X72107142Y-122702380D01*
X72345238Y-122702380D01*
X72488095Y-122750000D01*
X72821428Y-122702380D02*
X73059523Y-123702380D01*
X73250000Y-122988095D01*
X73440476Y-123702380D01*
X73678571Y-122702380D01*
X74488095Y-122702380D02*
X74297619Y-122702380D01*
X74202380Y-122750000D01*
X74154761Y-122797619D01*
X74059523Y-122940476D01*
X74011904Y-123130952D01*
X74011904Y-123511904D01*
X74059523Y-123607142D01*
X74107142Y-123654761D01*
X74202380Y-123702380D01*
X74392857Y-123702380D01*
X74488095Y-123654761D01*
X74535714Y-123607142D01*
X74583333Y-123511904D01*
X74583333Y-123273809D01*
X74535714Y-123178571D01*
X74488095Y-123130952D01*
X74392857Y-123083333D01*
X74202380Y-123083333D01*
X74107142Y-123130952D01*
X74059523Y-123178571D01*
X74011904Y-123273809D01*
G04 #@! TO.C,SW7*
X87916666Y-123654761D02*
X88059523Y-123702380D01*
X88297619Y-123702380D01*
X88392857Y-123654761D01*
X88440476Y-123607142D01*
X88488095Y-123511904D01*
X88488095Y-123416666D01*
X88440476Y-123321428D01*
X88392857Y-123273809D01*
X88297619Y-123226190D01*
X88107142Y-123178571D01*
X88011904Y-123130952D01*
X87964285Y-123083333D01*
X87916666Y-122988095D01*
X87916666Y-122892857D01*
X87964285Y-122797619D01*
X88011904Y-122750000D01*
X88107142Y-122702380D01*
X88345238Y-122702380D01*
X88488095Y-122750000D01*
X88821428Y-122702380D02*
X89059523Y-123702380D01*
X89250000Y-122988095D01*
X89440476Y-123702380D01*
X89678571Y-122702380D01*
X89964285Y-122702380D02*
X90630952Y-122702380D01*
X90202380Y-123702380D01*
G04 #@! TO.C,SW8*
X80416666Y-135654761D02*
X80559523Y-135702380D01*
X80797619Y-135702380D01*
X80892857Y-135654761D01*
X80940476Y-135607142D01*
X80988095Y-135511904D01*
X80988095Y-135416666D01*
X80940476Y-135321428D01*
X80892857Y-135273809D01*
X80797619Y-135226190D01*
X80607142Y-135178571D01*
X80511904Y-135130952D01*
X80464285Y-135083333D01*
X80416666Y-134988095D01*
X80416666Y-134892857D01*
X80464285Y-134797619D01*
X80511904Y-134750000D01*
X80607142Y-134702380D01*
X80845238Y-134702380D01*
X80988095Y-134750000D01*
X81321428Y-134702380D02*
X81559523Y-135702380D01*
X81750000Y-134988095D01*
X81940476Y-135702380D01*
X82178571Y-134702380D01*
X82702380Y-135130952D02*
X82607142Y-135083333D01*
X82559523Y-135035714D01*
X82511904Y-134940476D01*
X82511904Y-134892857D01*
X82559523Y-134797619D01*
X82607142Y-134750000D01*
X82702380Y-134702380D01*
X82892857Y-134702380D01*
X82988095Y-134750000D01*
X83035714Y-134797619D01*
X83083333Y-134892857D01*
X83083333Y-134940476D01*
X83035714Y-135035714D01*
X82988095Y-135083333D01*
X82892857Y-135130952D01*
X82702380Y-135130952D01*
X82607142Y-135178571D01*
X82559523Y-135226190D01*
X82511904Y-135321428D01*
X82511904Y-135511904D01*
X82559523Y-135607142D01*
X82607142Y-135654761D01*
X82702380Y-135702380D01*
X82892857Y-135702380D01*
X82988095Y-135654761D01*
X83035714Y-135607142D01*
X83083333Y-135511904D01*
X83083333Y-135321428D01*
X83035714Y-135226190D01*
X82988095Y-135178571D01*
X82892857Y-135130952D01*
G04 #@! TO.C,U4*
X79238095Y-82952380D02*
X79238095Y-83761904D01*
X79285714Y-83857142D01*
X79333333Y-83904761D01*
X79428571Y-83952380D01*
X79619047Y-83952380D01*
X79714285Y-83904761D01*
X79761904Y-83857142D01*
X79809523Y-83761904D01*
X79809523Y-82952380D01*
X80714285Y-83285714D02*
X80714285Y-83952380D01*
X80476190Y-82904761D02*
X80238095Y-83619047D01*
X80857142Y-83619047D01*
G04 #@! TO.C,U7*
X60672380Y-67711904D02*
X61481904Y-67711904D01*
X61577142Y-67664285D01*
X61624761Y-67616666D01*
X61672380Y-67521428D01*
X61672380Y-67330952D01*
X61624761Y-67235714D01*
X61577142Y-67188095D01*
X61481904Y-67140476D01*
X60672380Y-67140476D01*
X60672380Y-66759523D02*
X60672380Y-66092857D01*
X61672380Y-66521428D01*
G04 #@! TO.C,TP1*
X83738095Y-107702380D02*
X84309523Y-107702380D01*
X84023809Y-108702380D02*
X84023809Y-107702380D01*
X84642857Y-108702380D02*
X84642857Y-107702380D01*
X85023809Y-107702380D01*
X85119047Y-107750000D01*
X85166666Y-107797619D01*
X85214285Y-107892857D01*
X85214285Y-108035714D01*
X85166666Y-108130952D01*
X85119047Y-108178571D01*
X85023809Y-108226190D01*
X84642857Y-108226190D01*
X86166666Y-108702380D02*
X85595238Y-108702380D01*
X85880952Y-108702380D02*
X85880952Y-107702380D01*
X85785714Y-107845238D01*
X85690476Y-107940476D01*
X85595238Y-107988095D01*
G04 #@! TO.C,TP2*
X83738095Y-105202380D02*
X84309523Y-105202380D01*
X84023809Y-106202380D02*
X84023809Y-105202380D01*
X84642857Y-106202380D02*
X84642857Y-105202380D01*
X85023809Y-105202380D01*
X85119047Y-105250000D01*
X85166666Y-105297619D01*
X85214285Y-105392857D01*
X85214285Y-105535714D01*
X85166666Y-105630952D01*
X85119047Y-105678571D01*
X85023809Y-105726190D01*
X84642857Y-105726190D01*
X85595238Y-105297619D02*
X85642857Y-105250000D01*
X85738095Y-105202380D01*
X85976190Y-105202380D01*
X86071428Y-105250000D01*
X86119047Y-105297619D01*
X86166666Y-105392857D01*
X86166666Y-105488095D01*
X86119047Y-105630952D01*
X85547619Y-106202380D01*
X86166666Y-106202380D01*
G04 #@! TO.C,R24*
X82607142Y-52702380D02*
X82273809Y-52226190D01*
X82035714Y-52702380D02*
X82035714Y-51702380D01*
X82416666Y-51702380D01*
X82511904Y-51750000D01*
X82559523Y-51797619D01*
X82607142Y-51892857D01*
X82607142Y-52035714D01*
X82559523Y-52130952D01*
X82511904Y-52178571D01*
X82416666Y-52226190D01*
X82035714Y-52226190D01*
X82988095Y-51797619D02*
X83035714Y-51750000D01*
X83130952Y-51702380D01*
X83369047Y-51702380D01*
X83464285Y-51750000D01*
X83511904Y-51797619D01*
X83559523Y-51892857D01*
X83559523Y-51988095D01*
X83511904Y-52130952D01*
X82940476Y-52702380D01*
X83559523Y-52702380D01*
X84416666Y-52035714D02*
X84416666Y-52702380D01*
X84178571Y-51654761D02*
X83940476Y-52369047D01*
X84559523Y-52369047D01*
G04 #@! TD*
M02*
