G04 #@! TF.GenerationSoftware,KiCad,Pcbnew,5.0.1*
G04 #@! TF.CreationDate,2018-10-22T16:16:30+01:00*
G04 #@! TF.ProjectId,quiz-sch,7175697A2D7363682E6B696361645F70,rev?*
G04 #@! TF.SameCoordinates,Original*
G04 #@! TF.FileFunction,Copper,L2,Bot,Signal*
G04 #@! TF.FilePolarity,Positive*
%FSLAX46Y46*%
G04 Gerber Fmt 4.6, Leading zero omitted, Abs format (unit mm)*
G04 Created by KiCad (PCBNEW 5.0.1) date Mon 22 Oct 2018 16:16:30 BST*
%MOMM*%
%LPD*%
G01*
G04 APERTURE LIST*
G04 #@! TA.AperFunction,SMDPad,CuDef*
%ADD10R,1.500000X3.400000*%
G04 #@! TD*
G04 #@! TA.AperFunction,SMDPad,CuDef*
%ADD11R,1.000000X3.500000*%
G04 #@! TD*
G04 #@! TA.AperFunction,ComponentPad*
%ADD12C,2.000000*%
G04 #@! TD*
G04 #@! TA.AperFunction,ComponentPad*
%ADD13R,2.000000X2.000000*%
G04 #@! TD*
G04 #@! TA.AperFunction,SMDPad,CuDef*
%ADD14R,2.000000X1.600000*%
G04 #@! TD*
G04 #@! TA.AperFunction,SMDPad,CuDef*
%ADD15R,1.600000X2.000000*%
G04 #@! TD*
G04 #@! TA.AperFunction,SMDPad,CuDef*
%ADD16R,3.500000X1.600000*%
G04 #@! TD*
G04 #@! TA.AperFunction,SMDPad,CuDef*
%ADD17R,3.000000X1.600000*%
G04 #@! TD*
G04 #@! TA.AperFunction,SMDPad,CuDef*
%ADD18R,2.600000X1.600000*%
G04 #@! TD*
G04 #@! TA.AperFunction,SMDPad,CuDef*
%ADD19R,1.600000X3.000000*%
G04 #@! TD*
G04 #@! TA.AperFunction,SMDPad,CuDef*
%ADD20R,0.900000X1.200000*%
G04 #@! TD*
G04 #@! TA.AperFunction,ComponentPad*
%ADD21O,1.000000X1.550000*%
G04 #@! TD*
G04 #@! TA.AperFunction,ComponentPad*
%ADD22O,1.250000X0.950000*%
G04 #@! TD*
G04 #@! TA.AperFunction,ComponentPad*
%ADD23O,1.700000X1.700000*%
G04 #@! TD*
G04 #@! TA.AperFunction,ComponentPad*
%ADD24R,1.700000X1.700000*%
G04 #@! TD*
G04 #@! TA.AperFunction,SMDPad,CuDef*
%ADD25R,1.500000X2.200000*%
G04 #@! TD*
G04 #@! TA.AperFunction,SMDPad,CuDef*
%ADD26R,0.900000X0.800000*%
G04 #@! TD*
G04 #@! TA.AperFunction,SMDPad,CuDef*
%ADD27R,1.500000X1.300000*%
G04 #@! TD*
G04 #@! TA.AperFunction,SMDPad,CuDef*
%ADD28R,1.300000X1.500000*%
G04 #@! TD*
G04 #@! TA.AperFunction,SMDPad,CuDef*
%ADD29R,1.560000X0.650000*%
G04 #@! TD*
G04 #@! TA.AperFunction,SMDPad,CuDef*
%ADD30R,0.550000X1.600000*%
G04 #@! TD*
G04 #@! TA.AperFunction,SMDPad,CuDef*
%ADD31R,1.600000X0.550000*%
G04 #@! TD*
G04 #@! TA.AperFunction,SMDPad,CuDef*
%ADD32R,1.250000X1.250000*%
G04 #@! TD*
G04 #@! TA.AperFunction,SMDPad,CuDef*
%ADD33R,0.350000X0.800000*%
G04 #@! TD*
G04 #@! TA.AperFunction,SMDPad,CuDef*
%ADD34R,0.800000X0.350000*%
G04 #@! TD*
G04 #@! TA.AperFunction,SMDPad,CuDef*
%ADD35R,1.500000X0.600000*%
G04 #@! TD*
G04 #@! TA.AperFunction,SMDPad,CuDef*
%ADD36R,1.750000X0.450000*%
G04 #@! TD*
G04 #@! TA.AperFunction,SMDPad,CuDef*
%ADD37R,2.000000X7.875000*%
G04 #@! TD*
G04 #@! TA.AperFunction,ViaPad*
%ADD38C,0.800000*%
G04 #@! TD*
G04 #@! TA.AperFunction,Conductor*
%ADD39C,0.250000*%
G04 #@! TD*
G04 #@! TA.AperFunction,Conductor*
%ADD40C,0.254000*%
G04 #@! TD*
G04 APERTURE END LIST*
D10*
G04 #@! TO.P,BT1,*
G04 #@! TO.N,*
X92350000Y-75125000D03*
X85650000Y-75125000D03*
D11*
G04 #@! TO.P,BT1,2*
G04 #@! TO.N,GND*
X90000000Y-80875000D03*
G04 #@! TO.P,BT1,1*
G04 #@! TO.N,+BATT*
X88000000Y-80875000D03*
G04 #@! TD*
D12*
G04 #@! TO.P,BZ1,2*
G04 #@! TO.N,Net-(BZ1-Pad2)*
X91600000Y-58000000D03*
D13*
G04 #@! TO.P,BZ1,1*
G04 #@! TO.N,Net-(BZ1-Pad1)*
X84000000Y-58000000D03*
G04 #@! TD*
D14*
G04 #@! TO.P,C1,2*
G04 #@! TO.N,GND*
X82000000Y-147000000D03*
G04 #@! TO.P,C1,1*
G04 #@! TO.N,VBUS*
X78000000Y-147000000D03*
G04 #@! TD*
D15*
G04 #@! TO.P,C2,1*
G04 #@! TO.N,+BATT*
X93000000Y-107000000D03*
G04 #@! TO.P,C2,2*
G04 #@! TO.N,GND*
X93000000Y-111000000D03*
G04 #@! TD*
G04 #@! TO.P,C3,2*
G04 #@! TO.N,GND*
X93000000Y-98000000D03*
G04 #@! TO.P,C3,1*
G04 #@! TO.N,+BATT*
X93000000Y-102000000D03*
G04 #@! TD*
G04 #@! TO.P,C4,2*
G04 #@! TO.N,GND*
X52000000Y-96000000D03*
G04 #@! TO.P,C4,1*
G04 #@! TO.N,Net-(C4-Pad1)*
X52000000Y-100000000D03*
G04 #@! TD*
G04 #@! TO.P,C5,1*
G04 #@! TO.N,Net-(C5-Pad1)*
X52000000Y-88000000D03*
G04 #@! TO.P,C5,2*
G04 #@! TO.N,GND*
X52000000Y-92000000D03*
G04 #@! TD*
D14*
G04 #@! TO.P,C6,1*
G04 #@! TO.N,+5V*
X70000000Y-147000000D03*
G04 #@! TO.P,C6,2*
G04 #@! TO.N,GND*
X74000000Y-147000000D03*
G04 #@! TD*
D16*
G04 #@! TO.P,C7,2*
G04 #@! TO.N,GND*
X92000000Y-146000000D03*
G04 #@! TO.P,C7,1*
G04 #@! TO.N,+5V*
X86600000Y-146000000D03*
G04 #@! TD*
D17*
G04 #@! TO.P,C8,2*
G04 #@! TO.N,GND*
X70600000Y-138000000D03*
G04 #@! TO.P,C8,1*
G04 #@! TO.N,VBUS*
X75000000Y-138000000D03*
G04 #@! TD*
D18*
G04 #@! TO.P,C9,2*
G04 #@! TO.N,GND*
X82800000Y-134000000D03*
G04 #@! TO.P,C9,1*
G04 #@! TO.N,VBUS*
X79200000Y-134000000D03*
G04 #@! TD*
D14*
G04 #@! TO.P,C10,1*
G04 #@! TO.N,Net-(C10-Pad1)*
X87000000Y-55000000D03*
G04 #@! TO.P,C10,2*
G04 #@! TO.N,GND*
X91000000Y-55000000D03*
G04 #@! TD*
D18*
G04 #@! TO.P,C11,1*
G04 #@! TO.N,+5V*
X79200000Y-127000000D03*
G04 #@! TO.P,C11,2*
G04 #@! TO.N,GND*
X82800000Y-127000000D03*
G04 #@! TD*
D19*
G04 #@! TO.P,C12,1*
G04 #@! TO.N,+3V3*
X91000000Y-135600000D03*
G04 #@! TO.P,C12,2*
G04 #@! TO.N,GND*
X91000000Y-140000000D03*
G04 #@! TD*
D20*
G04 #@! TO.P,D3,2*
G04 #@! TO.N,Net-(BZ1-Pad2)*
X89650000Y-61000000D03*
G04 #@! TO.P,D3,1*
G04 #@! TO.N,Net-(BZ1-Pad1)*
X86350000Y-61000000D03*
G04 #@! TD*
D21*
G04 #@! TO.P,J1,6*
G04 #@! TO.N,GND*
X52500000Y-52650000D03*
X59500000Y-52650000D03*
D22*
X53500000Y-55350000D03*
X58500000Y-55350000D03*
G04 #@! TD*
D23*
G04 #@! TO.P,J2,6*
G04 #@! TO.N,GND*
X78080000Y-52460000D03*
G04 #@! TO.P,J2,5*
G04 #@! TO.N,/RESET*
X78080000Y-55000000D03*
G04 #@! TO.P,J2,4*
G04 #@! TO.N,/MOSI*
X75540000Y-52460000D03*
G04 #@! TO.P,J2,3*
G04 #@! TO.N,/SCK*
X75540000Y-55000000D03*
G04 #@! TO.P,J2,2*
G04 #@! TO.N,+5V*
X73000000Y-52460000D03*
D24*
G04 #@! TO.P,J2,1*
G04 #@! TO.N,/MISO*
X73000000Y-55000000D03*
G04 #@! TD*
D25*
G04 #@! TO.P,L1,2*
G04 #@! TO.N,Net-(L1-Pad2)*
X88200000Y-100000000D03*
G04 #@! TO.P,L1,1*
G04 #@! TO.N,+BATT*
X81800000Y-100000000D03*
G04 #@! TD*
D15*
G04 #@! TO.P,L2,2*
G04 #@! TO.N,Net-(J1-Pad1)*
X57000000Y-59000000D03*
G04 #@! TO.P,L2,1*
G04 #@! TO.N,VBUS*
X57000000Y-63000000D03*
G04 #@! TD*
D26*
G04 #@! TO.P,Q1,1*
G04 #@! TO.N,Net-(Q1-Pad1)*
X86000000Y-119950000D03*
G04 #@! TO.P,Q1,2*
G04 #@! TO.N,Net-(Q1-Pad2)*
X86000000Y-118050000D03*
G04 #@! TO.P,Q1,3*
G04 #@! TO.N,+BATT*
X88000000Y-119000000D03*
G04 #@! TD*
G04 #@! TO.P,Q2,3*
G04 #@! TO.N,Net-(BZ1-Pad2)*
X93000000Y-66000000D03*
G04 #@! TO.P,Q2,2*
G04 #@! TO.N,GND*
X91000000Y-65050000D03*
G04 #@! TO.P,Q2,1*
G04 #@! TO.N,Net-(Q2-Pad1)*
X91000000Y-66950000D03*
G04 #@! TD*
D27*
G04 #@! TO.P,R1,1*
G04 #@! TO.N,Net-(R1-Pad1)*
X93000000Y-94000000D03*
G04 #@! TO.P,R1,2*
G04 #@! TO.N,GND*
X90300000Y-94000000D03*
G04 #@! TD*
G04 #@! TO.P,R2,2*
G04 #@! TO.N,Net-(R2-Pad2)*
X90000000Y-107000000D03*
G04 #@! TO.P,R2,1*
G04 #@! TO.N,Net-(D1-Pad1)*
X87300000Y-107000000D03*
G04 #@! TD*
G04 #@! TO.P,R4,2*
G04 #@! TO.N,GND*
X71350000Y-107000000D03*
G04 #@! TO.P,R4,1*
G04 #@! TO.N,Net-(R3-Pad2)*
X68650000Y-107000000D03*
G04 #@! TD*
G04 #@! TO.P,R5,2*
G04 #@! TO.N,/LBO*
X80300000Y-120000000D03*
G04 #@! TO.P,R5,1*
G04 #@! TO.N,Net-(Q1-Pad1)*
X83000000Y-120000000D03*
G04 #@! TD*
G04 #@! TO.P,R6,1*
G04 #@! TO.N,Net-(D2-Pad2)*
X93000000Y-122000000D03*
G04 #@! TO.P,R6,2*
G04 #@! TO.N,Net-(Q1-Pad2)*
X90300000Y-122000000D03*
G04 #@! TD*
D28*
G04 #@! TO.P,R7,1*
G04 #@! TO.N,Net-(R7-Pad1)*
X58000000Y-99700000D03*
G04 #@! TO.P,R7,2*
G04 #@! TO.N,/BUZZ*
X58000000Y-97000000D03*
G04 #@! TD*
G04 #@! TO.P,R8,2*
G04 #@! TO.N,/RESET*
X62000000Y-97000000D03*
G04 #@! TO.P,R8,1*
G04 #@! TO.N,+5V*
X62000000Y-99700000D03*
G04 #@! TD*
G04 #@! TO.P,R9,2*
G04 #@! TO.N,/BLUE*
X83000000Y-80350000D03*
G04 #@! TO.P,R9,1*
G04 #@! TO.N,Net-(D4-Pad4)*
X83000000Y-77650000D03*
G04 #@! TD*
G04 #@! TO.P,R10,1*
G04 #@! TO.N,Net-(D4-Pad3)*
X81000000Y-77650000D03*
G04 #@! TO.P,R10,2*
G04 #@! TO.N,/GREEN*
X81000000Y-80350000D03*
G04 #@! TD*
G04 #@! TO.P,R11,2*
G04 #@! TO.N,/RED*
X79000000Y-80350000D03*
G04 #@! TO.P,R11,1*
G04 #@! TO.N,Net-(D4-Pad2)*
X79000000Y-77650000D03*
G04 #@! TD*
G04 #@! TO.P,R13,2*
G04 #@! TO.N,GND*
X56564157Y-148290652D03*
G04 #@! TO.P,R13,1*
G04 #@! TO.N,Net-(R13-Pad1)*
X56564157Y-145590652D03*
G04 #@! TD*
G04 #@! TO.P,R14,1*
G04 #@! TO.N,Net-(R14-Pad1)*
X64564157Y-145590652D03*
G04 #@! TO.P,R14,2*
G04 #@! TO.N,GND*
X64564157Y-148290652D03*
G04 #@! TD*
G04 #@! TO.P,R15,1*
G04 #@! TO.N,Net-(R15-Pad1)*
X58564157Y-145590652D03*
G04 #@! TO.P,R15,2*
G04 #@! TO.N,GND*
X58564157Y-148290652D03*
G04 #@! TD*
G04 #@! TO.P,R16,1*
G04 #@! TO.N,Net-(R16-Pad1)*
X62564157Y-145590652D03*
G04 #@! TO.P,R16,2*
G04 #@! TO.N,GND*
X62564157Y-148290652D03*
G04 #@! TD*
G04 #@! TO.P,R17,2*
G04 #@! TO.N,GND*
X54564157Y-148290652D03*
G04 #@! TO.P,R17,1*
G04 #@! TO.N,Net-(R17-Pad1)*
X54564157Y-145590652D03*
G04 #@! TD*
G04 #@! TO.P,R18,1*
G04 #@! TO.N,Net-(R18-Pad1)*
X60564157Y-145590652D03*
G04 #@! TO.P,R18,2*
G04 #@! TO.N,GND*
X60564157Y-148290652D03*
G04 #@! TD*
G04 #@! TO.P,R19,2*
G04 #@! TO.N,Net-(R19-Pad2)*
X60000000Y-74650000D03*
G04 #@! TO.P,R19,1*
G04 #@! TO.N,/TX*
X60000000Y-77350000D03*
G04 #@! TD*
D27*
G04 #@! TO.P,R22,2*
G04 #@! TO.N,Net-(R22-Pad2)*
X70000000Y-85000000D03*
G04 #@! TO.P,R22,1*
G04 #@! TO.N,/MISO*
X72700000Y-85000000D03*
G04 #@! TD*
D24*
G04 #@! TO.P,SW1,1*
G04 #@! TO.N,Net-(R7-Pad1)*
X89000000Y-112000000D03*
D23*
G04 #@! TO.P,SW1,2*
G04 #@! TO.N,Net-(Q2-Pad1)*
X86460000Y-112000000D03*
G04 #@! TO.P,SW1,3*
G04 #@! TO.N,Net-(SW1-Pad3)*
X83920000Y-112000000D03*
G04 #@! TD*
G04 #@! TO.P,SW2,3*
G04 #@! TO.N,+5V*
X78540000Y-112000000D03*
G04 #@! TO.P,SW2,2*
G04 #@! TO.N,Net-(SW2-Pad2)*
X76000000Y-112000000D03*
D24*
G04 #@! TO.P,SW2,1*
G04 #@! TO.N,GND*
X73460000Y-112000000D03*
G04 #@! TD*
D12*
G04 #@! TO.P,SW3,2*
G04 #@! TO.N,+5V*
X66500000Y-122000000D03*
G04 #@! TO.P,SW3,1*
G04 #@! TO.N,Net-(R13-Pad1)*
X62000000Y-122000000D03*
G04 #@! TO.P,SW3,2*
G04 #@! TO.N,+5V*
X66500000Y-115500000D03*
G04 #@! TO.P,SW3,1*
G04 #@! TO.N,Net-(R13-Pad1)*
X62000000Y-115500000D03*
G04 #@! TD*
G04 #@! TO.P,SW4,1*
G04 #@! TO.N,Net-(R14-Pad1)*
X62000000Y-135500000D03*
G04 #@! TO.P,SW4,2*
G04 #@! TO.N,+5V*
X66500000Y-135500000D03*
G04 #@! TO.P,SW4,1*
G04 #@! TO.N,Net-(R14-Pad1)*
X62000000Y-142000000D03*
G04 #@! TO.P,SW4,2*
G04 #@! TO.N,+5V*
X66500000Y-142000000D03*
G04 #@! TD*
G04 #@! TO.P,SW5,1*
G04 #@! TO.N,Net-(R15-Pad1)*
X53000000Y-125500000D03*
G04 #@! TO.P,SW5,2*
G04 #@! TO.N,+5V*
X57500000Y-125500000D03*
G04 #@! TO.P,SW5,1*
G04 #@! TO.N,Net-(R15-Pad1)*
X53000000Y-132000000D03*
G04 #@! TO.P,SW5,2*
G04 #@! TO.N,+5V*
X57500000Y-132000000D03*
G04 #@! TD*
G04 #@! TO.P,SW6,2*
G04 #@! TO.N,+5V*
X75500000Y-132000000D03*
G04 #@! TO.P,SW6,1*
G04 #@! TO.N,Net-(R16-Pad1)*
X71000000Y-132000000D03*
G04 #@! TO.P,SW6,2*
G04 #@! TO.N,+5V*
X75500000Y-125500000D03*
G04 #@! TO.P,SW6,1*
G04 #@! TO.N,Net-(R16-Pad1)*
X71000000Y-125500000D03*
G04 #@! TD*
G04 #@! TO.P,SW7,2*
G04 #@! TO.N,+5V*
X91500000Y-132000000D03*
G04 #@! TO.P,SW7,1*
G04 #@! TO.N,Net-(R17-Pad1)*
X87000000Y-132000000D03*
G04 #@! TO.P,SW7,2*
G04 #@! TO.N,+5V*
X91500000Y-125500000D03*
G04 #@! TO.P,SW7,1*
G04 #@! TO.N,Net-(R17-Pad1)*
X87000000Y-125500000D03*
G04 #@! TD*
G04 #@! TO.P,SW8,1*
G04 #@! TO.N,Net-(R18-Pad1)*
X78500000Y-142000000D03*
G04 #@! TO.P,SW8,2*
G04 #@! TO.N,+5V*
X78500000Y-137500000D03*
G04 #@! TO.P,SW8,1*
G04 #@! TO.N,Net-(R18-Pad1)*
X85000000Y-142000000D03*
G04 #@! TO.P,SW8,2*
G04 #@! TO.N,+5V*
X85000000Y-137500000D03*
G04 #@! TD*
D29*
G04 #@! TO.P,U1,5*
G04 #@! TO.N,Net-(R1-Pad1)*
X93350000Y-90950000D03*
G04 #@! TO.P,U1,4*
G04 #@! TO.N,VBUS*
X93350000Y-89050000D03*
G04 #@! TO.P,U1,3*
G04 #@! TO.N,+BATT*
X90650000Y-89050000D03*
G04 #@! TO.P,U1,2*
G04 #@! TO.N,GND*
X90650000Y-90000000D03*
G04 #@! TO.P,U1,1*
G04 #@! TO.N,Net-(R2-Pad2)*
X90650000Y-90950000D03*
G04 #@! TD*
D30*
G04 #@! TO.P,U2,32*
G04 #@! TO.N,/BTN_IN*
X59200000Y-93250000D03*
G04 #@! TO.P,U2,31*
G04 #@! TO.N,/RX*
X60000000Y-93250000D03*
G04 #@! TO.P,U2,30*
G04 #@! TO.N,/TX*
X60800000Y-93250000D03*
G04 #@! TO.P,U2,29*
G04 #@! TO.N,/RESET*
X61600000Y-93250000D03*
G04 #@! TO.P,U2,28*
G04 #@! TO.N,/SCL*
X62400000Y-93250000D03*
G04 #@! TO.P,U2,27*
G04 #@! TO.N,/SDA*
X63200000Y-93250000D03*
G04 #@! TO.P,U2,26*
G04 #@! TO.N,Net-(U2-Pad26)*
X64000000Y-93250000D03*
G04 #@! TO.P,U2,25*
G04 #@! TO.N,/BLUE*
X64800000Y-93250000D03*
D31*
G04 #@! TO.P,U2,24*
G04 #@! TO.N,/GREEN*
X66250000Y-91800000D03*
G04 #@! TO.P,U2,23*
G04 #@! TO.N,/RED*
X66250000Y-91000000D03*
G04 #@! TO.P,U2,22*
G04 #@! TO.N,Net-(U2-Pad22)*
X66250000Y-90200000D03*
G04 #@! TO.P,U2,21*
G04 #@! TO.N,GND*
X66250000Y-89400000D03*
G04 #@! TO.P,U2,20*
G04 #@! TO.N,Net-(U2-Pad20)*
X66250000Y-88600000D03*
G04 #@! TO.P,U2,19*
G04 #@! TO.N,Net-(U2-Pad19)*
X66250000Y-87800000D03*
G04 #@! TO.P,U2,18*
G04 #@! TO.N,+5V*
X66250000Y-87000000D03*
G04 #@! TO.P,U2,17*
G04 #@! TO.N,/SCK*
X66250000Y-86200000D03*
D30*
G04 #@! TO.P,U2,16*
G04 #@! TO.N,Net-(R22-Pad2)*
X64800000Y-84750000D03*
G04 #@! TO.P,U2,15*
G04 #@! TO.N,/MOSI*
X64000000Y-84750000D03*
G04 #@! TO.P,U2,14*
G04 #@! TO.N,/S2*
X63200000Y-84750000D03*
G04 #@! TO.P,U2,13*
G04 #@! TO.N,/S1*
X62400000Y-84750000D03*
G04 #@! TO.P,U2,12*
G04 #@! TO.N,/S0*
X61600000Y-84750000D03*
G04 #@! TO.P,U2,11*
G04 #@! TO.N,Net-(U2-Pad11)*
X60800000Y-84750000D03*
G04 #@! TO.P,U2,10*
G04 #@! TO.N,Net-(IC1-Pad7)*
X60000000Y-84750000D03*
G04 #@! TO.P,U2,9*
G04 #@! TO.N,Net-(IC1-Pad5)*
X59200000Y-84750000D03*
D31*
G04 #@! TO.P,U2,8*
G04 #@! TO.N,Net-(C4-Pad1)*
X57750000Y-86200000D03*
G04 #@! TO.P,U2,7*
G04 #@! TO.N,Net-(C5-Pad1)*
X57750000Y-87000000D03*
G04 #@! TO.P,U2,6*
G04 #@! TO.N,+5V*
X57750000Y-87800000D03*
G04 #@! TO.P,U2,5*
G04 #@! TO.N,GND*
X57750000Y-88600000D03*
G04 #@! TO.P,U2,4*
G04 #@! TO.N,+5V*
X57750000Y-89400000D03*
G04 #@! TO.P,U2,3*
G04 #@! TO.N,GND*
X57750000Y-90200000D03*
G04 #@! TO.P,U2,2*
G04 #@! TO.N,Net-(IC1-Pad3)*
X57750000Y-91000000D03*
G04 #@! TO.P,U2,1*
G04 #@! TO.N,/BUZZ*
X57750000Y-91800000D03*
G04 #@! TD*
D32*
G04 #@! TO.P,U3,17*
G04 #@! TO.N,GND*
X73750000Y-99250000D03*
X73750000Y-98000000D03*
X75000000Y-99250000D03*
X75000000Y-98000000D03*
D33*
G04 #@! TO.P,U3,16*
G04 #@! TO.N,+5V*
X73400000Y-100625000D03*
G04 #@! TO.P,U3,15*
X74050000Y-100625000D03*
G04 #@! TO.P,U3,14*
G04 #@! TO.N,Net-(U3-Pad14)*
X74700000Y-100625000D03*
G04 #@! TO.P,U3,13*
G04 #@! TO.N,GND*
X75350000Y-100625000D03*
D34*
G04 #@! TO.P,U3,12*
G04 #@! TO.N,/LBO*
X76375000Y-99600000D03*
G04 #@! TO.P,U3,11*
G04 #@! TO.N,+BATT*
X76375000Y-98950000D03*
G04 #@! TO.P,U3,10*
G04 #@! TO.N,GND*
X76375000Y-98300000D03*
G04 #@! TO.P,U3,9*
G04 #@! TO.N,Net-(R3-Pad2)*
X76375000Y-97650000D03*
D33*
G04 #@! TO.P,U3,8*
G04 #@! TO.N,+BATT*
X75350000Y-96625000D03*
G04 #@! TO.P,U3,7*
G04 #@! TO.N,GND*
X74700000Y-96625000D03*
G04 #@! TO.P,U3,6*
X74050000Y-96625000D03*
G04 #@! TO.P,U3,5*
X73400000Y-96625000D03*
D34*
G04 #@! TO.P,U3,4*
G04 #@! TO.N,Net-(L1-Pad2)*
X72375000Y-97650000D03*
G04 #@! TO.P,U3,3*
X72375000Y-98300000D03*
G04 #@! TO.P,U3,2*
G04 #@! TO.N,Net-(U3-Pad2)*
X72375000Y-98950000D03*
G04 #@! TO.P,U3,1*
G04 #@! TO.N,+5V*
X72375000Y-99600000D03*
G04 #@! TD*
D35*
G04 #@! TO.P,U5,16*
G04 #@! TO.N,+5V*
X63650000Y-113445000D03*
G04 #@! TO.P,U5,15*
G04 #@! TO.N,Net-(R15-Pad1)*
X63650000Y-112175000D03*
G04 #@! TO.P,U5,14*
G04 #@! TO.N,Net-(R14-Pad1)*
X63650000Y-110905000D03*
G04 #@! TO.P,U5,13*
G04 #@! TO.N,Net-(R13-Pad1)*
X63650000Y-109635000D03*
G04 #@! TO.P,U5,12*
G04 #@! TO.N,Net-(R16-Pad1)*
X63650000Y-108365000D03*
G04 #@! TO.P,U5,11*
G04 #@! TO.N,/S0*
X63650000Y-107095000D03*
G04 #@! TO.P,U5,10*
G04 #@! TO.N,/S1*
X63650000Y-105825000D03*
G04 #@! TO.P,U5,9*
G04 #@! TO.N,/S2*
X63650000Y-104555000D03*
G04 #@! TO.P,U5,8*
G04 #@! TO.N,GND*
X54350000Y-104555000D03*
G04 #@! TO.P,U5,7*
X54350000Y-105825000D03*
G04 #@! TO.P,U5,6*
X54350000Y-107095000D03*
G04 #@! TO.P,U5,5*
G04 #@! TO.N,Net-(R18-Pad1)*
X54350000Y-108365000D03*
G04 #@! TO.P,U5,4*
G04 #@! TO.N,Net-(U5-Pad4)*
X54350000Y-109635000D03*
G04 #@! TO.P,U5,3*
G04 #@! TO.N,/BTN_IN*
X54350000Y-110905000D03*
G04 #@! TO.P,U5,2*
G04 #@! TO.N,Net-(SW2-Pad2)*
X54350000Y-112175000D03*
G04 #@! TO.P,U5,1*
G04 #@! TO.N,Net-(R17-Pad1)*
X54350000Y-113445000D03*
G04 #@! TD*
D36*
G04 #@! TO.P,U6,28*
G04 #@! TO.N,Net-(U6-Pad28)*
X69600000Y-62225000D03*
G04 #@! TO.P,U6,27*
G04 #@! TO.N,Net-(U6-Pad27)*
X69600000Y-61575000D03*
G04 #@! TO.P,U6,26*
G04 #@! TO.N,GND*
X69600000Y-60925000D03*
G04 #@! TO.P,U6,25*
X69600000Y-60275000D03*
G04 #@! TO.P,U6,24*
G04 #@! TO.N,N/C*
X69600000Y-59625000D03*
G04 #@! TO.P,U6,23*
G04 #@! TO.N,Net-(R21-Pad1)*
X69600000Y-58975000D03*
G04 #@! TO.P,U6,22*
G04 #@! TO.N,Net-(R20-Pad1)*
X69600000Y-58325000D03*
G04 #@! TO.P,U6,21*
G04 #@! TO.N,GND*
X69600000Y-57675000D03*
G04 #@! TO.P,U6,20*
G04 #@! TO.N,VBUS*
X69600000Y-57025000D03*
G04 #@! TO.P,U6,19*
G04 #@! TO.N,Net-(U6-Pad19)*
X69600000Y-56375000D03*
G04 #@! TO.P,U6,18*
G04 #@! TO.N,GND*
X69600000Y-55725000D03*
G04 #@! TO.P,U6,17*
G04 #@! TO.N,Net-(C10-Pad1)*
X69600000Y-55075000D03*
G04 #@! TO.P,U6,16*
G04 #@! TO.N,Net-(J1-Pad2)*
X69600000Y-54425000D03*
G04 #@! TO.P,U6,15*
G04 #@! TO.N,Net-(J1-Pad3)*
X69600000Y-53775000D03*
G04 #@! TO.P,U6,14*
G04 #@! TO.N,Net-(U6-Pad14)*
X62400000Y-53775000D03*
G04 #@! TO.P,U6,13*
G04 #@! TO.N,Net-(U6-Pad13)*
X62400000Y-54425000D03*
G04 #@! TO.P,U6,12*
G04 #@! TO.N,Net-(U6-Pad12)*
X62400000Y-55075000D03*
G04 #@! TO.P,U6,11*
G04 #@! TO.N,Net-(U6-Pad11)*
X62400000Y-55725000D03*
G04 #@! TO.P,U6,10*
G04 #@! TO.N,Net-(U6-Pad10)*
X62400000Y-56375000D03*
G04 #@! TO.P,U6,9*
G04 #@! TO.N,Net-(U6-Pad9)*
X62400000Y-57025000D03*
G04 #@! TO.P,U6,8*
G04 #@! TO.N,N/C*
X62400000Y-57675000D03*
G04 #@! TO.P,U6,7*
G04 #@! TO.N,GND*
X62400000Y-58325000D03*
G04 #@! TO.P,U6,6*
G04 #@! TO.N,Net-(U6-Pad6)*
X62400000Y-58975000D03*
G04 #@! TO.P,U6,5*
G04 #@! TO.N,/RX*
X62400000Y-59625000D03*
G04 #@! TO.P,U6,4*
G04 #@! TO.N,VBUS*
X62400000Y-60275000D03*
G04 #@! TO.P,U6,3*
G04 #@! TO.N,Net-(U6-Pad3)*
X62400000Y-60925000D03*
G04 #@! TO.P,U6,2*
G04 #@! TO.N,Net-(U6-Pad2)*
X62400000Y-61575000D03*
G04 #@! TO.P,U6,1*
G04 #@! TO.N,Net-(R19-Pad2)*
X62400000Y-62225000D03*
G04 #@! TD*
D23*
G04 #@! TO.P,U7,8*
G04 #@! TO.N,Net-(RV1-Pad2)*
X81330000Y-66950000D03*
G04 #@! TO.P,U7,7*
G04 #@! TO.N,Net-(IC1-Pad10)*
X78790000Y-66950000D03*
G04 #@! TO.P,U7,6*
G04 #@! TO.N,Net-(IC1-Pad12)*
X76250000Y-66950000D03*
G04 #@! TO.P,U7,5*
G04 #@! TO.N,Net-(IC1-Pad2)*
X73710000Y-66950000D03*
G04 #@! TO.P,U7,4*
G04 #@! TO.N,Net-(IC1-Pad4)*
X71170000Y-66950000D03*
G04 #@! TO.P,U7,3*
G04 #@! TO.N,Net-(IC1-Pad6)*
X68630000Y-66950000D03*
G04 #@! TO.P,U7,2*
G04 #@! TO.N,GND*
X66090000Y-66950000D03*
D24*
G04 #@! TO.P,U7,1*
G04 #@! TO.N,+3V3*
X63550000Y-66950000D03*
G04 #@! TD*
D37*
G04 #@! TO.P,Y1,2*
G04 #@! TO.N,Net-(C4-Pad1)*
X53000000Y-70062500D03*
G04 #@! TO.P,Y1,1*
G04 #@! TO.N,Net-(C5-Pad1)*
X53000000Y-81937500D03*
G04 #@! TD*
D29*
G04 #@! TO.P,U8,5*
G04 #@! TO.N,GND*
X73100000Y-118700000D03*
G04 #@! TO.P,U8,4*
G04 #@! TO.N,+5V*
X73100000Y-116800000D03*
G04 #@! TO.P,U8,3*
G04 #@! TO.N,/SDA*
X70400000Y-116800000D03*
G04 #@! TO.P,U8,2*
G04 #@! TO.N,GND*
X70400000Y-117750000D03*
G04 #@! TO.P,U8,1*
G04 #@! TO.N,/SCL*
X70400000Y-118700000D03*
G04 #@! TD*
D24*
G04 #@! TO.P,TP1,1*
G04 #@! TO.N,/SCL*
X82250000Y-108250000D03*
G04 #@! TD*
G04 #@! TO.P,TP2,1*
G04 #@! TO.N,/SDA*
X82250000Y-105750000D03*
G04 #@! TD*
D27*
G04 #@! TO.P,R25,2*
G04 #@! TO.N,Net-(Q1-Pad1)*
X84000000Y-123000000D03*
G04 #@! TO.P,R25,1*
G04 #@! TO.N,+BATT*
X86700000Y-123000000D03*
G04 #@! TD*
D38*
G04 #@! TO.N,GND*
X59000000Y-59000000D03*
X84000000Y-132000000D03*
X83000000Y-129000000D03*
X93000000Y-127000000D03*
X74000000Y-109000000D03*
X68000000Y-89000000D03*
X54000000Y-90000000D03*
X56000000Y-91000000D03*
X72000000Y-59000000D03*
X60000000Y-56000000D03*
X76000000Y-95000000D03*
X92625000Y-113000000D03*
X64849998Y-90000000D03*
X56000000Y-107000000D03*
X54000000Y-64000000D03*
X73000000Y-141000000D03*
X74000000Y-145000000D03*
G04 #@! TO.N,+BATT*
X76000000Y-96874998D03*
X80000000Y-100000000D03*
X84000000Y-101000000D03*
X85987347Y-94012653D03*
X87000000Y-121000000D03*
X87000000Y-117000000D03*
G04 #@! TO.N,+5V*
X62000000Y-133000000D03*
X60000000Y-88000000D03*
X64000000Y-89000000D03*
X76000000Y-93000000D03*
X74012653Y-102012653D03*
X83000000Y-83000000D03*
X70000000Y-89000000D03*
X73000000Y-114750000D03*
X83000000Y-55000000D03*
G04 #@! TO.N,VBUS*
X67000000Y-55749998D03*
X94000000Y-96000000D03*
X85000000Y-140000000D03*
X80000000Y-146000000D03*
X92000000Y-120000000D03*
X71000000Y-52000000D03*
G04 #@! TO.N,Net-(C4-Pad1)*
X58000000Y-83000000D03*
X53000000Y-77000000D03*
G04 #@! TO.N,Net-(C5-Pad1)*
X54000000Y-87000000D03*
X56000000Y-87000000D03*
G04 #@! TO.N,Net-(D1-Pad1)*
X91000000Y-112000000D03*
G04 #@! TO.N,Net-(D2-Pad2)*
X94000000Y-120000000D03*
G04 #@! TO.N,Net-(D4-Pad4)*
X81000000Y-63000000D03*
G04 #@! TO.N,Net-(D4-Pad3)*
X81000000Y-65000000D03*
G04 #@! TO.N,Net-(D4-Pad2)*
X81780001Y-70000000D03*
G04 #@! TO.N,Net-(J1-Pad3)*
X57000000Y-53000000D03*
G04 #@! TO.N,Net-(J1-Pad2)*
X57000000Y-54025306D03*
G04 #@! TO.N,Net-(J1-Pad1)*
X60000000Y-57000000D03*
G04 #@! TO.N,/RESET*
X79000000Y-93000000D03*
X66000000Y-97000000D03*
G04 #@! TO.N,/MOSI*
X66000000Y-80000000D03*
G04 #@! TO.N,/SCK*
X71000000Y-81000000D03*
X70000000Y-65000000D03*
X80000000Y-59000000D03*
G04 #@! TO.N,Net-(Q2-Pad1)*
X90000000Y-104000000D03*
X90000000Y-68000000D03*
G04 #@! TO.N,Net-(R2-Pad2)*
X91000000Y-105000000D03*
X89000000Y-92000000D03*
G04 #@! TO.N,Net-(R3-Pad2)*
X70000000Y-109000000D03*
X78000000Y-97000000D03*
X72000000Y-104000000D03*
G04 #@! TO.N,/BUZZ*
X60000000Y-97000000D03*
X58000000Y-94000000D03*
G04 #@! TO.N,Net-(R7-Pad1)*
X79000000Y-118000000D03*
X82000000Y-118000000D03*
G04 #@! TO.N,Net-(R17-Pad1)*
X67000000Y-130000000D03*
X66000000Y-126000000D03*
G04 #@! TO.N,/TX*
X56000000Y-83000000D03*
X56000000Y-96000000D03*
G04 #@! TO.N,Net-(R20-Pad1)*
X67000000Y-61000000D03*
G04 #@! TO.N,Net-(R21-Pad1)*
X65000000Y-62000000D03*
G04 #@! TO.N,Net-(RV1-Pad2)*
X65000000Y-74000000D03*
X78000000Y-64000000D03*
G04 #@! TO.N,Net-(SW2-Pad2)*
X61000000Y-113000000D03*
G04 #@! TO.N,/BTN_IN*
X60875000Y-87000000D03*
X58000000Y-109000000D03*
G04 #@! TO.N,/S2*
X64000000Y-91000000D03*
X64000000Y-103000000D03*
G04 #@! TO.N,/S1*
X63000000Y-91000000D03*
X62000000Y-106000000D03*
G04 #@! TO.N,/S0*
X62000000Y-91000000D03*
X61000000Y-107000000D03*
G04 #@! TO.N,+3V3*
X79000000Y-71000000D03*
X85000000Y-134000000D03*
X78000000Y-71000000D03*
X62000000Y-82000000D03*
G04 #@! TO.N,Net-(IC1-Pad7)*
X64000000Y-75000000D03*
G04 #@! TO.N,Net-(IC1-Pad5)*
X59000000Y-82000000D03*
G04 #@! TO.N,Net-(IC1-Pad3)*
X75000000Y-71000000D03*
X64000000Y-79000000D03*
X60000000Y-91000000D03*
G04 #@! TO.N,/SCL*
X68750000Y-94000000D03*
X71500000Y-95000000D03*
X70250000Y-98875000D03*
X69250000Y-115000000D03*
G04 #@! TO.N,/SDA*
X65750000Y-105250000D03*
X69500000Y-96750000D03*
X70250000Y-95000000D03*
X65574998Y-95000000D03*
X73000000Y-103250000D03*
X77250000Y-107000000D03*
X79250000Y-104750000D03*
G04 #@! TO.N,Net-(BZ1-Pad1)*
X84500000Y-59750000D03*
G04 #@! TD*
D39*
G04 #@! TO.N,GND*
X62400000Y-58325000D02*
X59675000Y-58325000D01*
X59675000Y-58325000D02*
X59000000Y-59000000D01*
X63525000Y-58325000D02*
X62400000Y-58325000D01*
X63600001Y-58400001D02*
X63525000Y-58325000D01*
X63600001Y-58076995D02*
X63600001Y-58400001D01*
X66651999Y-55024997D02*
X63600001Y-58076995D01*
X67348001Y-55024997D02*
X66651999Y-55024997D01*
X68048004Y-55725000D02*
X67348001Y-55024997D01*
X69600000Y-55725000D02*
X68048004Y-55725000D01*
X70800001Y-57599999D02*
X70725000Y-57675000D01*
X70800001Y-55800001D02*
X70800001Y-57599999D01*
X70725000Y-55725000D02*
X70800001Y-55800001D01*
X69600000Y-55725000D02*
X70725000Y-55725000D01*
X69600000Y-60275000D02*
X69600000Y-60925000D01*
X70725000Y-57675000D02*
X69600000Y-57675000D01*
X70800001Y-57750001D02*
X70725000Y-57675000D01*
X70800001Y-60199999D02*
X70800001Y-57750001D01*
X70725000Y-60275000D02*
X70800001Y-60199999D01*
X69600000Y-60275000D02*
X70725000Y-60275000D01*
X91755001Y-89635001D02*
X91390002Y-90000000D01*
X91755001Y-84630001D02*
X91755001Y-89635001D01*
X90000000Y-80875000D02*
X90000000Y-82875000D01*
X90000000Y-82875000D02*
X91755001Y-84630001D01*
X91390002Y-90000000D02*
X90650000Y-90000000D01*
X91680000Y-90000000D02*
X90650000Y-90000000D01*
X91755001Y-90075001D02*
X91680000Y-90000000D01*
X91755001Y-91644999D02*
X91755001Y-90075001D01*
X90300000Y-93100000D02*
X91755001Y-91644999D01*
X90300000Y-94000000D02*
X90300000Y-93100000D01*
X79282081Y-52460000D02*
X78080000Y-52460000D01*
X89510000Y-52460000D02*
X79282081Y-52460000D01*
X91000000Y-53950000D02*
X89510000Y-52460000D01*
X91000000Y-55000000D02*
X91000000Y-53950000D01*
X92289999Y-66725001D02*
X91700000Y-66135002D01*
X93710001Y-66725001D02*
X92289999Y-66725001D01*
X93775001Y-66660001D02*
X93710001Y-66725001D01*
X93775001Y-57575001D02*
X93775001Y-66660001D01*
X91700000Y-65700000D02*
X91050000Y-65050000D01*
X91700000Y-66135002D02*
X91700000Y-65700000D01*
X91200000Y-55000000D02*
X93775001Y-57575001D01*
X91000000Y-55000000D02*
X91200000Y-55000000D01*
X91775001Y-65775001D02*
X91050000Y-65050000D01*
X91050000Y-65050000D02*
X91000000Y-65050000D01*
X91775001Y-67610001D02*
X91775001Y-65775001D01*
X90000000Y-69385002D02*
X91775001Y-67610001D01*
X90000000Y-80875000D02*
X90000000Y-69385002D01*
X90400000Y-94000000D02*
X90300000Y-94000000D01*
X93000000Y-96600000D02*
X90400000Y-94000000D01*
X93000000Y-98000000D02*
X93000000Y-96600000D01*
X73750000Y-98000000D02*
X73750000Y-99250000D01*
X73750000Y-99250000D02*
X75000000Y-99250000D01*
X75000000Y-99250000D02*
X75000000Y-98000000D01*
X75000000Y-98000000D02*
X73750000Y-98000000D01*
X73750000Y-96975000D02*
X73400000Y-96625000D01*
X73750000Y-98000000D02*
X73750000Y-96975000D01*
X73750000Y-96925000D02*
X74050000Y-96625000D01*
X73750000Y-98000000D02*
X73750000Y-96925000D01*
X74700000Y-97700000D02*
X74700000Y-96625000D01*
X75000000Y-98000000D02*
X74700000Y-97700000D01*
X75350000Y-99600000D02*
X75000000Y-99250000D01*
X75350000Y-100625000D02*
X75350000Y-99600000D01*
X75300000Y-98300000D02*
X75000000Y-98000000D01*
X76375000Y-98300000D02*
X75300000Y-98300000D01*
X75250000Y-147000000D02*
X74000000Y-147000000D01*
X81924999Y-148125001D02*
X76375001Y-148125001D01*
X76375001Y-148125001D02*
X75250000Y-147000000D01*
X82000000Y-148050000D02*
X81924999Y-148125001D01*
X82000000Y-147000000D02*
X82000000Y-148050000D01*
X65464157Y-148290652D02*
X64564157Y-148290652D01*
X71459348Y-148290652D02*
X65464157Y-148290652D01*
X72750000Y-147000000D02*
X71459348Y-148290652D01*
X74000000Y-147000000D02*
X72750000Y-147000000D01*
X64564157Y-148290652D02*
X62564157Y-148290652D01*
X62564157Y-148290652D02*
X60564157Y-148290652D01*
X60564157Y-148290652D02*
X58564157Y-148290652D01*
X58564157Y-148290652D02*
X56564157Y-148290652D01*
X56564157Y-148290652D02*
X54564157Y-148290652D01*
X77025000Y-98300000D02*
X76375000Y-98300000D01*
X82535002Y-98300000D02*
X77025000Y-98300000D01*
X85660003Y-101425001D02*
X82535002Y-98300000D01*
X90824999Y-101425001D02*
X85660003Y-101425001D01*
X93000000Y-99250000D02*
X90824999Y-101425001D01*
X75350000Y-101275000D02*
X75350000Y-100625000D01*
X75350000Y-102100000D02*
X75350000Y-101275000D01*
X71350000Y-106100000D02*
X75350000Y-102100000D01*
X71350000Y-107000000D02*
X71350000Y-106100000D01*
X52000000Y-94750000D02*
X52000000Y-92000000D01*
X52000000Y-96000000D02*
X52000000Y-94750000D01*
X83375001Y-147125001D02*
X83250000Y-147000000D01*
X89924999Y-147125001D02*
X83375001Y-147125001D01*
X83250000Y-147000000D02*
X82000000Y-147000000D01*
X91050000Y-146000000D02*
X89924999Y-147125001D01*
X92000000Y-146000000D02*
X91050000Y-146000000D01*
X83750000Y-132000000D02*
X84000000Y-132000000D01*
X82800000Y-134000000D02*
X82800000Y-132950000D01*
X82800000Y-132950000D02*
X83750000Y-132000000D01*
X83000000Y-127200000D02*
X82800000Y-127000000D01*
X83000000Y-129000000D02*
X83000000Y-127200000D01*
X72000000Y-107000000D02*
X71350000Y-107000000D01*
X74000000Y-109000000D02*
X72000000Y-107000000D01*
X54350000Y-104005000D02*
X54350000Y-104555000D01*
X54350000Y-97300000D02*
X54350000Y-104005000D01*
X53050000Y-96000000D02*
X54350000Y-97300000D01*
X52000000Y-96000000D02*
X53050000Y-96000000D01*
X54350000Y-104555000D02*
X54350000Y-105825000D01*
X54350000Y-105825000D02*
X54350000Y-107095000D01*
X66250000Y-89400000D02*
X67600000Y-89400000D01*
X67600000Y-89400000D02*
X68000000Y-89000000D01*
X56624999Y-88675001D02*
X56700000Y-88600000D01*
X56700000Y-90200000D02*
X56624999Y-90124999D01*
X56700000Y-88600000D02*
X57750000Y-88600000D01*
X56624999Y-90124999D02*
X56624999Y-88675001D01*
X57750000Y-90200000D02*
X56700000Y-90200000D01*
X52000000Y-92000000D02*
X54000000Y-90000000D01*
X56800000Y-90200000D02*
X57750000Y-90200000D01*
X56000000Y-91000000D02*
X56800000Y-90200000D01*
X70725000Y-57675000D02*
X72000000Y-58950000D01*
X72000000Y-58950000D02*
X72000000Y-59000000D01*
X61275000Y-58325000D02*
X62400000Y-58325000D01*
X61199999Y-58249999D02*
X61275000Y-58325000D01*
X61199999Y-56634314D02*
X61199999Y-58249999D01*
X60565685Y-56000000D02*
X61199999Y-56634314D01*
X60000000Y-56000000D02*
X60565685Y-56000000D01*
X75450000Y-95000000D02*
X76000000Y-95000000D01*
X73400000Y-96625000D02*
X73825000Y-96625000D01*
X73825000Y-96625000D02*
X75450000Y-95000000D01*
X92625000Y-111375000D02*
X93000000Y-111000000D01*
X92625000Y-113000000D02*
X92625000Y-111375000D01*
X94125001Y-100375001D02*
X93000000Y-99250000D01*
X94125001Y-109674999D02*
X94125001Y-100375001D01*
X93000000Y-99250000D02*
X93000000Y-98000000D01*
X93000000Y-110800000D02*
X94125001Y-109674999D01*
X93000000Y-111000000D02*
X93000000Y-110800000D01*
X65649997Y-89200001D02*
X64849998Y-90000000D01*
X67499999Y-89200001D02*
X65649997Y-89200001D01*
X66250000Y-89400000D02*
X67300000Y-89400000D01*
X67300000Y-89400000D02*
X67499999Y-89200001D01*
X54445000Y-107000000D02*
X54350000Y-107095000D01*
X56000000Y-107000000D02*
X54445000Y-107000000D01*
X53900000Y-104555000D02*
X54350000Y-104555000D01*
X50424989Y-66575011D02*
X50424989Y-101079989D01*
X50424989Y-101079989D02*
X53900000Y-104555000D01*
X53000000Y-64000000D02*
X50424989Y-66575011D01*
X54000000Y-64000000D02*
X53000000Y-64000000D01*
X93950000Y-127950000D02*
X93000000Y-127000000D01*
X93950000Y-131000000D02*
X93950000Y-127950000D01*
X93950000Y-130850000D02*
X93950000Y-131000000D01*
X93950000Y-132000000D02*
X93950000Y-136350000D01*
X93950000Y-132000000D02*
X93950000Y-132200000D01*
X91000000Y-139300000D02*
X91000000Y-140000000D01*
X93950000Y-136350000D02*
X91000000Y-139300000D01*
X93950000Y-131000000D02*
X93950000Y-132000000D01*
X91000000Y-145000000D02*
X92000000Y-146000000D01*
X91000000Y-140000000D02*
X91000000Y-145000000D01*
X73000000Y-139700000D02*
X73000000Y-141000000D01*
X70600000Y-138000000D02*
X71300000Y-138000000D01*
X71300000Y-138000000D02*
X73000000Y-139700000D01*
X74000000Y-145000000D02*
X74000000Y-147000000D01*
X82800000Y-134000000D02*
X83461002Y-134000000D01*
X89461002Y-140000000D02*
X91000000Y-140000000D01*
X83461002Y-134000000D02*
X89461002Y-140000000D01*
X73100000Y-118125000D02*
X73100000Y-118700000D01*
X72725000Y-117750000D02*
X73100000Y-118125000D01*
X70400000Y-117750000D02*
X72725000Y-117750000D01*
X73460000Y-113100000D02*
X73460000Y-112000000D01*
X74130000Y-118700000D02*
X74205001Y-118624999D01*
X74205001Y-113845001D02*
X73460000Y-113100000D01*
X74205001Y-118624999D02*
X74205001Y-113845001D01*
X73100000Y-118700000D02*
X74130000Y-118700000D01*
G04 #@! TO.N,+BATT*
X88000000Y-82875000D02*
X88000000Y-80875000D01*
X88000000Y-86855000D02*
X88000000Y-82875000D01*
X90195000Y-89050000D02*
X88000000Y-86855000D01*
X90650000Y-89050000D02*
X90195000Y-89050000D01*
X93000000Y-102000000D02*
X93000000Y-107000000D01*
X83450000Y-102000000D02*
X81800000Y-100350000D01*
X81800000Y-100350000D02*
X81800000Y-100000000D01*
X93000000Y-102000000D02*
X83450000Y-102000000D01*
X80750000Y-98950000D02*
X81800000Y-100000000D01*
X76375000Y-98950000D02*
X80750000Y-98950000D01*
X91874999Y-109375001D02*
X93000000Y-108250000D01*
X91874999Y-114475001D02*
X91874999Y-109375001D01*
X93000000Y-108250000D02*
X93000000Y-107000000D01*
X88000000Y-118350000D02*
X91874999Y-114475001D01*
X88000000Y-119000000D02*
X88000000Y-118350000D01*
X75350000Y-96625000D02*
X75750002Y-96625000D01*
X75750002Y-96625000D02*
X76000000Y-96874998D01*
X80000000Y-100000000D02*
X81800000Y-100000000D01*
X81800000Y-100000000D02*
X83000000Y-100000000D01*
X83000000Y-100000000D02*
X84000000Y-101000000D01*
X89620000Y-89050000D02*
X90650000Y-89050000D01*
X85987347Y-92682653D02*
X89620000Y-89050000D01*
X85987347Y-94012653D02*
X85987347Y-92682653D01*
X86700000Y-123000000D02*
X86700000Y-121300000D01*
X86700000Y-121300000D02*
X87000000Y-121000000D01*
X87000000Y-118000000D02*
X88000000Y-119000000D01*
X87000000Y-117000000D02*
X87000000Y-118000000D01*
G04 #@! TO.N,Net-(BZ1-Pad2)*
X89650000Y-59950000D02*
X91600000Y-58000000D01*
X89650000Y-61000000D02*
X89650000Y-59950000D01*
X93000000Y-59400000D02*
X91600000Y-58000000D01*
X93000000Y-66000000D02*
X93000000Y-59400000D01*
G04 #@! TO.N,+5V*
X72375000Y-99600000D02*
X73400000Y-100625000D01*
X73400000Y-100625000D02*
X74050000Y-100625000D01*
X66500000Y-135500000D02*
X64500000Y-135500000D01*
X64500000Y-135500000D02*
X62000000Y-133000000D01*
X66155000Y-115500000D02*
X66500000Y-115500000D01*
X64100000Y-113445000D02*
X66155000Y-115500000D01*
X63650000Y-113445000D02*
X64100000Y-113445000D01*
X62100000Y-99600000D02*
X62000000Y-99700000D01*
X72375000Y-99600000D02*
X62100000Y-99600000D01*
X77000000Y-127000000D02*
X75500000Y-125500000D01*
X79200000Y-127000000D02*
X77000000Y-127000000D01*
X58800000Y-89400000D02*
X57750000Y-89400000D01*
X58875001Y-89324999D02*
X58800000Y-89400000D01*
X58875001Y-87875001D02*
X58875001Y-89324999D01*
X58800000Y-87800000D02*
X58875001Y-87875001D01*
X57750000Y-87800000D02*
X58800000Y-87800000D01*
X57750000Y-87800000D02*
X59800000Y-87800000D01*
X59800000Y-87800000D02*
X60000000Y-88000000D01*
X65200000Y-87000000D02*
X66250000Y-87000000D01*
X64000000Y-88200000D02*
X65200000Y-87000000D01*
X64000000Y-89000000D02*
X64000000Y-88200000D01*
X71649999Y-96350001D02*
X71649999Y-99524999D01*
X71725000Y-99600000D02*
X72375000Y-99600000D01*
X71649999Y-99524999D02*
X71725000Y-99600000D01*
X75000000Y-93000000D02*
X71649999Y-96350001D01*
X76000000Y-93000000D02*
X75000000Y-93000000D01*
X74050000Y-100625000D02*
X74050000Y-101975306D01*
X74050000Y-101975306D02*
X74012653Y-102012653D01*
X86725001Y-79274999D02*
X83000000Y-83000000D01*
X87050000Y-78950000D02*
X86725001Y-79274999D01*
X75434315Y-93000000D02*
X76000000Y-93000000D01*
X71086410Y-93000000D02*
X75434315Y-93000000D01*
X64386410Y-99700000D02*
X71086410Y-93000000D01*
X62000000Y-99700000D02*
X64386410Y-99700000D01*
X66250000Y-87000000D02*
X68000000Y-87000000D01*
X68000000Y-87000000D02*
X70000000Y-89000000D01*
X86600000Y-146000000D02*
X86600000Y-139100000D01*
X86600000Y-139100000D02*
X85000000Y-137500000D01*
X70000000Y-147000000D02*
X70000000Y-145950000D01*
X70000000Y-145950000D02*
X72624999Y-143325001D01*
X72624999Y-143325001D02*
X79136001Y-143325001D01*
X79136001Y-143325001D02*
X80000000Y-142461002D01*
X80000000Y-142461002D02*
X80000000Y-139000000D01*
X79499999Y-138499999D02*
X78500000Y-137500000D01*
X80000000Y-139000000D02*
X79499999Y-138499999D01*
X73100000Y-116800000D02*
X73100000Y-114850000D01*
X73100000Y-114850000D02*
X73000000Y-114750000D01*
X87050000Y-64884315D02*
X87050000Y-65500000D01*
X87050000Y-65500000D02*
X87050000Y-78950000D01*
X87050000Y-64884315D02*
X88000000Y-63934315D01*
X83585002Y-55000000D02*
X83000000Y-55000000D01*
X88000000Y-63934315D02*
X88000000Y-59414998D01*
X88000000Y-59414998D02*
X83585002Y-55000000D01*
G04 #@! TO.N,VBUS*
X58050000Y-63000000D02*
X60775000Y-60275000D01*
X61275000Y-60275000D02*
X62400000Y-60275000D01*
X60775000Y-60275000D02*
X61275000Y-60275000D01*
X57000000Y-63000000D02*
X58050000Y-63000000D01*
X66685002Y-57025000D02*
X63435002Y-60275000D01*
X63435002Y-60275000D02*
X62400000Y-60275000D01*
X69600000Y-57025000D02*
X66685002Y-57025000D01*
X68275002Y-57025000D02*
X69600000Y-57025000D01*
X67000000Y-55749998D02*
X68275002Y-57025000D01*
X93805000Y-89050000D02*
X93350000Y-89050000D01*
X94455001Y-89700001D02*
X93805000Y-89050000D01*
X94455001Y-95544999D02*
X94455001Y-89700001D01*
X94000000Y-96000000D02*
X94455001Y-95544999D01*
X79200000Y-134000000D02*
X79200000Y-135050000D01*
X84150000Y-140000000D02*
X85000000Y-140000000D01*
X79200000Y-135050000D02*
X84150000Y-140000000D01*
X79000000Y-146000000D02*
X78000000Y-147000000D01*
X80000000Y-146000000D02*
X79000000Y-146000000D01*
X71715001Y-51284999D02*
X71000000Y-52000000D01*
X93805000Y-89050000D02*
X94380000Y-88475000D01*
X89670001Y-51284999D02*
X71715001Y-51284999D01*
X94380000Y-55994998D02*
X89670001Y-51284999D01*
X94380000Y-88475000D02*
X94380000Y-55994998D01*
X91375001Y-120624999D02*
X92000000Y-120000000D01*
X91375001Y-122910001D02*
X91375001Y-120624999D01*
X89289999Y-124995003D02*
X91375001Y-122910001D01*
X89289999Y-131671003D02*
X89289999Y-124995003D01*
X79200000Y-134000000D02*
X79700000Y-134000000D01*
X79700000Y-134000000D02*
X82425001Y-131274999D01*
X82425001Y-131274999D02*
X84313997Y-131274999D01*
X86363999Y-133325001D02*
X87636001Y-133325001D01*
X84313997Y-131274999D02*
X86363999Y-133325001D01*
X87636001Y-133325001D02*
X89289999Y-131671003D01*
X77950000Y-134000000D02*
X79200000Y-134000000D01*
X75000000Y-136950000D02*
X77950000Y-134000000D01*
X75000000Y-138000000D02*
X75000000Y-136950000D01*
G04 #@! TO.N,Net-(C4-Pad1)*
X53000000Y-74250000D02*
X53000000Y-70062500D01*
X50874999Y-76375001D02*
X53000000Y-74250000D01*
X50874999Y-97624999D02*
X50874999Y-76375001D01*
X52000000Y-98750000D02*
X50874999Y-97624999D01*
X52000000Y-100000000D02*
X52000000Y-98750000D01*
X57750000Y-86200000D02*
X57750000Y-83250000D01*
X57750000Y-83250000D02*
X58000000Y-83000000D01*
X53000000Y-77000000D02*
X53000000Y-70062500D01*
G04 #@! TO.N,Net-(C5-Pad1)*
X53000000Y-87000000D02*
X52000000Y-88000000D01*
X53000000Y-81937500D02*
X53000000Y-87000000D01*
X53875000Y-87000000D02*
X54000000Y-87000000D01*
X53000000Y-81937500D02*
X53000000Y-86125000D01*
X53000000Y-86125000D02*
X53875000Y-87000000D01*
X56000000Y-87000000D02*
X57750000Y-87000000D01*
G04 #@! TO.N,Net-(C10-Pad1)*
X70725000Y-55075000D02*
X69600000Y-55075000D01*
X71975001Y-53824999D02*
X70725000Y-55075000D01*
X84574999Y-53824999D02*
X71975001Y-53824999D01*
X85750000Y-55000000D02*
X84574999Y-53824999D01*
X87000000Y-55000000D02*
X85750000Y-55000000D01*
G04 #@! TO.N,Net-(D1-Pad1)*
X87400000Y-107000000D02*
X87300000Y-107000000D01*
X91000000Y-110600000D02*
X87400000Y-107000000D01*
X91000000Y-112000000D02*
X91000000Y-110600000D01*
G04 #@! TO.N,Net-(D2-Pad2)*
X93000000Y-122000000D02*
X93000000Y-121000000D01*
X93000000Y-121000000D02*
X94000000Y-120000000D01*
G04 #@! TO.N,Net-(D4-Pad4)*
X83000000Y-65000000D02*
X83000000Y-77650000D01*
X81000000Y-63000000D02*
X83000000Y-65000000D01*
G04 #@! TO.N,Net-(D4-Pad3)*
X82505001Y-76044999D02*
X81000000Y-77550000D01*
X82505001Y-65505001D02*
X82505001Y-76044999D01*
X82000000Y-65000000D02*
X82505001Y-65505001D01*
X81000000Y-77550000D02*
X81000000Y-77650000D01*
X81000000Y-65000000D02*
X82000000Y-65000000D01*
G04 #@! TO.N,Net-(D4-Pad2)*
X79000000Y-77650000D02*
X79000000Y-72780001D01*
X79000000Y-72780001D02*
X81780001Y-70000000D01*
G04 #@! TO.N,Net-(J1-Pad3)*
X68475000Y-53775000D02*
X69600000Y-53775000D01*
X67924999Y-53224999D02*
X68475000Y-53775000D01*
X60739988Y-53750010D02*
X61264999Y-53224999D01*
X57750010Y-53750010D02*
X60739988Y-53750010D01*
X61264999Y-53224999D02*
X67924999Y-53224999D01*
X57000000Y-53000000D02*
X57750010Y-53750010D01*
G04 #@! TO.N,Net-(J1-Pad2)*
X70725000Y-54425000D02*
X69600000Y-54425000D01*
X70800001Y-54349999D02*
X70725000Y-54425000D01*
X70800001Y-53289999D02*
X70800001Y-54349999D01*
X57377008Y-51549990D02*
X69059992Y-51549990D01*
X69059992Y-51549990D02*
X70800001Y-53289999D01*
X56274999Y-52651999D02*
X57377008Y-51549990D01*
X56274999Y-53300305D02*
X56274999Y-52651999D01*
X57000000Y-54025306D02*
X56274999Y-53300305D01*
G04 #@! TO.N,Net-(J1-Pad1)*
X57000000Y-58800000D02*
X57000000Y-59000000D01*
X58800000Y-57000000D02*
X57000000Y-58800000D01*
X60000000Y-57000000D02*
X58800000Y-57000000D01*
G04 #@! TO.N,/RESET*
X61600000Y-96600000D02*
X62000000Y-97000000D01*
X61600000Y-93250000D02*
X61600000Y-96600000D01*
X83975001Y-60895001D02*
X83975001Y-81360001D01*
X78080000Y-55000000D02*
X83975001Y-60895001D01*
X83975001Y-81360001D02*
X83910001Y-81425001D01*
X83910001Y-81425001D02*
X82661409Y-81425001D01*
X82661409Y-81425001D02*
X79000000Y-85086410D01*
X79000000Y-85086410D02*
X79000000Y-93000000D01*
X66000000Y-97000000D02*
X62000000Y-97000000D01*
G04 #@! TO.N,/MOSI*
X64000000Y-82000000D02*
X64000000Y-84750000D01*
X66000000Y-80000000D02*
X64000000Y-82000000D01*
G04 #@! TO.N,/SCK*
X70785002Y-86200000D02*
X67300000Y-86200000D01*
X71075001Y-85910001D02*
X70785002Y-86200000D01*
X67300000Y-86200000D02*
X66250000Y-86200000D01*
X71075001Y-84089999D02*
X71075001Y-85910001D01*
X71000000Y-84014998D02*
X71075001Y-84089999D01*
X71000000Y-81000000D02*
X71000000Y-84014998D01*
X76000000Y-55000000D02*
X75540000Y-55000000D01*
X80000000Y-59000000D02*
X76000000Y-55000000D01*
G04 #@! TO.N,/MISO*
X73000000Y-56100000D02*
X73000000Y-55000000D01*
X79965001Y-63065001D02*
X73000000Y-56100000D01*
X72700000Y-78373002D02*
X79965001Y-71108001D01*
X79965001Y-71108001D02*
X79965001Y-63065001D01*
X72700000Y-85000000D02*
X72700000Y-78373002D01*
G04 #@! TO.N,Net-(L1-Pad2)*
X72375000Y-97650000D02*
X72375000Y-98300000D01*
X87200000Y-100000000D02*
X88200000Y-100000000D01*
X81474999Y-94274999D02*
X87200000Y-100000000D01*
X74589999Y-94274999D02*
X81474999Y-94274999D01*
X72375000Y-96489998D02*
X74589999Y-94274999D01*
X72375000Y-98300000D02*
X72375000Y-96489998D01*
G04 #@! TO.N,Net-(Q1-Pad1)*
X85950000Y-120000000D02*
X86000000Y-119950000D01*
X83000000Y-120000000D02*
X85950000Y-120000000D01*
X83100000Y-120000000D02*
X83000000Y-120000000D01*
X84000000Y-120900000D02*
X83100000Y-120000000D01*
X84000000Y-123000000D02*
X84000000Y-120900000D01*
G04 #@! TO.N,Net-(Q1-Pad2)*
X89300000Y-121100000D02*
X90200000Y-122000000D01*
X90200000Y-122000000D02*
X90300000Y-122000000D01*
X88664998Y-121100000D02*
X89300000Y-121100000D01*
X86700000Y-118700000D02*
X86700000Y-119135002D01*
X86050000Y-118050000D02*
X86700000Y-118700000D01*
X86700000Y-119135002D02*
X88664998Y-121100000D01*
X86000000Y-118050000D02*
X86050000Y-118050000D01*
G04 #@! TO.N,Net-(Q2-Pad1)*
X88314998Y-104000000D02*
X90000000Y-104000000D01*
X86460000Y-112000000D02*
X85610001Y-111150001D01*
X85610001Y-106704997D02*
X88314998Y-104000000D01*
X85610001Y-111150001D02*
X85610001Y-106704997D01*
X90000000Y-67950000D02*
X91000000Y-66950000D01*
X90000000Y-68000000D02*
X90000000Y-67950000D01*
G04 #@! TO.N,Net-(R1-Pad1)*
X93000000Y-91300000D02*
X93350000Y-90950000D01*
X93000000Y-94000000D02*
X93000000Y-91300000D01*
G04 #@! TO.N,Net-(R2-Pad2)*
X90000000Y-107000000D02*
X90000000Y-106000000D01*
X90000000Y-106000000D02*
X91000000Y-105000000D01*
X89000000Y-92000000D02*
X90000000Y-91000000D01*
X90600000Y-91000000D02*
X90650000Y-90950000D01*
X90000000Y-91000000D02*
X90600000Y-91000000D01*
G04 #@! TO.N,Net-(R3-Pad2)*
X68750000Y-107000000D02*
X68650000Y-107000000D01*
X70000000Y-108250000D02*
X68750000Y-107000000D01*
X70000000Y-109000000D02*
X70000000Y-108250000D01*
X76375000Y-97650000D02*
X77350000Y-97650000D01*
X77350000Y-97650000D02*
X78000000Y-97000000D01*
X69000000Y-107000000D02*
X68650000Y-107000000D01*
X72000000Y-104000000D02*
X69000000Y-107000000D01*
G04 #@! TO.N,/LBO*
X80300000Y-119100000D02*
X80300000Y-120000000D01*
X76600000Y-99600000D02*
X80300000Y-103300000D01*
X80300000Y-103300000D02*
X80300000Y-119100000D01*
X76375000Y-99600000D02*
X76600000Y-99600000D01*
G04 #@! TO.N,/BUZZ*
X58000000Y-97000000D02*
X60000000Y-97000000D01*
X58000000Y-92050000D02*
X57750000Y-91800000D01*
X58000000Y-94000000D02*
X58000000Y-92050000D01*
G04 #@! TO.N,Net-(R7-Pad1)*
X74824999Y-111079997D02*
X74824999Y-113824999D01*
X74570001Y-110824999D02*
X74824999Y-111079997D01*
X70489997Y-110824999D02*
X74570001Y-110824999D01*
X61474999Y-102274999D02*
X64348001Y-102274999D01*
X64348001Y-102274999D02*
X67574999Y-105501997D01*
X74824999Y-113824999D02*
X79000000Y-118000000D01*
X67574999Y-107910001D02*
X70489997Y-110824999D01*
X58900000Y-99700000D02*
X61474999Y-102274999D01*
X58000000Y-99700000D02*
X58900000Y-99700000D01*
X67574999Y-105501997D02*
X67574999Y-107910001D01*
X89000000Y-113100000D02*
X89000000Y-112000000D01*
X84100000Y-118000000D02*
X89000000Y-113100000D01*
X82000000Y-118000000D02*
X84100000Y-118000000D01*
G04 #@! TO.N,/BLUE*
X83000000Y-80450000D02*
X83000000Y-80350000D01*
X70200000Y-93250000D02*
X83000000Y-80450000D01*
X64800000Y-93250000D02*
X70200000Y-93250000D01*
G04 #@! TO.N,/GREEN*
X81000000Y-80450000D02*
X81000000Y-80350000D01*
X69650000Y-91800000D02*
X81000000Y-80450000D01*
X66250000Y-91800000D02*
X69650000Y-91800000D01*
G04 #@! TO.N,/RED*
X79000000Y-81350000D02*
X79000000Y-80350000D01*
X69350000Y-91000000D02*
X79000000Y-81350000D01*
X66250000Y-91000000D02*
X69350000Y-91000000D01*
G04 #@! TO.N,Net-(R13-Pad1)*
X59038998Y-122000000D02*
X60585787Y-122000000D01*
X51674999Y-129363999D02*
X59038998Y-122000000D01*
X51674999Y-140601494D02*
X51674999Y-129363999D01*
X56564157Y-145490652D02*
X51674999Y-140601494D01*
X56564157Y-145590652D02*
X56564157Y-145490652D01*
X53274999Y-114689212D02*
X53274999Y-112884999D01*
X60585787Y-122000000D02*
X53274999Y-114689212D01*
X62000000Y-122000000D02*
X60585787Y-122000000D01*
X61000001Y-114500001D02*
X62000000Y-115500000D01*
X53274999Y-112884999D02*
X53339999Y-112819999D01*
X53274999Y-115736001D02*
X53274999Y-112884999D01*
X59000000Y-121461002D02*
X53274999Y-115736001D01*
X53636001Y-126825001D02*
X59000000Y-121461002D01*
X52363999Y-126825001D02*
X53636001Y-126825001D01*
X51674999Y-126136001D02*
X52363999Y-126825001D01*
X51674999Y-111944999D02*
X51674999Y-126136001D01*
X53339999Y-110279999D02*
X51674999Y-111944999D01*
X55360001Y-110279999D02*
X53339999Y-110279999D01*
X64660001Y-107739999D02*
X57900001Y-107739999D01*
X64725001Y-107804999D02*
X64660001Y-107739999D01*
X53339999Y-112819999D02*
X59319999Y-112819999D01*
X64725001Y-109009999D02*
X64725001Y-107804999D01*
X57900001Y-107739999D02*
X55360001Y-110279999D01*
X64100000Y-109635000D02*
X64725001Y-109009999D01*
X59319999Y-112819999D02*
X61000001Y-114500001D01*
X63650000Y-109635000D02*
X64100000Y-109635000D01*
G04 #@! TO.N,Net-(R14-Pad1)*
X64564157Y-144564157D02*
X62000000Y-142000000D01*
X64564157Y-145590652D02*
X64564157Y-144564157D01*
X61274999Y-133360786D02*
X62000000Y-134085787D01*
X61274999Y-132651999D02*
X61274999Y-133360786D01*
X67825001Y-126101997D02*
X61274999Y-132651999D01*
X67825001Y-114630001D02*
X67825001Y-126101997D01*
X62000000Y-134085787D02*
X62000000Y-135500000D01*
X64100000Y-110905000D02*
X67825001Y-114630001D01*
X63650000Y-110905000D02*
X64100000Y-110905000D01*
G04 #@! TO.N,Net-(R15-Pad1)*
X58564157Y-137564157D02*
X53000000Y-132000000D01*
X58564157Y-145590652D02*
X58564157Y-137564157D01*
X53000000Y-124085787D02*
X53000000Y-125500000D01*
X52824990Y-123910777D02*
X53000000Y-124085787D01*
X52824990Y-112065008D02*
X52824990Y-123910777D01*
X53339999Y-111549999D02*
X52824990Y-112065008D01*
X62574999Y-111549999D02*
X53339999Y-111549999D01*
X63200000Y-112175000D02*
X62574999Y-111549999D01*
X63650000Y-112175000D02*
X63200000Y-112175000D01*
G04 #@! TO.N,Net-(R16-Pad1)*
X71000000Y-133414213D02*
X71000000Y-132000000D01*
X67589212Y-136825001D02*
X71000000Y-133414213D01*
X60674999Y-141363999D02*
X65213997Y-136825001D01*
X65213997Y-136825001D02*
X67589212Y-136825001D01*
X60674999Y-143601494D02*
X60674999Y-141363999D01*
X62564157Y-145490652D02*
X60674999Y-143601494D01*
X62564157Y-145590652D02*
X62564157Y-145490652D01*
X71000000Y-132000000D02*
X71000000Y-125500000D01*
X62574999Y-108990001D02*
X63200000Y-108365000D01*
X62574999Y-110195001D02*
X62574999Y-108990001D01*
X62639999Y-110260001D02*
X62574999Y-110195001D01*
X64640003Y-110260001D02*
X62639999Y-110260001D01*
X68275011Y-113895009D02*
X64640003Y-110260001D01*
X63200000Y-108365000D02*
X63650000Y-108365000D01*
X68275011Y-127651987D02*
X68275011Y-113895009D01*
X66274999Y-129651999D02*
X68275011Y-127651987D01*
X66651999Y-130725001D02*
X66274999Y-130348001D01*
X66274999Y-130348001D02*
X66274999Y-129651999D01*
X67348001Y-130725001D02*
X66651999Y-130725001D01*
X71000000Y-127073002D02*
X67348001Y-130725001D01*
X71000000Y-125500000D02*
X71000000Y-127073002D01*
G04 #@! TO.N,Net-(R17-Pad1)*
X55350000Y-113445000D02*
X54350000Y-113445000D01*
X63325001Y-121363999D02*
X55406002Y-113445000D01*
X63325001Y-128292313D02*
X63325001Y-121363999D01*
X59539158Y-146600653D02*
X59539158Y-132078156D01*
X59539158Y-132078156D02*
X63325001Y-128292313D01*
X59474158Y-146665653D02*
X59539158Y-146600653D01*
X55539158Y-146665653D02*
X59474158Y-146665653D01*
X54564157Y-145690652D02*
X55539158Y-146665653D01*
X55406002Y-113445000D02*
X55350000Y-113445000D01*
X54564157Y-145590652D02*
X54564157Y-145690652D01*
X87999999Y-131000001D02*
X87000000Y-132000000D01*
X88825001Y-130174999D02*
X87999999Y-131000001D01*
X88825001Y-127325001D02*
X88825001Y-130174999D01*
X87000000Y-125500000D02*
X88825001Y-127325001D01*
X69674999Y-127325001D02*
X67000000Y-130000000D01*
X69674999Y-124863999D02*
X69674999Y-127325001D01*
X70363999Y-124174999D02*
X69674999Y-124863999D01*
X87000000Y-125500000D02*
X85674999Y-124174999D01*
X85674999Y-124174999D02*
X70363999Y-124174999D01*
X63707687Y-128292313D02*
X63325001Y-128292313D01*
X66000000Y-126000000D02*
X63707687Y-128292313D01*
G04 #@! TO.N,Net-(R18-Pad1)*
X65474158Y-146665653D02*
X70139811Y-142000000D01*
X70139811Y-142000000D02*
X77085787Y-142000000D01*
X60564157Y-145575654D02*
X61654156Y-146665653D01*
X61654156Y-146665653D02*
X65474158Y-146665653D01*
X60564157Y-145590652D02*
X60564157Y-145575654D01*
X60564157Y-146590652D02*
X60564157Y-145590652D01*
X60039146Y-147115663D02*
X60564157Y-146590652D01*
X54104166Y-147115663D02*
X60039146Y-147115663D01*
X51224990Y-144236487D02*
X54104166Y-147115663D01*
X51224990Y-110490010D02*
X51224990Y-144236487D01*
X53350000Y-108365000D02*
X51224990Y-110490010D01*
X54350000Y-108365000D02*
X53350000Y-108365000D01*
X85000000Y-142000000D02*
X79174999Y-136174999D01*
X79174999Y-136174999D02*
X77863999Y-136174999D01*
X77863999Y-136174999D02*
X77174999Y-136863999D01*
X77174999Y-136863999D02*
X77174999Y-140674999D01*
X77174999Y-140674999D02*
X77500001Y-141000001D01*
X77500001Y-141000001D02*
X78500000Y-142000000D01*
X77085787Y-142000000D02*
X78500000Y-142000000D01*
G04 #@! TO.N,/TX*
X60000000Y-77350000D02*
X60000000Y-79000000D01*
X60000000Y-79000000D02*
X56000000Y-83000000D01*
X60800000Y-94300000D02*
X60800000Y-93250000D01*
X60800000Y-94836410D02*
X60800000Y-94300000D01*
X60036409Y-95600001D02*
X60800000Y-94836410D01*
X56399999Y-95600001D02*
X60036409Y-95600001D01*
X56000000Y-96000000D02*
X56399999Y-95600001D01*
G04 #@! TO.N,Net-(R19-Pad2)*
X61750000Y-62225000D02*
X62400000Y-62225000D01*
X60000000Y-63975000D02*
X61750000Y-62225000D01*
X60000000Y-74650000D02*
X60000000Y-63975000D01*
G04 #@! TO.N,Net-(R20-Pad1)*
X67000000Y-59800000D02*
X67000000Y-61000000D01*
X69600000Y-58325000D02*
X68475000Y-58325000D01*
X68475000Y-58325000D02*
X67000000Y-59800000D01*
G04 #@! TO.N,Net-(R21-Pad1)*
X67073002Y-62000000D02*
X65000000Y-62000000D01*
X67725001Y-61348001D02*
X67073002Y-62000000D01*
X67725001Y-59724999D02*
X67725001Y-61348001D01*
X69600000Y-58975000D02*
X68475000Y-58975000D01*
X68475000Y-58975000D02*
X67725001Y-59724999D01*
G04 #@! TO.N,Net-(RV1-Pad2)*
X64214998Y-64000000D02*
X78000000Y-64000000D01*
X62374999Y-65839999D02*
X64214998Y-64000000D01*
X65000000Y-74000000D02*
X62374999Y-71374999D01*
X62374999Y-71374999D02*
X62374999Y-65839999D01*
G04 #@! TO.N,Net-(SW2-Pad2)*
X54350000Y-112175000D02*
X60175000Y-112175000D01*
X60175000Y-112175000D02*
X61000000Y-113000000D01*
G04 #@! TO.N,/BTN_IN*
X60875000Y-91198002D02*
X60875000Y-87000000D01*
X60348001Y-91725001D02*
X60875000Y-91198002D01*
X59674999Y-91725001D02*
X60348001Y-91725001D01*
X59200000Y-93250000D02*
X59200000Y-92200000D01*
X59200000Y-92200000D02*
X59674999Y-91725001D01*
X54350000Y-110905000D02*
X56095000Y-110905000D01*
X56095000Y-110905000D02*
X58000000Y-109000000D01*
G04 #@! TO.N,/RX*
X60000000Y-95000000D02*
X60000000Y-93250000D01*
X56000000Y-95000000D02*
X60000000Y-95000000D01*
X60788590Y-59625000D02*
X58738591Y-61674999D01*
X58738591Y-61674999D02*
X55939999Y-61674999D01*
X55000000Y-94000000D02*
X56000000Y-95000000D01*
X62400000Y-59625000D02*
X60788590Y-59625000D01*
X55000000Y-62614998D02*
X55000000Y-94000000D01*
X55939999Y-61674999D02*
X55000000Y-62614998D01*
G04 #@! TO.N,/S2*
X64000000Y-90926998D02*
X64000000Y-91000000D01*
X63200000Y-84750000D02*
X63200000Y-90126998D01*
X63200000Y-90126998D02*
X64000000Y-90926998D01*
X64000000Y-104205000D02*
X63650000Y-104555000D01*
X64000000Y-103000000D02*
X64000000Y-104205000D01*
G04 #@! TO.N,/S1*
X63000000Y-90926998D02*
X63000000Y-91000000D01*
X62400000Y-84750000D02*
X62400000Y-90326998D01*
X62400000Y-90326998D02*
X63000000Y-90926998D01*
X63475000Y-106000000D02*
X63650000Y-105825000D01*
X62000000Y-106000000D02*
X63475000Y-106000000D01*
G04 #@! TO.N,/S0*
X61600000Y-84750000D02*
X61600000Y-90600000D01*
X61600000Y-90600000D02*
X62000000Y-91000000D01*
X63555000Y-107000000D02*
X63650000Y-107095000D01*
X61000000Y-107000000D02*
X63555000Y-107000000D01*
G04 #@! TO.N,+3V3*
X63550000Y-68050000D02*
X63550000Y-66950000D01*
X65575001Y-70075001D02*
X63550000Y-68050000D01*
X78075001Y-70075001D02*
X65575001Y-70075001D01*
X79000000Y-71000000D02*
X78075001Y-70075001D01*
X62000000Y-79926998D02*
X62000000Y-82000000D01*
X71651999Y-70274999D02*
X62000000Y-79926998D01*
X78000000Y-71000000D02*
X77274999Y-70274999D01*
X77274999Y-70274999D02*
X71651999Y-70274999D01*
X86600000Y-135600000D02*
X85000000Y-134000000D01*
X91000000Y-135600000D02*
X86600000Y-135600000D01*
G04 #@! TO.N,Net-(IC1-Pad7)*
X64000000Y-75000000D02*
X64000000Y-77000000D01*
X60000000Y-81000000D02*
X60000000Y-84750000D01*
X64000000Y-77000000D02*
X60000000Y-81000000D01*
G04 #@! TO.N,Net-(IC1-Pad5)*
X59000000Y-84550000D02*
X59200000Y-84750000D01*
X59000000Y-82000000D02*
X59000000Y-84550000D01*
G04 #@! TO.N,Net-(IC1-Pad3)*
X75000000Y-71000000D02*
X67000000Y-79000000D01*
X67000000Y-79000000D02*
X64000000Y-79000000D01*
X60000000Y-91000000D02*
X57750000Y-91000000D01*
G04 #@! TO.N,Net-(R22-Pad2)*
X65050000Y-85000000D02*
X64800000Y-84750000D01*
X70000000Y-85000000D02*
X65050000Y-85000000D01*
G04 #@! TO.N,/SCL*
X63825001Y-95725001D02*
X67024999Y-95725001D01*
X67024999Y-95725001D02*
X68750000Y-94000000D01*
X62400000Y-93250000D02*
X62400000Y-94300000D01*
X62400000Y-94300000D02*
X63825001Y-95725001D01*
X71500000Y-95000000D02*
X70250000Y-96250000D01*
X70250000Y-96250000D02*
X70250000Y-98875000D01*
X69370000Y-118700000D02*
X70400000Y-118700000D01*
X68850001Y-115399999D02*
X68850001Y-118180001D01*
X68850001Y-118180001D02*
X69370000Y-118700000D01*
X69250000Y-115000000D02*
X68850001Y-115399999D01*
X73705001Y-120975001D02*
X71430000Y-118700000D01*
X81310001Y-120975001D02*
X73705001Y-120975001D01*
X81375001Y-120910001D02*
X81310001Y-120975001D01*
X81375001Y-119089999D02*
X81375001Y-120910001D01*
X81274999Y-118989997D02*
X81375001Y-119089999D01*
X81274999Y-110325001D02*
X81274999Y-118989997D01*
X82250000Y-109350000D02*
X81274999Y-110325001D01*
X71430000Y-118700000D02*
X70400000Y-118700000D01*
X82250000Y-108250000D02*
X82250000Y-109350000D01*
G04 #@! TO.N,/SDA*
X65750000Y-106721412D02*
X65750000Y-105250000D01*
X70400000Y-116800000D02*
X70400000Y-111371412D01*
X70400000Y-111371412D02*
X65750000Y-106721412D01*
X69500000Y-96750000D02*
X69500000Y-95750000D01*
X69500000Y-95750000D02*
X70250000Y-95000000D01*
X63200000Y-94300000D02*
X63200000Y-93250000D01*
X63500001Y-94600001D02*
X63200000Y-94300000D01*
X65174999Y-94600001D02*
X63500001Y-94600001D01*
X65574998Y-95000000D02*
X65174999Y-94600001D01*
X71574989Y-101824989D02*
X73000000Y-103250000D01*
X58910001Y-98624999D02*
X62109991Y-101824989D01*
X57024999Y-98689999D02*
X57089999Y-98624999D01*
X64725001Y-105696413D02*
X64725001Y-105245001D01*
X70400000Y-111371412D02*
X64725001Y-105696413D01*
X64660001Y-105180001D02*
X61494999Y-105180001D01*
X57089999Y-98624999D02*
X58910001Y-98624999D01*
X64725001Y-105245001D02*
X64660001Y-105180001D01*
X61494999Y-105180001D02*
X57024999Y-100710001D01*
X62109991Y-101824989D02*
X71574989Y-101824989D01*
X57024999Y-100710001D02*
X57024999Y-98689999D01*
X77250000Y-107000000D02*
X79250000Y-105000000D01*
X79250000Y-105000000D02*
X79250000Y-104750000D01*
G04 #@! TO.N,Net-(BZ1-Pad1)*
X84000000Y-58500000D02*
X84000000Y-58000000D01*
X86350000Y-61000000D02*
X86350000Y-60850000D01*
X86350000Y-61000000D02*
X86350000Y-61150000D01*
X85750000Y-61000000D02*
X84500000Y-59750000D01*
X86350000Y-61000000D02*
X85750000Y-61000000D01*
G04 #@! TD*
D40*
G04 #@! TO.N,GND*
G36*
X94290001Y-144844342D02*
X94288327Y-144840301D01*
X94109698Y-144661673D01*
X93876309Y-144565000D01*
X92285750Y-144565000D01*
X92127000Y-144723750D01*
X92127000Y-145873000D01*
X92147000Y-145873000D01*
X92147000Y-146127000D01*
X92127000Y-146127000D01*
X92127000Y-147276250D01*
X92285750Y-147435000D01*
X93876309Y-147435000D01*
X94109698Y-147338327D01*
X94288327Y-147159699D01*
X94290001Y-147155658D01*
X94290001Y-149290000D01*
X65798193Y-149290000D01*
X65849157Y-149166961D01*
X65849157Y-148576402D01*
X65690407Y-148417652D01*
X64691157Y-148417652D01*
X64691157Y-148437652D01*
X64437157Y-148437652D01*
X64437157Y-148417652D01*
X62691157Y-148417652D01*
X62691157Y-148437652D01*
X62437157Y-148437652D01*
X62437157Y-148417652D01*
X60691157Y-148417652D01*
X60691157Y-148437652D01*
X60437157Y-148437652D01*
X60437157Y-148417652D01*
X58691157Y-148417652D01*
X58691157Y-148437652D01*
X58437157Y-148437652D01*
X58437157Y-148417652D01*
X56691157Y-148417652D01*
X56691157Y-148437652D01*
X56437157Y-148437652D01*
X56437157Y-148417652D01*
X54691157Y-148417652D01*
X54691157Y-148437652D01*
X54437157Y-148437652D01*
X54437157Y-148417652D01*
X53437907Y-148417652D01*
X53279157Y-148576402D01*
X53279157Y-149166961D01*
X53330121Y-149290000D01*
X50710000Y-149290000D01*
X50710000Y-144806424D01*
X50740518Y-144826816D01*
X53293476Y-147379775D01*
X53279157Y-147414343D01*
X53279157Y-148004902D01*
X53437907Y-148163652D01*
X54437157Y-148163652D01*
X54437157Y-148143652D01*
X54691157Y-148143652D01*
X54691157Y-148163652D01*
X56437157Y-148163652D01*
X56437157Y-148143652D01*
X56691157Y-148143652D01*
X56691157Y-148163652D01*
X58437157Y-148163652D01*
X58437157Y-148143652D01*
X58691157Y-148143652D01*
X58691157Y-148163652D01*
X60437157Y-148163652D01*
X60437157Y-148143652D01*
X60691157Y-148143652D01*
X60691157Y-148163652D01*
X62437157Y-148163652D01*
X62437157Y-148143652D01*
X62691157Y-148143652D01*
X62691157Y-148163652D01*
X64437157Y-148163652D01*
X64437157Y-148143652D01*
X64691157Y-148143652D01*
X64691157Y-148163652D01*
X65690407Y-148163652D01*
X65849157Y-148004902D01*
X65849157Y-147414343D01*
X65821512Y-147347602D01*
X66022087Y-147213582D01*
X66064489Y-147150123D01*
X70454613Y-142760000D01*
X72102620Y-142760000D01*
X72077070Y-142777072D01*
X72034670Y-142840528D01*
X69515528Y-145359671D01*
X69452072Y-145402071D01*
X69409672Y-145465527D01*
X69409671Y-145465528D01*
X69351518Y-145552560D01*
X69000000Y-145552560D01*
X68752235Y-145601843D01*
X68542191Y-145742191D01*
X68401843Y-145952235D01*
X68352560Y-146200000D01*
X68352560Y-147800000D01*
X68401843Y-148047765D01*
X68542191Y-148257809D01*
X68752235Y-148398157D01*
X69000000Y-148447440D01*
X71000000Y-148447440D01*
X71247765Y-148398157D01*
X71457809Y-148257809D01*
X71598157Y-148047765D01*
X71647440Y-147800000D01*
X71647440Y-147285750D01*
X72365000Y-147285750D01*
X72365000Y-147926310D01*
X72461673Y-148159699D01*
X72640302Y-148338327D01*
X72873691Y-148435000D01*
X73714250Y-148435000D01*
X73873000Y-148276250D01*
X73873000Y-147127000D01*
X74127000Y-147127000D01*
X74127000Y-148276250D01*
X74285750Y-148435000D01*
X75126309Y-148435000D01*
X75359698Y-148338327D01*
X75538327Y-148159699D01*
X75635000Y-147926310D01*
X75635000Y-147285750D01*
X75476250Y-147127000D01*
X74127000Y-147127000D01*
X73873000Y-147127000D01*
X72523750Y-147127000D01*
X72365000Y-147285750D01*
X71647440Y-147285750D01*
X71647440Y-146200000D01*
X71622316Y-146073690D01*
X72365000Y-146073690D01*
X72365000Y-146714250D01*
X72523750Y-146873000D01*
X73873000Y-146873000D01*
X73873000Y-145723750D01*
X74127000Y-145723750D01*
X74127000Y-146873000D01*
X75476250Y-146873000D01*
X75635000Y-146714250D01*
X75635000Y-146200000D01*
X76352560Y-146200000D01*
X76352560Y-147800000D01*
X76401843Y-148047765D01*
X76542191Y-148257809D01*
X76752235Y-148398157D01*
X77000000Y-148447440D01*
X79000000Y-148447440D01*
X79247765Y-148398157D01*
X79457809Y-148257809D01*
X79598157Y-148047765D01*
X79647440Y-147800000D01*
X79647440Y-147285750D01*
X80365000Y-147285750D01*
X80365000Y-147926310D01*
X80461673Y-148159699D01*
X80640302Y-148338327D01*
X80873691Y-148435000D01*
X81714250Y-148435000D01*
X81873000Y-148276250D01*
X81873000Y-147127000D01*
X82127000Y-147127000D01*
X82127000Y-148276250D01*
X82285750Y-148435000D01*
X83126309Y-148435000D01*
X83359698Y-148338327D01*
X83538327Y-148159699D01*
X83635000Y-147926310D01*
X83635000Y-147285750D01*
X83476250Y-147127000D01*
X82127000Y-147127000D01*
X81873000Y-147127000D01*
X80523750Y-147127000D01*
X80365000Y-147285750D01*
X79647440Y-147285750D01*
X79647440Y-146974241D01*
X79794126Y-147035000D01*
X80205874Y-147035000D01*
X80586280Y-146877431D01*
X80590711Y-146873000D01*
X81873000Y-146873000D01*
X81873000Y-145723750D01*
X82127000Y-145723750D01*
X82127000Y-146873000D01*
X83476250Y-146873000D01*
X83635000Y-146714250D01*
X83635000Y-146073690D01*
X83538327Y-145840301D01*
X83359698Y-145661673D01*
X83126309Y-145565000D01*
X82285750Y-145565000D01*
X82127000Y-145723750D01*
X81873000Y-145723750D01*
X81714250Y-145565000D01*
X80940093Y-145565000D01*
X80877431Y-145413720D01*
X80586280Y-145122569D01*
X80205874Y-144965000D01*
X79794126Y-144965000D01*
X79413720Y-145122569D01*
X79296289Y-145240000D01*
X79074848Y-145240000D01*
X79000000Y-145225112D01*
X78925152Y-145240000D01*
X78925148Y-145240000D01*
X78703463Y-145284096D01*
X78452071Y-145452071D01*
X78409671Y-145515527D01*
X78372638Y-145552560D01*
X77000000Y-145552560D01*
X76752235Y-145601843D01*
X76542191Y-145742191D01*
X76401843Y-145952235D01*
X76352560Y-146200000D01*
X75635000Y-146200000D01*
X75635000Y-146073690D01*
X75538327Y-145840301D01*
X75359698Y-145661673D01*
X75126309Y-145565000D01*
X74285750Y-145565000D01*
X74127000Y-145723750D01*
X73873000Y-145723750D01*
X73714250Y-145565000D01*
X72873691Y-145565000D01*
X72640302Y-145661673D01*
X72461673Y-145840301D01*
X72365000Y-146073690D01*
X71622316Y-146073690D01*
X71598157Y-145952235D01*
X71457809Y-145742191D01*
X71352785Y-145672016D01*
X72939801Y-144085001D01*
X79061154Y-144085001D01*
X79136001Y-144099889D01*
X79210848Y-144085001D01*
X79210853Y-144085001D01*
X79432538Y-144040905D01*
X79683930Y-143872930D01*
X79726332Y-143809471D01*
X80484473Y-143051331D01*
X80547929Y-143008931D01*
X80715904Y-142757539D01*
X80760000Y-142535854D01*
X80760000Y-142535850D01*
X80774888Y-142461003D01*
X80760000Y-142386156D01*
X80760000Y-139074846D01*
X80774888Y-138999999D01*
X80760000Y-138925152D01*
X80760000Y-138925148D01*
X80737567Y-138812368D01*
X83433823Y-141508625D01*
X83365000Y-141674778D01*
X83365000Y-142325222D01*
X83613914Y-142926153D01*
X84073847Y-143386086D01*
X84674778Y-143635000D01*
X85325222Y-143635000D01*
X85840000Y-143421772D01*
X85840000Y-144552560D01*
X84850000Y-144552560D01*
X84602235Y-144601843D01*
X84392191Y-144742191D01*
X84251843Y-144952235D01*
X84202560Y-145200000D01*
X84202560Y-146800000D01*
X84251843Y-147047765D01*
X84392191Y-147257809D01*
X84602235Y-147398157D01*
X84850000Y-147447440D01*
X88350000Y-147447440D01*
X88597765Y-147398157D01*
X88807809Y-147257809D01*
X88948157Y-147047765D01*
X88997440Y-146800000D01*
X88997440Y-146285750D01*
X89615000Y-146285750D01*
X89615000Y-146926310D01*
X89711673Y-147159699D01*
X89890302Y-147338327D01*
X90123691Y-147435000D01*
X91714250Y-147435000D01*
X91873000Y-147276250D01*
X91873000Y-146127000D01*
X89773750Y-146127000D01*
X89615000Y-146285750D01*
X88997440Y-146285750D01*
X88997440Y-145200000D01*
X88972316Y-145073690D01*
X89615000Y-145073690D01*
X89615000Y-145714250D01*
X89773750Y-145873000D01*
X91873000Y-145873000D01*
X91873000Y-144723750D01*
X91714250Y-144565000D01*
X90123691Y-144565000D01*
X89890302Y-144661673D01*
X89711673Y-144840301D01*
X89615000Y-145073690D01*
X88972316Y-145073690D01*
X88948157Y-144952235D01*
X88807809Y-144742191D01*
X88597765Y-144601843D01*
X88350000Y-144552560D01*
X87360000Y-144552560D01*
X87360000Y-140285750D01*
X89565000Y-140285750D01*
X89565000Y-141626309D01*
X89661673Y-141859698D01*
X89840301Y-142038327D01*
X90073690Y-142135000D01*
X90714250Y-142135000D01*
X90873000Y-141976250D01*
X90873000Y-140127000D01*
X91127000Y-140127000D01*
X91127000Y-141976250D01*
X91285750Y-142135000D01*
X91926310Y-142135000D01*
X92159699Y-142038327D01*
X92338327Y-141859698D01*
X92435000Y-141626309D01*
X92435000Y-140285750D01*
X92276250Y-140127000D01*
X91127000Y-140127000D01*
X90873000Y-140127000D01*
X89723750Y-140127000D01*
X89565000Y-140285750D01*
X87360000Y-140285750D01*
X87360000Y-139174848D01*
X87374888Y-139100000D01*
X87360000Y-139025152D01*
X87360000Y-139025148D01*
X87315904Y-138803463D01*
X87315904Y-138803462D01*
X87190329Y-138615527D01*
X87147929Y-138552071D01*
X87084473Y-138509671D01*
X86948493Y-138373691D01*
X89565000Y-138373691D01*
X89565000Y-139714250D01*
X89723750Y-139873000D01*
X90873000Y-139873000D01*
X90873000Y-138023750D01*
X91127000Y-138023750D01*
X91127000Y-139873000D01*
X92276250Y-139873000D01*
X92435000Y-139714250D01*
X92435000Y-138373691D01*
X92338327Y-138140302D01*
X92159699Y-137961673D01*
X91926310Y-137865000D01*
X91285750Y-137865000D01*
X91127000Y-138023750D01*
X90873000Y-138023750D01*
X90714250Y-137865000D01*
X90073690Y-137865000D01*
X89840301Y-137961673D01*
X89661673Y-138140302D01*
X89565000Y-138373691D01*
X86948493Y-138373691D01*
X86566177Y-137991375D01*
X86635000Y-137825222D01*
X86635000Y-137174778D01*
X86386086Y-136573847D01*
X85926153Y-136113914D01*
X85325222Y-135865000D01*
X84674778Y-135865000D01*
X84073847Y-136113914D01*
X83613914Y-136573847D01*
X83365000Y-137174778D01*
X83365000Y-137825222D01*
X83587722Y-138362920D01*
X80643665Y-135418864D01*
X80747765Y-135398157D01*
X80957809Y-135257809D01*
X80998654Y-135196680D01*
X81140302Y-135338327D01*
X81373691Y-135435000D01*
X82514250Y-135435000D01*
X82673000Y-135276250D01*
X82673000Y-134127000D01*
X82653000Y-134127000D01*
X82653000Y-133873000D01*
X82673000Y-133873000D01*
X82673000Y-132723750D01*
X82514250Y-132565000D01*
X82209802Y-132565000D01*
X82739804Y-132034999D01*
X83999196Y-132034999D01*
X84929196Y-132965000D01*
X84794126Y-132965000D01*
X84705231Y-133001821D01*
X84638327Y-132840301D01*
X84459698Y-132661673D01*
X84226309Y-132565000D01*
X83085750Y-132565000D01*
X82927000Y-132723750D01*
X82927000Y-133873000D01*
X82947000Y-133873000D01*
X82947000Y-134127000D01*
X82927000Y-134127000D01*
X82927000Y-135276250D01*
X83085750Y-135435000D01*
X84226309Y-135435000D01*
X84459698Y-135338327D01*
X84638327Y-135159699D01*
X84705231Y-134998179D01*
X84794126Y-135035000D01*
X84960199Y-135035000D01*
X86009671Y-136084473D01*
X86052071Y-136147929D01*
X86115527Y-136190329D01*
X86303462Y-136315904D01*
X86351605Y-136325480D01*
X86525148Y-136360000D01*
X86525152Y-136360000D01*
X86600000Y-136374888D01*
X86674848Y-136360000D01*
X89552560Y-136360000D01*
X89552560Y-137100000D01*
X89601843Y-137347765D01*
X89742191Y-137557809D01*
X89952235Y-137698157D01*
X90200000Y-137747440D01*
X91800000Y-137747440D01*
X92047765Y-137698157D01*
X92257809Y-137557809D01*
X92398157Y-137347765D01*
X92447440Y-137100000D01*
X92447440Y-134100000D01*
X92398157Y-133852235D01*
X92257809Y-133642191D01*
X92085622Y-133527139D01*
X92426153Y-133386086D01*
X92886086Y-132926153D01*
X93135000Y-132325222D01*
X93135000Y-131674778D01*
X92886086Y-131073847D01*
X92426153Y-130613914D01*
X91825222Y-130365000D01*
X91174778Y-130365000D01*
X90573847Y-130613914D01*
X90113914Y-131073847D01*
X90049999Y-131228151D01*
X90049999Y-126271849D01*
X90113914Y-126426153D01*
X90573847Y-126886086D01*
X91174778Y-127135000D01*
X91825222Y-127135000D01*
X92426153Y-126886086D01*
X92886086Y-126426153D01*
X93135000Y-125825222D01*
X93135000Y-125174778D01*
X92886086Y-124573847D01*
X92426153Y-124113914D01*
X91825222Y-123865000D01*
X91494804Y-123865000D01*
X91859474Y-123500330D01*
X91922930Y-123457930D01*
X92055956Y-123258843D01*
X92250000Y-123297440D01*
X93750000Y-123297440D01*
X93997765Y-123248157D01*
X94207809Y-123107809D01*
X94290001Y-122984801D01*
X94290001Y-144844342D01*
X94290001Y-144844342D01*
G37*
X94290001Y-144844342D02*
X94288327Y-144840301D01*
X94109698Y-144661673D01*
X93876309Y-144565000D01*
X92285750Y-144565000D01*
X92127000Y-144723750D01*
X92127000Y-145873000D01*
X92147000Y-145873000D01*
X92147000Y-146127000D01*
X92127000Y-146127000D01*
X92127000Y-147276250D01*
X92285750Y-147435000D01*
X93876309Y-147435000D01*
X94109698Y-147338327D01*
X94288327Y-147159699D01*
X94290001Y-147155658D01*
X94290001Y-149290000D01*
X65798193Y-149290000D01*
X65849157Y-149166961D01*
X65849157Y-148576402D01*
X65690407Y-148417652D01*
X64691157Y-148417652D01*
X64691157Y-148437652D01*
X64437157Y-148437652D01*
X64437157Y-148417652D01*
X62691157Y-148417652D01*
X62691157Y-148437652D01*
X62437157Y-148437652D01*
X62437157Y-148417652D01*
X60691157Y-148417652D01*
X60691157Y-148437652D01*
X60437157Y-148437652D01*
X60437157Y-148417652D01*
X58691157Y-148417652D01*
X58691157Y-148437652D01*
X58437157Y-148437652D01*
X58437157Y-148417652D01*
X56691157Y-148417652D01*
X56691157Y-148437652D01*
X56437157Y-148437652D01*
X56437157Y-148417652D01*
X54691157Y-148417652D01*
X54691157Y-148437652D01*
X54437157Y-148437652D01*
X54437157Y-148417652D01*
X53437907Y-148417652D01*
X53279157Y-148576402D01*
X53279157Y-149166961D01*
X53330121Y-149290000D01*
X50710000Y-149290000D01*
X50710000Y-144806424D01*
X50740518Y-144826816D01*
X53293476Y-147379775D01*
X53279157Y-147414343D01*
X53279157Y-148004902D01*
X53437907Y-148163652D01*
X54437157Y-148163652D01*
X54437157Y-148143652D01*
X54691157Y-148143652D01*
X54691157Y-148163652D01*
X56437157Y-148163652D01*
X56437157Y-148143652D01*
X56691157Y-148143652D01*
X56691157Y-148163652D01*
X58437157Y-148163652D01*
X58437157Y-148143652D01*
X58691157Y-148143652D01*
X58691157Y-148163652D01*
X60437157Y-148163652D01*
X60437157Y-148143652D01*
X60691157Y-148143652D01*
X60691157Y-148163652D01*
X62437157Y-148163652D01*
X62437157Y-148143652D01*
X62691157Y-148143652D01*
X62691157Y-148163652D01*
X64437157Y-148163652D01*
X64437157Y-148143652D01*
X64691157Y-148143652D01*
X64691157Y-148163652D01*
X65690407Y-148163652D01*
X65849157Y-148004902D01*
X65849157Y-147414343D01*
X65821512Y-147347602D01*
X66022087Y-147213582D01*
X66064489Y-147150123D01*
X70454613Y-142760000D01*
X72102620Y-142760000D01*
X72077070Y-142777072D01*
X72034670Y-142840528D01*
X69515528Y-145359671D01*
X69452072Y-145402071D01*
X69409672Y-145465527D01*
X69409671Y-145465528D01*
X69351518Y-145552560D01*
X69000000Y-145552560D01*
X68752235Y-145601843D01*
X68542191Y-145742191D01*
X68401843Y-145952235D01*
X68352560Y-146200000D01*
X68352560Y-147800000D01*
X68401843Y-148047765D01*
X68542191Y-148257809D01*
X68752235Y-148398157D01*
X69000000Y-148447440D01*
X71000000Y-148447440D01*
X71247765Y-148398157D01*
X71457809Y-148257809D01*
X71598157Y-148047765D01*
X71647440Y-147800000D01*
X71647440Y-147285750D01*
X72365000Y-147285750D01*
X72365000Y-147926310D01*
X72461673Y-148159699D01*
X72640302Y-148338327D01*
X72873691Y-148435000D01*
X73714250Y-148435000D01*
X73873000Y-148276250D01*
X73873000Y-147127000D01*
X74127000Y-147127000D01*
X74127000Y-148276250D01*
X74285750Y-148435000D01*
X75126309Y-148435000D01*
X75359698Y-148338327D01*
X75538327Y-148159699D01*
X75635000Y-147926310D01*
X75635000Y-147285750D01*
X75476250Y-147127000D01*
X74127000Y-147127000D01*
X73873000Y-147127000D01*
X72523750Y-147127000D01*
X72365000Y-147285750D01*
X71647440Y-147285750D01*
X71647440Y-146200000D01*
X71622316Y-146073690D01*
X72365000Y-146073690D01*
X72365000Y-146714250D01*
X72523750Y-146873000D01*
X73873000Y-146873000D01*
X73873000Y-145723750D01*
X74127000Y-145723750D01*
X74127000Y-146873000D01*
X75476250Y-146873000D01*
X75635000Y-146714250D01*
X75635000Y-146200000D01*
X76352560Y-146200000D01*
X76352560Y-147800000D01*
X76401843Y-148047765D01*
X76542191Y-148257809D01*
X76752235Y-148398157D01*
X77000000Y-148447440D01*
X79000000Y-148447440D01*
X79247765Y-148398157D01*
X79457809Y-148257809D01*
X79598157Y-148047765D01*
X79647440Y-147800000D01*
X79647440Y-147285750D01*
X80365000Y-147285750D01*
X80365000Y-147926310D01*
X80461673Y-148159699D01*
X80640302Y-148338327D01*
X80873691Y-148435000D01*
X81714250Y-148435000D01*
X81873000Y-148276250D01*
X81873000Y-147127000D01*
X82127000Y-147127000D01*
X82127000Y-148276250D01*
X82285750Y-148435000D01*
X83126309Y-148435000D01*
X83359698Y-148338327D01*
X83538327Y-148159699D01*
X83635000Y-147926310D01*
X83635000Y-147285750D01*
X83476250Y-147127000D01*
X82127000Y-147127000D01*
X81873000Y-147127000D01*
X80523750Y-147127000D01*
X80365000Y-147285750D01*
X79647440Y-147285750D01*
X79647440Y-146974241D01*
X79794126Y-147035000D01*
X80205874Y-147035000D01*
X80586280Y-146877431D01*
X80590711Y-146873000D01*
X81873000Y-146873000D01*
X81873000Y-145723750D01*
X82127000Y-145723750D01*
X82127000Y-146873000D01*
X83476250Y-146873000D01*
X83635000Y-146714250D01*
X83635000Y-146073690D01*
X83538327Y-145840301D01*
X83359698Y-145661673D01*
X83126309Y-145565000D01*
X82285750Y-145565000D01*
X82127000Y-145723750D01*
X81873000Y-145723750D01*
X81714250Y-145565000D01*
X80940093Y-145565000D01*
X80877431Y-145413720D01*
X80586280Y-145122569D01*
X80205874Y-144965000D01*
X79794126Y-144965000D01*
X79413720Y-145122569D01*
X79296289Y-145240000D01*
X79074848Y-145240000D01*
X79000000Y-145225112D01*
X78925152Y-145240000D01*
X78925148Y-145240000D01*
X78703463Y-145284096D01*
X78452071Y-145452071D01*
X78409671Y-145515527D01*
X78372638Y-145552560D01*
X77000000Y-145552560D01*
X76752235Y-145601843D01*
X76542191Y-145742191D01*
X76401843Y-145952235D01*
X76352560Y-146200000D01*
X75635000Y-146200000D01*
X75635000Y-146073690D01*
X75538327Y-145840301D01*
X75359698Y-145661673D01*
X75126309Y-145565000D01*
X74285750Y-145565000D01*
X74127000Y-145723750D01*
X73873000Y-145723750D01*
X73714250Y-145565000D01*
X72873691Y-145565000D01*
X72640302Y-145661673D01*
X72461673Y-145840301D01*
X72365000Y-146073690D01*
X71622316Y-146073690D01*
X71598157Y-145952235D01*
X71457809Y-145742191D01*
X71352785Y-145672016D01*
X72939801Y-144085001D01*
X79061154Y-144085001D01*
X79136001Y-144099889D01*
X79210848Y-144085001D01*
X79210853Y-144085001D01*
X79432538Y-144040905D01*
X79683930Y-143872930D01*
X79726332Y-143809471D01*
X80484473Y-143051331D01*
X80547929Y-143008931D01*
X80715904Y-142757539D01*
X80760000Y-142535854D01*
X80760000Y-142535850D01*
X80774888Y-142461003D01*
X80760000Y-142386156D01*
X80760000Y-139074846D01*
X80774888Y-138999999D01*
X80760000Y-138925152D01*
X80760000Y-138925148D01*
X80737567Y-138812368D01*
X83433823Y-141508625D01*
X83365000Y-141674778D01*
X83365000Y-142325222D01*
X83613914Y-142926153D01*
X84073847Y-143386086D01*
X84674778Y-143635000D01*
X85325222Y-143635000D01*
X85840000Y-143421772D01*
X85840000Y-144552560D01*
X84850000Y-144552560D01*
X84602235Y-144601843D01*
X84392191Y-144742191D01*
X84251843Y-144952235D01*
X84202560Y-145200000D01*
X84202560Y-146800000D01*
X84251843Y-147047765D01*
X84392191Y-147257809D01*
X84602235Y-147398157D01*
X84850000Y-147447440D01*
X88350000Y-147447440D01*
X88597765Y-147398157D01*
X88807809Y-147257809D01*
X88948157Y-147047765D01*
X88997440Y-146800000D01*
X88997440Y-146285750D01*
X89615000Y-146285750D01*
X89615000Y-146926310D01*
X89711673Y-147159699D01*
X89890302Y-147338327D01*
X90123691Y-147435000D01*
X91714250Y-147435000D01*
X91873000Y-147276250D01*
X91873000Y-146127000D01*
X89773750Y-146127000D01*
X89615000Y-146285750D01*
X88997440Y-146285750D01*
X88997440Y-145200000D01*
X88972316Y-145073690D01*
X89615000Y-145073690D01*
X89615000Y-145714250D01*
X89773750Y-145873000D01*
X91873000Y-145873000D01*
X91873000Y-144723750D01*
X91714250Y-144565000D01*
X90123691Y-144565000D01*
X89890302Y-144661673D01*
X89711673Y-144840301D01*
X89615000Y-145073690D01*
X88972316Y-145073690D01*
X88948157Y-144952235D01*
X88807809Y-144742191D01*
X88597765Y-144601843D01*
X88350000Y-144552560D01*
X87360000Y-144552560D01*
X87360000Y-140285750D01*
X89565000Y-140285750D01*
X89565000Y-141626309D01*
X89661673Y-141859698D01*
X89840301Y-142038327D01*
X90073690Y-142135000D01*
X90714250Y-142135000D01*
X90873000Y-141976250D01*
X90873000Y-140127000D01*
X91127000Y-140127000D01*
X91127000Y-141976250D01*
X91285750Y-142135000D01*
X91926310Y-142135000D01*
X92159699Y-142038327D01*
X92338327Y-141859698D01*
X92435000Y-141626309D01*
X92435000Y-140285750D01*
X92276250Y-140127000D01*
X91127000Y-140127000D01*
X90873000Y-140127000D01*
X89723750Y-140127000D01*
X89565000Y-140285750D01*
X87360000Y-140285750D01*
X87360000Y-139174848D01*
X87374888Y-139100000D01*
X87360000Y-139025152D01*
X87360000Y-139025148D01*
X87315904Y-138803463D01*
X87315904Y-138803462D01*
X87190329Y-138615527D01*
X87147929Y-138552071D01*
X87084473Y-138509671D01*
X86948493Y-138373691D01*
X89565000Y-138373691D01*
X89565000Y-139714250D01*
X89723750Y-139873000D01*
X90873000Y-139873000D01*
X90873000Y-138023750D01*
X91127000Y-138023750D01*
X91127000Y-139873000D01*
X92276250Y-139873000D01*
X92435000Y-139714250D01*
X92435000Y-138373691D01*
X92338327Y-138140302D01*
X92159699Y-137961673D01*
X91926310Y-137865000D01*
X91285750Y-137865000D01*
X91127000Y-138023750D01*
X90873000Y-138023750D01*
X90714250Y-137865000D01*
X90073690Y-137865000D01*
X89840301Y-137961673D01*
X89661673Y-138140302D01*
X89565000Y-138373691D01*
X86948493Y-138373691D01*
X86566177Y-137991375D01*
X86635000Y-137825222D01*
X86635000Y-137174778D01*
X86386086Y-136573847D01*
X85926153Y-136113914D01*
X85325222Y-135865000D01*
X84674778Y-135865000D01*
X84073847Y-136113914D01*
X83613914Y-136573847D01*
X83365000Y-137174778D01*
X83365000Y-137825222D01*
X83587722Y-138362920D01*
X80643665Y-135418864D01*
X80747765Y-135398157D01*
X80957809Y-135257809D01*
X80998654Y-135196680D01*
X81140302Y-135338327D01*
X81373691Y-135435000D01*
X82514250Y-135435000D01*
X82673000Y-135276250D01*
X82673000Y-134127000D01*
X82653000Y-134127000D01*
X82653000Y-133873000D01*
X82673000Y-133873000D01*
X82673000Y-132723750D01*
X82514250Y-132565000D01*
X82209802Y-132565000D01*
X82739804Y-132034999D01*
X83999196Y-132034999D01*
X84929196Y-132965000D01*
X84794126Y-132965000D01*
X84705231Y-133001821D01*
X84638327Y-132840301D01*
X84459698Y-132661673D01*
X84226309Y-132565000D01*
X83085750Y-132565000D01*
X82927000Y-132723750D01*
X82927000Y-133873000D01*
X82947000Y-133873000D01*
X82947000Y-134127000D01*
X82927000Y-134127000D01*
X82927000Y-135276250D01*
X83085750Y-135435000D01*
X84226309Y-135435000D01*
X84459698Y-135338327D01*
X84638327Y-135159699D01*
X84705231Y-134998179D01*
X84794126Y-135035000D01*
X84960199Y-135035000D01*
X86009671Y-136084473D01*
X86052071Y-136147929D01*
X86115527Y-136190329D01*
X86303462Y-136315904D01*
X86351605Y-136325480D01*
X86525148Y-136360000D01*
X86525152Y-136360000D01*
X86600000Y-136374888D01*
X86674848Y-136360000D01*
X89552560Y-136360000D01*
X89552560Y-137100000D01*
X89601843Y-137347765D01*
X89742191Y-137557809D01*
X89952235Y-137698157D01*
X90200000Y-137747440D01*
X91800000Y-137747440D01*
X92047765Y-137698157D01*
X92257809Y-137557809D01*
X92398157Y-137347765D01*
X92447440Y-137100000D01*
X92447440Y-134100000D01*
X92398157Y-133852235D01*
X92257809Y-133642191D01*
X92085622Y-133527139D01*
X92426153Y-133386086D01*
X92886086Y-132926153D01*
X93135000Y-132325222D01*
X93135000Y-131674778D01*
X92886086Y-131073847D01*
X92426153Y-130613914D01*
X91825222Y-130365000D01*
X91174778Y-130365000D01*
X90573847Y-130613914D01*
X90113914Y-131073847D01*
X90049999Y-131228151D01*
X90049999Y-126271849D01*
X90113914Y-126426153D01*
X90573847Y-126886086D01*
X91174778Y-127135000D01*
X91825222Y-127135000D01*
X92426153Y-126886086D01*
X92886086Y-126426153D01*
X93135000Y-125825222D01*
X93135000Y-125174778D01*
X92886086Y-124573847D01*
X92426153Y-124113914D01*
X91825222Y-123865000D01*
X91494804Y-123865000D01*
X91859474Y-123500330D01*
X91922930Y-123457930D01*
X92055956Y-123258843D01*
X92250000Y-123297440D01*
X93750000Y-123297440D01*
X93997765Y-123248157D01*
X94207809Y-123107809D01*
X94290001Y-122984801D01*
X94290001Y-144844342D01*
G36*
X73865000Y-125174778D02*
X73865000Y-125825222D01*
X74113914Y-126426153D01*
X74573847Y-126886086D01*
X75174778Y-127135000D01*
X75825222Y-127135000D01*
X75991375Y-127066177D01*
X76409673Y-127484476D01*
X76452071Y-127547929D01*
X76515524Y-127590327D01*
X76515526Y-127590329D01*
X76607806Y-127651988D01*
X76703463Y-127715904D01*
X76925148Y-127760000D01*
X76925152Y-127760000D01*
X76999999Y-127774888D01*
X77074846Y-127760000D01*
X77252560Y-127760000D01*
X77252560Y-127800000D01*
X77301843Y-128047765D01*
X77442191Y-128257809D01*
X77652235Y-128398157D01*
X77900000Y-128447440D01*
X80500000Y-128447440D01*
X80747765Y-128398157D01*
X80957809Y-128257809D01*
X80998654Y-128196680D01*
X81140302Y-128338327D01*
X81373691Y-128435000D01*
X82514250Y-128435000D01*
X82673000Y-128276250D01*
X82673000Y-127127000D01*
X82927000Y-127127000D01*
X82927000Y-128276250D01*
X83085750Y-128435000D01*
X84226309Y-128435000D01*
X84459698Y-128338327D01*
X84638327Y-128159699D01*
X84735000Y-127926310D01*
X84735000Y-127285750D01*
X84576250Y-127127000D01*
X82927000Y-127127000D01*
X82673000Y-127127000D01*
X82653000Y-127127000D01*
X82653000Y-126873000D01*
X82673000Y-126873000D01*
X82673000Y-125723750D01*
X82927000Y-125723750D01*
X82927000Y-126873000D01*
X84576250Y-126873000D01*
X84735000Y-126714250D01*
X84735000Y-126073690D01*
X84638327Y-125840301D01*
X84459698Y-125661673D01*
X84226309Y-125565000D01*
X83085750Y-125565000D01*
X82927000Y-125723750D01*
X82673000Y-125723750D01*
X82514250Y-125565000D01*
X81373691Y-125565000D01*
X81140302Y-125661673D01*
X80998654Y-125803320D01*
X80957809Y-125742191D01*
X80747765Y-125601843D01*
X80500000Y-125552560D01*
X77900000Y-125552560D01*
X77652235Y-125601843D01*
X77442191Y-125742191D01*
X77301843Y-125952235D01*
X77256250Y-126181448D01*
X77066177Y-125991375D01*
X77135000Y-125825222D01*
X77135000Y-125174778D01*
X77035680Y-124934999D01*
X85360198Y-124934999D01*
X85433823Y-125008625D01*
X85365000Y-125174778D01*
X85365000Y-125825222D01*
X85613914Y-126426153D01*
X86073847Y-126886086D01*
X86674778Y-127135000D01*
X87325222Y-127135000D01*
X87491375Y-127066177D01*
X88065001Y-127639803D01*
X88065002Y-129860196D01*
X87515529Y-130409670D01*
X87515526Y-130409672D01*
X87491375Y-130433823D01*
X87325222Y-130365000D01*
X86674778Y-130365000D01*
X86073847Y-130613914D01*
X85613914Y-131073847D01*
X85489063Y-131375264D01*
X84904328Y-130790529D01*
X84861926Y-130727070D01*
X84610534Y-130559095D01*
X84388849Y-130514999D01*
X84388844Y-130514999D01*
X84313997Y-130500111D01*
X84239150Y-130514999D01*
X82499847Y-130514999D01*
X82425000Y-130500111D01*
X82350153Y-130514999D01*
X82350149Y-130514999D01*
X82128464Y-130559095D01*
X82128462Y-130559096D01*
X82128463Y-130559096D01*
X81940527Y-130684670D01*
X81940525Y-130684672D01*
X81877072Y-130727070D01*
X81834674Y-130790523D01*
X80072638Y-132552560D01*
X77900000Y-132552560D01*
X77652235Y-132601843D01*
X77442191Y-132742191D01*
X77301843Y-132952235D01*
X77252560Y-133200000D01*
X77252560Y-133622638D01*
X74515528Y-136359671D01*
X74452072Y-136402071D01*
X74409672Y-136465527D01*
X74409671Y-136465528D01*
X74351518Y-136552560D01*
X73500000Y-136552560D01*
X73252235Y-136601843D01*
X73042191Y-136742191D01*
X72901843Y-136952235D01*
X72852560Y-137200000D01*
X72852560Y-138800000D01*
X72901843Y-139047765D01*
X73042191Y-139257809D01*
X73252235Y-139398157D01*
X73500000Y-139447440D01*
X76415000Y-139447440D01*
X76415000Y-140600147D01*
X76400111Y-140674999D01*
X76415000Y-140749851D01*
X76459096Y-140971536D01*
X76627071Y-141222928D01*
X76652621Y-141240000D01*
X70214659Y-141240000D01*
X70139811Y-141225112D01*
X70064963Y-141240000D01*
X70064959Y-141240000D01*
X69891416Y-141274520D01*
X69843273Y-141284096D01*
X69723691Y-141363999D01*
X69591882Y-141452071D01*
X69549483Y-141515526D01*
X65861597Y-145203413D01*
X65861597Y-144840652D01*
X65812314Y-144592887D01*
X65671966Y-144382843D01*
X65461922Y-144242495D01*
X65232824Y-144196925D01*
X65112086Y-144016228D01*
X65048630Y-143973828D01*
X63566177Y-142491375D01*
X63635000Y-142325222D01*
X63635000Y-141674778D01*
X64865000Y-141674778D01*
X64865000Y-142325222D01*
X65113914Y-142926153D01*
X65573847Y-143386086D01*
X66174778Y-143635000D01*
X66825222Y-143635000D01*
X67426153Y-143386086D01*
X67886086Y-142926153D01*
X68135000Y-142325222D01*
X68135000Y-141674778D01*
X67886086Y-141073847D01*
X67426153Y-140613914D01*
X66825222Y-140365000D01*
X66174778Y-140365000D01*
X65573847Y-140613914D01*
X65113914Y-141073847D01*
X64865000Y-141674778D01*
X63635000Y-141674778D01*
X63386086Y-141073847D01*
X62926153Y-140613914D01*
X62624736Y-140489063D01*
X64828049Y-138285750D01*
X68465000Y-138285750D01*
X68465000Y-138926310D01*
X68561673Y-139159699D01*
X68740302Y-139338327D01*
X68973691Y-139435000D01*
X70314250Y-139435000D01*
X70473000Y-139276250D01*
X70473000Y-138127000D01*
X70727000Y-138127000D01*
X70727000Y-139276250D01*
X70885750Y-139435000D01*
X72226309Y-139435000D01*
X72459698Y-139338327D01*
X72638327Y-139159699D01*
X72735000Y-138926310D01*
X72735000Y-138285750D01*
X72576250Y-138127000D01*
X70727000Y-138127000D01*
X70473000Y-138127000D01*
X68623750Y-138127000D01*
X68465000Y-138285750D01*
X64828049Y-138285750D01*
X65528799Y-137585001D01*
X67514365Y-137585001D01*
X67589212Y-137599889D01*
X67664059Y-137585001D01*
X67664064Y-137585001D01*
X67885749Y-137540905D01*
X68137141Y-137372930D01*
X68179543Y-137309471D01*
X68500126Y-136988888D01*
X68465000Y-137073690D01*
X68465000Y-137714250D01*
X68623750Y-137873000D01*
X70473000Y-137873000D01*
X70473000Y-136723750D01*
X70727000Y-136723750D01*
X70727000Y-137873000D01*
X72576250Y-137873000D01*
X72735000Y-137714250D01*
X72735000Y-137073690D01*
X72638327Y-136840301D01*
X72459698Y-136661673D01*
X72226309Y-136565000D01*
X70885750Y-136565000D01*
X70727000Y-136723750D01*
X70473000Y-136723750D01*
X70314250Y-136565000D01*
X68973691Y-136565000D01*
X68888887Y-136600127D01*
X71484473Y-134004542D01*
X71547929Y-133962142D01*
X71660194Y-133794126D01*
X71715904Y-133710751D01*
X71737672Y-133601314D01*
X71760000Y-133489065D01*
X71760000Y-133489061D01*
X71767403Y-133451842D01*
X71926153Y-133386086D01*
X72386086Y-132926153D01*
X72635000Y-132325222D01*
X72635000Y-131674778D01*
X73865000Y-131674778D01*
X73865000Y-132325222D01*
X74113914Y-132926153D01*
X74573847Y-133386086D01*
X75174778Y-133635000D01*
X75825222Y-133635000D01*
X76426153Y-133386086D01*
X76886086Y-132926153D01*
X77135000Y-132325222D01*
X77135000Y-131674778D01*
X76886086Y-131073847D01*
X76426153Y-130613914D01*
X75825222Y-130365000D01*
X75174778Y-130365000D01*
X74573847Y-130613914D01*
X74113914Y-131073847D01*
X73865000Y-131674778D01*
X72635000Y-131674778D01*
X72386086Y-131073847D01*
X71926153Y-130613914D01*
X71760000Y-130545091D01*
X71760000Y-127147850D01*
X71774888Y-127073002D01*
X71760000Y-126998154D01*
X71760000Y-126954909D01*
X71926153Y-126886086D01*
X72386086Y-126426153D01*
X72635000Y-125825222D01*
X72635000Y-125174778D01*
X72535680Y-124934999D01*
X73964320Y-124934999D01*
X73865000Y-125174778D01*
X73865000Y-125174778D01*
G37*
X73865000Y-125174778D02*
X73865000Y-125825222D01*
X74113914Y-126426153D01*
X74573847Y-126886086D01*
X75174778Y-127135000D01*
X75825222Y-127135000D01*
X75991375Y-127066177D01*
X76409673Y-127484476D01*
X76452071Y-127547929D01*
X76515524Y-127590327D01*
X76515526Y-127590329D01*
X76607806Y-127651988D01*
X76703463Y-127715904D01*
X76925148Y-127760000D01*
X76925152Y-127760000D01*
X76999999Y-127774888D01*
X77074846Y-127760000D01*
X77252560Y-127760000D01*
X77252560Y-127800000D01*
X77301843Y-128047765D01*
X77442191Y-128257809D01*
X77652235Y-128398157D01*
X77900000Y-128447440D01*
X80500000Y-128447440D01*
X80747765Y-128398157D01*
X80957809Y-128257809D01*
X80998654Y-128196680D01*
X81140302Y-128338327D01*
X81373691Y-128435000D01*
X82514250Y-128435000D01*
X82673000Y-128276250D01*
X82673000Y-127127000D01*
X82927000Y-127127000D01*
X82927000Y-128276250D01*
X83085750Y-128435000D01*
X84226309Y-128435000D01*
X84459698Y-128338327D01*
X84638327Y-128159699D01*
X84735000Y-127926310D01*
X84735000Y-127285750D01*
X84576250Y-127127000D01*
X82927000Y-127127000D01*
X82673000Y-127127000D01*
X82653000Y-127127000D01*
X82653000Y-126873000D01*
X82673000Y-126873000D01*
X82673000Y-125723750D01*
X82927000Y-125723750D01*
X82927000Y-126873000D01*
X84576250Y-126873000D01*
X84735000Y-126714250D01*
X84735000Y-126073690D01*
X84638327Y-125840301D01*
X84459698Y-125661673D01*
X84226309Y-125565000D01*
X83085750Y-125565000D01*
X82927000Y-125723750D01*
X82673000Y-125723750D01*
X82514250Y-125565000D01*
X81373691Y-125565000D01*
X81140302Y-125661673D01*
X80998654Y-125803320D01*
X80957809Y-125742191D01*
X80747765Y-125601843D01*
X80500000Y-125552560D01*
X77900000Y-125552560D01*
X77652235Y-125601843D01*
X77442191Y-125742191D01*
X77301843Y-125952235D01*
X77256250Y-126181448D01*
X77066177Y-125991375D01*
X77135000Y-125825222D01*
X77135000Y-125174778D01*
X77035680Y-124934999D01*
X85360198Y-124934999D01*
X85433823Y-125008625D01*
X85365000Y-125174778D01*
X85365000Y-125825222D01*
X85613914Y-126426153D01*
X86073847Y-126886086D01*
X86674778Y-127135000D01*
X87325222Y-127135000D01*
X87491375Y-127066177D01*
X88065001Y-127639803D01*
X88065002Y-129860196D01*
X87515529Y-130409670D01*
X87515526Y-130409672D01*
X87491375Y-130433823D01*
X87325222Y-130365000D01*
X86674778Y-130365000D01*
X86073847Y-130613914D01*
X85613914Y-131073847D01*
X85489063Y-131375264D01*
X84904328Y-130790529D01*
X84861926Y-130727070D01*
X84610534Y-130559095D01*
X84388849Y-130514999D01*
X84388844Y-130514999D01*
X84313997Y-130500111D01*
X84239150Y-130514999D01*
X82499847Y-130514999D01*
X82425000Y-130500111D01*
X82350153Y-130514999D01*
X82350149Y-130514999D01*
X82128464Y-130559095D01*
X82128462Y-130559096D01*
X82128463Y-130559096D01*
X81940527Y-130684670D01*
X81940525Y-130684672D01*
X81877072Y-130727070D01*
X81834674Y-130790523D01*
X80072638Y-132552560D01*
X77900000Y-132552560D01*
X77652235Y-132601843D01*
X77442191Y-132742191D01*
X77301843Y-132952235D01*
X77252560Y-133200000D01*
X77252560Y-133622638D01*
X74515528Y-136359671D01*
X74452072Y-136402071D01*
X74409672Y-136465527D01*
X74409671Y-136465528D01*
X74351518Y-136552560D01*
X73500000Y-136552560D01*
X73252235Y-136601843D01*
X73042191Y-136742191D01*
X72901843Y-136952235D01*
X72852560Y-137200000D01*
X72852560Y-138800000D01*
X72901843Y-139047765D01*
X73042191Y-139257809D01*
X73252235Y-139398157D01*
X73500000Y-139447440D01*
X76415000Y-139447440D01*
X76415000Y-140600147D01*
X76400111Y-140674999D01*
X76415000Y-140749851D01*
X76459096Y-140971536D01*
X76627071Y-141222928D01*
X76652621Y-141240000D01*
X70214659Y-141240000D01*
X70139811Y-141225112D01*
X70064963Y-141240000D01*
X70064959Y-141240000D01*
X69891416Y-141274520D01*
X69843273Y-141284096D01*
X69723691Y-141363999D01*
X69591882Y-141452071D01*
X69549483Y-141515526D01*
X65861597Y-145203413D01*
X65861597Y-144840652D01*
X65812314Y-144592887D01*
X65671966Y-144382843D01*
X65461922Y-144242495D01*
X65232824Y-144196925D01*
X65112086Y-144016228D01*
X65048630Y-143973828D01*
X63566177Y-142491375D01*
X63635000Y-142325222D01*
X63635000Y-141674778D01*
X64865000Y-141674778D01*
X64865000Y-142325222D01*
X65113914Y-142926153D01*
X65573847Y-143386086D01*
X66174778Y-143635000D01*
X66825222Y-143635000D01*
X67426153Y-143386086D01*
X67886086Y-142926153D01*
X68135000Y-142325222D01*
X68135000Y-141674778D01*
X67886086Y-141073847D01*
X67426153Y-140613914D01*
X66825222Y-140365000D01*
X66174778Y-140365000D01*
X65573847Y-140613914D01*
X65113914Y-141073847D01*
X64865000Y-141674778D01*
X63635000Y-141674778D01*
X63386086Y-141073847D01*
X62926153Y-140613914D01*
X62624736Y-140489063D01*
X64828049Y-138285750D01*
X68465000Y-138285750D01*
X68465000Y-138926310D01*
X68561673Y-139159699D01*
X68740302Y-139338327D01*
X68973691Y-139435000D01*
X70314250Y-139435000D01*
X70473000Y-139276250D01*
X70473000Y-138127000D01*
X70727000Y-138127000D01*
X70727000Y-139276250D01*
X70885750Y-139435000D01*
X72226309Y-139435000D01*
X72459698Y-139338327D01*
X72638327Y-139159699D01*
X72735000Y-138926310D01*
X72735000Y-138285750D01*
X72576250Y-138127000D01*
X70727000Y-138127000D01*
X70473000Y-138127000D01*
X68623750Y-138127000D01*
X68465000Y-138285750D01*
X64828049Y-138285750D01*
X65528799Y-137585001D01*
X67514365Y-137585001D01*
X67589212Y-137599889D01*
X67664059Y-137585001D01*
X67664064Y-137585001D01*
X67885749Y-137540905D01*
X68137141Y-137372930D01*
X68179543Y-137309471D01*
X68500126Y-136988888D01*
X68465000Y-137073690D01*
X68465000Y-137714250D01*
X68623750Y-137873000D01*
X70473000Y-137873000D01*
X70473000Y-136723750D01*
X70727000Y-136723750D01*
X70727000Y-137873000D01*
X72576250Y-137873000D01*
X72735000Y-137714250D01*
X72735000Y-137073690D01*
X72638327Y-136840301D01*
X72459698Y-136661673D01*
X72226309Y-136565000D01*
X70885750Y-136565000D01*
X70727000Y-136723750D01*
X70473000Y-136723750D01*
X70314250Y-136565000D01*
X68973691Y-136565000D01*
X68888887Y-136600127D01*
X71484473Y-134004542D01*
X71547929Y-133962142D01*
X71660194Y-133794126D01*
X71715904Y-133710751D01*
X71737672Y-133601314D01*
X71760000Y-133489065D01*
X71760000Y-133489061D01*
X71767403Y-133451842D01*
X71926153Y-133386086D01*
X72386086Y-132926153D01*
X72635000Y-132325222D01*
X72635000Y-131674778D01*
X73865000Y-131674778D01*
X73865000Y-132325222D01*
X74113914Y-132926153D01*
X74573847Y-133386086D01*
X75174778Y-133635000D01*
X75825222Y-133635000D01*
X76426153Y-133386086D01*
X76886086Y-132926153D01*
X77135000Y-132325222D01*
X77135000Y-131674778D01*
X76886086Y-131073847D01*
X76426153Y-130613914D01*
X75825222Y-130365000D01*
X75174778Y-130365000D01*
X74573847Y-130613914D01*
X74113914Y-131073847D01*
X73865000Y-131674778D01*
X72635000Y-131674778D01*
X72386086Y-131073847D01*
X71926153Y-130613914D01*
X71760000Y-130545091D01*
X71760000Y-127147850D01*
X71774888Y-127073002D01*
X71760000Y-126998154D01*
X71760000Y-126954909D01*
X71926153Y-126886086D01*
X72386086Y-126426153D01*
X72635000Y-125825222D01*
X72635000Y-125174778D01*
X72535680Y-124934999D01*
X73964320Y-124934999D01*
X73865000Y-125174778D01*
G36*
X94290001Y-109591975D02*
X94159699Y-109461673D01*
X93926310Y-109365000D01*
X93285750Y-109365000D01*
X93127000Y-109523750D01*
X93127000Y-110873000D01*
X93147000Y-110873000D01*
X93147000Y-111127000D01*
X93127000Y-111127000D01*
X93127000Y-112476250D01*
X93285750Y-112635000D01*
X93926310Y-112635000D01*
X94159699Y-112538327D01*
X94290001Y-112408025D01*
X94290001Y-118999846D01*
X94205874Y-118965000D01*
X93794126Y-118965000D01*
X93413720Y-119122569D01*
X93122569Y-119413720D01*
X93000000Y-119709628D01*
X92877431Y-119413720D01*
X92586280Y-119122569D01*
X92205874Y-118965000D01*
X91794126Y-118965000D01*
X91413720Y-119122569D01*
X91122569Y-119413720D01*
X90965000Y-119794126D01*
X90965000Y-119960199D01*
X90890529Y-120034670D01*
X90827073Y-120077070D01*
X90784673Y-120140526D01*
X90784672Y-120140527D01*
X90659098Y-120328462D01*
X90600113Y-120624999D01*
X90615002Y-120699851D01*
X90615002Y-120702560D01*
X89977361Y-120702560D01*
X89890331Y-120615530D01*
X89847929Y-120552071D01*
X89596537Y-120384096D01*
X89374852Y-120340000D01*
X89374847Y-120340000D01*
X89300000Y-120325112D01*
X89225153Y-120340000D01*
X88979800Y-120340000D01*
X88647879Y-120008080D01*
X88697765Y-119998157D01*
X88907809Y-119857809D01*
X89048157Y-119647765D01*
X89097440Y-119400000D01*
X89097440Y-118600000D01*
X89052207Y-118372594D01*
X92359472Y-115065330D01*
X92422928Y-115022930D01*
X92590903Y-114771538D01*
X92634999Y-114549853D01*
X92634999Y-114549849D01*
X92649887Y-114475002D01*
X92634999Y-114400155D01*
X92634999Y-112635000D01*
X92714250Y-112635000D01*
X92873000Y-112476250D01*
X92873000Y-111127000D01*
X92853000Y-111127000D01*
X92853000Y-110873000D01*
X92873000Y-110873000D01*
X92873000Y-109523750D01*
X92837026Y-109487776D01*
X93484473Y-108840329D01*
X93547929Y-108797929D01*
X93611049Y-108703463D01*
X93648483Y-108647440D01*
X93800000Y-108647440D01*
X94047765Y-108598157D01*
X94257809Y-108457809D01*
X94290001Y-108409631D01*
X94290001Y-109591975D01*
X94290001Y-109591975D01*
G37*
X94290001Y-109591975D02*
X94159699Y-109461673D01*
X93926310Y-109365000D01*
X93285750Y-109365000D01*
X93127000Y-109523750D01*
X93127000Y-110873000D01*
X93147000Y-110873000D01*
X93147000Y-111127000D01*
X93127000Y-111127000D01*
X93127000Y-112476250D01*
X93285750Y-112635000D01*
X93926310Y-112635000D01*
X94159699Y-112538327D01*
X94290001Y-112408025D01*
X94290001Y-118999846D01*
X94205874Y-118965000D01*
X93794126Y-118965000D01*
X93413720Y-119122569D01*
X93122569Y-119413720D01*
X93000000Y-119709628D01*
X92877431Y-119413720D01*
X92586280Y-119122569D01*
X92205874Y-118965000D01*
X91794126Y-118965000D01*
X91413720Y-119122569D01*
X91122569Y-119413720D01*
X90965000Y-119794126D01*
X90965000Y-119960199D01*
X90890529Y-120034670D01*
X90827073Y-120077070D01*
X90784673Y-120140526D01*
X90784672Y-120140527D01*
X90659098Y-120328462D01*
X90600113Y-120624999D01*
X90615002Y-120699851D01*
X90615002Y-120702560D01*
X89977361Y-120702560D01*
X89890331Y-120615530D01*
X89847929Y-120552071D01*
X89596537Y-120384096D01*
X89374852Y-120340000D01*
X89374847Y-120340000D01*
X89300000Y-120325112D01*
X89225153Y-120340000D01*
X88979800Y-120340000D01*
X88647879Y-120008080D01*
X88697765Y-119998157D01*
X88907809Y-119857809D01*
X89048157Y-119647765D01*
X89097440Y-119400000D01*
X89097440Y-118600000D01*
X89052207Y-118372594D01*
X92359472Y-115065330D01*
X92422928Y-115022930D01*
X92590903Y-114771538D01*
X92634999Y-114549853D01*
X92634999Y-114549849D01*
X92649887Y-114475002D01*
X92634999Y-114400155D01*
X92634999Y-112635000D01*
X92714250Y-112635000D01*
X92873000Y-112476250D01*
X92873000Y-111127000D01*
X92853000Y-111127000D01*
X92853000Y-110873000D01*
X92873000Y-110873000D01*
X92873000Y-109523750D01*
X92837026Y-109487776D01*
X93484473Y-108840329D01*
X93547929Y-108797929D01*
X93611049Y-108703463D01*
X93648483Y-108647440D01*
X93800000Y-108647440D01*
X94047765Y-108598157D01*
X94257809Y-108457809D01*
X94290001Y-108409631D01*
X94290001Y-109591975D01*
G36*
X71975000Y-111714250D02*
X72133750Y-111873000D01*
X73333000Y-111873000D01*
X73333000Y-111853000D01*
X73587000Y-111853000D01*
X73587000Y-111873000D01*
X73607000Y-111873000D01*
X73607000Y-112127000D01*
X73587000Y-112127000D01*
X73587000Y-113326250D01*
X73745750Y-113485000D01*
X74065000Y-113485000D01*
X74065000Y-113750147D01*
X74050111Y-113824999D01*
X74109096Y-114121536D01*
X74229726Y-114302071D01*
X74277071Y-114372928D01*
X74340527Y-114415328D01*
X77965000Y-118039802D01*
X77965000Y-118205874D01*
X78122569Y-118586280D01*
X78413720Y-118877431D01*
X78794126Y-119035000D01*
X78996768Y-119035000D01*
X78951843Y-119102235D01*
X78902560Y-119350000D01*
X78902560Y-120215001D01*
X74019803Y-120215001D01*
X73464802Y-119660000D01*
X74006309Y-119660000D01*
X74239698Y-119563327D01*
X74418327Y-119384699D01*
X74515000Y-119151310D01*
X74515000Y-118985750D01*
X74356250Y-118827000D01*
X73227000Y-118827000D01*
X73227000Y-118847000D01*
X72973000Y-118847000D01*
X72973000Y-118827000D01*
X72953000Y-118827000D01*
X72953000Y-118573000D01*
X72973000Y-118573000D01*
X72973000Y-118553000D01*
X73227000Y-118553000D01*
X73227000Y-118573000D01*
X74356250Y-118573000D01*
X74515000Y-118414250D01*
X74515000Y-118248690D01*
X74418327Y-118015301D01*
X74239698Y-117836673D01*
X74018241Y-117744942D01*
X74127765Y-117723157D01*
X74337809Y-117582809D01*
X74478157Y-117372765D01*
X74527440Y-117125000D01*
X74527440Y-116475000D01*
X74478157Y-116227235D01*
X74337809Y-116017191D01*
X74127765Y-115876843D01*
X73880000Y-115827560D01*
X73860000Y-115827560D01*
X73860000Y-115353711D01*
X73877431Y-115336280D01*
X74035000Y-114955874D01*
X74035000Y-114544126D01*
X73877431Y-114163720D01*
X73586280Y-113872569D01*
X73205874Y-113715000D01*
X72794126Y-113715000D01*
X72413720Y-113872569D01*
X72122569Y-114163720D01*
X71965000Y-114544126D01*
X71965000Y-114955874D01*
X72122569Y-115336280D01*
X72340001Y-115553712D01*
X72340000Y-115827560D01*
X72320000Y-115827560D01*
X72072235Y-115876843D01*
X71862191Y-116017191D01*
X71750000Y-116185095D01*
X71637809Y-116017191D01*
X71427765Y-115876843D01*
X71180000Y-115827560D01*
X71160000Y-115827560D01*
X71160000Y-112285750D01*
X71975000Y-112285750D01*
X71975000Y-112976309D01*
X72071673Y-113209698D01*
X72250301Y-113388327D01*
X72483690Y-113485000D01*
X73174250Y-113485000D01*
X73333000Y-113326250D01*
X73333000Y-112127000D01*
X72133750Y-112127000D01*
X71975000Y-112285750D01*
X71160000Y-112285750D01*
X71160000Y-111584999D01*
X71975000Y-111584999D01*
X71975000Y-111714250D01*
X71975000Y-111714250D01*
G37*
X71975000Y-111714250D02*
X72133750Y-111873000D01*
X73333000Y-111873000D01*
X73333000Y-111853000D01*
X73587000Y-111853000D01*
X73587000Y-111873000D01*
X73607000Y-111873000D01*
X73607000Y-112127000D01*
X73587000Y-112127000D01*
X73587000Y-113326250D01*
X73745750Y-113485000D01*
X74065000Y-113485000D01*
X74065000Y-113750147D01*
X74050111Y-113824999D01*
X74109096Y-114121536D01*
X74229726Y-114302071D01*
X74277071Y-114372928D01*
X74340527Y-114415328D01*
X77965000Y-118039802D01*
X77965000Y-118205874D01*
X78122569Y-118586280D01*
X78413720Y-118877431D01*
X78794126Y-119035000D01*
X78996768Y-119035000D01*
X78951843Y-119102235D01*
X78902560Y-119350000D01*
X78902560Y-120215001D01*
X74019803Y-120215001D01*
X73464802Y-119660000D01*
X74006309Y-119660000D01*
X74239698Y-119563327D01*
X74418327Y-119384699D01*
X74515000Y-119151310D01*
X74515000Y-118985750D01*
X74356250Y-118827000D01*
X73227000Y-118827000D01*
X73227000Y-118847000D01*
X72973000Y-118847000D01*
X72973000Y-118827000D01*
X72953000Y-118827000D01*
X72953000Y-118573000D01*
X72973000Y-118573000D01*
X72973000Y-118553000D01*
X73227000Y-118553000D01*
X73227000Y-118573000D01*
X74356250Y-118573000D01*
X74515000Y-118414250D01*
X74515000Y-118248690D01*
X74418327Y-118015301D01*
X74239698Y-117836673D01*
X74018241Y-117744942D01*
X74127765Y-117723157D01*
X74337809Y-117582809D01*
X74478157Y-117372765D01*
X74527440Y-117125000D01*
X74527440Y-116475000D01*
X74478157Y-116227235D01*
X74337809Y-116017191D01*
X74127765Y-115876843D01*
X73880000Y-115827560D01*
X73860000Y-115827560D01*
X73860000Y-115353711D01*
X73877431Y-115336280D01*
X74035000Y-114955874D01*
X74035000Y-114544126D01*
X73877431Y-114163720D01*
X73586280Y-113872569D01*
X73205874Y-113715000D01*
X72794126Y-113715000D01*
X72413720Y-113872569D01*
X72122569Y-114163720D01*
X71965000Y-114544126D01*
X71965000Y-114955874D01*
X72122569Y-115336280D01*
X72340001Y-115553712D01*
X72340000Y-115827560D01*
X72320000Y-115827560D01*
X72072235Y-115876843D01*
X71862191Y-116017191D01*
X71750000Y-116185095D01*
X71637809Y-116017191D01*
X71427765Y-115876843D01*
X71180000Y-115827560D01*
X71160000Y-115827560D01*
X71160000Y-112285750D01*
X71975000Y-112285750D01*
X71975000Y-112976309D01*
X72071673Y-113209698D01*
X72250301Y-113388327D01*
X72483690Y-113485000D01*
X73174250Y-113485000D01*
X73333000Y-113326250D01*
X73333000Y-112127000D01*
X72133750Y-112127000D01*
X71975000Y-112285750D01*
X71160000Y-112285750D01*
X71160000Y-111584999D01*
X71975000Y-111584999D01*
X71975000Y-111714250D01*
G36*
X72972998Y-117898748D02*
X72846690Y-117772440D01*
X72972998Y-117772440D01*
X72972998Y-117898748D01*
X72972998Y-117898748D01*
G37*
X72972998Y-117898748D02*
X72846690Y-117772440D01*
X72972998Y-117772440D01*
X72972998Y-117898748D01*
G36*
X79540000Y-103614802D02*
X79540000Y-103749846D01*
X79455874Y-103715000D01*
X79044126Y-103715000D01*
X78663720Y-103872569D01*
X78372569Y-104163720D01*
X78215000Y-104544126D01*
X78215000Y-104955874D01*
X78216267Y-104958932D01*
X77210199Y-105965000D01*
X77044126Y-105965000D01*
X76663720Y-106122569D01*
X76372569Y-106413720D01*
X76215000Y-106794126D01*
X76215000Y-107205874D01*
X76372569Y-107586280D01*
X76663720Y-107877431D01*
X77044126Y-108035000D01*
X77455874Y-108035000D01*
X77836280Y-107877431D01*
X78127431Y-107586280D01*
X78285000Y-107205874D01*
X78285000Y-107039801D01*
X79540000Y-105784802D01*
X79540000Y-110882185D01*
X79119418Y-110601161D01*
X78686256Y-110515000D01*
X78393744Y-110515000D01*
X77960582Y-110601161D01*
X77469375Y-110929375D01*
X77270000Y-111227761D01*
X77070625Y-110929375D01*
X76579418Y-110601161D01*
X76146256Y-110515000D01*
X75853744Y-110515000D01*
X75420582Y-110601161D01*
X75419554Y-110601848D01*
X75372928Y-110532068D01*
X75309469Y-110489666D01*
X75160332Y-110340529D01*
X75117930Y-110277070D01*
X74866538Y-110109095D01*
X74644853Y-110064999D01*
X74644848Y-110064999D01*
X74570001Y-110050111D01*
X74495154Y-110064999D01*
X70804799Y-110064999D01*
X70601755Y-109861956D01*
X70877431Y-109586280D01*
X71035000Y-109205874D01*
X71035000Y-108794126D01*
X70877431Y-108413720D01*
X70764738Y-108301027D01*
X70767926Y-108285000D01*
X71064250Y-108285000D01*
X71223000Y-108126250D01*
X71223000Y-107127000D01*
X71477000Y-107127000D01*
X71477000Y-108126250D01*
X71635750Y-108285000D01*
X72226309Y-108285000D01*
X72459698Y-108188327D01*
X72638327Y-108009699D01*
X72735000Y-107776310D01*
X72735000Y-107285750D01*
X72576250Y-107127000D01*
X71477000Y-107127000D01*
X71223000Y-107127000D01*
X71203000Y-107127000D01*
X71203000Y-106873000D01*
X71223000Y-106873000D01*
X71223000Y-106853000D01*
X71477000Y-106853000D01*
X71477000Y-106873000D01*
X72576250Y-106873000D01*
X72735000Y-106714250D01*
X72735000Y-106223690D01*
X72638327Y-105990301D01*
X72459698Y-105811673D01*
X72226309Y-105715000D01*
X71635750Y-105715000D01*
X71477002Y-105873748D01*
X71477002Y-105715000D01*
X71359802Y-105715000D01*
X72039802Y-105035000D01*
X72205874Y-105035000D01*
X72586280Y-104877431D01*
X72877431Y-104586280D01*
X73002225Y-104285000D01*
X73205874Y-104285000D01*
X73586280Y-104127431D01*
X73877431Y-103836280D01*
X74035000Y-103455874D01*
X74035000Y-103047653D01*
X74218527Y-103047653D01*
X74598933Y-102890084D01*
X74890084Y-102598933D01*
X75047653Y-102218527D01*
X75047653Y-101806779D01*
X74983101Y-101650938D01*
X75012631Y-101645064D01*
X75048690Y-101660000D01*
X75103750Y-101660000D01*
X75176494Y-101587256D01*
X75332809Y-101482809D01*
X75437500Y-101326129D01*
X75437500Y-101501250D01*
X75596250Y-101660000D01*
X75651310Y-101660000D01*
X75884699Y-101563327D01*
X76063327Y-101384698D01*
X76160000Y-101151309D01*
X76160000Y-100910750D01*
X76001250Y-100752000D01*
X75522440Y-100752000D01*
X75522440Y-100510000D01*
X75751309Y-100510000D01*
X75780280Y-100498000D01*
X76001250Y-100498000D01*
X76076810Y-100422440D01*
X76347639Y-100422440D01*
X79540000Y-103614802D01*
X79540000Y-103614802D01*
G37*
X79540000Y-103614802D02*
X79540000Y-103749846D01*
X79455874Y-103715000D01*
X79044126Y-103715000D01*
X78663720Y-103872569D01*
X78372569Y-104163720D01*
X78215000Y-104544126D01*
X78215000Y-104955874D01*
X78216267Y-104958932D01*
X77210199Y-105965000D01*
X77044126Y-105965000D01*
X76663720Y-106122569D01*
X76372569Y-106413720D01*
X76215000Y-106794126D01*
X76215000Y-107205874D01*
X76372569Y-107586280D01*
X76663720Y-107877431D01*
X77044126Y-108035000D01*
X77455874Y-108035000D01*
X77836280Y-107877431D01*
X78127431Y-107586280D01*
X78285000Y-107205874D01*
X78285000Y-107039801D01*
X79540000Y-105784802D01*
X79540000Y-110882185D01*
X79119418Y-110601161D01*
X78686256Y-110515000D01*
X78393744Y-110515000D01*
X77960582Y-110601161D01*
X77469375Y-110929375D01*
X77270000Y-111227761D01*
X77070625Y-110929375D01*
X76579418Y-110601161D01*
X76146256Y-110515000D01*
X75853744Y-110515000D01*
X75420582Y-110601161D01*
X75419554Y-110601848D01*
X75372928Y-110532068D01*
X75309469Y-110489666D01*
X75160332Y-110340529D01*
X75117930Y-110277070D01*
X74866538Y-110109095D01*
X74644853Y-110064999D01*
X74644848Y-110064999D01*
X74570001Y-110050111D01*
X74495154Y-110064999D01*
X70804799Y-110064999D01*
X70601755Y-109861956D01*
X70877431Y-109586280D01*
X71035000Y-109205874D01*
X71035000Y-108794126D01*
X70877431Y-108413720D01*
X70764738Y-108301027D01*
X70767926Y-108285000D01*
X71064250Y-108285000D01*
X71223000Y-108126250D01*
X71223000Y-107127000D01*
X71477000Y-107127000D01*
X71477000Y-108126250D01*
X71635750Y-108285000D01*
X72226309Y-108285000D01*
X72459698Y-108188327D01*
X72638327Y-108009699D01*
X72735000Y-107776310D01*
X72735000Y-107285750D01*
X72576250Y-107127000D01*
X71477000Y-107127000D01*
X71223000Y-107127000D01*
X71203000Y-107127000D01*
X71203000Y-106873000D01*
X71223000Y-106873000D01*
X71223000Y-106853000D01*
X71477000Y-106853000D01*
X71477000Y-106873000D01*
X72576250Y-106873000D01*
X72735000Y-106714250D01*
X72735000Y-106223690D01*
X72638327Y-105990301D01*
X72459698Y-105811673D01*
X72226309Y-105715000D01*
X71635750Y-105715000D01*
X71477002Y-105873748D01*
X71477002Y-105715000D01*
X71359802Y-105715000D01*
X72039802Y-105035000D01*
X72205874Y-105035000D01*
X72586280Y-104877431D01*
X72877431Y-104586280D01*
X73002225Y-104285000D01*
X73205874Y-104285000D01*
X73586280Y-104127431D01*
X73877431Y-103836280D01*
X74035000Y-103455874D01*
X74035000Y-103047653D01*
X74218527Y-103047653D01*
X74598933Y-102890084D01*
X74890084Y-102598933D01*
X75047653Y-102218527D01*
X75047653Y-101806779D01*
X74983101Y-101650938D01*
X75012631Y-101645064D01*
X75048690Y-101660000D01*
X75103750Y-101660000D01*
X75176494Y-101587256D01*
X75332809Y-101482809D01*
X75437500Y-101326129D01*
X75437500Y-101501250D01*
X75596250Y-101660000D01*
X75651310Y-101660000D01*
X75884699Y-101563327D01*
X76063327Y-101384698D01*
X76160000Y-101151309D01*
X76160000Y-100910750D01*
X76001250Y-100752000D01*
X75522440Y-100752000D01*
X75522440Y-100510000D01*
X75751309Y-100510000D01*
X75780280Y-100498000D01*
X76001250Y-100498000D01*
X76076810Y-100422440D01*
X76347639Y-100422440D01*
X79540000Y-103614802D01*
G36*
X53794126Y-88035000D02*
X54205874Y-88035000D01*
X54240001Y-88020864D01*
X54240001Y-93925148D01*
X54225112Y-94000000D01*
X54284097Y-94296537D01*
X54394438Y-94461673D01*
X54452072Y-94547929D01*
X54515528Y-94590329D01*
X55230744Y-95305545D01*
X55122569Y-95413720D01*
X54965000Y-95794126D01*
X54965000Y-96205874D01*
X55122569Y-96586280D01*
X55413720Y-96877431D01*
X55794126Y-97035000D01*
X56205874Y-97035000D01*
X56586280Y-96877431D01*
X56702560Y-96761151D01*
X56702560Y-97750000D01*
X56741157Y-97944044D01*
X56542070Y-98077070D01*
X56516034Y-98116036D01*
X56477071Y-98142070D01*
X56434671Y-98205526D01*
X56434670Y-98205527D01*
X56309096Y-98393462D01*
X56250111Y-98689999D01*
X56265000Y-98764851D01*
X56264999Y-100635154D01*
X56250111Y-100710001D01*
X56264999Y-100784848D01*
X56264999Y-100784852D01*
X56309095Y-101006537D01*
X56477070Y-101257930D01*
X56540529Y-101300332D01*
X60904669Y-105664473D01*
X60947070Y-105727930D01*
X60982589Y-105751663D01*
X60965000Y-105794126D01*
X60965000Y-105965000D01*
X60794126Y-105965000D01*
X60413720Y-106122569D01*
X60122569Y-106413720D01*
X59965000Y-106794126D01*
X59965000Y-106979999D01*
X57974847Y-106979999D01*
X57900000Y-106965111D01*
X57825153Y-106979999D01*
X57825149Y-106979999D01*
X57603464Y-107024095D01*
X57603462Y-107024096D01*
X57603463Y-107024096D01*
X57415527Y-107149670D01*
X57415525Y-107149672D01*
X57352072Y-107192070D01*
X57309674Y-107255523D01*
X55709510Y-108855688D01*
X55747440Y-108665000D01*
X55747440Y-108065000D01*
X55698157Y-107817235D01*
X55645232Y-107738028D01*
X55735000Y-107521310D01*
X55735000Y-107380750D01*
X55576250Y-107222000D01*
X54477000Y-107222000D01*
X54477000Y-107242000D01*
X54223000Y-107242000D01*
X54223000Y-107222000D01*
X53123750Y-107222000D01*
X52965000Y-107380750D01*
X52965000Y-107521310D01*
X53025633Y-107667691D01*
X52802071Y-107817071D01*
X52759671Y-107880527D01*
X50740520Y-109899679D01*
X50710000Y-109920072D01*
X50710000Y-106110750D01*
X52965000Y-106110750D01*
X52965000Y-106251310D01*
X53051442Y-106460000D01*
X52965000Y-106668690D01*
X52965000Y-106809250D01*
X53123750Y-106968000D01*
X54223000Y-106968000D01*
X54223000Y-105952000D01*
X54477000Y-105952000D01*
X54477000Y-106968000D01*
X55576250Y-106968000D01*
X55735000Y-106809250D01*
X55735000Y-106668690D01*
X55648558Y-106460000D01*
X55735000Y-106251310D01*
X55735000Y-106110750D01*
X55576250Y-105952000D01*
X54477000Y-105952000D01*
X54223000Y-105952000D01*
X53123750Y-105952000D01*
X52965000Y-106110750D01*
X50710000Y-106110750D01*
X50710000Y-104840750D01*
X52965000Y-104840750D01*
X52965000Y-104981310D01*
X53051442Y-105190000D01*
X52965000Y-105398690D01*
X52965000Y-105539250D01*
X53123750Y-105698000D01*
X54223000Y-105698000D01*
X54223000Y-104682000D01*
X54477000Y-104682000D01*
X54477000Y-105698000D01*
X55576250Y-105698000D01*
X55735000Y-105539250D01*
X55735000Y-105398690D01*
X55648558Y-105190000D01*
X55735000Y-104981310D01*
X55735000Y-104840750D01*
X55576250Y-104682000D01*
X54477000Y-104682000D01*
X54223000Y-104682000D01*
X53123750Y-104682000D01*
X52965000Y-104840750D01*
X50710000Y-104840750D01*
X50710000Y-104128690D01*
X52965000Y-104128690D01*
X52965000Y-104269250D01*
X53123750Y-104428000D01*
X54223000Y-104428000D01*
X54223000Y-103778750D01*
X54477000Y-103778750D01*
X54477000Y-104428000D01*
X55576250Y-104428000D01*
X55735000Y-104269250D01*
X55735000Y-104128690D01*
X55638327Y-103895301D01*
X55459698Y-103716673D01*
X55226309Y-103620000D01*
X54635750Y-103620000D01*
X54477000Y-103778750D01*
X54223000Y-103778750D01*
X54064250Y-103620000D01*
X53473691Y-103620000D01*
X53240302Y-103716673D01*
X53061673Y-103895301D01*
X52965000Y-104128690D01*
X50710000Y-104128690D01*
X50710000Y-101409632D01*
X50742191Y-101457809D01*
X50952235Y-101598157D01*
X51200000Y-101647440D01*
X52800000Y-101647440D01*
X53047765Y-101598157D01*
X53257809Y-101457809D01*
X53398157Y-101247765D01*
X53447440Y-101000000D01*
X53447440Y-99000000D01*
X53398157Y-98752235D01*
X53257809Y-98542191D01*
X53047765Y-98401843D01*
X52800000Y-98352560D01*
X52648483Y-98352560D01*
X52590329Y-98265527D01*
X52547929Y-98202071D01*
X52484473Y-98159671D01*
X51837026Y-97512224D01*
X51873000Y-97476250D01*
X51873000Y-96127000D01*
X52127000Y-96127000D01*
X52127000Y-97476250D01*
X52285750Y-97635000D01*
X52926310Y-97635000D01*
X53159699Y-97538327D01*
X53338327Y-97359698D01*
X53435000Y-97126309D01*
X53435000Y-96285750D01*
X53276250Y-96127000D01*
X52127000Y-96127000D01*
X51873000Y-96127000D01*
X51853000Y-96127000D01*
X51853000Y-95873000D01*
X51873000Y-95873000D01*
X51873000Y-94523750D01*
X52127000Y-94523750D01*
X52127000Y-95873000D01*
X53276250Y-95873000D01*
X53435000Y-95714250D01*
X53435000Y-94873691D01*
X53338327Y-94640302D01*
X53159699Y-94461673D01*
X52926310Y-94365000D01*
X52285750Y-94365000D01*
X52127000Y-94523750D01*
X51873000Y-94523750D01*
X51714250Y-94365000D01*
X51634999Y-94365000D01*
X51634999Y-93635000D01*
X51714250Y-93635000D01*
X51873000Y-93476250D01*
X51873000Y-92127000D01*
X52127000Y-92127000D01*
X52127000Y-93476250D01*
X52285750Y-93635000D01*
X52926310Y-93635000D01*
X53159699Y-93538327D01*
X53338327Y-93359698D01*
X53435000Y-93126309D01*
X53435000Y-92285750D01*
X53276250Y-92127000D01*
X52127000Y-92127000D01*
X51873000Y-92127000D01*
X51853000Y-92127000D01*
X51853000Y-91873000D01*
X51873000Y-91873000D01*
X51873000Y-90523750D01*
X52127000Y-90523750D01*
X52127000Y-91873000D01*
X53276250Y-91873000D01*
X53435000Y-91714250D01*
X53435000Y-90873691D01*
X53338327Y-90640302D01*
X53159699Y-90461673D01*
X52926310Y-90365000D01*
X52285750Y-90365000D01*
X52127000Y-90523750D01*
X51873000Y-90523750D01*
X51714250Y-90365000D01*
X51634999Y-90365000D01*
X51634999Y-89647440D01*
X52800000Y-89647440D01*
X53047765Y-89598157D01*
X53257809Y-89457809D01*
X53398157Y-89247765D01*
X53447440Y-89000000D01*
X53447440Y-87891398D01*
X53794126Y-88035000D01*
X53794126Y-88035000D01*
G37*
X53794126Y-88035000D02*
X54205874Y-88035000D01*
X54240001Y-88020864D01*
X54240001Y-93925148D01*
X54225112Y-94000000D01*
X54284097Y-94296537D01*
X54394438Y-94461673D01*
X54452072Y-94547929D01*
X54515528Y-94590329D01*
X55230744Y-95305545D01*
X55122569Y-95413720D01*
X54965000Y-95794126D01*
X54965000Y-96205874D01*
X55122569Y-96586280D01*
X55413720Y-96877431D01*
X55794126Y-97035000D01*
X56205874Y-97035000D01*
X56586280Y-96877431D01*
X56702560Y-96761151D01*
X56702560Y-97750000D01*
X56741157Y-97944044D01*
X56542070Y-98077070D01*
X56516034Y-98116036D01*
X56477071Y-98142070D01*
X56434671Y-98205526D01*
X56434670Y-98205527D01*
X56309096Y-98393462D01*
X56250111Y-98689999D01*
X56265000Y-98764851D01*
X56264999Y-100635154D01*
X56250111Y-100710001D01*
X56264999Y-100784848D01*
X56264999Y-100784852D01*
X56309095Y-101006537D01*
X56477070Y-101257930D01*
X56540529Y-101300332D01*
X60904669Y-105664473D01*
X60947070Y-105727930D01*
X60982589Y-105751663D01*
X60965000Y-105794126D01*
X60965000Y-105965000D01*
X60794126Y-105965000D01*
X60413720Y-106122569D01*
X60122569Y-106413720D01*
X59965000Y-106794126D01*
X59965000Y-106979999D01*
X57974847Y-106979999D01*
X57900000Y-106965111D01*
X57825153Y-106979999D01*
X57825149Y-106979999D01*
X57603464Y-107024095D01*
X57603462Y-107024096D01*
X57603463Y-107024096D01*
X57415527Y-107149670D01*
X57415525Y-107149672D01*
X57352072Y-107192070D01*
X57309674Y-107255523D01*
X55709510Y-108855688D01*
X55747440Y-108665000D01*
X55747440Y-108065000D01*
X55698157Y-107817235D01*
X55645232Y-107738028D01*
X55735000Y-107521310D01*
X55735000Y-107380750D01*
X55576250Y-107222000D01*
X54477000Y-107222000D01*
X54477000Y-107242000D01*
X54223000Y-107242000D01*
X54223000Y-107222000D01*
X53123750Y-107222000D01*
X52965000Y-107380750D01*
X52965000Y-107521310D01*
X53025633Y-107667691D01*
X52802071Y-107817071D01*
X52759671Y-107880527D01*
X50740520Y-109899679D01*
X50710000Y-109920072D01*
X50710000Y-106110750D01*
X52965000Y-106110750D01*
X52965000Y-106251310D01*
X53051442Y-106460000D01*
X52965000Y-106668690D01*
X52965000Y-106809250D01*
X53123750Y-106968000D01*
X54223000Y-106968000D01*
X54223000Y-105952000D01*
X54477000Y-105952000D01*
X54477000Y-106968000D01*
X55576250Y-106968000D01*
X55735000Y-106809250D01*
X55735000Y-106668690D01*
X55648558Y-106460000D01*
X55735000Y-106251310D01*
X55735000Y-106110750D01*
X55576250Y-105952000D01*
X54477000Y-105952000D01*
X54223000Y-105952000D01*
X53123750Y-105952000D01*
X52965000Y-106110750D01*
X50710000Y-106110750D01*
X50710000Y-104840750D01*
X52965000Y-104840750D01*
X52965000Y-104981310D01*
X53051442Y-105190000D01*
X52965000Y-105398690D01*
X52965000Y-105539250D01*
X53123750Y-105698000D01*
X54223000Y-105698000D01*
X54223000Y-104682000D01*
X54477000Y-104682000D01*
X54477000Y-105698000D01*
X55576250Y-105698000D01*
X55735000Y-105539250D01*
X55735000Y-105398690D01*
X55648558Y-105190000D01*
X55735000Y-104981310D01*
X55735000Y-104840750D01*
X55576250Y-104682000D01*
X54477000Y-104682000D01*
X54223000Y-104682000D01*
X53123750Y-104682000D01*
X52965000Y-104840750D01*
X50710000Y-104840750D01*
X50710000Y-104128690D01*
X52965000Y-104128690D01*
X52965000Y-104269250D01*
X53123750Y-104428000D01*
X54223000Y-104428000D01*
X54223000Y-103778750D01*
X54477000Y-103778750D01*
X54477000Y-104428000D01*
X55576250Y-104428000D01*
X55735000Y-104269250D01*
X55735000Y-104128690D01*
X55638327Y-103895301D01*
X55459698Y-103716673D01*
X55226309Y-103620000D01*
X54635750Y-103620000D01*
X54477000Y-103778750D01*
X54223000Y-103778750D01*
X54064250Y-103620000D01*
X53473691Y-103620000D01*
X53240302Y-103716673D01*
X53061673Y-103895301D01*
X52965000Y-104128690D01*
X50710000Y-104128690D01*
X50710000Y-101409632D01*
X50742191Y-101457809D01*
X50952235Y-101598157D01*
X51200000Y-101647440D01*
X52800000Y-101647440D01*
X53047765Y-101598157D01*
X53257809Y-101457809D01*
X53398157Y-101247765D01*
X53447440Y-101000000D01*
X53447440Y-99000000D01*
X53398157Y-98752235D01*
X53257809Y-98542191D01*
X53047765Y-98401843D01*
X52800000Y-98352560D01*
X52648483Y-98352560D01*
X52590329Y-98265527D01*
X52547929Y-98202071D01*
X52484473Y-98159671D01*
X51837026Y-97512224D01*
X51873000Y-97476250D01*
X51873000Y-96127000D01*
X52127000Y-96127000D01*
X52127000Y-97476250D01*
X52285750Y-97635000D01*
X52926310Y-97635000D01*
X53159699Y-97538327D01*
X53338327Y-97359698D01*
X53435000Y-97126309D01*
X53435000Y-96285750D01*
X53276250Y-96127000D01*
X52127000Y-96127000D01*
X51873000Y-96127000D01*
X51853000Y-96127000D01*
X51853000Y-95873000D01*
X51873000Y-95873000D01*
X51873000Y-94523750D01*
X52127000Y-94523750D01*
X52127000Y-95873000D01*
X53276250Y-95873000D01*
X53435000Y-95714250D01*
X53435000Y-94873691D01*
X53338327Y-94640302D01*
X53159699Y-94461673D01*
X52926310Y-94365000D01*
X52285750Y-94365000D01*
X52127000Y-94523750D01*
X51873000Y-94523750D01*
X51714250Y-94365000D01*
X51634999Y-94365000D01*
X51634999Y-93635000D01*
X51714250Y-93635000D01*
X51873000Y-93476250D01*
X51873000Y-92127000D01*
X52127000Y-92127000D01*
X52127000Y-93476250D01*
X52285750Y-93635000D01*
X52926310Y-93635000D01*
X53159699Y-93538327D01*
X53338327Y-93359698D01*
X53435000Y-93126309D01*
X53435000Y-92285750D01*
X53276250Y-92127000D01*
X52127000Y-92127000D01*
X51873000Y-92127000D01*
X51853000Y-92127000D01*
X51853000Y-91873000D01*
X51873000Y-91873000D01*
X51873000Y-90523750D01*
X52127000Y-90523750D01*
X52127000Y-91873000D01*
X53276250Y-91873000D01*
X53435000Y-91714250D01*
X53435000Y-90873691D01*
X53338327Y-90640302D01*
X53159699Y-90461673D01*
X52926310Y-90365000D01*
X52285750Y-90365000D01*
X52127000Y-90523750D01*
X51873000Y-90523750D01*
X51714250Y-90365000D01*
X51634999Y-90365000D01*
X51634999Y-89647440D01*
X52800000Y-89647440D01*
X53047765Y-89598157D01*
X53257809Y-89457809D01*
X53398157Y-89247765D01*
X53447440Y-89000000D01*
X53447440Y-87891398D01*
X53794126Y-88035000D01*
G36*
X86609670Y-100484472D02*
X86652071Y-100547929D01*
X86802560Y-100648483D01*
X86802560Y-101100000D01*
X86830407Y-101240000D01*
X85020865Y-101240000D01*
X85035000Y-101205874D01*
X85035000Y-100794126D01*
X84877431Y-100413720D01*
X84586280Y-100122569D01*
X84205874Y-99965000D01*
X84039802Y-99965000D01*
X83590331Y-99515530D01*
X83547929Y-99452071D01*
X83296537Y-99284096D01*
X83197440Y-99264384D01*
X83197440Y-98900000D01*
X83148157Y-98652235D01*
X83007809Y-98442191D01*
X82797765Y-98301843D01*
X82550000Y-98252560D01*
X81074170Y-98252560D01*
X81046537Y-98234096D01*
X80824852Y-98190000D01*
X80824847Y-98190000D01*
X80750000Y-98175112D01*
X80675153Y-98190000D01*
X77903227Y-98190000D01*
X77940331Y-98134470D01*
X78039801Y-98035000D01*
X78205874Y-98035000D01*
X78586280Y-97877431D01*
X78877431Y-97586280D01*
X79035000Y-97205874D01*
X79035000Y-96794126D01*
X78877431Y-96413720D01*
X78586280Y-96122569D01*
X78205874Y-95965000D01*
X77794126Y-95965000D01*
X77413720Y-96122569D01*
X77122569Y-96413720D01*
X77025889Y-96647127D01*
X76877431Y-96288718D01*
X76586280Y-95997567D01*
X76205874Y-95839998D01*
X76031457Y-95839998D01*
X75982809Y-95767191D01*
X75772765Y-95626843D01*
X75525000Y-95577560D01*
X75175000Y-95577560D01*
X75037369Y-95604936D01*
X75001310Y-95590000D01*
X74946250Y-95590000D01*
X74873506Y-95662744D01*
X74717191Y-95767191D01*
X74696373Y-95798347D01*
X74584699Y-95686673D01*
X74526186Y-95662436D01*
X74453750Y-95590000D01*
X74398690Y-95590000D01*
X74375000Y-95599813D01*
X74351310Y-95590000D01*
X74349800Y-95590000D01*
X74904801Y-95034999D01*
X81160198Y-95034999D01*
X86609670Y-100484472D01*
X86609670Y-100484472D01*
G37*
X86609670Y-100484472D02*
X86652071Y-100547929D01*
X86802560Y-100648483D01*
X86802560Y-101100000D01*
X86830407Y-101240000D01*
X85020865Y-101240000D01*
X85035000Y-101205874D01*
X85035000Y-100794126D01*
X84877431Y-100413720D01*
X84586280Y-100122569D01*
X84205874Y-99965000D01*
X84039802Y-99965000D01*
X83590331Y-99515530D01*
X83547929Y-99452071D01*
X83296537Y-99284096D01*
X83197440Y-99264384D01*
X83197440Y-98900000D01*
X83148157Y-98652235D01*
X83007809Y-98442191D01*
X82797765Y-98301843D01*
X82550000Y-98252560D01*
X81074170Y-98252560D01*
X81046537Y-98234096D01*
X80824852Y-98190000D01*
X80824847Y-98190000D01*
X80750000Y-98175112D01*
X80675153Y-98190000D01*
X77903227Y-98190000D01*
X77940331Y-98134470D01*
X78039801Y-98035000D01*
X78205874Y-98035000D01*
X78586280Y-97877431D01*
X78877431Y-97586280D01*
X79035000Y-97205874D01*
X79035000Y-96794126D01*
X78877431Y-96413720D01*
X78586280Y-96122569D01*
X78205874Y-95965000D01*
X77794126Y-95965000D01*
X77413720Y-96122569D01*
X77122569Y-96413720D01*
X77025889Y-96647127D01*
X76877431Y-96288718D01*
X76586280Y-95997567D01*
X76205874Y-95839998D01*
X76031457Y-95839998D01*
X75982809Y-95767191D01*
X75772765Y-95626843D01*
X75525000Y-95577560D01*
X75175000Y-95577560D01*
X75037369Y-95604936D01*
X75001310Y-95590000D01*
X74946250Y-95590000D01*
X74873506Y-95662744D01*
X74717191Y-95767191D01*
X74696373Y-95798347D01*
X74584699Y-95686673D01*
X74526186Y-95662436D01*
X74453750Y-95590000D01*
X74398690Y-95590000D01*
X74375000Y-95599813D01*
X74351310Y-95590000D01*
X74349800Y-95590000D01*
X74904801Y-95034999D01*
X81160198Y-95034999D01*
X86609670Y-100484472D01*
G36*
X86852560Y-82625000D02*
X86901843Y-82872765D01*
X87042191Y-83082809D01*
X87240001Y-83214982D01*
X87240000Y-86780153D01*
X87225112Y-86855000D01*
X87240000Y-86929847D01*
X87240000Y-86929851D01*
X87284096Y-87151536D01*
X87452071Y-87402929D01*
X87515530Y-87445331D01*
X88832698Y-88762500D01*
X85502875Y-92092324D01*
X85439419Y-92134724D01*
X85397019Y-92198180D01*
X85397018Y-92198181D01*
X85296960Y-92347929D01*
X85271444Y-92386116D01*
X85245628Y-92515904D01*
X85212459Y-92682653D01*
X85227348Y-92757504D01*
X85227348Y-93308941D01*
X85109916Y-93426373D01*
X84952347Y-93806779D01*
X84952347Y-94218527D01*
X85109916Y-94598933D01*
X85401067Y-94890084D01*
X85781473Y-95047653D01*
X86193221Y-95047653D01*
X86573627Y-94890084D01*
X86864778Y-94598933D01*
X86994502Y-94285750D01*
X88915000Y-94285750D01*
X88915000Y-94776310D01*
X89011673Y-95009699D01*
X89190302Y-95188327D01*
X89423691Y-95285000D01*
X90014250Y-95285000D01*
X90173000Y-95126250D01*
X90173000Y-94127000D01*
X89073750Y-94127000D01*
X88915000Y-94285750D01*
X86994502Y-94285750D01*
X87022347Y-94218527D01*
X87022347Y-93806779D01*
X86864778Y-93426373D01*
X86747347Y-93308942D01*
X86747347Y-92997454D01*
X87975129Y-91769672D01*
X87965000Y-91794126D01*
X87965000Y-92205874D01*
X88122569Y-92586280D01*
X88413720Y-92877431D01*
X88794126Y-93035000D01*
X88993158Y-93035000D01*
X88915000Y-93223690D01*
X88915000Y-93714250D01*
X89073750Y-93873000D01*
X90173000Y-93873000D01*
X90173000Y-92873750D01*
X90014250Y-92715000D01*
X89748711Y-92715000D01*
X89877431Y-92586280D01*
X90035000Y-92205874D01*
X90035000Y-92039801D01*
X90152362Y-91922440D01*
X91430000Y-91922440D01*
X91677765Y-91873157D01*
X91887809Y-91732809D01*
X92000000Y-91564905D01*
X92112191Y-91732809D01*
X92240001Y-91818209D01*
X92240000Y-92704549D01*
X92002235Y-92751843D01*
X91792191Y-92892191D01*
X91651843Y-93102235D01*
X91646279Y-93130209D01*
X91588327Y-92990301D01*
X91409698Y-92811673D01*
X91176309Y-92715000D01*
X90585750Y-92715000D01*
X90427000Y-92873750D01*
X90427000Y-93873000D01*
X90447000Y-93873000D01*
X90447000Y-94127000D01*
X90427000Y-94127000D01*
X90427000Y-95126250D01*
X90585750Y-95285000D01*
X91176309Y-95285000D01*
X91409698Y-95188327D01*
X91588327Y-95009699D01*
X91646279Y-94869791D01*
X91651843Y-94897765D01*
X91792191Y-95107809D01*
X92002235Y-95248157D01*
X92250000Y-95297440D01*
X93238849Y-95297440D01*
X93122569Y-95413720D01*
X92965000Y-95794126D01*
X92965000Y-96205874D01*
X93122569Y-96586280D01*
X93127000Y-96590711D01*
X93127000Y-97873000D01*
X93147000Y-97873000D01*
X93147000Y-98127000D01*
X93127000Y-98127000D01*
X93127000Y-99476250D01*
X93285750Y-99635000D01*
X93926310Y-99635000D01*
X94159699Y-99538327D01*
X94290000Y-99408025D01*
X94290001Y-100590369D01*
X94257809Y-100542191D01*
X94047765Y-100401843D01*
X93800000Y-100352560D01*
X92200000Y-100352560D01*
X91952235Y-100401843D01*
X91742191Y-100542191D01*
X91601843Y-100752235D01*
X91552560Y-101000000D01*
X91552560Y-101240000D01*
X89569593Y-101240000D01*
X89597440Y-101100000D01*
X89597440Y-98900000D01*
X89548157Y-98652235D01*
X89407809Y-98442191D01*
X89197765Y-98301843D01*
X89116860Y-98285750D01*
X91565000Y-98285750D01*
X91565000Y-99126309D01*
X91661673Y-99359698D01*
X91840301Y-99538327D01*
X92073690Y-99635000D01*
X92714250Y-99635000D01*
X92873000Y-99476250D01*
X92873000Y-98127000D01*
X91723750Y-98127000D01*
X91565000Y-98285750D01*
X89116860Y-98285750D01*
X88950000Y-98252560D01*
X87450000Y-98252560D01*
X87202235Y-98301843D01*
X86992191Y-98442191D01*
X86881962Y-98607160D01*
X85148493Y-96873691D01*
X91565000Y-96873691D01*
X91565000Y-97714250D01*
X91723750Y-97873000D01*
X92873000Y-97873000D01*
X92873000Y-96523750D01*
X92714250Y-96365000D01*
X92073690Y-96365000D01*
X91840301Y-96461673D01*
X91661673Y-96640302D01*
X91565000Y-96873691D01*
X85148493Y-96873691D01*
X82065330Y-93790529D01*
X82022928Y-93727070D01*
X81771536Y-93559095D01*
X81549851Y-93514999D01*
X81549846Y-93514999D01*
X81474999Y-93500111D01*
X81400152Y-93514999D01*
X79906956Y-93514999D01*
X80035000Y-93205874D01*
X80035000Y-92794126D01*
X79877431Y-92413720D01*
X79760000Y-92296289D01*
X79760000Y-85401211D01*
X81965000Y-83196212D01*
X81965000Y-83205874D01*
X82122569Y-83586280D01*
X82413720Y-83877431D01*
X82794126Y-84035000D01*
X83205874Y-84035000D01*
X83586280Y-83877431D01*
X83877431Y-83586280D01*
X84035000Y-83205874D01*
X84035000Y-83039801D01*
X86852560Y-80222242D01*
X86852560Y-82625000D01*
X86852560Y-82625000D01*
G37*
X86852560Y-82625000D02*
X86901843Y-82872765D01*
X87042191Y-83082809D01*
X87240001Y-83214982D01*
X87240000Y-86780153D01*
X87225112Y-86855000D01*
X87240000Y-86929847D01*
X87240000Y-86929851D01*
X87284096Y-87151536D01*
X87452071Y-87402929D01*
X87515530Y-87445331D01*
X88832698Y-88762500D01*
X85502875Y-92092324D01*
X85439419Y-92134724D01*
X85397019Y-92198180D01*
X85397018Y-92198181D01*
X85296960Y-92347929D01*
X85271444Y-92386116D01*
X85245628Y-92515904D01*
X85212459Y-92682653D01*
X85227348Y-92757504D01*
X85227348Y-93308941D01*
X85109916Y-93426373D01*
X84952347Y-93806779D01*
X84952347Y-94218527D01*
X85109916Y-94598933D01*
X85401067Y-94890084D01*
X85781473Y-95047653D01*
X86193221Y-95047653D01*
X86573627Y-94890084D01*
X86864778Y-94598933D01*
X86994502Y-94285750D01*
X88915000Y-94285750D01*
X88915000Y-94776310D01*
X89011673Y-95009699D01*
X89190302Y-95188327D01*
X89423691Y-95285000D01*
X90014250Y-95285000D01*
X90173000Y-95126250D01*
X90173000Y-94127000D01*
X89073750Y-94127000D01*
X88915000Y-94285750D01*
X86994502Y-94285750D01*
X87022347Y-94218527D01*
X87022347Y-93806779D01*
X86864778Y-93426373D01*
X86747347Y-93308942D01*
X86747347Y-92997454D01*
X87975129Y-91769672D01*
X87965000Y-91794126D01*
X87965000Y-92205874D01*
X88122569Y-92586280D01*
X88413720Y-92877431D01*
X88794126Y-93035000D01*
X88993158Y-93035000D01*
X88915000Y-93223690D01*
X88915000Y-93714250D01*
X89073750Y-93873000D01*
X90173000Y-93873000D01*
X90173000Y-92873750D01*
X90014250Y-92715000D01*
X89748711Y-92715000D01*
X89877431Y-92586280D01*
X90035000Y-92205874D01*
X90035000Y-92039801D01*
X90152362Y-91922440D01*
X91430000Y-91922440D01*
X91677765Y-91873157D01*
X91887809Y-91732809D01*
X92000000Y-91564905D01*
X92112191Y-91732809D01*
X92240001Y-91818209D01*
X92240000Y-92704549D01*
X92002235Y-92751843D01*
X91792191Y-92892191D01*
X91651843Y-93102235D01*
X91646279Y-93130209D01*
X91588327Y-92990301D01*
X91409698Y-92811673D01*
X91176309Y-92715000D01*
X90585750Y-92715000D01*
X90427000Y-92873750D01*
X90427000Y-93873000D01*
X90447000Y-93873000D01*
X90447000Y-94127000D01*
X90427000Y-94127000D01*
X90427000Y-95126250D01*
X90585750Y-95285000D01*
X91176309Y-95285000D01*
X91409698Y-95188327D01*
X91588327Y-95009699D01*
X91646279Y-94869791D01*
X91651843Y-94897765D01*
X91792191Y-95107809D01*
X92002235Y-95248157D01*
X92250000Y-95297440D01*
X93238849Y-95297440D01*
X93122569Y-95413720D01*
X92965000Y-95794126D01*
X92965000Y-96205874D01*
X93122569Y-96586280D01*
X93127000Y-96590711D01*
X93127000Y-97873000D01*
X93147000Y-97873000D01*
X93147000Y-98127000D01*
X93127000Y-98127000D01*
X93127000Y-99476250D01*
X93285750Y-99635000D01*
X93926310Y-99635000D01*
X94159699Y-99538327D01*
X94290000Y-99408025D01*
X94290001Y-100590369D01*
X94257809Y-100542191D01*
X94047765Y-100401843D01*
X93800000Y-100352560D01*
X92200000Y-100352560D01*
X91952235Y-100401843D01*
X91742191Y-100542191D01*
X91601843Y-100752235D01*
X91552560Y-101000000D01*
X91552560Y-101240000D01*
X89569593Y-101240000D01*
X89597440Y-101100000D01*
X89597440Y-98900000D01*
X89548157Y-98652235D01*
X89407809Y-98442191D01*
X89197765Y-98301843D01*
X89116860Y-98285750D01*
X91565000Y-98285750D01*
X91565000Y-99126309D01*
X91661673Y-99359698D01*
X91840301Y-99538327D01*
X92073690Y-99635000D01*
X92714250Y-99635000D01*
X92873000Y-99476250D01*
X92873000Y-98127000D01*
X91723750Y-98127000D01*
X91565000Y-98285750D01*
X89116860Y-98285750D01*
X88950000Y-98252560D01*
X87450000Y-98252560D01*
X87202235Y-98301843D01*
X86992191Y-98442191D01*
X86881962Y-98607160D01*
X85148493Y-96873691D01*
X91565000Y-96873691D01*
X91565000Y-97714250D01*
X91723750Y-97873000D01*
X92873000Y-97873000D01*
X92873000Y-96523750D01*
X92714250Y-96365000D01*
X92073690Y-96365000D01*
X91840301Y-96461673D01*
X91661673Y-96640302D01*
X91565000Y-96873691D01*
X85148493Y-96873691D01*
X82065330Y-93790529D01*
X82022928Y-93727070D01*
X81771536Y-93559095D01*
X81549851Y-93514999D01*
X81549846Y-93514999D01*
X81474999Y-93500111D01*
X81400152Y-93514999D01*
X79906956Y-93514999D01*
X80035000Y-93205874D01*
X80035000Y-92794126D01*
X79877431Y-92413720D01*
X79760000Y-92296289D01*
X79760000Y-85401211D01*
X81965000Y-83196212D01*
X81965000Y-83205874D01*
X82122569Y-83586280D01*
X82413720Y-83877431D01*
X82794126Y-84035000D01*
X83205874Y-84035000D01*
X83586280Y-83877431D01*
X83877431Y-83586280D01*
X84035000Y-83205874D01*
X84035000Y-83039801D01*
X86852560Y-80222242D01*
X86852560Y-82625000D01*
G36*
X73646250Y-97660000D02*
X73701310Y-97660000D01*
X73725000Y-97650187D01*
X73740000Y-97656400D01*
X73740000Y-97714250D01*
X73877000Y-97851250D01*
X73877000Y-97873000D01*
X74873000Y-97873000D01*
X74873000Y-97853000D01*
X75127000Y-97853000D01*
X75127000Y-97873000D01*
X75147000Y-97873000D01*
X75147000Y-98127000D01*
X75127000Y-98127000D01*
X75127000Y-99123000D01*
X75147000Y-99123000D01*
X75147000Y-99377000D01*
X75127000Y-99377000D01*
X75127000Y-99397000D01*
X74873000Y-99397000D01*
X74873000Y-99377000D01*
X73877000Y-99377000D01*
X73877000Y-99397000D01*
X73623000Y-99397000D01*
X73623000Y-99377000D01*
X73603000Y-99377000D01*
X73603000Y-99123000D01*
X73623000Y-99123000D01*
X73623000Y-98285750D01*
X73740000Y-98285750D01*
X73740000Y-98964250D01*
X73877000Y-99101250D01*
X73877000Y-99123000D01*
X73898750Y-99123000D01*
X74035750Y-99260000D01*
X74714250Y-99260000D01*
X74851250Y-99123000D01*
X74873000Y-99123000D01*
X74873000Y-99101250D01*
X75010000Y-98964250D01*
X75010000Y-98285750D01*
X74873000Y-98148750D01*
X74873000Y-98127000D01*
X74851250Y-98127000D01*
X74714250Y-97990000D01*
X74035750Y-97990000D01*
X73898750Y-98127000D01*
X73877000Y-98127000D01*
X73877000Y-98148750D01*
X73740000Y-98285750D01*
X73623000Y-98285750D01*
X73623000Y-98127000D01*
X73603000Y-98127000D01*
X73603000Y-97873000D01*
X73623000Y-97873000D01*
X73623000Y-97636750D01*
X73646250Y-97660000D01*
X73646250Y-97660000D01*
G37*
X73646250Y-97660000D02*
X73701310Y-97660000D01*
X73725000Y-97650187D01*
X73740000Y-97656400D01*
X73740000Y-97714250D01*
X73877000Y-97851250D01*
X73877000Y-97873000D01*
X74873000Y-97873000D01*
X74873000Y-97853000D01*
X75127000Y-97853000D01*
X75127000Y-97873000D01*
X75147000Y-97873000D01*
X75147000Y-98127000D01*
X75127000Y-98127000D01*
X75127000Y-99123000D01*
X75147000Y-99123000D01*
X75147000Y-99377000D01*
X75127000Y-99377000D01*
X75127000Y-99397000D01*
X74873000Y-99397000D01*
X74873000Y-99377000D01*
X73877000Y-99377000D01*
X73877000Y-99397000D01*
X73623000Y-99397000D01*
X73623000Y-99377000D01*
X73603000Y-99377000D01*
X73603000Y-99123000D01*
X73623000Y-99123000D01*
X73623000Y-98285750D01*
X73740000Y-98285750D01*
X73740000Y-98964250D01*
X73877000Y-99101250D01*
X73877000Y-99123000D01*
X73898750Y-99123000D01*
X74035750Y-99260000D01*
X74714250Y-99260000D01*
X74851250Y-99123000D01*
X74873000Y-99123000D01*
X74873000Y-99101250D01*
X75010000Y-98964250D01*
X75010000Y-98285750D01*
X74873000Y-98148750D01*
X74873000Y-98127000D01*
X74851250Y-98127000D01*
X74714250Y-97990000D01*
X74035750Y-97990000D01*
X73898750Y-98127000D01*
X73877000Y-98127000D01*
X73877000Y-98148750D01*
X73740000Y-98285750D01*
X73623000Y-98285750D01*
X73623000Y-98127000D01*
X73603000Y-98127000D01*
X73603000Y-97873000D01*
X73623000Y-97873000D01*
X73623000Y-97636750D01*
X73646250Y-97660000D01*
G36*
X74197000Y-96740000D02*
X74035750Y-96740000D01*
X74023750Y-96752000D01*
X73903000Y-96752000D01*
X73903000Y-96498000D01*
X74197000Y-96498000D01*
X74197000Y-96740000D01*
X74197000Y-96740000D01*
G37*
X74197000Y-96740000D02*
X74035750Y-96740000D01*
X74023750Y-96752000D01*
X73903000Y-96752000D01*
X73903000Y-96498000D01*
X74197000Y-96498000D01*
X74197000Y-96740000D01*
G36*
X56302560Y-88075000D02*
X56323217Y-88178852D01*
X56315000Y-88198690D01*
X56315000Y-88314250D01*
X56408888Y-88408138D01*
X56492191Y-88532809D01*
X56592749Y-88600000D01*
X56492191Y-88667191D01*
X56408888Y-88791862D01*
X56315000Y-88885750D01*
X56315000Y-89001310D01*
X56323217Y-89021148D01*
X56302560Y-89125000D01*
X56302560Y-89675000D01*
X56323217Y-89778852D01*
X56315000Y-89798690D01*
X56315000Y-89914250D01*
X56408888Y-90008138D01*
X56492191Y-90132809D01*
X56592749Y-90200000D01*
X56492191Y-90267191D01*
X56408888Y-90391862D01*
X56315000Y-90485750D01*
X56315000Y-90601310D01*
X56323217Y-90621148D01*
X56302560Y-90725000D01*
X56302560Y-91275000D01*
X56327424Y-91400000D01*
X56302560Y-91525000D01*
X56302560Y-92075000D01*
X56351843Y-92322765D01*
X56492191Y-92532809D01*
X56702235Y-92673157D01*
X56950000Y-92722440D01*
X57240001Y-92722440D01*
X57240000Y-93296289D01*
X57122569Y-93413720D01*
X56965000Y-93794126D01*
X56965000Y-94205874D01*
X56979135Y-94240000D01*
X56314802Y-94240000D01*
X55760000Y-93685199D01*
X55760000Y-88020865D01*
X55794126Y-88035000D01*
X56205874Y-88035000D01*
X56302560Y-87994951D01*
X56302560Y-88075000D01*
X56302560Y-88075000D01*
G37*
X56302560Y-88075000D02*
X56323217Y-88178852D01*
X56315000Y-88198690D01*
X56315000Y-88314250D01*
X56408888Y-88408138D01*
X56492191Y-88532809D01*
X56592749Y-88600000D01*
X56492191Y-88667191D01*
X56408888Y-88791862D01*
X56315000Y-88885750D01*
X56315000Y-89001310D01*
X56323217Y-89021148D01*
X56302560Y-89125000D01*
X56302560Y-89675000D01*
X56323217Y-89778852D01*
X56315000Y-89798690D01*
X56315000Y-89914250D01*
X56408888Y-90008138D01*
X56492191Y-90132809D01*
X56592749Y-90200000D01*
X56492191Y-90267191D01*
X56408888Y-90391862D01*
X56315000Y-90485750D01*
X56315000Y-90601310D01*
X56323217Y-90621148D01*
X56302560Y-90725000D01*
X56302560Y-91275000D01*
X56327424Y-91400000D01*
X56302560Y-91525000D01*
X56302560Y-92075000D01*
X56351843Y-92322765D01*
X56492191Y-92532809D01*
X56702235Y-92673157D01*
X56950000Y-92722440D01*
X57240001Y-92722440D01*
X57240000Y-93296289D01*
X57122569Y-93413720D01*
X56965000Y-93794126D01*
X56965000Y-94205874D01*
X56979135Y-94240000D01*
X56314802Y-94240000D01*
X55760000Y-93685199D01*
X55760000Y-88020865D01*
X55794126Y-88035000D01*
X56205874Y-88035000D01*
X56302560Y-87994951D01*
X56302560Y-88075000D01*
G36*
X64908888Y-89591862D02*
X64815000Y-89685750D01*
X64815000Y-89801310D01*
X64823217Y-89821148D01*
X64802560Y-89925000D01*
X64802560Y-90338849D01*
X64586280Y-90122569D01*
X64290372Y-90000000D01*
X64586280Y-89877431D01*
X64877431Y-89586280D01*
X64901985Y-89527002D01*
X64952226Y-89527002D01*
X64908888Y-89591862D01*
X64908888Y-89591862D01*
G37*
X64908888Y-89591862D02*
X64815000Y-89685750D01*
X64815000Y-89801310D01*
X64823217Y-89821148D01*
X64802560Y-89925000D01*
X64802560Y-90338849D01*
X64586280Y-90122569D01*
X64290372Y-90000000D01*
X64586280Y-89877431D01*
X64877431Y-89586280D01*
X64901985Y-89527002D01*
X64952226Y-89527002D01*
X64908888Y-89591862D01*
G36*
X92112191Y-89832809D02*
X92322235Y-89973157D01*
X92457185Y-90000000D01*
X92322235Y-90026843D01*
X92112191Y-90167191D01*
X92045801Y-90266551D01*
X91906250Y-90127000D01*
X91827659Y-90127000D01*
X91677765Y-90026843D01*
X91542815Y-90000000D01*
X91677765Y-89973157D01*
X91827659Y-89873000D01*
X91906250Y-89873000D01*
X92045801Y-89733449D01*
X92112191Y-89832809D01*
X92112191Y-89832809D01*
G37*
X92112191Y-89832809D02*
X92322235Y-89973157D01*
X92457185Y-90000000D01*
X92322235Y-90026843D01*
X92112191Y-90167191D01*
X92045801Y-90266551D01*
X91906250Y-90127000D01*
X91827659Y-90127000D01*
X91677765Y-90026843D01*
X91542815Y-90000000D01*
X91677765Y-89973157D01*
X91827659Y-89873000D01*
X91906250Y-89873000D01*
X92045801Y-89733449D01*
X92112191Y-89832809D01*
G36*
X68965000Y-89039802D02*
X68965000Y-89205874D01*
X69122569Y-89586280D01*
X69405744Y-89869455D01*
X69035199Y-90240000D01*
X67697440Y-90240000D01*
X67697440Y-89925000D01*
X67676783Y-89821148D01*
X67685000Y-89801310D01*
X67685000Y-89685750D01*
X67591112Y-89591862D01*
X67507809Y-89467191D01*
X67407251Y-89400000D01*
X67507809Y-89332809D01*
X67591112Y-89208138D01*
X67685000Y-89114250D01*
X67685000Y-88998690D01*
X67676783Y-88978852D01*
X67697440Y-88875000D01*
X67697440Y-88325000D01*
X67672576Y-88200000D01*
X67697440Y-88075000D01*
X67697440Y-87772241D01*
X68965000Y-89039802D01*
X68965000Y-89039802D01*
G37*
X68965000Y-89039802D02*
X68965000Y-89205874D01*
X69122569Y-89586280D01*
X69405744Y-89869455D01*
X69035199Y-90240000D01*
X67697440Y-90240000D01*
X67697440Y-89925000D01*
X67676783Y-89821148D01*
X67685000Y-89801310D01*
X67685000Y-89685750D01*
X67591112Y-89591862D01*
X67507809Y-89467191D01*
X67407251Y-89400000D01*
X67507809Y-89332809D01*
X67591112Y-89208138D01*
X67685000Y-89114250D01*
X67685000Y-88998690D01*
X67676783Y-88978852D01*
X67697440Y-88875000D01*
X67697440Y-88325000D01*
X67672576Y-88200000D01*
X67697440Y-88075000D01*
X67697440Y-87772241D01*
X68965000Y-89039802D01*
G36*
X92240001Y-59714803D02*
X92240000Y-65043427D01*
X92092191Y-65142191D01*
X92011781Y-65262531D01*
X91926250Y-65177000D01*
X91127000Y-65177000D01*
X91127000Y-65197000D01*
X90873000Y-65197000D01*
X90873000Y-65177000D01*
X90073750Y-65177000D01*
X89915000Y-65335750D01*
X89915000Y-65576310D01*
X90011673Y-65809699D01*
X90190302Y-65988327D01*
X90225694Y-66002987D01*
X90092191Y-66092191D01*
X89951843Y-66302235D01*
X89902560Y-66550000D01*
X89902560Y-66965000D01*
X89794126Y-66965000D01*
X89413720Y-67122569D01*
X89122569Y-67413720D01*
X88965000Y-67794126D01*
X88965000Y-68205874D01*
X89122569Y-68586280D01*
X89413720Y-68877431D01*
X89794126Y-69035000D01*
X90205874Y-69035000D01*
X90586280Y-68877431D01*
X90877431Y-68586280D01*
X91035000Y-68205874D01*
X91035000Y-67997440D01*
X91450000Y-67997440D01*
X91697765Y-67948157D01*
X91907809Y-67807809D01*
X92048157Y-67597765D01*
X92097440Y-67350000D01*
X92097440Y-66861316D01*
X92302235Y-66998157D01*
X92550000Y-67047440D01*
X93450000Y-67047440D01*
X93620001Y-67013625D01*
X93620000Y-73060266D01*
X93557809Y-72967191D01*
X93347765Y-72826843D01*
X93100000Y-72777560D01*
X91600000Y-72777560D01*
X91352235Y-72826843D01*
X91142191Y-72967191D01*
X91001843Y-73177235D01*
X90952560Y-73425000D01*
X90952560Y-76825000D01*
X91001843Y-77072765D01*
X91142191Y-77282809D01*
X91352235Y-77423157D01*
X91600000Y-77472440D01*
X93100000Y-77472440D01*
X93347765Y-77423157D01*
X93557809Y-77282809D01*
X93620000Y-77189734D01*
X93620000Y-88077560D01*
X92570000Y-88077560D01*
X92322235Y-88126843D01*
X92112191Y-88267191D01*
X92000000Y-88435095D01*
X91887809Y-88267191D01*
X91677765Y-88126843D01*
X91430000Y-88077560D01*
X90297362Y-88077560D01*
X88760000Y-86540199D01*
X88760000Y-83214982D01*
X88957809Y-83082809D01*
X88998654Y-83021680D01*
X89140302Y-83163327D01*
X89373691Y-83260000D01*
X89714250Y-83260000D01*
X89873000Y-83101250D01*
X89873000Y-81002000D01*
X90127000Y-81002000D01*
X90127000Y-83101250D01*
X90285750Y-83260000D01*
X90626309Y-83260000D01*
X90859698Y-83163327D01*
X91038327Y-82984699D01*
X91135000Y-82751310D01*
X91135000Y-81160750D01*
X90976250Y-81002000D01*
X90127000Y-81002000D01*
X89873000Y-81002000D01*
X89853000Y-81002000D01*
X89853000Y-80748000D01*
X89873000Y-80748000D01*
X89873000Y-78648750D01*
X90127000Y-78648750D01*
X90127000Y-80748000D01*
X90976250Y-80748000D01*
X91135000Y-80589250D01*
X91135000Y-78998690D01*
X91038327Y-78765301D01*
X90859698Y-78586673D01*
X90626309Y-78490000D01*
X90285750Y-78490000D01*
X90127000Y-78648750D01*
X89873000Y-78648750D01*
X89714250Y-78490000D01*
X89373691Y-78490000D01*
X89140302Y-78586673D01*
X88998654Y-78728320D01*
X88957809Y-78667191D01*
X88747765Y-78526843D01*
X88500000Y-78477560D01*
X87810000Y-78477560D01*
X87810000Y-65199116D01*
X88484473Y-64524644D01*
X88485900Y-64523690D01*
X89915000Y-64523690D01*
X89915000Y-64764250D01*
X90073750Y-64923000D01*
X90873000Y-64923000D01*
X90873000Y-64173750D01*
X91127000Y-64173750D01*
X91127000Y-64923000D01*
X91926250Y-64923000D01*
X92085000Y-64764250D01*
X92085000Y-64523690D01*
X91988327Y-64290301D01*
X91809698Y-64111673D01*
X91576309Y-64015000D01*
X91285750Y-64015000D01*
X91127000Y-64173750D01*
X90873000Y-64173750D01*
X90714250Y-64015000D01*
X90423691Y-64015000D01*
X90190302Y-64111673D01*
X90011673Y-64290301D01*
X89915000Y-64523690D01*
X88485900Y-64523690D01*
X88547929Y-64482244D01*
X88715904Y-64230852D01*
X88760000Y-64009167D01*
X88760000Y-64009162D01*
X88774888Y-63934315D01*
X88760000Y-63859468D01*
X88760000Y-62069709D01*
X88952235Y-62198157D01*
X89200000Y-62247440D01*
X90100000Y-62247440D01*
X90347765Y-62198157D01*
X90557809Y-62057809D01*
X90698157Y-61847765D01*
X90747440Y-61600000D01*
X90747440Y-60400000D01*
X90698157Y-60152235D01*
X90627825Y-60046977D01*
X91108625Y-59566177D01*
X91274778Y-59635000D01*
X91925222Y-59635000D01*
X92091375Y-59566177D01*
X92240001Y-59714803D01*
X92240001Y-59714803D01*
G37*
X92240001Y-59714803D02*
X92240000Y-65043427D01*
X92092191Y-65142191D01*
X92011781Y-65262531D01*
X91926250Y-65177000D01*
X91127000Y-65177000D01*
X91127000Y-65197000D01*
X90873000Y-65197000D01*
X90873000Y-65177000D01*
X90073750Y-65177000D01*
X89915000Y-65335750D01*
X89915000Y-65576310D01*
X90011673Y-65809699D01*
X90190302Y-65988327D01*
X90225694Y-66002987D01*
X90092191Y-66092191D01*
X89951843Y-66302235D01*
X89902560Y-66550000D01*
X89902560Y-66965000D01*
X89794126Y-66965000D01*
X89413720Y-67122569D01*
X89122569Y-67413720D01*
X88965000Y-67794126D01*
X88965000Y-68205874D01*
X89122569Y-68586280D01*
X89413720Y-68877431D01*
X89794126Y-69035000D01*
X90205874Y-69035000D01*
X90586280Y-68877431D01*
X90877431Y-68586280D01*
X91035000Y-68205874D01*
X91035000Y-67997440D01*
X91450000Y-67997440D01*
X91697765Y-67948157D01*
X91907809Y-67807809D01*
X92048157Y-67597765D01*
X92097440Y-67350000D01*
X92097440Y-66861316D01*
X92302235Y-66998157D01*
X92550000Y-67047440D01*
X93450000Y-67047440D01*
X93620001Y-67013625D01*
X93620000Y-73060266D01*
X93557809Y-72967191D01*
X93347765Y-72826843D01*
X93100000Y-72777560D01*
X91600000Y-72777560D01*
X91352235Y-72826843D01*
X91142191Y-72967191D01*
X91001843Y-73177235D01*
X90952560Y-73425000D01*
X90952560Y-76825000D01*
X91001843Y-77072765D01*
X91142191Y-77282809D01*
X91352235Y-77423157D01*
X91600000Y-77472440D01*
X93100000Y-77472440D01*
X93347765Y-77423157D01*
X93557809Y-77282809D01*
X93620000Y-77189734D01*
X93620000Y-88077560D01*
X92570000Y-88077560D01*
X92322235Y-88126843D01*
X92112191Y-88267191D01*
X92000000Y-88435095D01*
X91887809Y-88267191D01*
X91677765Y-88126843D01*
X91430000Y-88077560D01*
X90297362Y-88077560D01*
X88760000Y-86540199D01*
X88760000Y-83214982D01*
X88957809Y-83082809D01*
X88998654Y-83021680D01*
X89140302Y-83163327D01*
X89373691Y-83260000D01*
X89714250Y-83260000D01*
X89873000Y-83101250D01*
X89873000Y-81002000D01*
X90127000Y-81002000D01*
X90127000Y-83101250D01*
X90285750Y-83260000D01*
X90626309Y-83260000D01*
X90859698Y-83163327D01*
X91038327Y-82984699D01*
X91135000Y-82751310D01*
X91135000Y-81160750D01*
X90976250Y-81002000D01*
X90127000Y-81002000D01*
X89873000Y-81002000D01*
X89853000Y-81002000D01*
X89853000Y-80748000D01*
X89873000Y-80748000D01*
X89873000Y-78648750D01*
X90127000Y-78648750D01*
X90127000Y-80748000D01*
X90976250Y-80748000D01*
X91135000Y-80589250D01*
X91135000Y-78998690D01*
X91038327Y-78765301D01*
X90859698Y-78586673D01*
X90626309Y-78490000D01*
X90285750Y-78490000D01*
X90127000Y-78648750D01*
X89873000Y-78648750D01*
X89714250Y-78490000D01*
X89373691Y-78490000D01*
X89140302Y-78586673D01*
X88998654Y-78728320D01*
X88957809Y-78667191D01*
X88747765Y-78526843D01*
X88500000Y-78477560D01*
X87810000Y-78477560D01*
X87810000Y-65199116D01*
X88484473Y-64524644D01*
X88485900Y-64523690D01*
X89915000Y-64523690D01*
X89915000Y-64764250D01*
X90073750Y-64923000D01*
X90873000Y-64923000D01*
X90873000Y-64173750D01*
X91127000Y-64173750D01*
X91127000Y-64923000D01*
X91926250Y-64923000D01*
X92085000Y-64764250D01*
X92085000Y-64523690D01*
X91988327Y-64290301D01*
X91809698Y-64111673D01*
X91576309Y-64015000D01*
X91285750Y-64015000D01*
X91127000Y-64173750D01*
X90873000Y-64173750D01*
X90714250Y-64015000D01*
X90423691Y-64015000D01*
X90190302Y-64111673D01*
X90011673Y-64290301D01*
X89915000Y-64523690D01*
X88485900Y-64523690D01*
X88547929Y-64482244D01*
X88715904Y-64230852D01*
X88760000Y-64009167D01*
X88760000Y-64009162D01*
X88774888Y-63934315D01*
X88760000Y-63859468D01*
X88760000Y-62069709D01*
X88952235Y-62198157D01*
X89200000Y-62247440D01*
X90100000Y-62247440D01*
X90347765Y-62198157D01*
X90557809Y-62057809D01*
X90698157Y-61847765D01*
X90747440Y-61600000D01*
X90747440Y-60400000D01*
X90698157Y-60152235D01*
X90627825Y-60046977D01*
X91108625Y-59566177D01*
X91274778Y-59635000D01*
X91925222Y-59635000D01*
X92091375Y-59566177D01*
X92240001Y-59714803D01*
G36*
X71502560Y-55850000D02*
X71551843Y-56097765D01*
X71692191Y-56307809D01*
X71902235Y-56448157D01*
X72150000Y-56497440D01*
X72351518Y-56497440D01*
X72452071Y-56647929D01*
X72515530Y-56690331D01*
X79205002Y-63379804D01*
X79205002Y-65518457D01*
X78936256Y-65465000D01*
X78643744Y-65465000D01*
X78210582Y-65551161D01*
X77719375Y-65879375D01*
X77520000Y-66177761D01*
X77320625Y-65879375D01*
X76829418Y-65551161D01*
X76396256Y-65465000D01*
X76103744Y-65465000D01*
X75670582Y-65551161D01*
X75179375Y-65879375D01*
X74980000Y-66177761D01*
X74780625Y-65879375D01*
X74289418Y-65551161D01*
X73856256Y-65465000D01*
X73563744Y-65465000D01*
X73130582Y-65551161D01*
X72639375Y-65879375D01*
X72440000Y-66177761D01*
X72240625Y-65879375D01*
X71749418Y-65551161D01*
X71316256Y-65465000D01*
X71023744Y-65465000D01*
X70919040Y-65485827D01*
X71035000Y-65205874D01*
X71035000Y-64794126D01*
X71020865Y-64760000D01*
X77296289Y-64760000D01*
X77413720Y-64877431D01*
X77794126Y-65035000D01*
X78205874Y-65035000D01*
X78586280Y-64877431D01*
X78877431Y-64586280D01*
X79035000Y-64205874D01*
X79035000Y-63794126D01*
X78877431Y-63413720D01*
X78586280Y-63122569D01*
X78205874Y-62965000D01*
X77794126Y-62965000D01*
X77413720Y-63122569D01*
X77296289Y-63240000D01*
X64289846Y-63240000D01*
X64214998Y-63225112D01*
X64140150Y-63240000D01*
X64140146Y-63240000D01*
X63918461Y-63284096D01*
X63667069Y-63452071D01*
X63624669Y-63515527D01*
X61890527Y-65249670D01*
X61827071Y-65292070D01*
X61784671Y-65355526D01*
X61784670Y-65355527D01*
X61659096Y-65543462D01*
X61600111Y-65839999D01*
X61615000Y-65914851D01*
X61614999Y-71300152D01*
X61600111Y-71374999D01*
X61614999Y-71449846D01*
X61614999Y-71449850D01*
X61659095Y-71671535D01*
X61827070Y-71922928D01*
X61890529Y-71965330D01*
X63890198Y-73965000D01*
X63794126Y-73965000D01*
X63413720Y-74122569D01*
X63122569Y-74413720D01*
X62965000Y-74794126D01*
X62965000Y-75205874D01*
X63122569Y-75586280D01*
X63240000Y-75703711D01*
X63240001Y-76685197D01*
X60737567Y-79187632D01*
X60760000Y-79074852D01*
X60760000Y-79074848D01*
X60774888Y-79000001D01*
X60760000Y-78925154D01*
X60760000Y-78725560D01*
X60897765Y-78698157D01*
X61107809Y-78557809D01*
X61248157Y-78347765D01*
X61297440Y-78100000D01*
X61297440Y-76600000D01*
X61248157Y-76352235D01*
X61107809Y-76142191D01*
X60897765Y-76001843D01*
X60888500Y-76000000D01*
X60897765Y-75998157D01*
X61107809Y-75857809D01*
X61248157Y-75647765D01*
X61297440Y-75400000D01*
X61297440Y-73900000D01*
X61248157Y-73652235D01*
X61107809Y-73442191D01*
X60897765Y-73301843D01*
X60760000Y-73274440D01*
X60760000Y-64289801D01*
X61952362Y-63097440D01*
X63275000Y-63097440D01*
X63522765Y-63048157D01*
X63732809Y-62907809D01*
X63873157Y-62697765D01*
X63922440Y-62450000D01*
X63922440Y-62000000D01*
X63902549Y-61900000D01*
X63922440Y-61800000D01*
X63922440Y-61350000D01*
X63902549Y-61250000D01*
X63922440Y-61150000D01*
X63922440Y-60863348D01*
X63982931Y-60822929D01*
X64025333Y-60759470D01*
X66999804Y-57785000D01*
X67921773Y-57785000D01*
X67884671Y-57840527D01*
X66515530Y-59209669D01*
X66452071Y-59252071D01*
X66284096Y-59503464D01*
X66240000Y-59725149D01*
X66240000Y-59725153D01*
X66225112Y-59800000D01*
X66240000Y-59874847D01*
X66240000Y-60296289D01*
X66122569Y-60413720D01*
X65965000Y-60794126D01*
X65965000Y-61205874D01*
X65979135Y-61240000D01*
X65703711Y-61240000D01*
X65586280Y-61122569D01*
X65205874Y-60965000D01*
X64794126Y-60965000D01*
X64413720Y-61122569D01*
X64122569Y-61413720D01*
X63965000Y-61794126D01*
X63965000Y-62205874D01*
X64122569Y-62586280D01*
X64413720Y-62877431D01*
X64794126Y-63035000D01*
X65205874Y-63035000D01*
X65586280Y-62877431D01*
X65703711Y-62760000D01*
X66998155Y-62760000D01*
X67073002Y-62774888D01*
X67147849Y-62760000D01*
X67147854Y-62760000D01*
X67369539Y-62715904D01*
X67620931Y-62547929D01*
X67663333Y-62484470D01*
X68077560Y-62070244D01*
X68077560Y-62450000D01*
X68126843Y-62697765D01*
X68267191Y-62907809D01*
X68477235Y-63048157D01*
X68725000Y-63097440D01*
X70475000Y-63097440D01*
X70722765Y-63048157D01*
X70932809Y-62907809D01*
X71073157Y-62697765D01*
X71122440Y-62450000D01*
X71122440Y-62000000D01*
X71102549Y-61900000D01*
X71122440Y-61800000D01*
X71122440Y-61350000D01*
X71108502Y-61279927D01*
X71110000Y-61276310D01*
X71110000Y-61196250D01*
X71087353Y-61173603D01*
X71073157Y-61102235D01*
X70952045Y-60920980D01*
X71013327Y-60859699D01*
X71090597Y-60673153D01*
X71110000Y-60653750D01*
X71110000Y-60546250D01*
X71090597Y-60526847D01*
X71013327Y-60340301D01*
X70952045Y-60279020D01*
X71073157Y-60097765D01*
X71087353Y-60026397D01*
X71110000Y-60003750D01*
X71110000Y-59923690D01*
X71108502Y-59920073D01*
X71122440Y-59850000D01*
X71122440Y-59400000D01*
X71102549Y-59300000D01*
X71122440Y-59200000D01*
X71122440Y-58750000D01*
X71102549Y-58650000D01*
X71122440Y-58550000D01*
X71122440Y-58100000D01*
X71108502Y-58029927D01*
X71110000Y-58026310D01*
X71110000Y-57946250D01*
X71087353Y-57923603D01*
X71073157Y-57852235D01*
X70954731Y-57675000D01*
X71073157Y-57497765D01*
X71087353Y-57426397D01*
X71110000Y-57403750D01*
X71110000Y-57323690D01*
X71108502Y-57320073D01*
X71122440Y-57250000D01*
X71122440Y-56800000D01*
X71102549Y-56700000D01*
X71122440Y-56600000D01*
X71122440Y-56150000D01*
X71108502Y-56079927D01*
X71110000Y-56076310D01*
X71110000Y-55996250D01*
X71087353Y-55973603D01*
X71073157Y-55902235D01*
X71039592Y-55852002D01*
X71110000Y-55852002D01*
X71110000Y-55731795D01*
X71272929Y-55622929D01*
X71315331Y-55559470D01*
X71502560Y-55372241D01*
X71502560Y-55850000D01*
X71502560Y-55850000D01*
G37*
X71502560Y-55850000D02*
X71551843Y-56097765D01*
X71692191Y-56307809D01*
X71902235Y-56448157D01*
X72150000Y-56497440D01*
X72351518Y-56497440D01*
X72452071Y-56647929D01*
X72515530Y-56690331D01*
X79205002Y-63379804D01*
X79205002Y-65518457D01*
X78936256Y-65465000D01*
X78643744Y-65465000D01*
X78210582Y-65551161D01*
X77719375Y-65879375D01*
X77520000Y-66177761D01*
X77320625Y-65879375D01*
X76829418Y-65551161D01*
X76396256Y-65465000D01*
X76103744Y-65465000D01*
X75670582Y-65551161D01*
X75179375Y-65879375D01*
X74980000Y-66177761D01*
X74780625Y-65879375D01*
X74289418Y-65551161D01*
X73856256Y-65465000D01*
X73563744Y-65465000D01*
X73130582Y-65551161D01*
X72639375Y-65879375D01*
X72440000Y-66177761D01*
X72240625Y-65879375D01*
X71749418Y-65551161D01*
X71316256Y-65465000D01*
X71023744Y-65465000D01*
X70919040Y-65485827D01*
X71035000Y-65205874D01*
X71035000Y-64794126D01*
X71020865Y-64760000D01*
X77296289Y-64760000D01*
X77413720Y-64877431D01*
X77794126Y-65035000D01*
X78205874Y-65035000D01*
X78586280Y-64877431D01*
X78877431Y-64586280D01*
X79035000Y-64205874D01*
X79035000Y-63794126D01*
X78877431Y-63413720D01*
X78586280Y-63122569D01*
X78205874Y-62965000D01*
X77794126Y-62965000D01*
X77413720Y-63122569D01*
X77296289Y-63240000D01*
X64289846Y-63240000D01*
X64214998Y-63225112D01*
X64140150Y-63240000D01*
X64140146Y-63240000D01*
X63918461Y-63284096D01*
X63667069Y-63452071D01*
X63624669Y-63515527D01*
X61890527Y-65249670D01*
X61827071Y-65292070D01*
X61784671Y-65355526D01*
X61784670Y-65355527D01*
X61659096Y-65543462D01*
X61600111Y-65839999D01*
X61615000Y-65914851D01*
X61614999Y-71300152D01*
X61600111Y-71374999D01*
X61614999Y-71449846D01*
X61614999Y-71449850D01*
X61659095Y-71671535D01*
X61827070Y-71922928D01*
X61890529Y-71965330D01*
X63890198Y-73965000D01*
X63794126Y-73965000D01*
X63413720Y-74122569D01*
X63122569Y-74413720D01*
X62965000Y-74794126D01*
X62965000Y-75205874D01*
X63122569Y-75586280D01*
X63240000Y-75703711D01*
X63240001Y-76685197D01*
X60737567Y-79187632D01*
X60760000Y-79074852D01*
X60760000Y-79074848D01*
X60774888Y-79000001D01*
X60760000Y-78925154D01*
X60760000Y-78725560D01*
X60897765Y-78698157D01*
X61107809Y-78557809D01*
X61248157Y-78347765D01*
X61297440Y-78100000D01*
X61297440Y-76600000D01*
X61248157Y-76352235D01*
X61107809Y-76142191D01*
X60897765Y-76001843D01*
X60888500Y-76000000D01*
X60897765Y-75998157D01*
X61107809Y-75857809D01*
X61248157Y-75647765D01*
X61297440Y-75400000D01*
X61297440Y-73900000D01*
X61248157Y-73652235D01*
X61107809Y-73442191D01*
X60897765Y-73301843D01*
X60760000Y-73274440D01*
X60760000Y-64289801D01*
X61952362Y-63097440D01*
X63275000Y-63097440D01*
X63522765Y-63048157D01*
X63732809Y-62907809D01*
X63873157Y-62697765D01*
X63922440Y-62450000D01*
X63922440Y-62000000D01*
X63902549Y-61900000D01*
X63922440Y-61800000D01*
X63922440Y-61350000D01*
X63902549Y-61250000D01*
X63922440Y-61150000D01*
X63922440Y-60863348D01*
X63982931Y-60822929D01*
X64025333Y-60759470D01*
X66999804Y-57785000D01*
X67921773Y-57785000D01*
X67884671Y-57840527D01*
X66515530Y-59209669D01*
X66452071Y-59252071D01*
X66284096Y-59503464D01*
X66240000Y-59725149D01*
X66240000Y-59725153D01*
X66225112Y-59800000D01*
X66240000Y-59874847D01*
X66240000Y-60296289D01*
X66122569Y-60413720D01*
X65965000Y-60794126D01*
X65965000Y-61205874D01*
X65979135Y-61240000D01*
X65703711Y-61240000D01*
X65586280Y-61122569D01*
X65205874Y-60965000D01*
X64794126Y-60965000D01*
X64413720Y-61122569D01*
X64122569Y-61413720D01*
X63965000Y-61794126D01*
X63965000Y-62205874D01*
X64122569Y-62586280D01*
X64413720Y-62877431D01*
X64794126Y-63035000D01*
X65205874Y-63035000D01*
X65586280Y-62877431D01*
X65703711Y-62760000D01*
X66998155Y-62760000D01*
X67073002Y-62774888D01*
X67147849Y-62760000D01*
X67147854Y-62760000D01*
X67369539Y-62715904D01*
X67620931Y-62547929D01*
X67663333Y-62484470D01*
X68077560Y-62070244D01*
X68077560Y-62450000D01*
X68126843Y-62697765D01*
X68267191Y-62907809D01*
X68477235Y-63048157D01*
X68725000Y-63097440D01*
X70475000Y-63097440D01*
X70722765Y-63048157D01*
X70932809Y-62907809D01*
X71073157Y-62697765D01*
X71122440Y-62450000D01*
X71122440Y-62000000D01*
X71102549Y-61900000D01*
X71122440Y-61800000D01*
X71122440Y-61350000D01*
X71108502Y-61279927D01*
X71110000Y-61276310D01*
X71110000Y-61196250D01*
X71087353Y-61173603D01*
X71073157Y-61102235D01*
X70952045Y-60920980D01*
X71013327Y-60859699D01*
X71090597Y-60673153D01*
X71110000Y-60653750D01*
X71110000Y-60546250D01*
X71090597Y-60526847D01*
X71013327Y-60340301D01*
X70952045Y-60279020D01*
X71073157Y-60097765D01*
X71087353Y-60026397D01*
X71110000Y-60003750D01*
X71110000Y-59923690D01*
X71108502Y-59920073D01*
X71122440Y-59850000D01*
X71122440Y-59400000D01*
X71102549Y-59300000D01*
X71122440Y-59200000D01*
X71122440Y-58750000D01*
X71102549Y-58650000D01*
X71122440Y-58550000D01*
X71122440Y-58100000D01*
X71108502Y-58029927D01*
X71110000Y-58026310D01*
X71110000Y-57946250D01*
X71087353Y-57923603D01*
X71073157Y-57852235D01*
X70954731Y-57675000D01*
X71073157Y-57497765D01*
X71087353Y-57426397D01*
X71110000Y-57403750D01*
X71110000Y-57323690D01*
X71108502Y-57320073D01*
X71122440Y-57250000D01*
X71122440Y-56800000D01*
X71102549Y-56700000D01*
X71122440Y-56600000D01*
X71122440Y-56150000D01*
X71108502Y-56079927D01*
X71110000Y-56076310D01*
X71110000Y-55996250D01*
X71087353Y-55973603D01*
X71073157Y-55902235D01*
X71039592Y-55852002D01*
X71110000Y-55852002D01*
X71110000Y-55731795D01*
X71272929Y-55622929D01*
X71315331Y-55559470D01*
X71502560Y-55372241D01*
X71502560Y-55850000D01*
G36*
X71167072Y-50737070D02*
X71124672Y-50800526D01*
X70960198Y-50965000D01*
X70794126Y-50965000D01*
X70413720Y-51122569D01*
X70122569Y-51413720D01*
X70086237Y-51501433D01*
X69650323Y-51065520D01*
X69607921Y-51002061D01*
X69356529Y-50834086D01*
X69134844Y-50789990D01*
X69134839Y-50789990D01*
X69059992Y-50775102D01*
X68985145Y-50789990D01*
X57451854Y-50789990D01*
X57377007Y-50775102D01*
X57302160Y-50789990D01*
X57302156Y-50789990D01*
X57080471Y-50834086D01*
X56829079Y-51002061D01*
X56786679Y-51065517D01*
X55790527Y-52061670D01*
X55727071Y-52104070D01*
X55559095Y-52355462D01*
X55514999Y-52577147D01*
X55514999Y-52577152D01*
X55500111Y-52651999D01*
X55514999Y-52726846D01*
X55514999Y-53225458D01*
X55500111Y-53300305D01*
X55514999Y-53375152D01*
X55514999Y-53375156D01*
X55559095Y-53596841D01*
X55727070Y-53848234D01*
X55790529Y-53890636D01*
X55965000Y-54065107D01*
X55965000Y-54231180D01*
X56122569Y-54611586D01*
X56413720Y-54902737D01*
X56794126Y-55060306D01*
X57205874Y-55060306D01*
X57294776Y-55023482D01*
X57280732Y-55052062D01*
X57407266Y-55223000D01*
X58373000Y-55223000D01*
X58373000Y-55203000D01*
X58627000Y-55203000D01*
X58627000Y-55223000D01*
X59592734Y-55223000D01*
X59719268Y-55052062D01*
X59535552Y-54678179D01*
X59345902Y-54510010D01*
X60665141Y-54510010D01*
X60739988Y-54524898D01*
X60814835Y-54510010D01*
X60814840Y-54510010D01*
X60877560Y-54497534D01*
X60877560Y-54650000D01*
X60897451Y-54750000D01*
X60877560Y-54850000D01*
X60877560Y-55300000D01*
X60897451Y-55400000D01*
X60877560Y-55500000D01*
X60877560Y-55950000D01*
X60897451Y-56050000D01*
X60877560Y-56150000D01*
X60877560Y-56414031D01*
X60877431Y-56413720D01*
X60586280Y-56122569D01*
X60205874Y-55965000D01*
X59794126Y-55965000D01*
X59429136Y-56116184D01*
X59535552Y-56021821D01*
X59719268Y-55647938D01*
X59592734Y-55477000D01*
X58627000Y-55477000D01*
X58627000Y-55497000D01*
X58373000Y-55497000D01*
X58373000Y-55477000D01*
X57407266Y-55477000D01*
X57280732Y-55647938D01*
X57464448Y-56021821D01*
X57788951Y-56309568D01*
X58198869Y-56451229D01*
X58372998Y-56302565D01*
X58372998Y-56371270D01*
X58315526Y-56409671D01*
X58315524Y-56409673D01*
X58252071Y-56452071D01*
X58209673Y-56515524D01*
X57372638Y-57352560D01*
X56200000Y-57352560D01*
X55952235Y-57401843D01*
X55742191Y-57542191D01*
X55601843Y-57752235D01*
X55552560Y-58000000D01*
X55552560Y-60000000D01*
X55601843Y-60247765D01*
X55742191Y-60457809D01*
X55952235Y-60598157D01*
X56200000Y-60647440D01*
X57800000Y-60647440D01*
X58047765Y-60598157D01*
X58257809Y-60457809D01*
X58398157Y-60247765D01*
X58447440Y-60000000D01*
X58447440Y-58427362D01*
X59114803Y-57760000D01*
X59296289Y-57760000D01*
X59413720Y-57877431D01*
X59794126Y-58035000D01*
X60205874Y-58035000D01*
X60586280Y-57877431D01*
X60877431Y-57586280D01*
X60877560Y-57585969D01*
X60877560Y-57900000D01*
X60891498Y-57970073D01*
X60890000Y-57973690D01*
X60890000Y-58053750D01*
X60912647Y-58076397D01*
X60926843Y-58147765D01*
X61045269Y-58325000D01*
X60926843Y-58502235D01*
X60912647Y-58573603D01*
X60890000Y-58596250D01*
X60890000Y-58676310D01*
X60891498Y-58679927D01*
X60877560Y-58750000D01*
X60877560Y-58865000D01*
X60863436Y-58865000D01*
X60788589Y-58850112D01*
X60713742Y-58865000D01*
X60713738Y-58865000D01*
X60492053Y-58909096D01*
X60442523Y-58942191D01*
X60304116Y-59034671D01*
X60304114Y-59034673D01*
X60240661Y-59077071D01*
X60198263Y-59140524D01*
X58423790Y-60914999D01*
X56014845Y-60914999D01*
X55939998Y-60900111D01*
X55865151Y-60914999D01*
X55865147Y-60914999D01*
X55643462Y-60959095D01*
X55643460Y-60959096D01*
X55643461Y-60959096D01*
X55455525Y-61084670D01*
X55455523Y-61084672D01*
X55392070Y-61127070D01*
X55349672Y-61190524D01*
X54515529Y-62024667D01*
X54452071Y-62067069D01*
X54284096Y-62318462D01*
X54240000Y-62540147D01*
X54240000Y-62540151D01*
X54225112Y-62614998D01*
X54240000Y-62689845D01*
X54240000Y-65525298D01*
X54000000Y-65477560D01*
X52000000Y-65477560D01*
X51752235Y-65526843D01*
X51542191Y-65667191D01*
X51401843Y-65877235D01*
X51352560Y-66125000D01*
X51352560Y-74000000D01*
X51401843Y-74247765D01*
X51542191Y-74457809D01*
X51647214Y-74527984D01*
X50710000Y-75465199D01*
X50710000Y-55647938D01*
X52280732Y-55647938D01*
X52464448Y-56021821D01*
X52788951Y-56309568D01*
X53198869Y-56451229D01*
X53373000Y-56302563D01*
X53373000Y-55477000D01*
X53627000Y-55477000D01*
X53627000Y-56302563D01*
X53801131Y-56451229D01*
X54211049Y-56309568D01*
X54535552Y-56021821D01*
X54719268Y-55647938D01*
X54592734Y-55477000D01*
X53627000Y-55477000D01*
X53373000Y-55477000D01*
X52407266Y-55477000D01*
X52280732Y-55647938D01*
X50710000Y-55647938D01*
X50710000Y-55052062D01*
X52280732Y-55052062D01*
X52407266Y-55223000D01*
X53373000Y-55223000D01*
X53373000Y-54397437D01*
X53627000Y-54397437D01*
X53627000Y-55223000D01*
X54592734Y-55223000D01*
X54719268Y-55052062D01*
X54535552Y-54678179D01*
X54211049Y-54390432D01*
X53801131Y-54248771D01*
X53627000Y-54397437D01*
X53373000Y-54397437D01*
X53198869Y-54248771D01*
X52788951Y-54390432D01*
X52464448Y-54678179D01*
X52280732Y-55052062D01*
X50710000Y-55052062D01*
X50710000Y-52777000D01*
X51365000Y-52777000D01*
X51365000Y-53052000D01*
X51499998Y-53476678D01*
X51787237Y-53817368D01*
X52198126Y-54019119D01*
X52373000Y-53892954D01*
X52373000Y-52777000D01*
X52627000Y-52777000D01*
X52627000Y-53892954D01*
X52801874Y-54019119D01*
X53212763Y-53817368D01*
X53500002Y-53476678D01*
X53635000Y-53052000D01*
X53635000Y-52777000D01*
X52627000Y-52777000D01*
X52373000Y-52777000D01*
X51365000Y-52777000D01*
X50710000Y-52777000D01*
X50710000Y-52248000D01*
X51365000Y-52248000D01*
X51365000Y-52523000D01*
X52373000Y-52523000D01*
X52373000Y-51407046D01*
X52627000Y-51407046D01*
X52627000Y-52523000D01*
X53635000Y-52523000D01*
X53635000Y-52248000D01*
X53500002Y-51823322D01*
X53212763Y-51482632D01*
X52801874Y-51280881D01*
X52627000Y-51407046D01*
X52373000Y-51407046D01*
X52198126Y-51280881D01*
X51787237Y-51482632D01*
X51499998Y-51823322D01*
X51365000Y-52248000D01*
X50710000Y-52248000D01*
X50710000Y-50710000D01*
X71207585Y-50710000D01*
X71167072Y-50737070D01*
X71167072Y-50737070D01*
G37*
X71167072Y-50737070D02*
X71124672Y-50800526D01*
X70960198Y-50965000D01*
X70794126Y-50965000D01*
X70413720Y-51122569D01*
X70122569Y-51413720D01*
X70086237Y-51501433D01*
X69650323Y-51065520D01*
X69607921Y-51002061D01*
X69356529Y-50834086D01*
X69134844Y-50789990D01*
X69134839Y-50789990D01*
X69059992Y-50775102D01*
X68985145Y-50789990D01*
X57451854Y-50789990D01*
X57377007Y-50775102D01*
X57302160Y-50789990D01*
X57302156Y-50789990D01*
X57080471Y-50834086D01*
X56829079Y-51002061D01*
X56786679Y-51065517D01*
X55790527Y-52061670D01*
X55727071Y-52104070D01*
X55559095Y-52355462D01*
X55514999Y-52577147D01*
X55514999Y-52577152D01*
X55500111Y-52651999D01*
X55514999Y-52726846D01*
X55514999Y-53225458D01*
X55500111Y-53300305D01*
X55514999Y-53375152D01*
X55514999Y-53375156D01*
X55559095Y-53596841D01*
X55727070Y-53848234D01*
X55790529Y-53890636D01*
X55965000Y-54065107D01*
X55965000Y-54231180D01*
X56122569Y-54611586D01*
X56413720Y-54902737D01*
X56794126Y-55060306D01*
X57205874Y-55060306D01*
X57294776Y-55023482D01*
X57280732Y-55052062D01*
X57407266Y-55223000D01*
X58373000Y-55223000D01*
X58373000Y-55203000D01*
X58627000Y-55203000D01*
X58627000Y-55223000D01*
X59592734Y-55223000D01*
X59719268Y-55052062D01*
X59535552Y-54678179D01*
X59345902Y-54510010D01*
X60665141Y-54510010D01*
X60739988Y-54524898D01*
X60814835Y-54510010D01*
X60814840Y-54510010D01*
X60877560Y-54497534D01*
X60877560Y-54650000D01*
X60897451Y-54750000D01*
X60877560Y-54850000D01*
X60877560Y-55300000D01*
X60897451Y-55400000D01*
X60877560Y-55500000D01*
X60877560Y-55950000D01*
X60897451Y-56050000D01*
X60877560Y-56150000D01*
X60877560Y-56414031D01*
X60877431Y-56413720D01*
X60586280Y-56122569D01*
X60205874Y-55965000D01*
X59794126Y-55965000D01*
X59429136Y-56116184D01*
X59535552Y-56021821D01*
X59719268Y-55647938D01*
X59592734Y-55477000D01*
X58627000Y-55477000D01*
X58627000Y-55497000D01*
X58373000Y-55497000D01*
X58373000Y-55477000D01*
X57407266Y-55477000D01*
X57280732Y-55647938D01*
X57464448Y-56021821D01*
X57788951Y-56309568D01*
X58198869Y-56451229D01*
X58372998Y-56302565D01*
X58372998Y-56371270D01*
X58315526Y-56409671D01*
X58315524Y-56409673D01*
X58252071Y-56452071D01*
X58209673Y-56515524D01*
X57372638Y-57352560D01*
X56200000Y-57352560D01*
X55952235Y-57401843D01*
X55742191Y-57542191D01*
X55601843Y-57752235D01*
X55552560Y-58000000D01*
X55552560Y-60000000D01*
X55601843Y-60247765D01*
X55742191Y-60457809D01*
X55952235Y-60598157D01*
X56200000Y-60647440D01*
X57800000Y-60647440D01*
X58047765Y-60598157D01*
X58257809Y-60457809D01*
X58398157Y-60247765D01*
X58447440Y-60000000D01*
X58447440Y-58427362D01*
X59114803Y-57760000D01*
X59296289Y-57760000D01*
X59413720Y-57877431D01*
X59794126Y-58035000D01*
X60205874Y-58035000D01*
X60586280Y-57877431D01*
X60877431Y-57586280D01*
X60877560Y-57585969D01*
X60877560Y-57900000D01*
X60891498Y-57970073D01*
X60890000Y-57973690D01*
X60890000Y-58053750D01*
X60912647Y-58076397D01*
X60926843Y-58147765D01*
X61045269Y-58325000D01*
X60926843Y-58502235D01*
X60912647Y-58573603D01*
X60890000Y-58596250D01*
X60890000Y-58676310D01*
X60891498Y-58679927D01*
X60877560Y-58750000D01*
X60877560Y-58865000D01*
X60863436Y-58865000D01*
X60788589Y-58850112D01*
X60713742Y-58865000D01*
X60713738Y-58865000D01*
X60492053Y-58909096D01*
X60442523Y-58942191D01*
X60304116Y-59034671D01*
X60304114Y-59034673D01*
X60240661Y-59077071D01*
X60198263Y-59140524D01*
X58423790Y-60914999D01*
X56014845Y-60914999D01*
X55939998Y-60900111D01*
X55865151Y-60914999D01*
X55865147Y-60914999D01*
X55643462Y-60959095D01*
X55643460Y-60959096D01*
X55643461Y-60959096D01*
X55455525Y-61084670D01*
X55455523Y-61084672D01*
X55392070Y-61127070D01*
X55349672Y-61190524D01*
X54515529Y-62024667D01*
X54452071Y-62067069D01*
X54284096Y-62318462D01*
X54240000Y-62540147D01*
X54240000Y-62540151D01*
X54225112Y-62614998D01*
X54240000Y-62689845D01*
X54240000Y-65525298D01*
X54000000Y-65477560D01*
X52000000Y-65477560D01*
X51752235Y-65526843D01*
X51542191Y-65667191D01*
X51401843Y-65877235D01*
X51352560Y-66125000D01*
X51352560Y-74000000D01*
X51401843Y-74247765D01*
X51542191Y-74457809D01*
X51647214Y-74527984D01*
X50710000Y-75465199D01*
X50710000Y-55647938D01*
X52280732Y-55647938D01*
X52464448Y-56021821D01*
X52788951Y-56309568D01*
X53198869Y-56451229D01*
X53373000Y-56302563D01*
X53373000Y-55477000D01*
X53627000Y-55477000D01*
X53627000Y-56302563D01*
X53801131Y-56451229D01*
X54211049Y-56309568D01*
X54535552Y-56021821D01*
X54719268Y-55647938D01*
X54592734Y-55477000D01*
X53627000Y-55477000D01*
X53373000Y-55477000D01*
X52407266Y-55477000D01*
X52280732Y-55647938D01*
X50710000Y-55647938D01*
X50710000Y-55052062D01*
X52280732Y-55052062D01*
X52407266Y-55223000D01*
X53373000Y-55223000D01*
X53373000Y-54397437D01*
X53627000Y-54397437D01*
X53627000Y-55223000D01*
X54592734Y-55223000D01*
X54719268Y-55052062D01*
X54535552Y-54678179D01*
X54211049Y-54390432D01*
X53801131Y-54248771D01*
X53627000Y-54397437D01*
X53373000Y-54397437D01*
X53198869Y-54248771D01*
X52788951Y-54390432D01*
X52464448Y-54678179D01*
X52280732Y-55052062D01*
X50710000Y-55052062D01*
X50710000Y-52777000D01*
X51365000Y-52777000D01*
X51365000Y-53052000D01*
X51499998Y-53476678D01*
X51787237Y-53817368D01*
X52198126Y-54019119D01*
X52373000Y-53892954D01*
X52373000Y-52777000D01*
X52627000Y-52777000D01*
X52627000Y-53892954D01*
X52801874Y-54019119D01*
X53212763Y-53817368D01*
X53500002Y-53476678D01*
X53635000Y-53052000D01*
X53635000Y-52777000D01*
X52627000Y-52777000D01*
X52373000Y-52777000D01*
X51365000Y-52777000D01*
X50710000Y-52777000D01*
X50710000Y-52248000D01*
X51365000Y-52248000D01*
X51365000Y-52523000D01*
X52373000Y-52523000D01*
X52373000Y-51407046D01*
X52627000Y-51407046D01*
X52627000Y-52523000D01*
X53635000Y-52523000D01*
X53635000Y-52248000D01*
X53500002Y-51823322D01*
X53212763Y-51482632D01*
X52801874Y-51280881D01*
X52627000Y-51407046D01*
X52373000Y-51407046D01*
X52198126Y-51280881D01*
X51787237Y-51482632D01*
X51499998Y-51823322D01*
X51365000Y-52248000D01*
X50710000Y-52248000D01*
X50710000Y-50710000D01*
X71207585Y-50710000D01*
X71167072Y-50737070D01*
G36*
X68965000Y-64794126D02*
X68965000Y-65205874D01*
X69098918Y-65529181D01*
X68776256Y-65465000D01*
X68483744Y-65465000D01*
X68050582Y-65551161D01*
X67559375Y-65879375D01*
X67346157Y-66198478D01*
X67285183Y-66068642D01*
X66856924Y-65678355D01*
X66446890Y-65508524D01*
X66217000Y-65629845D01*
X66217000Y-66823000D01*
X66237000Y-66823000D01*
X66237000Y-67077000D01*
X66217000Y-67077000D01*
X66217000Y-68270155D01*
X66446890Y-68391476D01*
X66856924Y-68221645D01*
X67285183Y-67831358D01*
X67346157Y-67701522D01*
X67559375Y-68020625D01*
X68050582Y-68348839D01*
X68483744Y-68435000D01*
X68776256Y-68435000D01*
X69209418Y-68348839D01*
X69700625Y-68020625D01*
X69900000Y-67722239D01*
X70099375Y-68020625D01*
X70590582Y-68348839D01*
X71023744Y-68435000D01*
X71316256Y-68435000D01*
X71749418Y-68348839D01*
X72240625Y-68020625D01*
X72440000Y-67722239D01*
X72639375Y-68020625D01*
X73130582Y-68348839D01*
X73563744Y-68435000D01*
X73856256Y-68435000D01*
X74289418Y-68348839D01*
X74780625Y-68020625D01*
X74980000Y-67722239D01*
X75179375Y-68020625D01*
X75670582Y-68348839D01*
X76103744Y-68435000D01*
X76396256Y-68435000D01*
X76829418Y-68348839D01*
X77320625Y-68020625D01*
X77520000Y-67722239D01*
X77719375Y-68020625D01*
X78210582Y-68348839D01*
X78643744Y-68435000D01*
X78936256Y-68435000D01*
X79205001Y-68381543D01*
X79205001Y-69965000D01*
X79039801Y-69965000D01*
X78665332Y-69590531D01*
X78622930Y-69527072D01*
X78371538Y-69359097D01*
X78149853Y-69315001D01*
X78149848Y-69315001D01*
X78075001Y-69300113D01*
X78000154Y-69315001D01*
X65889803Y-69315001D01*
X64842704Y-68267902D01*
X64857809Y-68257809D01*
X64998157Y-68047765D01*
X65018739Y-67944292D01*
X65323076Y-68221645D01*
X65733110Y-68391476D01*
X65963000Y-68270155D01*
X65963000Y-67077000D01*
X65943000Y-67077000D01*
X65943000Y-66823000D01*
X65963000Y-66823000D01*
X65963000Y-65629845D01*
X65733110Y-65508524D01*
X65323076Y-65678355D01*
X65018739Y-65955708D01*
X64998157Y-65852235D01*
X64857809Y-65642191D01*
X64647765Y-65501843D01*
X64400000Y-65452560D01*
X63837240Y-65452560D01*
X64529800Y-64760000D01*
X68979135Y-64760000D01*
X68965000Y-64794126D01*
X68965000Y-64794126D01*
G37*
X68965000Y-64794126D02*
X68965000Y-65205874D01*
X69098918Y-65529181D01*
X68776256Y-65465000D01*
X68483744Y-65465000D01*
X68050582Y-65551161D01*
X67559375Y-65879375D01*
X67346157Y-66198478D01*
X67285183Y-66068642D01*
X66856924Y-65678355D01*
X66446890Y-65508524D01*
X66217000Y-65629845D01*
X66217000Y-66823000D01*
X66237000Y-66823000D01*
X66237000Y-67077000D01*
X66217000Y-67077000D01*
X66217000Y-68270155D01*
X66446890Y-68391476D01*
X66856924Y-68221645D01*
X67285183Y-67831358D01*
X67346157Y-67701522D01*
X67559375Y-68020625D01*
X68050582Y-68348839D01*
X68483744Y-68435000D01*
X68776256Y-68435000D01*
X69209418Y-68348839D01*
X69700625Y-68020625D01*
X69900000Y-67722239D01*
X70099375Y-68020625D01*
X70590582Y-68348839D01*
X71023744Y-68435000D01*
X71316256Y-68435000D01*
X71749418Y-68348839D01*
X72240625Y-68020625D01*
X72440000Y-67722239D01*
X72639375Y-68020625D01*
X73130582Y-68348839D01*
X73563744Y-68435000D01*
X73856256Y-68435000D01*
X74289418Y-68348839D01*
X74780625Y-68020625D01*
X74980000Y-67722239D01*
X75179375Y-68020625D01*
X75670582Y-68348839D01*
X76103744Y-68435000D01*
X76396256Y-68435000D01*
X76829418Y-68348839D01*
X77320625Y-68020625D01*
X77520000Y-67722239D01*
X77719375Y-68020625D01*
X78210582Y-68348839D01*
X78643744Y-68435000D01*
X78936256Y-68435000D01*
X79205001Y-68381543D01*
X79205001Y-69965000D01*
X79039801Y-69965000D01*
X78665332Y-69590531D01*
X78622930Y-69527072D01*
X78371538Y-69359097D01*
X78149853Y-69315001D01*
X78149848Y-69315001D01*
X78075001Y-69300113D01*
X78000154Y-69315001D01*
X65889803Y-69315001D01*
X64842704Y-68267902D01*
X64857809Y-68257809D01*
X64998157Y-68047765D01*
X65018739Y-67944292D01*
X65323076Y-68221645D01*
X65733110Y-68391476D01*
X65963000Y-68270155D01*
X65963000Y-67077000D01*
X65943000Y-67077000D01*
X65943000Y-66823000D01*
X65963000Y-66823000D01*
X65963000Y-65629845D01*
X65733110Y-65508524D01*
X65323076Y-65678355D01*
X65018739Y-65955708D01*
X64998157Y-65852235D01*
X64857809Y-65642191D01*
X64647765Y-65501843D01*
X64400000Y-65452560D01*
X63837240Y-65452560D01*
X64529800Y-64760000D01*
X68979135Y-64760000D01*
X68965000Y-64794126D01*
G36*
X91902560Y-66088684D02*
X91774306Y-66002987D01*
X91809698Y-65988327D01*
X91902560Y-65895466D01*
X91902560Y-66088684D01*
X91902560Y-66088684D01*
G37*
X91902560Y-66088684D02*
X91774306Y-66002987D01*
X91809698Y-65988327D01*
X91902560Y-65895466D01*
X91902560Y-66088684D01*
G36*
X90875200Y-53565000D02*
X90872998Y-53565000D01*
X90872998Y-53723748D01*
X90714250Y-53565000D01*
X89873691Y-53565000D01*
X89640302Y-53661673D01*
X89461673Y-53840301D01*
X89365000Y-54073690D01*
X89365000Y-54714250D01*
X89523750Y-54873000D01*
X90873000Y-54873000D01*
X90873000Y-54853000D01*
X91127000Y-54853000D01*
X91127000Y-54873000D01*
X91147000Y-54873000D01*
X91147000Y-55127000D01*
X91127000Y-55127000D01*
X91127000Y-56276250D01*
X91233039Y-56382289D01*
X90673847Y-56613914D01*
X90213914Y-57073847D01*
X89965000Y-57674778D01*
X89965000Y-58325222D01*
X90033823Y-58491375D01*
X89165528Y-59359671D01*
X89102072Y-59402071D01*
X89059672Y-59465527D01*
X89059671Y-59465528D01*
X88934097Y-59653463D01*
X88897278Y-59838564D01*
X88760000Y-59930291D01*
X88760000Y-59489844D01*
X88774888Y-59414997D01*
X88760000Y-59340150D01*
X88760000Y-59340146D01*
X88715904Y-59118461D01*
X88547929Y-58867069D01*
X88484473Y-58824669D01*
X86107243Y-56447440D01*
X88000000Y-56447440D01*
X88247765Y-56398157D01*
X88457809Y-56257809D01*
X88598157Y-56047765D01*
X88647440Y-55800000D01*
X88647440Y-55285750D01*
X89365000Y-55285750D01*
X89365000Y-55926310D01*
X89461673Y-56159699D01*
X89640302Y-56338327D01*
X89873691Y-56435000D01*
X90714250Y-56435000D01*
X90873000Y-56276250D01*
X90873000Y-55127000D01*
X89523750Y-55127000D01*
X89365000Y-55285750D01*
X88647440Y-55285750D01*
X88647440Y-54200000D01*
X88598157Y-53952235D01*
X88457809Y-53742191D01*
X88247765Y-53601843D01*
X88000000Y-53552560D01*
X86000000Y-53552560D01*
X85752235Y-53601843D01*
X85557059Y-53732257D01*
X85165330Y-53340529D01*
X85122928Y-53277070D01*
X84871536Y-53109095D01*
X84649851Y-53064999D01*
X84649846Y-53064999D01*
X84574999Y-53050111D01*
X84500152Y-53064999D01*
X79404968Y-53064999D01*
X79521486Y-52816892D01*
X79400819Y-52587000D01*
X78207000Y-52587000D01*
X78207000Y-52607000D01*
X77953000Y-52607000D01*
X77953000Y-52587000D01*
X77933000Y-52587000D01*
X77933000Y-52333000D01*
X77953000Y-52333000D01*
X77953000Y-52313000D01*
X78207000Y-52313000D01*
X78207000Y-52333000D01*
X79400819Y-52333000D01*
X79521486Y-52103108D01*
X79494196Y-52044999D01*
X89355200Y-52044999D01*
X90875200Y-53565000D01*
X90875200Y-53565000D01*
G37*
X90875200Y-53565000D02*
X90872998Y-53565000D01*
X90872998Y-53723748D01*
X90714250Y-53565000D01*
X89873691Y-53565000D01*
X89640302Y-53661673D01*
X89461673Y-53840301D01*
X89365000Y-54073690D01*
X89365000Y-54714250D01*
X89523750Y-54873000D01*
X90873000Y-54873000D01*
X90873000Y-54853000D01*
X91127000Y-54853000D01*
X91127000Y-54873000D01*
X91147000Y-54873000D01*
X91147000Y-55127000D01*
X91127000Y-55127000D01*
X91127000Y-56276250D01*
X91233039Y-56382289D01*
X90673847Y-56613914D01*
X90213914Y-57073847D01*
X89965000Y-57674778D01*
X89965000Y-58325222D01*
X90033823Y-58491375D01*
X89165528Y-59359671D01*
X89102072Y-59402071D01*
X89059672Y-59465527D01*
X89059671Y-59465528D01*
X88934097Y-59653463D01*
X88897278Y-59838564D01*
X88760000Y-59930291D01*
X88760000Y-59489844D01*
X88774888Y-59414997D01*
X88760000Y-59340150D01*
X88760000Y-59340146D01*
X88715904Y-59118461D01*
X88547929Y-58867069D01*
X88484473Y-58824669D01*
X86107243Y-56447440D01*
X88000000Y-56447440D01*
X88247765Y-56398157D01*
X88457809Y-56257809D01*
X88598157Y-56047765D01*
X88647440Y-55800000D01*
X88647440Y-55285750D01*
X89365000Y-55285750D01*
X89365000Y-55926310D01*
X89461673Y-56159699D01*
X89640302Y-56338327D01*
X89873691Y-56435000D01*
X90714250Y-56435000D01*
X90873000Y-56276250D01*
X90873000Y-55127000D01*
X89523750Y-55127000D01*
X89365000Y-55285750D01*
X88647440Y-55285750D01*
X88647440Y-54200000D01*
X88598157Y-53952235D01*
X88457809Y-53742191D01*
X88247765Y-53601843D01*
X88000000Y-53552560D01*
X86000000Y-53552560D01*
X85752235Y-53601843D01*
X85557059Y-53732257D01*
X85165330Y-53340529D01*
X85122928Y-53277070D01*
X84871536Y-53109095D01*
X84649851Y-53064999D01*
X84649846Y-53064999D01*
X84574999Y-53050111D01*
X84500152Y-53064999D01*
X79404968Y-53064999D01*
X79521486Y-52816892D01*
X79400819Y-52587000D01*
X78207000Y-52587000D01*
X78207000Y-52607000D01*
X77953000Y-52607000D01*
X77953000Y-52587000D01*
X77933000Y-52587000D01*
X77933000Y-52333000D01*
X77953000Y-52333000D01*
X77953000Y-52313000D01*
X78207000Y-52313000D01*
X78207000Y-52333000D01*
X79400819Y-52333000D01*
X79521486Y-52103108D01*
X79494196Y-52044999D01*
X89355200Y-52044999D01*
X90875200Y-53565000D01*
G36*
X93620001Y-56309802D02*
X93620001Y-58959934D01*
X93547929Y-58852071D01*
X93484473Y-58809671D01*
X93166177Y-58491375D01*
X93235000Y-58325222D01*
X93235000Y-57674778D01*
X92986086Y-57073847D01*
X92526153Y-56613914D01*
X92094217Y-56435000D01*
X92126309Y-56435000D01*
X92359698Y-56338327D01*
X92538327Y-56159699D01*
X92635000Y-55926310D01*
X92635000Y-55324800D01*
X93620001Y-56309802D01*
X93620001Y-56309802D01*
G37*
X93620001Y-56309802D02*
X93620001Y-58959934D01*
X93547929Y-58852071D01*
X93484473Y-58809671D01*
X93166177Y-58491375D01*
X93235000Y-58325222D01*
X93235000Y-57674778D01*
X92986086Y-57073847D01*
X92526153Y-56613914D01*
X92094217Y-56435000D01*
X92126309Y-56435000D01*
X92359698Y-56338327D01*
X92538327Y-56159699D01*
X92635000Y-55926310D01*
X92635000Y-55324800D01*
X93620001Y-56309802D01*
G36*
X67884671Y-54259473D02*
X67927071Y-54322929D01*
X68077560Y-54423483D01*
X68077560Y-54650000D01*
X68097451Y-54750000D01*
X68077560Y-54850000D01*
X68077560Y-55300000D01*
X68091498Y-55370073D01*
X68090000Y-55373690D01*
X68090000Y-55453750D01*
X68112647Y-55476397D01*
X68126843Y-55547765D01*
X68245269Y-55725000D01*
X68166976Y-55842172D01*
X68035000Y-55710197D01*
X68035000Y-55544124D01*
X67877431Y-55163718D01*
X67586280Y-54872567D01*
X67205874Y-54714998D01*
X66794126Y-54714998D01*
X66413720Y-54872567D01*
X66122569Y-55163718D01*
X65965000Y-55544124D01*
X65965000Y-55955872D01*
X66122569Y-56336278D01*
X66212778Y-56426487D01*
X66137073Y-56477071D01*
X66094673Y-56540527D01*
X63916262Y-58718939D01*
X63908502Y-58679927D01*
X63910000Y-58676310D01*
X63910000Y-58596250D01*
X63887353Y-58573603D01*
X63873157Y-58502235D01*
X63754731Y-58325000D01*
X63873157Y-58147765D01*
X63887353Y-58076397D01*
X63910000Y-58053750D01*
X63910000Y-57973690D01*
X63908502Y-57970073D01*
X63922440Y-57900000D01*
X63922440Y-57450000D01*
X63902549Y-57350000D01*
X63922440Y-57250000D01*
X63922440Y-56800000D01*
X63902549Y-56700000D01*
X63922440Y-56600000D01*
X63922440Y-56150000D01*
X63902549Y-56050000D01*
X63922440Y-55950000D01*
X63922440Y-55500000D01*
X63902549Y-55400000D01*
X63922440Y-55300000D01*
X63922440Y-54850000D01*
X63902549Y-54750000D01*
X63922440Y-54650000D01*
X63922440Y-54200000D01*
X63902549Y-54100000D01*
X63922440Y-54000000D01*
X63922440Y-53984999D01*
X67610198Y-53984999D01*
X67884671Y-54259473D01*
X67884671Y-54259473D01*
G37*
X67884671Y-54259473D02*
X67927071Y-54322929D01*
X68077560Y-54423483D01*
X68077560Y-54650000D01*
X68097451Y-54750000D01*
X68077560Y-54850000D01*
X68077560Y-55300000D01*
X68091498Y-55370073D01*
X68090000Y-55373690D01*
X68090000Y-55453750D01*
X68112647Y-55476397D01*
X68126843Y-55547765D01*
X68245269Y-55725000D01*
X68166976Y-55842172D01*
X68035000Y-55710197D01*
X68035000Y-55544124D01*
X67877431Y-55163718D01*
X67586280Y-54872567D01*
X67205874Y-54714998D01*
X66794126Y-54714998D01*
X66413720Y-54872567D01*
X66122569Y-55163718D01*
X65965000Y-55544124D01*
X65965000Y-55955872D01*
X66122569Y-56336278D01*
X66212778Y-56426487D01*
X66137073Y-56477071D01*
X66094673Y-56540527D01*
X63916262Y-58718939D01*
X63908502Y-58679927D01*
X63910000Y-58676310D01*
X63910000Y-58596250D01*
X63887353Y-58573603D01*
X63873157Y-58502235D01*
X63754731Y-58325000D01*
X63873157Y-58147765D01*
X63887353Y-58076397D01*
X63910000Y-58053750D01*
X63910000Y-57973690D01*
X63908502Y-57970073D01*
X63922440Y-57900000D01*
X63922440Y-57450000D01*
X63902549Y-57350000D01*
X63922440Y-57250000D01*
X63922440Y-56800000D01*
X63902549Y-56700000D01*
X63922440Y-56600000D01*
X63922440Y-56150000D01*
X63902549Y-56050000D01*
X63922440Y-55950000D01*
X63922440Y-55500000D01*
X63902549Y-55400000D01*
X63922440Y-55300000D01*
X63922440Y-54850000D01*
X63902549Y-54750000D01*
X63922440Y-54650000D01*
X63922440Y-54200000D01*
X63902549Y-54100000D01*
X63922440Y-54000000D01*
X63922440Y-53984999D01*
X67610198Y-53984999D01*
X67884671Y-54259473D01*
G36*
X58365000Y-52523000D02*
X59373000Y-52523000D01*
X59373000Y-52503000D01*
X59627000Y-52503000D01*
X59627000Y-52523000D01*
X60635000Y-52523000D01*
X60635000Y-52309990D01*
X68745191Y-52309990D01*
X69337760Y-52902560D01*
X68725000Y-52902560D01*
X68685265Y-52910464D01*
X68515330Y-52740529D01*
X68472928Y-52677070D01*
X68221536Y-52509095D01*
X67999851Y-52464999D01*
X67999846Y-52464999D01*
X67924999Y-52450111D01*
X67850152Y-52464999D01*
X61339847Y-52464999D01*
X61264999Y-52450111D01*
X61190151Y-52464999D01*
X61190147Y-52464999D01*
X61016604Y-52499519D01*
X60968461Y-52509095D01*
X60851869Y-52587000D01*
X60717070Y-52677070D01*
X60674670Y-52740527D01*
X60635000Y-52780196D01*
X60635000Y-52777000D01*
X59627000Y-52777000D01*
X59627000Y-52797000D01*
X59373000Y-52797000D01*
X59373000Y-52777000D01*
X58365000Y-52777000D01*
X58365000Y-52990010D01*
X58064812Y-52990010D01*
X58035000Y-52960198D01*
X58035000Y-52794126D01*
X57877431Y-52413720D01*
X57773701Y-52309990D01*
X58365000Y-52309990D01*
X58365000Y-52523000D01*
X58365000Y-52523000D01*
G37*
X58365000Y-52523000D02*
X59373000Y-52523000D01*
X59373000Y-52503000D01*
X59627000Y-52503000D01*
X59627000Y-52523000D01*
X60635000Y-52523000D01*
X60635000Y-52309990D01*
X68745191Y-52309990D01*
X69337760Y-52902560D01*
X68725000Y-52902560D01*
X68685265Y-52910464D01*
X68515330Y-52740529D01*
X68472928Y-52677070D01*
X68221536Y-52509095D01*
X67999851Y-52464999D01*
X67999846Y-52464999D01*
X67924999Y-52450111D01*
X67850152Y-52464999D01*
X61339847Y-52464999D01*
X61264999Y-52450111D01*
X61190151Y-52464999D01*
X61190147Y-52464999D01*
X61016604Y-52499519D01*
X60968461Y-52509095D01*
X60851869Y-52587000D01*
X60717070Y-52677070D01*
X60674670Y-52740527D01*
X60635000Y-52780196D01*
X60635000Y-52777000D01*
X59627000Y-52777000D01*
X59627000Y-52797000D01*
X59373000Y-52797000D01*
X59373000Y-52777000D01*
X58365000Y-52777000D01*
X58365000Y-52990010D01*
X58064812Y-52990010D01*
X58035000Y-52960198D01*
X58035000Y-52794126D01*
X57877431Y-52413720D01*
X57773701Y-52309990D01*
X58365000Y-52309990D01*
X58365000Y-52523000D01*
G04 #@! TD*
M02*
