M48
;DRILL file {KiCad 5.0.1} date Mon 22 Oct 2018 16:16:28 BST
;FORMAT={-:-/ absolute / inch / decimal}
FMAT,2
INCH,TZ
T1C0.0157
T2C0.0197
T3C0.0217
T4C0.0394
T5C0.0433
%
G90
G05
M72
T1
X2.0866Y-3.0315
X2.126Y-2.5197
X2.126Y-3.4252
X2.126Y-3.5433
X2.2047Y-3.2677
X2.2047Y-3.4252
X2.2047Y-3.5827
X2.2047Y-3.7795
X2.2047Y-4.2126
X2.2441Y-2.0866
X2.2441Y-2.127
X2.2835Y-3.2677
X2.2835Y-3.7008
X2.2835Y-4.2913
X2.3228Y-2.3228
X2.3228Y-3.2283
X2.3622Y-2.2047
X2.3622Y-2.2441
X2.3622Y-3.4646
X2.3622Y-3.5827
X2.3622Y-3.8189
X2.3967Y-3.4252
X2.4016Y-4.2126
X2.4016Y-4.4488
X2.4409Y-3.2283
X2.4409Y-3.5827
X2.4409Y-4.1732
X2.4409Y-5.2362
X2.4803Y-3.5827
X2.5197Y-2.9528
X2.5197Y-3.1102
X2.5197Y-3.5039
X2.5197Y-3.5827
X2.5197Y-4.0551
X2.5531Y-3.5433
X2.5591Y-2.4409
X2.5591Y-2.9134
X2.5817Y-3.7402
X2.5886Y-4.1437
X2.5984Y-3.1496
X2.5984Y-3.8189
X2.5984Y-4.9606
X2.6378Y-2.1949
X2.6378Y-2.4016
X2.6378Y-5.1181
X2.6772Y-3.5039
X2.7067Y-3.7008
X2.7264Y-4.5276
X2.7362Y-3.8091
X2.7559Y-2.5591
X2.7559Y-3.5039
X2.7559Y-4.2913
X2.7657Y-3.7402
X2.7657Y-3.8927
X2.7953Y-2.0472
X2.7953Y-3.189
X2.815Y-3.7402
X2.8346Y-2.3228
X2.8346Y-4.0945
X2.874Y-4.065
X2.874Y-4.5177
X2.874Y-5.5512
X2.9134Y-4.2913
X2.9134Y-5.7087
X2.9139Y-4.0162
X2.9528Y-2.7953
X2.9921Y-3.6614
X2.9921Y-3.7402
X2.9921Y-3.814
X3.0413Y-4.2126
X3.0709Y-2.5197
X3.0709Y-2.7953
X3.0709Y-3.8189
X3.1102Y-2.7953
X3.1102Y-3.6614
X3.1102Y-4.6457
X3.1201Y-4.124
X3.1496Y-2.3228
X3.1496Y-3.937
X3.1496Y-5.748
X3.189Y-2.4803
X3.189Y-2.5591
X3.2197Y-2.7559
X3.2283Y-4.6457
X3.2677Y-2.1654
X3.2677Y-3.2677
X3.2677Y-5.0787
X3.3071Y-3.9764
X3.3071Y-5.1969
X3.3268Y-2.3524
X3.3465Y-5.2756
X3.3465Y-5.5118
X3.3853Y-3.7013
X3.4252Y-4.6063
X3.4252Y-4.7638
X3.5039Y-3.622
X3.5433Y-2.6772
X3.5433Y-4.0945
X3.5827Y-4.1339
X3.5827Y-4.4094
X3.622Y-4.7244
X3.6467Y-4.4488
X3.6614Y-5.
X3.7008Y-3.7795
X3.7008Y-4.7244
T4
X3.2382Y-4.1634
X2.502Y-2.6358
X2.602Y-2.6358
X2.702Y-2.6358
X2.802Y-2.6358
X2.902Y-2.6358
X3.002Y-2.6358
X3.102Y-2.6358
X3.202Y-2.6358
X2.8921Y-4.4094
X2.9921Y-4.4094
X3.0921Y-4.4094
X3.3071Y-2.2835
X3.6063Y-2.2835
X3.2382Y-4.2618
X3.3039Y-4.4094
X3.4039Y-4.4094
X3.5039Y-4.4094
X2.874Y-2.0654
X2.874Y-2.1654
X2.974Y-2.0654
X2.974Y-2.1654
X3.074Y-2.0654
X3.074Y-2.1654
T5
X2.4409Y-5.3346
X2.4409Y-5.5906
X2.6181Y-5.3346
X2.6181Y-5.5906
X2.7953Y-4.9409
X2.7953Y-5.1969
X2.9724Y-4.9409
X2.9724Y-5.1969
X2.0866Y-4.9409
X2.0866Y-5.1969
X2.2638Y-4.9409
X2.2638Y-5.1969
X2.4409Y-4.5472
X2.4409Y-4.8031
X2.6181Y-4.5472
X2.6181Y-4.8031
X3.0906Y-5.4134
X3.0906Y-5.5906
X3.3465Y-5.4134
X3.3465Y-5.5906
X3.4252Y-4.9409
X3.4252Y-5.1969
X3.6024Y-4.9409
X3.6024Y-5.1969
T2
X2.0669Y-2.06G85X2.0669Y-2.0856
G05
X2.3425Y-2.06G85X2.3425Y-2.0856
G05
T3
X2.1122Y-2.1791G85X2.1004Y-2.1791
G05
X2.3091Y-2.1791G85X2.2972Y-2.1791
G05
T0
M30
