G04 #@! TF.GenerationSoftware,KiCad,Pcbnew,5.0.1*
G04 #@! TF.CreationDate,2018-10-22T16:16:30+01:00*
G04 #@! TF.ProjectId,quiz-sch,7175697A2D7363682E6B696361645F70,rev?*
G04 #@! TF.SameCoordinates,Original*
G04 #@! TF.FileFunction,Soldermask,Top*
G04 #@! TF.FilePolarity,Negative*
%FSLAX46Y46*%
G04 Gerber Fmt 4.6, Leading zero omitted, Abs format (unit mm)*
G04 Created by KiCad (PCBNEW 5.0.1) date Mon 22 Oct 2018 16:16:30 BST*
%MOMM*%
%LPD*%
G01*
G04 APERTURE LIST*
%ADD10C,0.100000*%
G04 APERTURE END LIST*
D10*
G36*
X66850026Y-140846115D02*
X67068412Y-140936573D01*
X67264958Y-141067901D01*
X67432099Y-141235042D01*
X67563427Y-141431588D01*
X67653885Y-141649974D01*
X67700000Y-141881809D01*
X67700000Y-142118191D01*
X67653885Y-142350026D01*
X67563427Y-142568412D01*
X67432099Y-142764958D01*
X67264958Y-142932099D01*
X67068412Y-143063427D01*
X66850026Y-143153885D01*
X66618191Y-143200000D01*
X66381809Y-143200000D01*
X66149974Y-143153885D01*
X65931588Y-143063427D01*
X65735042Y-142932099D01*
X65567901Y-142764958D01*
X65436573Y-142568412D01*
X65346115Y-142350026D01*
X65300000Y-142118191D01*
X65300000Y-141881809D01*
X65346115Y-141649974D01*
X65436573Y-141431588D01*
X65567901Y-141235042D01*
X65735042Y-141067901D01*
X65931588Y-140936573D01*
X66149974Y-140846115D01*
X66381809Y-140800000D01*
X66618191Y-140800000D01*
X66850026Y-140846115D01*
X66850026Y-140846115D01*
G37*
G36*
X78850026Y-140846115D02*
X79068412Y-140936573D01*
X79264958Y-141067901D01*
X79432099Y-141235042D01*
X79563427Y-141431588D01*
X79653885Y-141649974D01*
X79700000Y-141881809D01*
X79700000Y-142118191D01*
X79653885Y-142350026D01*
X79563427Y-142568412D01*
X79432099Y-142764958D01*
X79264958Y-142932099D01*
X79068412Y-143063427D01*
X78850026Y-143153885D01*
X78618191Y-143200000D01*
X78381809Y-143200000D01*
X78149974Y-143153885D01*
X77931588Y-143063427D01*
X77735042Y-142932099D01*
X77567901Y-142764958D01*
X77436573Y-142568412D01*
X77346115Y-142350026D01*
X77300000Y-142118191D01*
X77300000Y-141881809D01*
X77346115Y-141649974D01*
X77436573Y-141431588D01*
X77567901Y-141235042D01*
X77735042Y-141067901D01*
X77931588Y-140936573D01*
X78149974Y-140846115D01*
X78381809Y-140800000D01*
X78618191Y-140800000D01*
X78850026Y-140846115D01*
X78850026Y-140846115D01*
G37*
G36*
X85350026Y-140846115D02*
X85568412Y-140936573D01*
X85764958Y-141067901D01*
X85932099Y-141235042D01*
X86063427Y-141431588D01*
X86153885Y-141649974D01*
X86200000Y-141881809D01*
X86200000Y-142118191D01*
X86153885Y-142350026D01*
X86063427Y-142568412D01*
X85932099Y-142764958D01*
X85764958Y-142932099D01*
X85568412Y-143063427D01*
X85350026Y-143153885D01*
X85118191Y-143200000D01*
X84881809Y-143200000D01*
X84649974Y-143153885D01*
X84431588Y-143063427D01*
X84235042Y-142932099D01*
X84067901Y-142764958D01*
X83936573Y-142568412D01*
X83846115Y-142350026D01*
X83800000Y-142118191D01*
X83800000Y-141881809D01*
X83846115Y-141649974D01*
X83936573Y-141431588D01*
X84067901Y-141235042D01*
X84235042Y-141067901D01*
X84431588Y-140936573D01*
X84649974Y-140846115D01*
X84881809Y-140800000D01*
X85118191Y-140800000D01*
X85350026Y-140846115D01*
X85350026Y-140846115D01*
G37*
G36*
X62350026Y-140846115D02*
X62568412Y-140936573D01*
X62764958Y-141067901D01*
X62932099Y-141235042D01*
X63063427Y-141431588D01*
X63153885Y-141649974D01*
X63200000Y-141881809D01*
X63200000Y-142118191D01*
X63153885Y-142350026D01*
X63063427Y-142568412D01*
X62932099Y-142764958D01*
X62764958Y-142932099D01*
X62568412Y-143063427D01*
X62350026Y-143153885D01*
X62118191Y-143200000D01*
X61881809Y-143200000D01*
X61649974Y-143153885D01*
X61431588Y-143063427D01*
X61235042Y-142932099D01*
X61067901Y-142764958D01*
X60936573Y-142568412D01*
X60846115Y-142350026D01*
X60800000Y-142118191D01*
X60800000Y-141881809D01*
X60846115Y-141649974D01*
X60936573Y-141431588D01*
X61067901Y-141235042D01*
X61235042Y-141067901D01*
X61431588Y-140936573D01*
X61649974Y-140846115D01*
X61881809Y-140800000D01*
X62118191Y-140800000D01*
X62350026Y-140846115D01*
X62350026Y-140846115D01*
G37*
G36*
X78850026Y-136346115D02*
X79068412Y-136436573D01*
X79264958Y-136567901D01*
X79432099Y-136735042D01*
X79563427Y-136931588D01*
X79653885Y-137149974D01*
X79700000Y-137381809D01*
X79700000Y-137618191D01*
X79653885Y-137850026D01*
X79563427Y-138068412D01*
X79432099Y-138264958D01*
X79264958Y-138432099D01*
X79068412Y-138563427D01*
X78850026Y-138653885D01*
X78618191Y-138700000D01*
X78381809Y-138700000D01*
X78149974Y-138653885D01*
X77931588Y-138563427D01*
X77735042Y-138432099D01*
X77567901Y-138264958D01*
X77436573Y-138068412D01*
X77346115Y-137850026D01*
X77300000Y-137618191D01*
X77300000Y-137381809D01*
X77346115Y-137149974D01*
X77436573Y-136931588D01*
X77567901Y-136735042D01*
X77735042Y-136567901D01*
X77931588Y-136436573D01*
X78149974Y-136346115D01*
X78381809Y-136300000D01*
X78618191Y-136300000D01*
X78850026Y-136346115D01*
X78850026Y-136346115D01*
G37*
G36*
X85350026Y-136346115D02*
X85568412Y-136436573D01*
X85764958Y-136567901D01*
X85932099Y-136735042D01*
X86063427Y-136931588D01*
X86153885Y-137149974D01*
X86200000Y-137381809D01*
X86200000Y-137618191D01*
X86153885Y-137850026D01*
X86063427Y-138068412D01*
X85932099Y-138264958D01*
X85764958Y-138432099D01*
X85568412Y-138563427D01*
X85350026Y-138653885D01*
X85118191Y-138700000D01*
X84881809Y-138700000D01*
X84649974Y-138653885D01*
X84431588Y-138563427D01*
X84235042Y-138432099D01*
X84067901Y-138264958D01*
X83936573Y-138068412D01*
X83846115Y-137850026D01*
X83800000Y-137618191D01*
X83800000Y-137381809D01*
X83846115Y-137149974D01*
X83936573Y-136931588D01*
X84067901Y-136735042D01*
X84235042Y-136567901D01*
X84431588Y-136436573D01*
X84649974Y-136346115D01*
X84881809Y-136300000D01*
X85118191Y-136300000D01*
X85350026Y-136346115D01*
X85350026Y-136346115D01*
G37*
G36*
X62350026Y-134346115D02*
X62568412Y-134436573D01*
X62764958Y-134567901D01*
X62932099Y-134735042D01*
X63063427Y-134931588D01*
X63153885Y-135149974D01*
X63200000Y-135381809D01*
X63200000Y-135618191D01*
X63153885Y-135850026D01*
X63063427Y-136068412D01*
X62932099Y-136264958D01*
X62764958Y-136432099D01*
X62568412Y-136563427D01*
X62350026Y-136653885D01*
X62118191Y-136700000D01*
X61881809Y-136700000D01*
X61649974Y-136653885D01*
X61431588Y-136563427D01*
X61235042Y-136432099D01*
X61067901Y-136264958D01*
X60936573Y-136068412D01*
X60846115Y-135850026D01*
X60800000Y-135618191D01*
X60800000Y-135381809D01*
X60846115Y-135149974D01*
X60936573Y-134931588D01*
X61067901Y-134735042D01*
X61235042Y-134567901D01*
X61431588Y-134436573D01*
X61649974Y-134346115D01*
X61881809Y-134300000D01*
X62118191Y-134300000D01*
X62350026Y-134346115D01*
X62350026Y-134346115D01*
G37*
G36*
X66850026Y-134346115D02*
X67068412Y-134436573D01*
X67264958Y-134567901D01*
X67432099Y-134735042D01*
X67563427Y-134931588D01*
X67653885Y-135149974D01*
X67700000Y-135381809D01*
X67700000Y-135618191D01*
X67653885Y-135850026D01*
X67563427Y-136068412D01*
X67432099Y-136264958D01*
X67264958Y-136432099D01*
X67068412Y-136563427D01*
X66850026Y-136653885D01*
X66618191Y-136700000D01*
X66381809Y-136700000D01*
X66149974Y-136653885D01*
X65931588Y-136563427D01*
X65735042Y-136432099D01*
X65567901Y-136264958D01*
X65436573Y-136068412D01*
X65346115Y-135850026D01*
X65300000Y-135618191D01*
X65300000Y-135381809D01*
X65346115Y-135149974D01*
X65436573Y-134931588D01*
X65567901Y-134735042D01*
X65735042Y-134567901D01*
X65931588Y-134436573D01*
X66149974Y-134346115D01*
X66381809Y-134300000D01*
X66618191Y-134300000D01*
X66850026Y-134346115D01*
X66850026Y-134346115D01*
G37*
G36*
X71350026Y-130846115D02*
X71568412Y-130936573D01*
X71764958Y-131067901D01*
X71932099Y-131235042D01*
X72063427Y-131431588D01*
X72153885Y-131649974D01*
X72200000Y-131881809D01*
X72200000Y-132118191D01*
X72153885Y-132350026D01*
X72063427Y-132568412D01*
X71932099Y-132764958D01*
X71764958Y-132932099D01*
X71568412Y-133063427D01*
X71350026Y-133153885D01*
X71118191Y-133200000D01*
X70881809Y-133200000D01*
X70649974Y-133153885D01*
X70431588Y-133063427D01*
X70235042Y-132932099D01*
X70067901Y-132764958D01*
X69936573Y-132568412D01*
X69846115Y-132350026D01*
X69800000Y-132118191D01*
X69800000Y-131881809D01*
X69846115Y-131649974D01*
X69936573Y-131431588D01*
X70067901Y-131235042D01*
X70235042Y-131067901D01*
X70431588Y-130936573D01*
X70649974Y-130846115D01*
X70881809Y-130800000D01*
X71118191Y-130800000D01*
X71350026Y-130846115D01*
X71350026Y-130846115D01*
G37*
G36*
X53350026Y-130846115D02*
X53568412Y-130936573D01*
X53764958Y-131067901D01*
X53932099Y-131235042D01*
X54063427Y-131431588D01*
X54153885Y-131649974D01*
X54200000Y-131881809D01*
X54200000Y-132118191D01*
X54153885Y-132350026D01*
X54063427Y-132568412D01*
X53932099Y-132764958D01*
X53764958Y-132932099D01*
X53568412Y-133063427D01*
X53350026Y-133153885D01*
X53118191Y-133200000D01*
X52881809Y-133200000D01*
X52649974Y-133153885D01*
X52431588Y-133063427D01*
X52235042Y-132932099D01*
X52067901Y-132764958D01*
X51936573Y-132568412D01*
X51846115Y-132350026D01*
X51800000Y-132118191D01*
X51800000Y-131881809D01*
X51846115Y-131649974D01*
X51936573Y-131431588D01*
X52067901Y-131235042D01*
X52235042Y-131067901D01*
X52431588Y-130936573D01*
X52649974Y-130846115D01*
X52881809Y-130800000D01*
X53118191Y-130800000D01*
X53350026Y-130846115D01*
X53350026Y-130846115D01*
G37*
G36*
X57850026Y-130846115D02*
X58068412Y-130936573D01*
X58264958Y-131067901D01*
X58432099Y-131235042D01*
X58563427Y-131431588D01*
X58653885Y-131649974D01*
X58700000Y-131881809D01*
X58700000Y-132118191D01*
X58653885Y-132350026D01*
X58563427Y-132568412D01*
X58432099Y-132764958D01*
X58264958Y-132932099D01*
X58068412Y-133063427D01*
X57850026Y-133153885D01*
X57618191Y-133200000D01*
X57381809Y-133200000D01*
X57149974Y-133153885D01*
X56931588Y-133063427D01*
X56735042Y-132932099D01*
X56567901Y-132764958D01*
X56436573Y-132568412D01*
X56346115Y-132350026D01*
X56300000Y-132118191D01*
X56300000Y-131881809D01*
X56346115Y-131649974D01*
X56436573Y-131431588D01*
X56567901Y-131235042D01*
X56735042Y-131067901D01*
X56931588Y-130936573D01*
X57149974Y-130846115D01*
X57381809Y-130800000D01*
X57618191Y-130800000D01*
X57850026Y-130846115D01*
X57850026Y-130846115D01*
G37*
G36*
X75850026Y-130846115D02*
X76068412Y-130936573D01*
X76264958Y-131067901D01*
X76432099Y-131235042D01*
X76563427Y-131431588D01*
X76653885Y-131649974D01*
X76700000Y-131881809D01*
X76700000Y-132118191D01*
X76653885Y-132350026D01*
X76563427Y-132568412D01*
X76432099Y-132764958D01*
X76264958Y-132932099D01*
X76068412Y-133063427D01*
X75850026Y-133153885D01*
X75618191Y-133200000D01*
X75381809Y-133200000D01*
X75149974Y-133153885D01*
X74931588Y-133063427D01*
X74735042Y-132932099D01*
X74567901Y-132764958D01*
X74436573Y-132568412D01*
X74346115Y-132350026D01*
X74300000Y-132118191D01*
X74300000Y-131881809D01*
X74346115Y-131649974D01*
X74436573Y-131431588D01*
X74567901Y-131235042D01*
X74735042Y-131067901D01*
X74931588Y-130936573D01*
X75149974Y-130846115D01*
X75381809Y-130800000D01*
X75618191Y-130800000D01*
X75850026Y-130846115D01*
X75850026Y-130846115D01*
G37*
G36*
X91850026Y-130846115D02*
X92068412Y-130936573D01*
X92264958Y-131067901D01*
X92432099Y-131235042D01*
X92563427Y-131431588D01*
X92653885Y-131649974D01*
X92700000Y-131881809D01*
X92700000Y-132118191D01*
X92653885Y-132350026D01*
X92563427Y-132568412D01*
X92432099Y-132764958D01*
X92264958Y-132932099D01*
X92068412Y-133063427D01*
X91850026Y-133153885D01*
X91618191Y-133200000D01*
X91381809Y-133200000D01*
X91149974Y-133153885D01*
X90931588Y-133063427D01*
X90735042Y-132932099D01*
X90567901Y-132764958D01*
X90436573Y-132568412D01*
X90346115Y-132350026D01*
X90300000Y-132118191D01*
X90300000Y-131881809D01*
X90346115Y-131649974D01*
X90436573Y-131431588D01*
X90567901Y-131235042D01*
X90735042Y-131067901D01*
X90931588Y-130936573D01*
X91149974Y-130846115D01*
X91381809Y-130800000D01*
X91618191Y-130800000D01*
X91850026Y-130846115D01*
X91850026Y-130846115D01*
G37*
G36*
X87350026Y-130846115D02*
X87568412Y-130936573D01*
X87764958Y-131067901D01*
X87932099Y-131235042D01*
X88063427Y-131431588D01*
X88153885Y-131649974D01*
X88200000Y-131881809D01*
X88200000Y-132118191D01*
X88153885Y-132350026D01*
X88063427Y-132568412D01*
X87932099Y-132764958D01*
X87764958Y-132932099D01*
X87568412Y-133063427D01*
X87350026Y-133153885D01*
X87118191Y-133200000D01*
X86881809Y-133200000D01*
X86649974Y-133153885D01*
X86431588Y-133063427D01*
X86235042Y-132932099D01*
X86067901Y-132764958D01*
X85936573Y-132568412D01*
X85846115Y-132350026D01*
X85800000Y-132118191D01*
X85800000Y-131881809D01*
X85846115Y-131649974D01*
X85936573Y-131431588D01*
X86067901Y-131235042D01*
X86235042Y-131067901D01*
X86431588Y-130936573D01*
X86649974Y-130846115D01*
X86881809Y-130800000D01*
X87118191Y-130800000D01*
X87350026Y-130846115D01*
X87350026Y-130846115D01*
G37*
G36*
X91850026Y-124346115D02*
X92068412Y-124436573D01*
X92264958Y-124567901D01*
X92432099Y-124735042D01*
X92563427Y-124931588D01*
X92653885Y-125149974D01*
X92700000Y-125381809D01*
X92700000Y-125618191D01*
X92653885Y-125850026D01*
X92563427Y-126068412D01*
X92432099Y-126264958D01*
X92264958Y-126432099D01*
X92068412Y-126563427D01*
X91850026Y-126653885D01*
X91618191Y-126700000D01*
X91381809Y-126700000D01*
X91149974Y-126653885D01*
X90931588Y-126563427D01*
X90735042Y-126432099D01*
X90567901Y-126264958D01*
X90436573Y-126068412D01*
X90346115Y-125850026D01*
X90300000Y-125618191D01*
X90300000Y-125381809D01*
X90346115Y-125149974D01*
X90436573Y-124931588D01*
X90567901Y-124735042D01*
X90735042Y-124567901D01*
X90931588Y-124436573D01*
X91149974Y-124346115D01*
X91381809Y-124300000D01*
X91618191Y-124300000D01*
X91850026Y-124346115D01*
X91850026Y-124346115D01*
G37*
G36*
X71350026Y-124346115D02*
X71568412Y-124436573D01*
X71764958Y-124567901D01*
X71932099Y-124735042D01*
X72063427Y-124931588D01*
X72153885Y-125149974D01*
X72200000Y-125381809D01*
X72200000Y-125618191D01*
X72153885Y-125850026D01*
X72063427Y-126068412D01*
X71932099Y-126264958D01*
X71764958Y-126432099D01*
X71568412Y-126563427D01*
X71350026Y-126653885D01*
X71118191Y-126700000D01*
X70881809Y-126700000D01*
X70649974Y-126653885D01*
X70431588Y-126563427D01*
X70235042Y-126432099D01*
X70067901Y-126264958D01*
X69936573Y-126068412D01*
X69846115Y-125850026D01*
X69800000Y-125618191D01*
X69800000Y-125381809D01*
X69846115Y-125149974D01*
X69936573Y-124931588D01*
X70067901Y-124735042D01*
X70235042Y-124567901D01*
X70431588Y-124436573D01*
X70649974Y-124346115D01*
X70881809Y-124300000D01*
X71118191Y-124300000D01*
X71350026Y-124346115D01*
X71350026Y-124346115D01*
G37*
G36*
X75850026Y-124346115D02*
X76068412Y-124436573D01*
X76264958Y-124567901D01*
X76432099Y-124735042D01*
X76563427Y-124931588D01*
X76653885Y-125149974D01*
X76700000Y-125381809D01*
X76700000Y-125618191D01*
X76653885Y-125850026D01*
X76563427Y-126068412D01*
X76432099Y-126264958D01*
X76264958Y-126432099D01*
X76068412Y-126563427D01*
X75850026Y-126653885D01*
X75618191Y-126700000D01*
X75381809Y-126700000D01*
X75149974Y-126653885D01*
X74931588Y-126563427D01*
X74735042Y-126432099D01*
X74567901Y-126264958D01*
X74436573Y-126068412D01*
X74346115Y-125850026D01*
X74300000Y-125618191D01*
X74300000Y-125381809D01*
X74346115Y-125149974D01*
X74436573Y-124931588D01*
X74567901Y-124735042D01*
X74735042Y-124567901D01*
X74931588Y-124436573D01*
X75149974Y-124346115D01*
X75381809Y-124300000D01*
X75618191Y-124300000D01*
X75850026Y-124346115D01*
X75850026Y-124346115D01*
G37*
G36*
X53350026Y-124346115D02*
X53568412Y-124436573D01*
X53764958Y-124567901D01*
X53932099Y-124735042D01*
X54063427Y-124931588D01*
X54153885Y-125149974D01*
X54200000Y-125381809D01*
X54200000Y-125618191D01*
X54153885Y-125850026D01*
X54063427Y-126068412D01*
X53932099Y-126264958D01*
X53764958Y-126432099D01*
X53568412Y-126563427D01*
X53350026Y-126653885D01*
X53118191Y-126700000D01*
X52881809Y-126700000D01*
X52649974Y-126653885D01*
X52431588Y-126563427D01*
X52235042Y-126432099D01*
X52067901Y-126264958D01*
X51936573Y-126068412D01*
X51846115Y-125850026D01*
X51800000Y-125618191D01*
X51800000Y-125381809D01*
X51846115Y-125149974D01*
X51936573Y-124931588D01*
X52067901Y-124735042D01*
X52235042Y-124567901D01*
X52431588Y-124436573D01*
X52649974Y-124346115D01*
X52881809Y-124300000D01*
X53118191Y-124300000D01*
X53350026Y-124346115D01*
X53350026Y-124346115D01*
G37*
G36*
X87350026Y-124346115D02*
X87568412Y-124436573D01*
X87764958Y-124567901D01*
X87932099Y-124735042D01*
X88063427Y-124931588D01*
X88153885Y-125149974D01*
X88200000Y-125381809D01*
X88200000Y-125618191D01*
X88153885Y-125850026D01*
X88063427Y-126068412D01*
X87932099Y-126264958D01*
X87764958Y-126432099D01*
X87568412Y-126563427D01*
X87350026Y-126653885D01*
X87118191Y-126700000D01*
X86881809Y-126700000D01*
X86649974Y-126653885D01*
X86431588Y-126563427D01*
X86235042Y-126432099D01*
X86067901Y-126264958D01*
X85936573Y-126068412D01*
X85846115Y-125850026D01*
X85800000Y-125618191D01*
X85800000Y-125381809D01*
X85846115Y-125149974D01*
X85936573Y-124931588D01*
X86067901Y-124735042D01*
X86235042Y-124567901D01*
X86431588Y-124436573D01*
X86649974Y-124346115D01*
X86881809Y-124300000D01*
X87118191Y-124300000D01*
X87350026Y-124346115D01*
X87350026Y-124346115D01*
G37*
G36*
X57850026Y-124346115D02*
X58068412Y-124436573D01*
X58264958Y-124567901D01*
X58432099Y-124735042D01*
X58563427Y-124931588D01*
X58653885Y-125149974D01*
X58700000Y-125381809D01*
X58700000Y-125618191D01*
X58653885Y-125850026D01*
X58563427Y-126068412D01*
X58432099Y-126264958D01*
X58264958Y-126432099D01*
X58068412Y-126563427D01*
X57850026Y-126653885D01*
X57618191Y-126700000D01*
X57381809Y-126700000D01*
X57149974Y-126653885D01*
X56931588Y-126563427D01*
X56735042Y-126432099D01*
X56567901Y-126264958D01*
X56436573Y-126068412D01*
X56346115Y-125850026D01*
X56300000Y-125618191D01*
X56300000Y-125381809D01*
X56346115Y-125149974D01*
X56436573Y-124931588D01*
X56567901Y-124735042D01*
X56735042Y-124567901D01*
X56931588Y-124436573D01*
X57149974Y-124346115D01*
X57381809Y-124300000D01*
X57618191Y-124300000D01*
X57850026Y-124346115D01*
X57850026Y-124346115D01*
G37*
G36*
X66850026Y-120846115D02*
X67068412Y-120936573D01*
X67264958Y-121067901D01*
X67432099Y-121235042D01*
X67563427Y-121431588D01*
X67653885Y-121649974D01*
X67700000Y-121881809D01*
X67700000Y-122118191D01*
X67653885Y-122350026D01*
X67563427Y-122568412D01*
X67432099Y-122764958D01*
X67264958Y-122932099D01*
X67068412Y-123063427D01*
X66850026Y-123153885D01*
X66618191Y-123200000D01*
X66381809Y-123200000D01*
X66149974Y-123153885D01*
X65931588Y-123063427D01*
X65735042Y-122932099D01*
X65567901Y-122764958D01*
X65436573Y-122568412D01*
X65346115Y-122350026D01*
X65300000Y-122118191D01*
X65300000Y-121881809D01*
X65346115Y-121649974D01*
X65436573Y-121431588D01*
X65567901Y-121235042D01*
X65735042Y-121067901D01*
X65931588Y-120936573D01*
X66149974Y-120846115D01*
X66381809Y-120800000D01*
X66618191Y-120800000D01*
X66850026Y-120846115D01*
X66850026Y-120846115D01*
G37*
G36*
X62350026Y-120846115D02*
X62568412Y-120936573D01*
X62764958Y-121067901D01*
X62932099Y-121235042D01*
X63063427Y-121431588D01*
X63153885Y-121649974D01*
X63200000Y-121881809D01*
X63200000Y-122118191D01*
X63153885Y-122350026D01*
X63063427Y-122568412D01*
X62932099Y-122764958D01*
X62764958Y-122932099D01*
X62568412Y-123063427D01*
X62350026Y-123153885D01*
X62118191Y-123200000D01*
X61881809Y-123200000D01*
X61649974Y-123153885D01*
X61431588Y-123063427D01*
X61235042Y-122932099D01*
X61067901Y-122764958D01*
X60936573Y-122568412D01*
X60846115Y-122350026D01*
X60800000Y-122118191D01*
X60800000Y-121881809D01*
X60846115Y-121649974D01*
X60936573Y-121431588D01*
X61067901Y-121235042D01*
X61235042Y-121067901D01*
X61431588Y-120936573D01*
X61649974Y-120846115D01*
X61881809Y-120800000D01*
X62118191Y-120800000D01*
X62350026Y-120846115D01*
X62350026Y-120846115D01*
G37*
G36*
X91600000Y-118850000D02*
X89700000Y-118850000D01*
X89700000Y-117150000D01*
X91600000Y-117150000D01*
X91600000Y-118850000D01*
X91600000Y-118850000D01*
G37*
G36*
X94300000Y-118850000D02*
X92400000Y-118850000D01*
X92400000Y-117150000D01*
X94300000Y-117150000D01*
X94300000Y-118850000D01*
X94300000Y-118850000D01*
G37*
G36*
X91600000Y-116850000D02*
X89700000Y-116850000D01*
X89700000Y-115150000D01*
X91600000Y-115150000D01*
X91600000Y-116850000D01*
X91600000Y-116850000D01*
G37*
G36*
X94300000Y-116850000D02*
X92400000Y-116850000D01*
X92400000Y-115150000D01*
X94300000Y-115150000D01*
X94300000Y-116850000D01*
X94300000Y-116850000D01*
G37*
G36*
X77250000Y-116850000D02*
X75350000Y-116850000D01*
X75350000Y-115150000D01*
X77250000Y-115150000D01*
X77250000Y-116850000D01*
X77250000Y-116850000D01*
G37*
G36*
X79950000Y-116850000D02*
X78050000Y-116850000D01*
X78050000Y-115150000D01*
X79950000Y-115150000D01*
X79950000Y-116850000D01*
X79950000Y-116850000D01*
G37*
G36*
X62350026Y-114346115D02*
X62568412Y-114436573D01*
X62764958Y-114567901D01*
X62932099Y-114735042D01*
X63063427Y-114931588D01*
X63153885Y-115149974D01*
X63200000Y-115381809D01*
X63200000Y-115618191D01*
X63153885Y-115850026D01*
X63063427Y-116068412D01*
X62932099Y-116264958D01*
X62764958Y-116432099D01*
X62568412Y-116563427D01*
X62350026Y-116653885D01*
X62118191Y-116700000D01*
X61881809Y-116700000D01*
X61649974Y-116653885D01*
X61431588Y-116563427D01*
X61235042Y-116432099D01*
X61067901Y-116264958D01*
X60936573Y-116068412D01*
X60846115Y-115850026D01*
X60800000Y-115618191D01*
X60800000Y-115381809D01*
X60846115Y-115149974D01*
X60936573Y-114931588D01*
X61067901Y-114735042D01*
X61235042Y-114567901D01*
X61431588Y-114436573D01*
X61649974Y-114346115D01*
X61881809Y-114300000D01*
X62118191Y-114300000D01*
X62350026Y-114346115D01*
X62350026Y-114346115D01*
G37*
G36*
X66850026Y-114346115D02*
X67068412Y-114436573D01*
X67264958Y-114567901D01*
X67432099Y-114735042D01*
X67563427Y-114931588D01*
X67653885Y-115149974D01*
X67700000Y-115381809D01*
X67700000Y-115618191D01*
X67653885Y-115850026D01*
X67563427Y-116068412D01*
X67432099Y-116264958D01*
X67264958Y-116432099D01*
X67068412Y-116563427D01*
X66850026Y-116653885D01*
X66618191Y-116700000D01*
X66381809Y-116700000D01*
X66149974Y-116653885D01*
X65931588Y-116563427D01*
X65735042Y-116432099D01*
X65567901Y-116264958D01*
X65436573Y-116068412D01*
X65346115Y-115850026D01*
X65300000Y-115618191D01*
X65300000Y-115381809D01*
X65346115Y-115149974D01*
X65436573Y-114931588D01*
X65567901Y-114735042D01*
X65735042Y-114567901D01*
X65931588Y-114436573D01*
X66149974Y-114346115D01*
X66381809Y-114300000D01*
X66618191Y-114300000D01*
X66850026Y-114346115D01*
X66850026Y-114346115D01*
G37*
G36*
X76128707Y-110957597D02*
X76205836Y-110965193D01*
X76337787Y-111005220D01*
X76403763Y-111025233D01*
X76586172Y-111122733D01*
X76746054Y-111253946D01*
X76877267Y-111413828D01*
X76974767Y-111596237D01*
X76974767Y-111596238D01*
X77034807Y-111794164D01*
X77055080Y-112000000D01*
X77034807Y-112205836D01*
X76994780Y-112337787D01*
X76974767Y-112403763D01*
X76877267Y-112586172D01*
X76746054Y-112746054D01*
X76586172Y-112877267D01*
X76403763Y-112974767D01*
X76337787Y-112994780D01*
X76205836Y-113034807D01*
X76128707Y-113042404D01*
X76051580Y-113050000D01*
X75948420Y-113050000D01*
X75871293Y-113042404D01*
X75794164Y-113034807D01*
X75662213Y-112994780D01*
X75596237Y-112974767D01*
X75413828Y-112877267D01*
X75253946Y-112746054D01*
X75122733Y-112586172D01*
X75025233Y-112403763D01*
X75005220Y-112337787D01*
X74965193Y-112205836D01*
X74944920Y-112000000D01*
X74965193Y-111794164D01*
X75025233Y-111596238D01*
X75025233Y-111596237D01*
X75122733Y-111413828D01*
X75253946Y-111253946D01*
X75413828Y-111122733D01*
X75596237Y-111025233D01*
X75662213Y-111005220D01*
X75794164Y-110965193D01*
X75871293Y-110957597D01*
X75948420Y-110950000D01*
X76051580Y-110950000D01*
X76128707Y-110957597D01*
X76128707Y-110957597D01*
G37*
G36*
X78668707Y-110957597D02*
X78745836Y-110965193D01*
X78877787Y-111005220D01*
X78943763Y-111025233D01*
X79126172Y-111122733D01*
X79286054Y-111253946D01*
X79417267Y-111413828D01*
X79514767Y-111596237D01*
X79514767Y-111596238D01*
X79574807Y-111794164D01*
X79595080Y-112000000D01*
X79574807Y-112205836D01*
X79534780Y-112337787D01*
X79514767Y-112403763D01*
X79417267Y-112586172D01*
X79286054Y-112746054D01*
X79126172Y-112877267D01*
X78943763Y-112974767D01*
X78877787Y-112994780D01*
X78745836Y-113034807D01*
X78668707Y-113042404D01*
X78591580Y-113050000D01*
X78488420Y-113050000D01*
X78411293Y-113042404D01*
X78334164Y-113034807D01*
X78202213Y-112994780D01*
X78136237Y-112974767D01*
X77953828Y-112877267D01*
X77793946Y-112746054D01*
X77662733Y-112586172D01*
X77565233Y-112403763D01*
X77545220Y-112337787D01*
X77505193Y-112205836D01*
X77484920Y-112000000D01*
X77505193Y-111794164D01*
X77565233Y-111596238D01*
X77565233Y-111596237D01*
X77662733Y-111413828D01*
X77793946Y-111253946D01*
X77953828Y-111122733D01*
X78136237Y-111025233D01*
X78202213Y-111005220D01*
X78334164Y-110965193D01*
X78411293Y-110957597D01*
X78488420Y-110950000D01*
X78591580Y-110950000D01*
X78668707Y-110957597D01*
X78668707Y-110957597D01*
G37*
G36*
X84048707Y-110957597D02*
X84125836Y-110965193D01*
X84257787Y-111005220D01*
X84323763Y-111025233D01*
X84506172Y-111122733D01*
X84666054Y-111253946D01*
X84797267Y-111413828D01*
X84894767Y-111596237D01*
X84894767Y-111596238D01*
X84954807Y-111794164D01*
X84975080Y-112000000D01*
X84954807Y-112205836D01*
X84914780Y-112337787D01*
X84894767Y-112403763D01*
X84797267Y-112586172D01*
X84666054Y-112746054D01*
X84506172Y-112877267D01*
X84323763Y-112974767D01*
X84257787Y-112994780D01*
X84125836Y-113034807D01*
X84048707Y-113042404D01*
X83971580Y-113050000D01*
X83868420Y-113050000D01*
X83791293Y-113042404D01*
X83714164Y-113034807D01*
X83582213Y-112994780D01*
X83516237Y-112974767D01*
X83333828Y-112877267D01*
X83173946Y-112746054D01*
X83042733Y-112586172D01*
X82945233Y-112403763D01*
X82925220Y-112337787D01*
X82885193Y-112205836D01*
X82864920Y-112000000D01*
X82885193Y-111794164D01*
X82945233Y-111596238D01*
X82945233Y-111596237D01*
X83042733Y-111413828D01*
X83173946Y-111253946D01*
X83333828Y-111122733D01*
X83516237Y-111025233D01*
X83582213Y-111005220D01*
X83714164Y-110965193D01*
X83791293Y-110957597D01*
X83868420Y-110950000D01*
X83971580Y-110950000D01*
X84048707Y-110957597D01*
X84048707Y-110957597D01*
G37*
G36*
X86588707Y-110957597D02*
X86665836Y-110965193D01*
X86797787Y-111005220D01*
X86863763Y-111025233D01*
X87046172Y-111122733D01*
X87206054Y-111253946D01*
X87337267Y-111413828D01*
X87434767Y-111596237D01*
X87434767Y-111596238D01*
X87494807Y-111794164D01*
X87515080Y-112000000D01*
X87494807Y-112205836D01*
X87454780Y-112337787D01*
X87434767Y-112403763D01*
X87337267Y-112586172D01*
X87206054Y-112746054D01*
X87046172Y-112877267D01*
X86863763Y-112974767D01*
X86797787Y-112994780D01*
X86665836Y-113034807D01*
X86588707Y-113042404D01*
X86511580Y-113050000D01*
X86408420Y-113050000D01*
X86331293Y-113042404D01*
X86254164Y-113034807D01*
X86122213Y-112994780D01*
X86056237Y-112974767D01*
X85873828Y-112877267D01*
X85713946Y-112746054D01*
X85582733Y-112586172D01*
X85485233Y-112403763D01*
X85465220Y-112337787D01*
X85425193Y-112205836D01*
X85404920Y-112000000D01*
X85425193Y-111794164D01*
X85485233Y-111596238D01*
X85485233Y-111596237D01*
X85582733Y-111413828D01*
X85713946Y-111253946D01*
X85873828Y-111122733D01*
X86056237Y-111025233D01*
X86122213Y-111005220D01*
X86254164Y-110965193D01*
X86331293Y-110957597D01*
X86408420Y-110950000D01*
X86511580Y-110950000D01*
X86588707Y-110957597D01*
X86588707Y-110957597D01*
G37*
G36*
X90050000Y-113050000D02*
X87950000Y-113050000D01*
X87950000Y-110950000D01*
X90050000Y-110950000D01*
X90050000Y-113050000D01*
X90050000Y-113050000D01*
G37*
G36*
X74510000Y-113050000D02*
X72410000Y-113050000D01*
X72410000Y-110950000D01*
X74510000Y-110950000D01*
X74510000Y-113050000D01*
X74510000Y-113050000D01*
G37*
G36*
X66900000Y-111850000D02*
X65000000Y-111850000D01*
X65000000Y-110150000D01*
X66900000Y-110150000D01*
X66900000Y-111850000D01*
X66900000Y-111850000D01*
G37*
G36*
X69600000Y-111850000D02*
X67700000Y-111850000D01*
X67700000Y-110150000D01*
X69600000Y-110150000D01*
X69600000Y-111850000D01*
X69600000Y-111850000D01*
G37*
G36*
X83300000Y-109300000D02*
X81200000Y-109300000D01*
X81200000Y-107200000D01*
X83300000Y-107200000D01*
X83300000Y-109300000D01*
X83300000Y-109300000D01*
G37*
G36*
X83300000Y-106800000D02*
X81200000Y-106800000D01*
X81200000Y-104700000D01*
X83300000Y-104700000D01*
X83300000Y-106800000D01*
X83300000Y-106800000D01*
G37*
G36*
X78050000Y-91250000D02*
X75650000Y-91250000D01*
X75650000Y-89350000D01*
X78050000Y-89350000D01*
X78050000Y-91250000D01*
X78050000Y-91250000D01*
G37*
G36*
X84350000Y-90100000D02*
X81950000Y-90100000D01*
X81950000Y-85900000D01*
X84350000Y-85900000D01*
X84350000Y-90100000D01*
X84350000Y-90100000D01*
G37*
G36*
X78050000Y-88950000D02*
X75650000Y-88950000D01*
X75650000Y-87050000D01*
X78050000Y-87050000D01*
X78050000Y-88950000D01*
X78050000Y-88950000D01*
G37*
G36*
X78050000Y-86650000D02*
X75650000Y-86650000D01*
X75650000Y-84750000D01*
X78050000Y-84750000D01*
X78050000Y-86650000D01*
X78050000Y-86650000D01*
G37*
G36*
X66600000Y-82850000D02*
X64700000Y-82850000D01*
X64700000Y-81150000D01*
X66600000Y-81150000D01*
X66600000Y-82850000D01*
X66600000Y-82850000D01*
G37*
G36*
X69300000Y-82850000D02*
X67400000Y-82850000D01*
X67400000Y-81150000D01*
X69300000Y-81150000D01*
X69300000Y-82850000D01*
X69300000Y-82850000D01*
G37*
G36*
X76675000Y-79650000D02*
X75675000Y-79650000D01*
X75675000Y-77750000D01*
X76675000Y-77750000D01*
X76675000Y-79650000D01*
X76675000Y-79650000D01*
G37*
G36*
X71595000Y-79650000D02*
X70595000Y-79650000D01*
X70595000Y-77750000D01*
X71595000Y-77750000D01*
X71595000Y-79650000D01*
X71595000Y-79650000D01*
G37*
G36*
X77945000Y-79650000D02*
X76945000Y-79650000D01*
X76945000Y-77750000D01*
X77945000Y-77750000D01*
X77945000Y-79650000D01*
X77945000Y-79650000D01*
G37*
G36*
X74135000Y-79650000D02*
X73135000Y-79650000D01*
X73135000Y-77750000D01*
X74135000Y-77750000D01*
X74135000Y-79650000D01*
X74135000Y-79650000D01*
G37*
G36*
X72865000Y-79650000D02*
X71865000Y-79650000D01*
X71865000Y-77750000D01*
X72865000Y-77750000D01*
X72865000Y-79650000D01*
X72865000Y-79650000D01*
G37*
G36*
X75405000Y-79650000D02*
X74405000Y-79650000D01*
X74405000Y-77750000D01*
X75405000Y-77750000D01*
X75405000Y-79650000D01*
X75405000Y-79650000D01*
G37*
G36*
X70325000Y-79650000D02*
X69325000Y-79650000D01*
X69325000Y-77750000D01*
X70325000Y-77750000D01*
X70325000Y-79650000D01*
X70325000Y-79650000D01*
G37*
G36*
X69055000Y-79650000D02*
X68055000Y-79650000D01*
X68055000Y-77750000D01*
X69055000Y-77750000D01*
X69055000Y-79650000D01*
X69055000Y-79650000D01*
G37*
G36*
X71595000Y-74250000D02*
X70595000Y-74250000D01*
X70595000Y-72350000D01*
X71595000Y-72350000D01*
X71595000Y-74250000D01*
X71595000Y-74250000D01*
G37*
G36*
X72865000Y-74250000D02*
X71865000Y-74250000D01*
X71865000Y-72350000D01*
X72865000Y-72350000D01*
X72865000Y-74250000D01*
X72865000Y-74250000D01*
G37*
G36*
X70325000Y-74250000D02*
X69325000Y-74250000D01*
X69325000Y-72350000D01*
X70325000Y-72350000D01*
X70325000Y-74250000D01*
X70325000Y-74250000D01*
G37*
G36*
X69055000Y-74250000D02*
X68055000Y-74250000D01*
X68055000Y-72350000D01*
X69055000Y-72350000D01*
X69055000Y-74250000D01*
X69055000Y-74250000D01*
G37*
G36*
X74135000Y-74250000D02*
X73135000Y-74250000D01*
X73135000Y-72350000D01*
X74135000Y-72350000D01*
X74135000Y-74250000D01*
X74135000Y-74250000D01*
G37*
G36*
X76675000Y-74250000D02*
X75675000Y-74250000D01*
X75675000Y-72350000D01*
X76675000Y-72350000D01*
X76675000Y-74250000D01*
X76675000Y-74250000D01*
G37*
G36*
X77945000Y-74250000D02*
X76945000Y-74250000D01*
X76945000Y-72350000D01*
X77945000Y-72350000D01*
X77945000Y-74250000D01*
X77945000Y-74250000D01*
G37*
G36*
X75405000Y-74250000D02*
X74405000Y-74250000D01*
X74405000Y-72350000D01*
X75405000Y-72350000D01*
X75405000Y-74250000D01*
X75405000Y-74250000D01*
G37*
G36*
X64600000Y-68000000D02*
X62500000Y-68000000D01*
X62500000Y-65900000D01*
X64600000Y-65900000D01*
X64600000Y-68000000D01*
X64600000Y-68000000D01*
G37*
G36*
X71298707Y-65907596D02*
X71375836Y-65915193D01*
X71507787Y-65955220D01*
X71573763Y-65975233D01*
X71756172Y-66072733D01*
X71916054Y-66203946D01*
X72047267Y-66363828D01*
X72144767Y-66546237D01*
X72144767Y-66546238D01*
X72204807Y-66744164D01*
X72225080Y-66950000D01*
X72204807Y-67155836D01*
X72164780Y-67287787D01*
X72144767Y-67353763D01*
X72047267Y-67536172D01*
X71916054Y-67696054D01*
X71756172Y-67827267D01*
X71573763Y-67924767D01*
X71507787Y-67944780D01*
X71375836Y-67984807D01*
X71298707Y-67992403D01*
X71221580Y-68000000D01*
X71118420Y-68000000D01*
X71041293Y-67992403D01*
X70964164Y-67984807D01*
X70832213Y-67944780D01*
X70766237Y-67924767D01*
X70583828Y-67827267D01*
X70423946Y-67696054D01*
X70292733Y-67536172D01*
X70195233Y-67353763D01*
X70175220Y-67287787D01*
X70135193Y-67155836D01*
X70114920Y-66950000D01*
X70135193Y-66744164D01*
X70195233Y-66546238D01*
X70195233Y-66546237D01*
X70292733Y-66363828D01*
X70423946Y-66203946D01*
X70583828Y-66072733D01*
X70766237Y-65975233D01*
X70832213Y-65955220D01*
X70964164Y-65915193D01*
X71041293Y-65907596D01*
X71118420Y-65900000D01*
X71221580Y-65900000D01*
X71298707Y-65907596D01*
X71298707Y-65907596D01*
G37*
G36*
X68758707Y-65907596D02*
X68835836Y-65915193D01*
X68967787Y-65955220D01*
X69033763Y-65975233D01*
X69216172Y-66072733D01*
X69376054Y-66203946D01*
X69507267Y-66363828D01*
X69604767Y-66546237D01*
X69604767Y-66546238D01*
X69664807Y-66744164D01*
X69685080Y-66950000D01*
X69664807Y-67155836D01*
X69624780Y-67287787D01*
X69604767Y-67353763D01*
X69507267Y-67536172D01*
X69376054Y-67696054D01*
X69216172Y-67827267D01*
X69033763Y-67924767D01*
X68967787Y-67944780D01*
X68835836Y-67984807D01*
X68758707Y-67992403D01*
X68681580Y-68000000D01*
X68578420Y-68000000D01*
X68501293Y-67992403D01*
X68424164Y-67984807D01*
X68292213Y-67944780D01*
X68226237Y-67924767D01*
X68043828Y-67827267D01*
X67883946Y-67696054D01*
X67752733Y-67536172D01*
X67655233Y-67353763D01*
X67635220Y-67287787D01*
X67595193Y-67155836D01*
X67574920Y-66950000D01*
X67595193Y-66744164D01*
X67655233Y-66546238D01*
X67655233Y-66546237D01*
X67752733Y-66363828D01*
X67883946Y-66203946D01*
X68043828Y-66072733D01*
X68226237Y-65975233D01*
X68292213Y-65955220D01*
X68424164Y-65915193D01*
X68501293Y-65907596D01*
X68578420Y-65900000D01*
X68681580Y-65900000D01*
X68758707Y-65907596D01*
X68758707Y-65907596D01*
G37*
G36*
X73838707Y-65907596D02*
X73915836Y-65915193D01*
X74047787Y-65955220D01*
X74113763Y-65975233D01*
X74296172Y-66072733D01*
X74456054Y-66203946D01*
X74587267Y-66363828D01*
X74684767Y-66546237D01*
X74684767Y-66546238D01*
X74744807Y-66744164D01*
X74765080Y-66950000D01*
X74744807Y-67155836D01*
X74704780Y-67287787D01*
X74684767Y-67353763D01*
X74587267Y-67536172D01*
X74456054Y-67696054D01*
X74296172Y-67827267D01*
X74113763Y-67924767D01*
X74047787Y-67944780D01*
X73915836Y-67984807D01*
X73838707Y-67992403D01*
X73761580Y-68000000D01*
X73658420Y-68000000D01*
X73581293Y-67992403D01*
X73504164Y-67984807D01*
X73372213Y-67944780D01*
X73306237Y-67924767D01*
X73123828Y-67827267D01*
X72963946Y-67696054D01*
X72832733Y-67536172D01*
X72735233Y-67353763D01*
X72715220Y-67287787D01*
X72675193Y-67155836D01*
X72654920Y-66950000D01*
X72675193Y-66744164D01*
X72735233Y-66546238D01*
X72735233Y-66546237D01*
X72832733Y-66363828D01*
X72963946Y-66203946D01*
X73123828Y-66072733D01*
X73306237Y-65975233D01*
X73372213Y-65955220D01*
X73504164Y-65915193D01*
X73581293Y-65907596D01*
X73658420Y-65900000D01*
X73761580Y-65900000D01*
X73838707Y-65907596D01*
X73838707Y-65907596D01*
G37*
G36*
X76378707Y-65907596D02*
X76455836Y-65915193D01*
X76587787Y-65955220D01*
X76653763Y-65975233D01*
X76836172Y-66072733D01*
X76996054Y-66203946D01*
X77127267Y-66363828D01*
X77224767Y-66546237D01*
X77224767Y-66546238D01*
X77284807Y-66744164D01*
X77305080Y-66950000D01*
X77284807Y-67155836D01*
X77244780Y-67287787D01*
X77224767Y-67353763D01*
X77127267Y-67536172D01*
X76996054Y-67696054D01*
X76836172Y-67827267D01*
X76653763Y-67924767D01*
X76587787Y-67944780D01*
X76455836Y-67984807D01*
X76378707Y-67992403D01*
X76301580Y-68000000D01*
X76198420Y-68000000D01*
X76121293Y-67992403D01*
X76044164Y-67984807D01*
X75912213Y-67944780D01*
X75846237Y-67924767D01*
X75663828Y-67827267D01*
X75503946Y-67696054D01*
X75372733Y-67536172D01*
X75275233Y-67353763D01*
X75255220Y-67287787D01*
X75215193Y-67155836D01*
X75194920Y-66950000D01*
X75215193Y-66744164D01*
X75275233Y-66546238D01*
X75275233Y-66546237D01*
X75372733Y-66363828D01*
X75503946Y-66203946D01*
X75663828Y-66072733D01*
X75846237Y-65975233D01*
X75912213Y-65955220D01*
X76044164Y-65915193D01*
X76121293Y-65907596D01*
X76198420Y-65900000D01*
X76301580Y-65900000D01*
X76378707Y-65907596D01*
X76378707Y-65907596D01*
G37*
G36*
X66218707Y-65907596D02*
X66295836Y-65915193D01*
X66427787Y-65955220D01*
X66493763Y-65975233D01*
X66676172Y-66072733D01*
X66836054Y-66203946D01*
X66967267Y-66363828D01*
X67064767Y-66546237D01*
X67064767Y-66546238D01*
X67124807Y-66744164D01*
X67145080Y-66950000D01*
X67124807Y-67155836D01*
X67084780Y-67287787D01*
X67064767Y-67353763D01*
X66967267Y-67536172D01*
X66836054Y-67696054D01*
X66676172Y-67827267D01*
X66493763Y-67924767D01*
X66427787Y-67944780D01*
X66295836Y-67984807D01*
X66218707Y-67992403D01*
X66141580Y-68000000D01*
X66038420Y-68000000D01*
X65961293Y-67992403D01*
X65884164Y-67984807D01*
X65752213Y-67944780D01*
X65686237Y-67924767D01*
X65503828Y-67827267D01*
X65343946Y-67696054D01*
X65212733Y-67536172D01*
X65115233Y-67353763D01*
X65095220Y-67287787D01*
X65055193Y-67155836D01*
X65034920Y-66950000D01*
X65055193Y-66744164D01*
X65115233Y-66546238D01*
X65115233Y-66546237D01*
X65212733Y-66363828D01*
X65343946Y-66203946D01*
X65503828Y-66072733D01*
X65686237Y-65975233D01*
X65752213Y-65955220D01*
X65884164Y-65915193D01*
X65961293Y-65907596D01*
X66038420Y-65900000D01*
X66141580Y-65900000D01*
X66218707Y-65907596D01*
X66218707Y-65907596D01*
G37*
G36*
X81458707Y-65907596D02*
X81535836Y-65915193D01*
X81667787Y-65955220D01*
X81733763Y-65975233D01*
X81916172Y-66072733D01*
X82076054Y-66203946D01*
X82207267Y-66363828D01*
X82304767Y-66546237D01*
X82304767Y-66546238D01*
X82364807Y-66744164D01*
X82385080Y-66950000D01*
X82364807Y-67155836D01*
X82324780Y-67287787D01*
X82304767Y-67353763D01*
X82207267Y-67536172D01*
X82076054Y-67696054D01*
X81916172Y-67827267D01*
X81733763Y-67924767D01*
X81667787Y-67944780D01*
X81535836Y-67984807D01*
X81458707Y-67992403D01*
X81381580Y-68000000D01*
X81278420Y-68000000D01*
X81201293Y-67992403D01*
X81124164Y-67984807D01*
X80992213Y-67944780D01*
X80926237Y-67924767D01*
X80743828Y-67827267D01*
X80583946Y-67696054D01*
X80452733Y-67536172D01*
X80355233Y-67353763D01*
X80335220Y-67287787D01*
X80295193Y-67155836D01*
X80274920Y-66950000D01*
X80295193Y-66744164D01*
X80355233Y-66546238D01*
X80355233Y-66546237D01*
X80452733Y-66363828D01*
X80583946Y-66203946D01*
X80743828Y-66072733D01*
X80926237Y-65975233D01*
X80992213Y-65955220D01*
X81124164Y-65915193D01*
X81201293Y-65907596D01*
X81278420Y-65900000D01*
X81381580Y-65900000D01*
X81458707Y-65907596D01*
X81458707Y-65907596D01*
G37*
G36*
X78918707Y-65907596D02*
X78995836Y-65915193D01*
X79127787Y-65955220D01*
X79193763Y-65975233D01*
X79376172Y-66072733D01*
X79536054Y-66203946D01*
X79667267Y-66363828D01*
X79764767Y-66546237D01*
X79764767Y-66546238D01*
X79824807Y-66744164D01*
X79845080Y-66950000D01*
X79824807Y-67155836D01*
X79784780Y-67287787D01*
X79764767Y-67353763D01*
X79667267Y-67536172D01*
X79536054Y-67696054D01*
X79376172Y-67827267D01*
X79193763Y-67924767D01*
X79127787Y-67944780D01*
X78995836Y-67984807D01*
X78918707Y-67992403D01*
X78841580Y-68000000D01*
X78738420Y-68000000D01*
X78661293Y-67992403D01*
X78584164Y-67984807D01*
X78452213Y-67944780D01*
X78386237Y-67924767D01*
X78203828Y-67827267D01*
X78043946Y-67696054D01*
X77912733Y-67536172D01*
X77815233Y-67353763D01*
X77795220Y-67287787D01*
X77755193Y-67155836D01*
X77734920Y-66950000D01*
X77755193Y-66744164D01*
X77815233Y-66546238D01*
X77815233Y-66546237D01*
X77912733Y-66363828D01*
X78043946Y-66203946D01*
X78203828Y-66072733D01*
X78386237Y-65975233D01*
X78452213Y-65955220D01*
X78584164Y-65915193D01*
X78661293Y-65907596D01*
X78738420Y-65900000D01*
X78841580Y-65900000D01*
X78918707Y-65907596D01*
X78918707Y-65907596D01*
G37*
G36*
X52400000Y-63420000D02*
X50800000Y-63420000D01*
X50800000Y-61820000D01*
X52400000Y-61820000D01*
X52400000Y-63420000D01*
X52400000Y-63420000D01*
G37*
G36*
X55200000Y-63420000D02*
X53600000Y-63420000D01*
X53600000Y-61820000D01*
X55200000Y-61820000D01*
X55200000Y-63420000D01*
X55200000Y-63420000D01*
G37*
G36*
X79600000Y-62450000D02*
X77200000Y-62450000D01*
X77200000Y-57550000D01*
X79600000Y-57550000D01*
X79600000Y-62450000D01*
X79600000Y-62450000D01*
G37*
G36*
X74800000Y-62450000D02*
X72400000Y-62450000D01*
X72400000Y-57550000D01*
X74800000Y-57550000D01*
X74800000Y-62450000D01*
X74800000Y-62450000D01*
G37*
G36*
X54000000Y-60330000D02*
X52000000Y-60330000D01*
X52000000Y-58430000D01*
X54000000Y-58430000D01*
X54000000Y-60330000D01*
X54000000Y-60330000D01*
G37*
G36*
X65600000Y-59850000D02*
X63700000Y-59850000D01*
X63700000Y-58150000D01*
X65600000Y-58150000D01*
X65600000Y-59850000D01*
X65600000Y-59850000D01*
G37*
G36*
X68300000Y-59850000D02*
X66400000Y-59850000D01*
X66400000Y-58150000D01*
X68300000Y-58150000D01*
X68300000Y-59850000D01*
X68300000Y-59850000D01*
G37*
G36*
X91950026Y-56846115D02*
X92168412Y-56936573D01*
X92364958Y-57067901D01*
X92532099Y-57235042D01*
X92663427Y-57431588D01*
X92753885Y-57649974D01*
X92800000Y-57881809D01*
X92800000Y-58118191D01*
X92753885Y-58350026D01*
X92663427Y-58568412D01*
X92532099Y-58764958D01*
X92364958Y-58932099D01*
X92168412Y-59063427D01*
X91950026Y-59153885D01*
X91718191Y-59200000D01*
X91481809Y-59200000D01*
X91249974Y-59153885D01*
X91031588Y-59063427D01*
X90835042Y-58932099D01*
X90667901Y-58764958D01*
X90536573Y-58568412D01*
X90446115Y-58350026D01*
X90400000Y-58118191D01*
X90400000Y-57881809D01*
X90446115Y-57649974D01*
X90536573Y-57431588D01*
X90667901Y-57235042D01*
X90835042Y-57067901D01*
X91031588Y-56936573D01*
X91249974Y-56846115D01*
X91481809Y-56800000D01*
X91718191Y-56800000D01*
X91950026Y-56846115D01*
X91950026Y-56846115D01*
G37*
G36*
X85200000Y-59200000D02*
X82800000Y-59200000D01*
X82800000Y-56800000D01*
X85200000Y-56800000D01*
X85200000Y-59200000D01*
X85200000Y-59200000D01*
G37*
G36*
X65600000Y-57850000D02*
X63700000Y-57850000D01*
X63700000Y-56150000D01*
X65600000Y-56150000D01*
X65600000Y-57850000D01*
X65600000Y-57850000D01*
G37*
G36*
X68300000Y-57850000D02*
X66400000Y-57850000D01*
X66400000Y-56150000D01*
X68300000Y-56150000D01*
X68300000Y-57850000D01*
X68300000Y-57850000D01*
G37*
G36*
X57700000Y-54745943D02*
X57702402Y-54770329D01*
X57709515Y-54793778D01*
X57721066Y-54815389D01*
X57736612Y-54834331D01*
X57755554Y-54849877D01*
X57777165Y-54861428D01*
X57800614Y-54868541D01*
X57825000Y-54870943D01*
X57849386Y-54868541D01*
X57872835Y-54861428D01*
X57904297Y-54842570D01*
X57973176Y-54786042D01*
X58090439Y-54723364D01*
X58217677Y-54684767D01*
X58316841Y-54675000D01*
X58683159Y-54675000D01*
X58782323Y-54684767D01*
X58909561Y-54723364D01*
X59026824Y-54786042D01*
X59129606Y-54870394D01*
X59213958Y-54973176D01*
X59276636Y-55090439D01*
X59315233Y-55217677D01*
X59328266Y-55350000D01*
X59315233Y-55482323D01*
X59276636Y-55609561D01*
X59213958Y-55726824D01*
X59129606Y-55829606D01*
X59026824Y-55913958D01*
X58909561Y-55976636D01*
X58782323Y-56015233D01*
X58683159Y-56025000D01*
X58316841Y-56025000D01*
X58217677Y-56015233D01*
X58090439Y-55976636D01*
X57973176Y-55913958D01*
X57904296Y-55857429D01*
X57883924Y-55843817D01*
X57861285Y-55834439D01*
X57837252Y-55829659D01*
X57812748Y-55829659D01*
X57788714Y-55834440D01*
X57766075Y-55843817D01*
X57745701Y-55857431D01*
X57728374Y-55874758D01*
X57714760Y-55895133D01*
X57705382Y-55917772D01*
X57700000Y-55954057D01*
X57700000Y-56225000D01*
X54300000Y-56225000D01*
X54300000Y-55954057D01*
X54297598Y-55929671D01*
X54290485Y-55906222D01*
X54278934Y-55884611D01*
X54263388Y-55865669D01*
X54244446Y-55850123D01*
X54222835Y-55838572D01*
X54199386Y-55831459D01*
X54175000Y-55829057D01*
X54150614Y-55831459D01*
X54127165Y-55838572D01*
X54095703Y-55857430D01*
X54026824Y-55913958D01*
X53909561Y-55976636D01*
X53782323Y-56015233D01*
X53683159Y-56025000D01*
X53316841Y-56025000D01*
X53217677Y-56015233D01*
X53090439Y-55976636D01*
X52973176Y-55913958D01*
X52870394Y-55829606D01*
X52786042Y-55726824D01*
X52723364Y-55609561D01*
X52684767Y-55482323D01*
X52671734Y-55350000D01*
X52684767Y-55217677D01*
X52723364Y-55090439D01*
X52786042Y-54973176D01*
X52870394Y-54870394D01*
X52973176Y-54786042D01*
X53090439Y-54723364D01*
X53217677Y-54684767D01*
X53316841Y-54675000D01*
X53683159Y-54675000D01*
X53782323Y-54684767D01*
X53909561Y-54723364D01*
X54026824Y-54786042D01*
X54095704Y-54842571D01*
X54116076Y-54856183D01*
X54138715Y-54865561D01*
X54162748Y-54870341D01*
X54187252Y-54870341D01*
X54211286Y-54865560D01*
X54233925Y-54856183D01*
X54254299Y-54842569D01*
X54271626Y-54825242D01*
X54285240Y-54804867D01*
X54294618Y-54782228D01*
X54300000Y-54745943D01*
X54300000Y-54475000D01*
X57700000Y-54475000D01*
X57700000Y-54745943D01*
X57700000Y-54745943D01*
G37*
G36*
X81600000Y-56200000D02*
X79900000Y-56200000D01*
X79900000Y-54300000D01*
X81600000Y-54300000D01*
X81600000Y-56200000D01*
X81600000Y-56200000D01*
G37*
G36*
X78208707Y-53957596D02*
X78285836Y-53965193D01*
X78417787Y-54005220D01*
X78483763Y-54025233D01*
X78666172Y-54122733D01*
X78826054Y-54253946D01*
X78957267Y-54413828D01*
X79054767Y-54596237D01*
X79054767Y-54596238D01*
X79114807Y-54794164D01*
X79135080Y-55000000D01*
X79114807Y-55205836D01*
X79074780Y-55337787D01*
X79054767Y-55403763D01*
X78957267Y-55586172D01*
X78826054Y-55746054D01*
X78666172Y-55877267D01*
X78483763Y-55974767D01*
X78417787Y-55994780D01*
X78285836Y-56034807D01*
X78208707Y-56042404D01*
X78131580Y-56050000D01*
X78028420Y-56050000D01*
X77951293Y-56042404D01*
X77874164Y-56034807D01*
X77742213Y-55994780D01*
X77676237Y-55974767D01*
X77493828Y-55877267D01*
X77333946Y-55746054D01*
X77202733Y-55586172D01*
X77105233Y-55403763D01*
X77085220Y-55337787D01*
X77045193Y-55205836D01*
X77024920Y-55000000D01*
X77045193Y-54794164D01*
X77105233Y-54596238D01*
X77105233Y-54596237D01*
X77202733Y-54413828D01*
X77333946Y-54253946D01*
X77493828Y-54122733D01*
X77676237Y-54025233D01*
X77742213Y-54005220D01*
X77874164Y-53965193D01*
X77951293Y-53957596D01*
X78028420Y-53950000D01*
X78131580Y-53950000D01*
X78208707Y-53957596D01*
X78208707Y-53957596D01*
G37*
G36*
X74050000Y-56050000D02*
X71950000Y-56050000D01*
X71950000Y-53950000D01*
X74050000Y-53950000D01*
X74050000Y-56050000D01*
X74050000Y-56050000D01*
G37*
G36*
X75668707Y-53957596D02*
X75745836Y-53965193D01*
X75877787Y-54005220D01*
X75943763Y-54025233D01*
X76126172Y-54122733D01*
X76286054Y-54253946D01*
X76417267Y-54413828D01*
X76514767Y-54596237D01*
X76514767Y-54596238D01*
X76574807Y-54794164D01*
X76595080Y-55000000D01*
X76574807Y-55205836D01*
X76534780Y-55337787D01*
X76514767Y-55403763D01*
X76417267Y-55586172D01*
X76286054Y-55746054D01*
X76126172Y-55877267D01*
X75943763Y-55974767D01*
X75877787Y-55994780D01*
X75745836Y-56034807D01*
X75668707Y-56042404D01*
X75591580Y-56050000D01*
X75488420Y-56050000D01*
X75411293Y-56042404D01*
X75334164Y-56034807D01*
X75202213Y-55994780D01*
X75136237Y-55974767D01*
X74953828Y-55877267D01*
X74793946Y-55746054D01*
X74662733Y-55586172D01*
X74565233Y-55403763D01*
X74545220Y-55337787D01*
X74505193Y-55205836D01*
X74484920Y-55000000D01*
X74505193Y-54794164D01*
X74565233Y-54596238D01*
X74565233Y-54596237D01*
X74662733Y-54413828D01*
X74793946Y-54253946D01*
X74953828Y-54122733D01*
X75136237Y-54025233D01*
X75202213Y-54005220D01*
X75334164Y-53965193D01*
X75411293Y-53957596D01*
X75488420Y-53950000D01*
X75591580Y-53950000D01*
X75668707Y-53957596D01*
X75668707Y-53957596D01*
G37*
G36*
X68300000Y-54850000D02*
X66400000Y-54850000D01*
X66400000Y-53150000D01*
X68300000Y-53150000D01*
X68300000Y-54850000D01*
X68300000Y-54850000D01*
G37*
G36*
X65600000Y-54850000D02*
X63700000Y-54850000D01*
X63700000Y-53150000D01*
X65600000Y-53150000D01*
X65600000Y-54850000D01*
X65600000Y-54850000D01*
G37*
G36*
X52637224Y-51685128D02*
X52769175Y-51725155D01*
X52890781Y-51790155D01*
X52997370Y-51877630D01*
X53084845Y-51984219D01*
X53149845Y-52105825D01*
X53189872Y-52237776D01*
X53200000Y-52340610D01*
X53200000Y-52959390D01*
X53189872Y-53062224D01*
X53149845Y-53194175D01*
X53084845Y-53315781D01*
X52997369Y-53422370D01*
X52890780Y-53509845D01*
X52769174Y-53574845D01*
X52637223Y-53614872D01*
X52500000Y-53628387D01*
X52362776Y-53614872D01*
X52230825Y-53574845D01*
X52109219Y-53509845D01*
X52002630Y-53422369D01*
X51915155Y-53315780D01*
X51850155Y-53194174D01*
X51810128Y-53062223D01*
X51800000Y-52959389D01*
X51800000Y-52340610D01*
X51810128Y-52237776D01*
X51850155Y-52105825D01*
X51915155Y-51984219D01*
X52002631Y-51877630D01*
X52109220Y-51790155D01*
X52230826Y-51725155D01*
X52362777Y-51685128D01*
X52500000Y-51671613D01*
X52637224Y-51685128D01*
X52637224Y-51685128D01*
G37*
G36*
X59637224Y-51685128D02*
X59769175Y-51725155D01*
X59890781Y-51790155D01*
X59997370Y-51877630D01*
X60084845Y-51984219D01*
X60149845Y-52105825D01*
X60189872Y-52237776D01*
X60200000Y-52340610D01*
X60200000Y-52959390D01*
X60189872Y-53062224D01*
X60149845Y-53194175D01*
X60084845Y-53315781D01*
X59997369Y-53422370D01*
X59890780Y-53509845D01*
X59769174Y-53574845D01*
X59637223Y-53614872D01*
X59500000Y-53628387D01*
X59362776Y-53614872D01*
X59230825Y-53574845D01*
X59109219Y-53509845D01*
X59002630Y-53422369D01*
X58915155Y-53315780D01*
X58850155Y-53194174D01*
X58810128Y-53062223D01*
X58800000Y-52959389D01*
X58800000Y-52340610D01*
X58810128Y-52237776D01*
X58850155Y-52105825D01*
X58915155Y-51984219D01*
X59002631Y-51877630D01*
X59109220Y-51790155D01*
X59230826Y-51725155D01*
X59362777Y-51685128D01*
X59500000Y-51671613D01*
X59637224Y-51685128D01*
X59637224Y-51685128D01*
G37*
G36*
X75668707Y-51417596D02*
X75745836Y-51425193D01*
X75877787Y-51465220D01*
X75943763Y-51485233D01*
X76126172Y-51582733D01*
X76286054Y-51713946D01*
X76417267Y-51873828D01*
X76514767Y-52056237D01*
X76514767Y-52056238D01*
X76574807Y-52254164D01*
X76595080Y-52460000D01*
X76574807Y-52665836D01*
X76534780Y-52797787D01*
X76514767Y-52863763D01*
X76417267Y-53046172D01*
X76286054Y-53206054D01*
X76126172Y-53337267D01*
X75943763Y-53434767D01*
X75877787Y-53454780D01*
X75745836Y-53494807D01*
X75693110Y-53500000D01*
X75591580Y-53510000D01*
X75488420Y-53510000D01*
X75386890Y-53500000D01*
X75334164Y-53494807D01*
X75202213Y-53454780D01*
X75136237Y-53434767D01*
X74953828Y-53337267D01*
X74793946Y-53206054D01*
X74662733Y-53046172D01*
X74565233Y-52863763D01*
X74545220Y-52797787D01*
X74505193Y-52665836D01*
X74484920Y-52460000D01*
X74505193Y-52254164D01*
X74565233Y-52056238D01*
X74565233Y-52056237D01*
X74662733Y-51873828D01*
X74793946Y-51713946D01*
X74953828Y-51582733D01*
X75136237Y-51485233D01*
X75202213Y-51465220D01*
X75334164Y-51425193D01*
X75411293Y-51417597D01*
X75488420Y-51410000D01*
X75591580Y-51410000D01*
X75668707Y-51417596D01*
X75668707Y-51417596D01*
G37*
G36*
X78208707Y-51417596D02*
X78285836Y-51425193D01*
X78417787Y-51465220D01*
X78483763Y-51485233D01*
X78666172Y-51582733D01*
X78826054Y-51713946D01*
X78957267Y-51873828D01*
X79054767Y-52056237D01*
X79054767Y-52056238D01*
X79114807Y-52254164D01*
X79135080Y-52460000D01*
X79114807Y-52665836D01*
X79074780Y-52797787D01*
X79054767Y-52863763D01*
X78957267Y-53046172D01*
X78826054Y-53206054D01*
X78666172Y-53337267D01*
X78483763Y-53434767D01*
X78417787Y-53454780D01*
X78285836Y-53494807D01*
X78233110Y-53500000D01*
X78131580Y-53510000D01*
X78028420Y-53510000D01*
X77926890Y-53500000D01*
X77874164Y-53494807D01*
X77742213Y-53454780D01*
X77676237Y-53434767D01*
X77493828Y-53337267D01*
X77333946Y-53206054D01*
X77202733Y-53046172D01*
X77105233Y-52863763D01*
X77085220Y-52797787D01*
X77045193Y-52665836D01*
X77024920Y-52460000D01*
X77045193Y-52254164D01*
X77105233Y-52056238D01*
X77105233Y-52056237D01*
X77202733Y-51873828D01*
X77333946Y-51713946D01*
X77493828Y-51582733D01*
X77676237Y-51485233D01*
X77742213Y-51465220D01*
X77874164Y-51425193D01*
X77951293Y-51417597D01*
X78028420Y-51410000D01*
X78131580Y-51410000D01*
X78208707Y-51417596D01*
X78208707Y-51417596D01*
G37*
G36*
X73128707Y-51417596D02*
X73205836Y-51425193D01*
X73337787Y-51465220D01*
X73403763Y-51485233D01*
X73586172Y-51582733D01*
X73746054Y-51713946D01*
X73877267Y-51873828D01*
X73974767Y-52056237D01*
X73974767Y-52056238D01*
X74034807Y-52254164D01*
X74055080Y-52460000D01*
X74034807Y-52665836D01*
X73994780Y-52797787D01*
X73974767Y-52863763D01*
X73877267Y-53046172D01*
X73746054Y-53206054D01*
X73586172Y-53337267D01*
X73403763Y-53434767D01*
X73337787Y-53454780D01*
X73205836Y-53494807D01*
X73153110Y-53500000D01*
X73051580Y-53510000D01*
X72948420Y-53510000D01*
X72846890Y-53500000D01*
X72794164Y-53494807D01*
X72662213Y-53454780D01*
X72596237Y-53434767D01*
X72413828Y-53337267D01*
X72253946Y-53206054D01*
X72122733Y-53046172D01*
X72025233Y-52863763D01*
X72005220Y-52797787D01*
X71965193Y-52665836D01*
X71944920Y-52460000D01*
X71965193Y-52254164D01*
X72025233Y-52056238D01*
X72025233Y-52056237D01*
X72122733Y-51873828D01*
X72253946Y-51713946D01*
X72413828Y-51582733D01*
X72596237Y-51485233D01*
X72662213Y-51465220D01*
X72794164Y-51425193D01*
X72871293Y-51417597D01*
X72948420Y-51410000D01*
X73051580Y-51410000D01*
X73128707Y-51417596D01*
X73128707Y-51417596D01*
G37*
G36*
X81600000Y-53500000D02*
X79900000Y-53500000D01*
X79900000Y-51600000D01*
X81600000Y-51600000D01*
X81600000Y-53500000D01*
X81600000Y-53500000D01*
G37*
G36*
X68300000Y-52850000D02*
X66400000Y-52850000D01*
X66400000Y-51150000D01*
X68300000Y-51150000D01*
X68300000Y-52850000D01*
X68300000Y-52850000D01*
G37*
G36*
X65600000Y-52850000D02*
X63700000Y-52850000D01*
X63700000Y-51150000D01*
X65600000Y-51150000D01*
X65600000Y-52850000D01*
X65600000Y-52850000D01*
G37*
M02*
